G04 #@! TF.FileFunction,Copper,L1,Top,Signal*
%FSLAX46Y46*%
G04 Gerber Fmt 4.6, Leading zero omitted, Abs format (unit mm)*
G04 Created by KiCad (PCBNEW 4.0.7) date 02/17/18 23:48:35*
%MOMM*%
%LPD*%
G01*
G04 APERTURE LIST*
%ADD10C,0.100000*%
%ADD11R,3.500120X10.408920*%
%ADD12R,7.010400X1.099820*%
%ADD13R,1.250000X0.950000*%
%ADD14O,1.250000X0.950000*%
%ADD15R,0.750000X1.200000*%
%ADD16R,1.700000X1.700000*%
%ADD17O,1.700000X1.700000*%
%ADD18R,4.350000X4.510000*%
%ADD19R,0.700000X0.700000*%
%ADD20R,0.900000X1.200000*%
%ADD21R,1.200000X0.900000*%
%ADD22R,0.600000X0.400000*%
%ADD23R,0.400000X0.600000*%
%ADD24R,1.365000X1.365000*%
%ADD25R,0.700000X0.400000*%
%ADD26R,1.397000X0.431800*%
%ADD27R,1.549400X0.599440*%
%ADD28R,1.300000X1.550000*%
%ADD29R,0.599440X1.549400*%
%ADD30R,1.800000X1.200000*%
%ADD31R,0.279400X0.848360*%
%ADD32R,0.848360X0.279400*%
%ADD33R,1.724660X1.724660*%
%ADD34R,1.200000X0.750000*%
%ADD35R,1.550000X0.600000*%
%ADD36C,6.400000*%
%ADD37C,0.600000*%
%ADD38C,0.250000*%
G04 APERTURE END LIST*
D10*
D11*
X172819060Y-127000000D03*
D12*
X183509920Y-129540000D03*
X183509920Y-124460000D03*
D13*
X106350000Y-79130000D03*
D14*
X106350000Y-77880000D03*
X106350000Y-76630000D03*
X106350000Y-75380000D03*
X106350000Y-74130000D03*
D11*
X123090940Y-101600000D03*
D12*
X112400080Y-99060000D03*
X112400080Y-104140000D03*
D11*
X123090940Y-88900000D03*
D12*
X112400080Y-86360000D03*
X112400080Y-91440000D03*
D15*
X157150000Y-96040000D03*
X157150000Y-97940000D03*
X141910000Y-95400000D03*
X141910000Y-93500000D03*
X154610000Y-95400000D03*
X154610000Y-93500000D03*
X141910000Y-102710000D03*
X141910000Y-104610000D03*
X150800000Y-103970000D03*
X150800000Y-102070000D03*
X133020000Y-81120000D03*
X133020000Y-83020000D03*
X134290000Y-87470000D03*
X134290000Y-89370000D03*
D11*
X123090940Y-63500000D03*
D12*
X112400080Y-60960000D03*
X112400080Y-66040000D03*
D11*
X123090940Y-76200000D03*
D12*
X112400080Y-73660000D03*
X112400080Y-78740000D03*
D11*
X123090940Y-114300000D03*
D12*
X112400080Y-111760000D03*
X112400080Y-116840000D03*
D11*
X123090940Y-127000000D03*
D12*
X112400080Y-124460000D03*
X112400080Y-129540000D03*
D11*
X172819060Y-63500000D03*
D12*
X183509920Y-66040000D03*
X183509920Y-60960000D03*
D11*
X172819060Y-76200000D03*
D12*
X183509920Y-78740000D03*
X183509920Y-73660000D03*
D11*
X172819060Y-88900000D03*
D12*
X183509920Y-91440000D03*
X183509920Y-86360000D03*
D11*
X172819060Y-101600000D03*
D12*
X183509920Y-104140000D03*
X183509920Y-99060000D03*
D11*
X172819060Y-114300000D03*
D12*
X183509920Y-116840000D03*
X183509920Y-111760000D03*
D16*
X158420000Y-56350000D03*
D17*
X158420000Y-53810000D03*
X160960000Y-56350000D03*
X160960000Y-53810000D03*
X163500000Y-56350000D03*
X163500000Y-53810000D03*
D18*
X130480000Y-76495000D03*
D19*
X133610000Y-75860000D03*
X133610000Y-77130000D03*
X133610000Y-78400000D03*
X133610000Y-74590000D03*
X128010000Y-74590000D03*
X128010000Y-78400000D03*
X128010000Y-77130000D03*
X128010000Y-75860000D03*
D18*
X130480000Y-121295000D03*
D19*
X133610000Y-120660000D03*
X133610000Y-121930000D03*
X133610000Y-123200000D03*
X133610000Y-119390000D03*
X128010000Y-119390000D03*
X128010000Y-123200000D03*
X128010000Y-121930000D03*
X128010000Y-120660000D03*
D18*
X165257500Y-76495000D03*
D19*
X162127500Y-77130000D03*
X162127500Y-75860000D03*
X162127500Y-74590000D03*
X162127500Y-78400000D03*
X167727500Y-78400000D03*
X167727500Y-74590000D03*
X167727500Y-75860000D03*
X167727500Y-77130000D03*
D18*
X165430000Y-114770000D03*
D19*
X162300000Y-115405000D03*
X162300000Y-114135000D03*
X162300000Y-112865000D03*
X162300000Y-116675000D03*
X167900000Y-116675000D03*
X167900000Y-112865000D03*
X167900000Y-114135000D03*
X167900000Y-115405000D03*
D20*
X135560000Y-79550000D03*
X135560000Y-81750000D03*
D21*
X138440000Y-75400000D03*
X140640000Y-75400000D03*
D20*
X144450000Y-85560000D03*
X144450000Y-87760000D03*
D22*
X144650000Y-92725000D03*
X144650000Y-93375000D03*
X144650000Y-94025000D03*
X144650000Y-94675000D03*
X144650000Y-95325000D03*
X144650000Y-95975000D03*
X144650000Y-96625000D03*
X144650000Y-97275000D03*
D23*
X145725000Y-98350000D03*
X146375000Y-98350000D03*
X147025000Y-98350000D03*
X147675000Y-98350000D03*
X148325000Y-98350000D03*
X148975000Y-98350000D03*
X149625000Y-98350000D03*
X150275000Y-98350000D03*
D22*
X151350000Y-97275000D03*
X151350000Y-96625000D03*
X151350000Y-95975000D03*
X151350000Y-95325000D03*
X151350000Y-94675000D03*
X151350000Y-94025000D03*
X151350000Y-93375000D03*
X151350000Y-92725000D03*
D23*
X150275000Y-91650000D03*
X149625000Y-91650000D03*
X148975000Y-91650000D03*
X148325000Y-91650000D03*
X147675000Y-91650000D03*
X147025000Y-91650000D03*
X146375000Y-91650000D03*
X145725000Y-91650000D03*
D24*
X150047500Y-97047500D03*
X150047500Y-95682500D03*
X150047500Y-94317500D03*
X150047500Y-92952500D03*
X148682500Y-97047500D03*
X148682500Y-95682500D03*
X148682500Y-94317500D03*
X148682500Y-92952500D03*
X147317500Y-97047500D03*
X147317500Y-95682500D03*
X147317500Y-94317500D03*
X147317500Y-92952500D03*
X145952500Y-97047500D03*
X145952500Y-95682500D03*
X145952500Y-94317500D03*
X145952500Y-92952500D03*
D25*
X131760000Y-91910000D03*
X131760000Y-91260000D03*
X131760000Y-90610000D03*
X129860000Y-90610000D03*
X129860000Y-91910000D03*
X129860000Y-91260000D03*
X131760000Y-98880000D03*
X131760000Y-98230000D03*
X131760000Y-97580000D03*
X129860000Y-97580000D03*
X129860000Y-98880000D03*
X129860000Y-98230000D03*
X165410000Y-90640000D03*
X165410000Y-91290000D03*
X165410000Y-91940000D03*
X167310000Y-91940000D03*
X167310000Y-90640000D03*
X167310000Y-91290000D03*
X165410000Y-98260000D03*
X165410000Y-98910000D03*
X165410000Y-99560000D03*
X167310000Y-99560000D03*
X167310000Y-98260000D03*
X167310000Y-98910000D03*
D26*
X144656269Y-108164527D03*
X144656269Y-108799527D03*
X144656269Y-109459927D03*
X144656269Y-110094927D03*
X144656269Y-110755327D03*
X144656269Y-111403027D03*
X144656269Y-112050727D03*
X150244269Y-112050727D03*
X150244269Y-111403027D03*
X150244269Y-110755327D03*
X150244269Y-110094927D03*
X150244269Y-109447227D03*
X150244269Y-108799527D03*
X150244269Y-108151827D03*
X144656269Y-113487300D03*
X144656269Y-114122300D03*
X144656269Y-114782700D03*
X144656269Y-115417700D03*
X144656269Y-116078100D03*
X144656269Y-116725800D03*
X144656269Y-117373500D03*
X150244269Y-117373500D03*
X150244269Y-116725800D03*
X150244269Y-116078100D03*
X150244269Y-115417700D03*
X150244269Y-114770000D03*
X150244269Y-114122300D03*
X150244269Y-113474600D03*
D27*
X136672520Y-87467540D03*
X136672520Y-88737540D03*
X136672520Y-90002460D03*
X136672520Y-91272460D03*
X142067480Y-91272460D03*
X142067480Y-90002460D03*
X142067480Y-88737540D03*
X142067480Y-87467540D03*
D16*
X142920000Y-56350000D03*
D17*
X142920000Y-53810000D03*
X145460000Y-56350000D03*
X145460000Y-53810000D03*
X148000000Y-56350000D03*
X148000000Y-53810000D03*
X150540000Y-56350000D03*
X150540000Y-53810000D03*
X153080000Y-56350000D03*
X153080000Y-53810000D03*
D20*
X126670000Y-92840000D03*
X126670000Y-90640000D03*
X126670000Y-100460000D03*
X126670000Y-98260000D03*
X169850000Y-89370000D03*
X169850000Y-91570000D03*
X169850000Y-98600000D03*
X169850000Y-100800000D03*
D13*
X106350000Y-117310000D03*
D14*
X106350000Y-116060000D03*
X106350000Y-114810000D03*
X106350000Y-113560000D03*
X106350000Y-112310000D03*
D13*
X188900000Y-74130000D03*
D14*
X188900000Y-75380000D03*
X188900000Y-76630000D03*
X188900000Y-77880000D03*
X188900000Y-79130000D03*
D13*
X188900000Y-112230000D03*
D14*
X188900000Y-113480000D03*
X188900000Y-114730000D03*
X188900000Y-115980000D03*
X188900000Y-117230000D03*
D28*
X146990000Y-86935800D03*
X146990000Y-78985800D03*
X151490000Y-86935800D03*
X151490000Y-78985800D03*
D29*
X137467540Y-84604960D03*
X138737540Y-84604960D03*
X140002460Y-84604960D03*
X141272460Y-84604960D03*
X141272460Y-79210000D03*
X140002460Y-79210000D03*
X138737540Y-79210000D03*
X137467540Y-79210000D03*
D30*
X144260000Y-104470000D03*
X148260000Y-104470000D03*
X148260000Y-102070000D03*
X144260000Y-102070000D03*
D31*
X146149260Y-129535020D03*
X146649640Y-129535020D03*
X147150020Y-129535020D03*
X147647860Y-129535020D03*
X149146460Y-129535020D03*
D32*
X149872900Y-128808580D03*
X149872900Y-128310740D03*
X149872900Y-127810360D03*
X149872900Y-127309980D03*
X149872900Y-126812140D03*
X149872900Y-126311760D03*
D31*
X145651420Y-129535020D03*
D33*
X148260000Y-127922120D03*
X146537880Y-127922120D03*
X146537880Y-126200000D03*
X148260000Y-126200000D03*
D32*
X149872900Y-125811380D03*
X149872900Y-125313540D03*
D31*
X149146460Y-124587100D03*
X148648620Y-124587100D03*
X148148240Y-124587100D03*
X147647860Y-124587100D03*
X147150020Y-124587100D03*
X146649640Y-124587100D03*
X146149260Y-124587100D03*
X145651420Y-124587100D03*
D32*
X144924980Y-125313540D03*
X144924980Y-125811380D03*
X144924980Y-126311760D03*
X144924980Y-126812140D03*
D31*
X148148240Y-129535020D03*
X148648620Y-129535020D03*
D32*
X144924980Y-127309980D03*
X144924980Y-127810360D03*
X144924980Y-128310740D03*
X144924980Y-128808580D03*
X130546040Y-105900320D03*
X130546040Y-106400700D03*
X130546040Y-106901080D03*
X130546040Y-107398920D03*
X130546040Y-108897520D03*
D31*
X131272480Y-109623960D03*
X131770320Y-109623960D03*
X132270700Y-109623960D03*
X132771080Y-109623960D03*
X133268920Y-109623960D03*
X133769300Y-109623960D03*
D32*
X130546040Y-105402480D03*
D33*
X132158940Y-108011060D03*
X132158940Y-106288940D03*
X133881060Y-106288940D03*
X133881060Y-108011060D03*
D31*
X134269680Y-109623960D03*
X134767520Y-109623960D03*
D32*
X135493960Y-108897520D03*
X135493960Y-108399680D03*
X135493960Y-107899300D03*
X135493960Y-107398920D03*
X135493960Y-106901080D03*
X135493960Y-106400700D03*
X135493960Y-105900320D03*
X135493960Y-105402480D03*
D31*
X134767520Y-104676040D03*
X134269680Y-104676040D03*
X133769300Y-104676040D03*
X133268920Y-104676040D03*
D32*
X130546040Y-107899300D03*
X130546040Y-108399680D03*
D31*
X132771080Y-104676040D03*
X132270700Y-104676040D03*
X131770320Y-104676040D03*
X131272480Y-104676040D03*
D21*
X147480000Y-76190000D03*
X149680000Y-76190000D03*
D20*
X138410000Y-124950000D03*
X138410000Y-122750000D03*
X144980000Y-119360000D03*
X144980000Y-121560000D03*
D13*
X106350000Y-86810000D03*
D14*
X106350000Y-85560000D03*
D13*
X106350000Y-93180000D03*
D14*
X106350000Y-91930000D03*
D13*
X106350000Y-100800000D03*
D14*
X106350000Y-99550000D03*
D13*
X106350000Y-107130000D03*
D14*
X106350000Y-105880000D03*
D16*
X130480000Y-56350000D03*
D17*
X130480000Y-53810000D03*
X133020000Y-56350000D03*
X133020000Y-53810000D03*
X135560000Y-56350000D03*
X135560000Y-53810000D03*
X138100000Y-56350000D03*
X138100000Y-53810000D03*
D13*
X106350000Y-69880000D03*
D14*
X106350000Y-68630000D03*
X106350000Y-67380000D03*
X106350000Y-66130000D03*
D13*
X106350000Y-125310000D03*
D14*
X106350000Y-124060000D03*
X106350000Y-122810000D03*
X106350000Y-121560000D03*
D34*
X130140000Y-125980000D03*
X132040000Y-125980000D03*
X129890000Y-136940000D03*
X131790000Y-136940000D03*
D15*
X145340000Y-136190000D03*
X145340000Y-134290000D03*
X137170000Y-128690000D03*
X137170000Y-130590000D03*
D35*
X128220000Y-128640000D03*
X128220000Y-129910000D03*
X128220000Y-131180000D03*
X128220000Y-132450000D03*
X133620000Y-132450000D03*
X133620000Y-131180000D03*
X133620000Y-129910000D03*
X133620000Y-128640000D03*
X142570000Y-137750000D03*
X142570000Y-136480000D03*
X142570000Y-135210000D03*
X142570000Y-133940000D03*
X137170000Y-133940000D03*
X137170000Y-135210000D03*
X137170000Y-136480000D03*
X137170000Y-137750000D03*
D36*
X105190000Y-131110000D03*
X105190000Y-57450000D03*
X190920000Y-134920000D03*
X190920000Y-54910000D03*
D37*
X151810000Y-106330000D03*
X140790000Y-100730000D03*
X144280000Y-132950000D03*
X126670000Y-135210000D03*
X112410000Y-56470000D03*
X127940000Y-52540000D03*
X128094442Y-57465558D03*
X107620000Y-95720000D03*
X142430000Y-126510000D03*
X164440000Y-100520000D03*
X160560000Y-116080000D03*
X151510000Y-76710000D03*
X148230000Y-115420000D03*
X148620000Y-110110000D03*
X148150000Y-122740000D03*
X148260000Y-131280000D03*
X117780000Y-62700000D03*
X152070000Y-55080000D03*
X106350000Y-71590000D03*
X106350000Y-81750000D03*
X136830000Y-91910000D03*
X133020000Y-88100000D03*
X140015000Y-94270303D03*
X133020000Y-99530000D03*
X134290000Y-102070000D03*
X117780000Y-99530000D03*
X135560000Y-123660000D03*
X131750000Y-80480000D03*
X136830000Y-107150000D03*
X129210000Y-107150000D03*
X190170000Y-109690000D03*
X154610000Y-107150000D03*
X163500000Y-110960000D03*
X159690000Y-102070000D03*
X119050000Y-107150000D03*
X107620000Y-103340000D03*
X183820000Y-102070000D03*
X158420000Y-95720000D03*
X153340000Y-88100000D03*
X162230000Y-91910000D03*
X116510000Y-90640000D03*
X102540000Y-90640000D03*
X115240000Y-94450000D03*
X101270000Y-100800000D03*
X102535015Y-94343002D03*
X188773063Y-72986937D03*
X188900000Y-74130000D03*
X190170000Y-112230000D03*
X188900000Y-118580000D03*
X188900000Y-117230000D03*
X188900000Y-117230000D03*
X106350000Y-112310000D03*
X188900000Y-117230000D03*
X188900000Y-112230000D03*
X188900000Y-79130000D03*
X188900000Y-74130000D03*
X131050000Y-103310000D03*
X128010000Y-126800000D03*
X162550000Y-98110000D03*
X160010000Y-98110000D03*
X142067480Y-78112520D03*
X145520000Y-76730000D03*
X138390000Y-126490000D03*
X146400000Y-120780000D03*
X143792140Y-126812140D03*
X117154999Y-64614999D03*
X112700000Y-98010088D03*
X136830000Y-93180000D03*
X134290000Y-94450000D03*
X136830000Y-90472738D03*
X133020000Y-103310000D03*
X135560000Y-96990000D03*
X131750000Y-96990000D03*
X119050000Y-105880000D03*
X101270000Y-105880000D03*
X101270000Y-103340000D03*
X135319448Y-85319448D03*
X139995000Y-85617910D03*
X148859441Y-121134443D03*
X137316597Y-106514999D03*
X150800000Y-121120000D03*
X143214299Y-90636140D03*
X143180000Y-85560000D03*
X144213867Y-57859982D03*
X152070000Y-60160000D03*
X144629512Y-84277959D03*
X148260000Y-99530000D03*
X145720000Y-58890000D03*
X149530000Y-58663222D03*
X143805000Y-84290000D03*
X129209458Y-111470541D03*
X117670000Y-60250000D03*
X118330000Y-58835000D03*
X133078151Y-110105405D03*
X127770000Y-102620000D03*
X149530000Y-99530000D03*
X139370000Y-88100000D03*
X139537262Y-79210000D03*
X140279338Y-76309338D03*
X140640000Y-96990000D03*
X140640000Y-88752739D03*
X129209999Y-103935000D03*
X131410000Y-101570000D03*
X125269999Y-107580000D03*
X125398223Y-110704260D03*
X134630000Y-116320000D03*
X136830000Y-99530000D03*
X135560000Y-102070000D03*
X138100000Y-96990000D03*
X138100000Y-93180000D03*
X136000000Y-104160000D03*
X137316597Y-105244999D03*
X137600000Y-107520000D03*
X134710000Y-112675727D03*
X136071640Y-102685000D03*
X138396941Y-101773059D03*
X143180000Y-98260000D03*
X143180000Y-94050000D03*
X139600000Y-107149999D03*
X142840000Y-118539401D03*
X136830000Y-104610000D03*
X140936941Y-104313059D03*
X139370000Y-102070000D03*
X136830000Y-94450000D03*
X141910000Y-114770000D03*
X140640000Y-109690000D03*
X129050000Y-93460000D03*
X128610000Y-99270000D03*
X128060000Y-93130000D03*
X133020000Y-57700003D03*
X169850000Y-93660000D03*
X168410000Y-89630000D03*
X110160000Y-64990088D03*
X107620000Y-88100000D03*
X183820000Y-93180000D03*
X159690000Y-93180000D03*
X140640000Y-110960000D03*
X140640000Y-114770000D03*
X156574999Y-113210001D03*
X153185000Y-113879670D03*
X152920000Y-112740000D03*
X157825000Y-111970000D03*
X155880000Y-110960000D03*
X194760000Y-97940000D03*
X145940000Y-117190000D03*
X142970000Y-109400000D03*
X145720000Y-90640000D03*
X145720000Y-88752739D03*
X139370000Y-113500000D03*
X139370000Y-110960000D03*
X138450000Y-121180000D03*
X148540000Y-108130000D03*
X136830000Y-105880000D03*
X144450000Y-105880000D03*
X129209999Y-109360001D03*
X122465940Y-108420000D03*
X117780000Y-102070000D03*
X130480000Y-109690000D03*
X130480000Y-114770000D03*
X130480000Y-116040000D03*
X135560000Y-110960000D03*
X135560000Y-113500000D03*
X136830000Y-113500000D03*
X136830000Y-110960000D03*
X138100000Y-110960000D03*
X138100000Y-113500000D03*
X134290000Y-79210000D03*
X132985000Y-79210000D03*
X152590000Y-93330000D03*
X153180000Y-96650000D03*
X154274560Y-98112976D03*
X152800000Y-99480000D03*
X151500000Y-124930000D03*
X146498058Y-112041942D03*
X131280000Y-59335000D03*
X131220000Y-60585000D03*
X171110000Y-107900000D03*
X157200000Y-109019999D03*
X164770000Y-103340000D03*
X160960000Y-103340000D03*
X160960000Y-102070000D03*
X192710000Y-102070000D03*
X172040000Y-120680000D03*
X163475000Y-108600000D03*
X160225000Y-111850000D03*
X160180000Y-115050000D03*
X112075000Y-71110000D03*
X153530000Y-126436380D03*
X146170000Y-109470000D03*
X152623534Y-126436380D03*
X146080000Y-110740000D03*
X153610000Y-127330000D03*
X151670000Y-110760000D03*
X154580784Y-127243100D03*
X151609852Y-109450148D03*
X107620000Y-83020000D03*
X110160000Y-57620000D03*
X106350000Y-105880000D03*
X143768557Y-92074282D03*
X130600000Y-129850000D03*
X129229999Y-115395000D03*
X127509989Y-108420000D03*
X129250000Y-108410000D03*
X135360000Y-131170000D03*
X129460000Y-104850000D03*
X146170000Y-131840000D03*
X144100000Y-131860000D03*
X143610000Y-129330000D03*
X142570000Y-130300000D03*
D38*
X138737540Y-84604960D02*
X138737540Y-84129980D01*
X136357560Y-81750000D02*
X136260000Y-81750000D01*
X138737540Y-84129980D02*
X136357560Y-81750000D01*
X136260000Y-81750000D02*
X135560000Y-81750000D01*
X150800000Y-103970000D02*
X150800000Y-105320000D01*
X150800000Y-105320000D02*
X151810000Y-106330000D01*
X141910000Y-102710000D02*
X141910000Y-101850000D01*
X141910000Y-101850000D02*
X140790000Y-100730000D01*
X134290000Y-102070000D02*
X133334998Y-102070000D01*
X132270700Y-103269300D02*
X132270700Y-104676040D01*
X133334998Y-102070000D02*
X132270700Y-103134298D01*
X132270700Y-103134298D02*
X132270700Y-103269300D01*
X142570000Y-133940000D02*
X143290000Y-133940000D01*
X143290000Y-133940000D02*
X144280000Y-132950000D01*
X142570000Y-133940000D02*
X144990000Y-133940000D01*
X144990000Y-133940000D02*
X145340000Y-134290000D01*
X137170000Y-128690000D02*
X137170000Y-125270000D01*
X137170000Y-125270000D02*
X135560000Y-123660000D01*
X133610000Y-123200000D02*
X133610000Y-124635000D01*
X133610000Y-124635000D02*
X132265000Y-125980000D01*
X132265000Y-125980000D02*
X132040000Y-125980000D01*
X129890000Y-136940000D02*
X129890000Y-136315000D01*
X129890000Y-136315000D02*
X128220000Y-134645000D01*
X128220000Y-134645000D02*
X128220000Y-133660000D01*
X128220000Y-132450000D02*
X128220000Y-133660000D01*
X128220000Y-133660000D02*
X126670000Y-135210000D01*
X163500000Y-53810000D02*
X161424980Y-51734980D01*
X161424980Y-51734980D02*
X132555020Y-51734980D01*
X132555020Y-51734980D02*
X131329999Y-52960001D01*
X131329999Y-52960001D02*
X130480000Y-53810000D01*
X163500000Y-53810000D02*
X163500000Y-53980000D01*
X130480000Y-53810000D02*
X129210000Y-53810000D01*
X129210000Y-53810000D02*
X127940000Y-52540000D01*
X130480000Y-56350000D02*
X129210000Y-56350000D01*
X129210000Y-56350000D02*
X128094442Y-57465558D01*
X106350000Y-99550000D02*
X106350000Y-96990000D01*
X106350000Y-96990000D02*
X107620000Y-95720000D01*
X143167139Y-126512139D02*
X142432139Y-126512139D01*
X142432139Y-126512139D02*
X142430000Y-126510000D01*
X144109040Y-126170000D02*
X143509278Y-126170000D01*
X143509278Y-126170000D02*
X143167139Y-126512139D01*
X143167139Y-126512139D02*
X143167139Y-127187139D01*
X143167139Y-127187139D02*
X143826039Y-127846039D01*
X143826039Y-127846039D02*
X144889301Y-127846039D01*
X144889301Y-127846039D02*
X144924980Y-127810360D01*
X165410000Y-98910000D02*
X164810000Y-98910000D01*
X164810000Y-98910000D02*
X164440000Y-99280000D01*
X164440000Y-99280000D02*
X164440000Y-100520000D01*
X162300000Y-115405000D02*
X161235000Y-115405000D01*
X161235000Y-115405000D02*
X160560000Y-116080000D01*
X162300000Y-114135000D02*
X162300000Y-115405000D01*
X162300000Y-112865000D02*
X162300000Y-114135000D01*
X162127500Y-77130000D02*
X151930000Y-77130000D01*
X151930000Y-77130000D02*
X151510000Y-76710000D01*
X162127500Y-75860000D02*
X162127500Y-77130000D01*
X162127500Y-74590000D02*
X162127500Y-75860000D01*
X151490000Y-78985800D02*
X151490000Y-76730000D01*
X151490000Y-76730000D02*
X151510000Y-76710000D01*
X150244269Y-115417700D02*
X148232300Y-115417700D01*
X148232300Y-115417700D02*
X148230000Y-115420000D01*
X150244269Y-110094927D02*
X148635073Y-110094927D01*
X148635073Y-110094927D02*
X148620000Y-110110000D01*
X148148240Y-124587100D02*
X147647860Y-124587100D01*
X148148240Y-124587100D02*
X148148240Y-122741760D01*
X148148240Y-122741760D02*
X148150000Y-122740000D01*
X144250800Y-126311760D02*
X144924980Y-126311760D01*
X144109040Y-126170000D02*
X144250800Y-126311760D01*
X147647860Y-129535020D02*
X147647860Y-130667860D01*
X147647860Y-130667860D02*
X148260000Y-131280000D01*
X145651420Y-129535020D02*
X145651420Y-130209200D01*
X145651420Y-130209200D02*
X145726421Y-130284201D01*
X145726421Y-130284201D02*
X147075019Y-130284201D01*
X147075019Y-130284201D02*
X147150020Y-130209200D01*
X147150020Y-130209200D02*
X147150020Y-129535020D01*
X147647860Y-129535020D02*
X148148240Y-129535020D01*
X147150020Y-129535020D02*
X147647860Y-129535020D01*
X153080000Y-56350000D02*
X153080000Y-56090000D01*
X153080000Y-56090000D02*
X152070000Y-55080000D01*
X106350000Y-79130000D02*
X106350000Y-81750000D01*
X136672520Y-91272460D02*
X136672520Y-91752520D01*
X136672520Y-91752520D02*
X136830000Y-91910000D01*
X134290000Y-89370000D02*
X133020000Y-88100000D01*
X141910000Y-95400000D02*
X141144697Y-95400000D01*
X141144697Y-95400000D02*
X140015000Y-94270303D01*
X131760000Y-98230000D02*
X132360000Y-98230000D01*
X132360000Y-98230000D02*
X133020000Y-98890000D01*
X133020000Y-98890000D02*
X133020000Y-99530000D01*
X165410000Y-91290000D02*
X162850000Y-91290000D01*
X162850000Y-91290000D02*
X162230000Y-91910000D01*
X133769300Y-104676040D02*
X133769300Y-102590700D01*
X133769300Y-102590700D02*
X134290000Y-102070000D01*
X130546040Y-105402480D02*
X129871860Y-105402480D01*
X129210000Y-106725736D02*
X129210000Y-107150000D01*
X129871860Y-105402480D02*
X129210000Y-106064340D01*
X129210000Y-106064340D02*
X129210000Y-106725736D01*
X133610000Y-123200000D02*
X135100000Y-123200000D01*
X135100000Y-123200000D02*
X135560000Y-123660000D01*
X133610000Y-121930000D02*
X133610000Y-123200000D01*
X133610000Y-120660000D02*
X133610000Y-121930000D01*
X133020000Y-81120000D02*
X132390000Y-81120000D01*
X132390000Y-81120000D02*
X131750000Y-80480000D01*
X133610000Y-78400000D02*
X133610000Y-80530000D01*
X133610000Y-80530000D02*
X133020000Y-81120000D01*
X133610000Y-77130000D02*
X133610000Y-78400000D01*
X133610000Y-75860000D02*
X133610000Y-77130000D01*
X135493960Y-107899300D02*
X136080700Y-107899300D01*
X136080700Y-107899300D02*
X136830000Y-107150000D01*
X130546040Y-107398920D02*
X129458920Y-107398920D01*
X129458920Y-107398920D02*
X129210000Y-107150000D01*
X130546040Y-107398920D02*
X130546040Y-106901080D01*
X130546040Y-107899300D02*
X130546040Y-107398920D01*
X134290000Y-89370000D02*
X134290000Y-89595000D01*
X134290000Y-89595000D02*
X132625000Y-91260000D01*
X132625000Y-91260000D02*
X132360000Y-91260000D01*
X132360000Y-91260000D02*
X131760000Y-91260000D01*
X135560000Y-81750000D02*
X133650000Y-81750000D01*
X133650000Y-81750000D02*
X133020000Y-81120000D01*
X188900000Y-74130000D02*
X188900000Y-73113874D01*
X188900000Y-73113874D02*
X188773063Y-72986937D01*
X190170000Y-112230000D02*
X188900000Y-112230000D01*
X188900000Y-117230000D02*
X188900000Y-118580000D01*
X151490000Y-78985800D02*
X151490000Y-80010800D01*
X151490000Y-80010800D02*
X151490000Y-86935800D01*
X148260000Y-104470000D02*
X150300000Y-104470000D01*
X150300000Y-104470000D02*
X150800000Y-103970000D01*
X144260000Y-102070000D02*
X142550000Y-102070000D01*
X142550000Y-102070000D02*
X141910000Y-102710000D01*
X141910000Y-95400000D02*
X144575000Y-95400000D01*
X144575000Y-95400000D02*
X144650000Y-95325000D01*
X154610000Y-95400000D02*
X151425000Y-95400000D01*
X151425000Y-95400000D02*
X151350000Y-95325000D01*
X154610000Y-95400000D02*
X156510000Y-95400000D01*
X156510000Y-95400000D02*
X157150000Y-96040000D01*
X153080000Y-53810000D02*
X153080000Y-56350000D01*
X135493960Y-107398920D02*
X135493960Y-107899300D01*
X145340000Y-136190000D02*
X145340000Y-135965000D01*
X145340000Y-135965000D02*
X146040001Y-135264999D01*
X146040001Y-135264999D02*
X146040001Y-132730001D01*
X146040001Y-132730001D02*
X145895001Y-132585001D01*
X142570000Y-136480000D02*
X145050000Y-136480000D01*
X145050000Y-136480000D02*
X145340000Y-136190000D01*
X138410000Y-125100000D02*
X144290000Y-130980000D01*
X144290000Y-130980000D02*
X145895001Y-132585001D01*
X144924980Y-128808580D02*
X144924980Y-130345020D01*
X144924980Y-130345020D02*
X144290000Y-130980000D01*
X131272480Y-104676040D02*
X131272480Y-103532480D01*
X131272480Y-103532480D02*
X131050000Y-103310000D01*
X130140000Y-125980000D02*
X128830000Y-125980000D01*
X128830000Y-125980000D02*
X128010000Y-126800000D01*
X130140000Y-125980000D02*
X130140000Y-128465000D01*
X130140000Y-128465000D02*
X128695000Y-129910000D01*
X128695000Y-129910000D02*
X128220000Y-129910000D01*
X128220000Y-129910000D02*
X127745000Y-129910000D01*
X165410000Y-91940000D02*
X165410000Y-92710000D01*
X165410000Y-92710000D02*
X160010000Y-98110000D01*
X162550000Y-98110000D02*
X164474998Y-98110000D01*
X164474998Y-98110000D02*
X165410000Y-97174998D01*
X158610000Y-97940000D02*
X159840000Y-97940000D01*
X159840000Y-97940000D02*
X160010000Y-98110000D01*
X138410000Y-124950000D02*
X138410000Y-125100000D01*
X165410000Y-97810000D02*
X165410000Y-98260000D01*
X145895001Y-132585001D02*
X174773581Y-132585001D01*
X174773581Y-132585001D02*
X174894121Y-132464461D01*
X174894121Y-132464461D02*
X174894121Y-96135539D01*
X174894121Y-96135539D02*
X174328582Y-95570000D01*
X174328582Y-95570000D02*
X170300010Y-95570000D01*
X170300010Y-95570000D02*
X170300010Y-94134992D01*
X170300010Y-94134992D02*
X170475001Y-93960001D01*
X170475001Y-93960001D02*
X170475001Y-93359999D01*
X170475001Y-93359999D02*
X170150001Y-93034999D01*
X170150001Y-93034999D02*
X169549999Y-93034999D01*
X169549999Y-93034999D02*
X165410000Y-97174998D01*
X165410000Y-97174998D02*
X165410000Y-97810000D01*
X141744999Y-52634999D02*
X151879589Y-52634999D01*
X151879589Y-52634999D02*
X152329599Y-52184989D01*
X152329599Y-52184989D02*
X156794989Y-52184989D01*
X156794989Y-52184989D02*
X157570001Y-52960001D01*
X157570001Y-52960001D02*
X158420000Y-53810000D01*
X131655001Y-55174999D02*
X134195001Y-52634999D01*
X134195001Y-52634999D02*
X141744999Y-52634999D01*
X141744999Y-52634999D02*
X142070001Y-52960001D01*
X142070001Y-52960001D02*
X142920000Y-53810000D01*
X123876419Y-55174999D02*
X131655001Y-55174999D01*
X131655001Y-55174999D02*
X133020000Y-53810000D01*
X117154999Y-61896419D02*
X123876419Y-55174999D01*
X147480000Y-76190000D02*
X146060000Y-76190000D01*
X146060000Y-76190000D02*
X145520000Y-76730000D01*
X142067480Y-83740558D02*
X142067480Y-78112520D01*
X138410000Y-124950000D02*
X138410000Y-126470000D01*
X138410000Y-126470000D02*
X138390000Y-126490000D01*
X144980000Y-119360000D02*
X146400000Y-120780000D01*
X165410000Y-90640000D02*
X166010000Y-90640000D01*
X166010000Y-90640000D02*
X166085001Y-90715001D01*
X166085001Y-90715001D02*
X166085001Y-91864999D01*
X166085001Y-91864999D02*
X166010000Y-91940000D01*
X166010000Y-91940000D02*
X165410000Y-91940000D01*
X157150000Y-97940000D02*
X158610000Y-97940000D01*
X165410000Y-98260000D02*
X165895002Y-98260000D01*
X165895002Y-98260000D02*
X166085001Y-98449999D01*
X166085001Y-98449999D02*
X166085001Y-99484999D01*
X166085001Y-99484999D02*
X166010000Y-99560000D01*
X166010000Y-99560000D02*
X165410000Y-99560000D01*
X144924980Y-126812140D02*
X143792140Y-126812140D01*
X117154999Y-61896419D02*
X117154999Y-64614999D01*
X136529999Y-95075001D02*
X137766411Y-95075001D01*
X137766411Y-95075001D02*
X139341412Y-93500000D01*
X139341412Y-93500000D02*
X141285000Y-93500000D01*
X141910000Y-93500000D02*
X141285000Y-93500000D01*
X136529999Y-95075001D02*
X136204999Y-94750001D01*
X136204999Y-94750001D02*
X136204999Y-93805001D01*
X136204999Y-93805001D02*
X136830000Y-93180000D01*
X142067480Y-87467540D02*
X142067480Y-83740558D01*
X142067480Y-83740558D02*
X141832181Y-83505259D01*
X141832181Y-83505259D02*
X140627181Y-83505259D01*
X140627181Y-83505259D02*
X140002460Y-84129980D01*
X140002460Y-84129980D02*
X140002460Y-84604960D01*
X132970144Y-94400144D02*
X133020000Y-94450000D01*
X133020000Y-94450000D02*
X135560000Y-96990000D01*
X134290000Y-94450000D02*
X133020000Y-94450000D01*
X136672520Y-90002460D02*
X136672520Y-90315258D01*
X136672520Y-90315258D02*
X136830000Y-90472738D01*
X131760000Y-97580000D02*
X132360000Y-97580000D01*
X133320001Y-100155001D02*
X132585001Y-100155001D01*
X132360000Y-97580000D02*
X133645001Y-98865001D01*
X133645001Y-98865001D02*
X133645001Y-99830001D01*
X133645001Y-99830001D02*
X133320001Y-100155001D01*
X132585001Y-100155001D02*
X131760000Y-99330000D01*
X131760000Y-99330000D02*
X131760000Y-98880000D01*
X133268920Y-104676040D02*
X133268920Y-103558920D01*
X133268920Y-103558920D02*
X133020000Y-103310000D01*
X131760000Y-94400144D02*
X132970144Y-94400144D01*
X131760000Y-97580000D02*
X131760000Y-97000000D01*
X131760000Y-97000000D02*
X131750000Y-96990000D01*
X131760000Y-91910000D02*
X131760000Y-94400144D01*
X131760000Y-91910000D02*
X131160000Y-91910000D01*
X131160000Y-91910000D02*
X131084999Y-91834999D01*
X131084999Y-90685001D02*
X131160000Y-90610000D01*
X131084999Y-91834999D02*
X131084999Y-90685001D01*
X131160000Y-90610000D02*
X131760000Y-90610000D01*
X134290000Y-87470000D02*
X134290000Y-86348896D01*
X134290000Y-86348896D02*
X135319448Y-85319448D01*
X101270000Y-103340000D02*
X101270000Y-105880000D01*
X141910000Y-87310060D02*
X142067480Y-87467540D01*
X131760000Y-90610000D02*
X131760000Y-83655000D01*
X131760000Y-83655000D02*
X132395000Y-83020000D01*
X132395000Y-83020000D02*
X133020000Y-83020000D01*
X135319448Y-85319448D02*
X133020000Y-83020000D01*
X140002460Y-84604960D02*
X140002460Y-85610450D01*
X140002460Y-85610450D02*
X139995000Y-85617910D01*
X142067480Y-87467540D02*
X142067480Y-88737540D01*
X144450000Y-85560000D02*
X144450000Y-85710000D01*
X144450000Y-85710000D02*
X142692460Y-87467540D01*
X142692460Y-87467540D02*
X142067480Y-87467540D01*
X141910000Y-93500000D02*
X141910000Y-93725000D01*
X141910000Y-93725000D02*
X142860000Y-94675000D01*
X142860000Y-94675000D02*
X144100000Y-94675000D01*
X144100000Y-94675000D02*
X144650000Y-94675000D01*
X151350000Y-95975000D02*
X153624998Y-95975000D01*
X153624998Y-95975000D02*
X155589998Y-97940000D01*
X155589998Y-97940000D02*
X156525000Y-97940000D01*
X156525000Y-97940000D02*
X157150000Y-97940000D01*
X154610000Y-93500000D02*
X153435000Y-94675000D01*
X153435000Y-94675000D02*
X151350000Y-94675000D01*
X148844998Y-121120000D02*
X148859441Y-121134443D01*
X148859441Y-121134443D02*
X149874998Y-121120000D01*
X136544221Y-106524999D02*
X137316597Y-106514999D01*
X137200000Y-106524999D02*
X137306597Y-106524999D01*
X137306597Y-106524999D02*
X137316597Y-106514999D01*
X147150020Y-124587100D02*
X147150020Y-122814978D01*
X147150020Y-122814978D02*
X148844998Y-121120000D01*
X149874998Y-121120000D02*
X150800000Y-121120000D01*
X135493960Y-106901080D02*
X136168140Y-106901080D01*
X136168140Y-106901080D02*
X136544221Y-106524999D01*
X144260000Y-104470000D02*
X142050000Y-104470000D01*
X142050000Y-104470000D02*
X141910000Y-104610000D01*
X144260000Y-104470000D02*
X144560000Y-104470000D01*
X146375000Y-102655000D02*
X146375000Y-98900000D01*
X144560000Y-104470000D02*
X146375000Y-102655000D01*
X146375000Y-98900000D02*
X146375000Y-98350000D01*
X148260000Y-102070000D02*
X150800000Y-102070000D01*
X148260000Y-102070000D02*
X148260000Y-101220000D01*
X148260000Y-101220000D02*
X147025000Y-99985000D01*
X147025000Y-99985000D02*
X147025000Y-98900000D01*
X147025000Y-98900000D02*
X147025000Y-98350000D01*
X129860000Y-90610000D02*
X126700000Y-90610000D01*
X126700000Y-90610000D02*
X126670000Y-90640000D01*
X128010000Y-77130000D02*
X129845000Y-77130000D01*
X129845000Y-77130000D02*
X130480000Y-76495000D01*
X128010000Y-75860000D02*
X128010000Y-74590000D01*
X128010000Y-77130000D02*
X128010000Y-75860000D01*
X128010000Y-78400000D02*
X128010000Y-77130000D01*
X126670000Y-90640000D02*
X126670000Y-79140000D01*
X126670000Y-79140000D02*
X127410000Y-78400000D01*
X127410000Y-78400000D02*
X128010000Y-78400000D01*
X123090940Y-88900000D02*
X125091000Y-88900000D01*
X125091000Y-88900000D02*
X126670000Y-90479000D01*
X126670000Y-90479000D02*
X126670000Y-90640000D01*
X123090940Y-63500000D02*
X123090940Y-76200000D01*
X123090940Y-76200000D02*
X123090940Y-88900000D01*
X108569879Y-73390121D02*
X108489879Y-73390121D01*
X108489879Y-73390121D02*
X106500000Y-75380000D01*
X106500000Y-75380000D02*
X106350000Y-75380000D01*
X109444790Y-60960000D02*
X112400080Y-60960000D01*
X108569879Y-73390121D02*
X108569879Y-61834911D01*
X108569879Y-61834911D02*
X109444790Y-60960000D01*
X112400080Y-73660000D02*
X112400080Y-74459910D01*
X112400080Y-74459910D02*
X110229990Y-76630000D01*
X110229990Y-76630000D02*
X107225000Y-76630000D01*
X107225000Y-76630000D02*
X106350000Y-76630000D01*
X109444790Y-73660000D02*
X112400080Y-73660000D01*
X112400080Y-86360000D02*
X112400080Y-83495078D01*
X112400080Y-83495078D02*
X106785002Y-77880000D01*
X106785002Y-77880000D02*
X106350000Y-77880000D01*
X128010000Y-112440000D02*
X128010000Y-118790000D01*
X128010000Y-120660000D02*
X129845000Y-120660000D01*
X129845000Y-120660000D02*
X130480000Y-121295000D01*
X128010000Y-121930000D02*
X128010000Y-123200000D01*
X128010000Y-120660000D02*
X128010000Y-121930000D01*
X128010000Y-119390000D02*
X128010000Y-120660000D01*
X126670000Y-98260000D02*
X126670000Y-98410000D01*
X125894999Y-110324999D02*
X128010000Y-112440000D01*
X126670000Y-98410000D02*
X125894999Y-99185001D01*
X125894999Y-99185001D02*
X125894999Y-110324999D01*
X128010000Y-118790000D02*
X128010000Y-119390000D01*
X126670000Y-98260000D02*
X127370000Y-98260000D01*
X127370000Y-98260000D02*
X128050000Y-97580000D01*
X128050000Y-97580000D02*
X129260000Y-97580000D01*
X129260000Y-97580000D02*
X129860000Y-97580000D01*
X126670000Y-98260000D02*
X126670000Y-98110000D01*
X123090940Y-101600000D02*
X123480000Y-101600000D01*
X123480000Y-101600000D02*
X126670000Y-98410000D01*
X123090940Y-127000000D02*
X123090940Y-114300000D01*
X123090940Y-114300000D02*
X123090940Y-101600000D01*
X123090940Y-101600000D02*
X123090940Y-114300000D01*
X109444790Y-99060000D02*
X112400080Y-99060000D01*
X108569879Y-99934911D02*
X109444790Y-99060000D01*
X106350000Y-113560000D02*
X106500000Y-113560000D01*
X106500000Y-113560000D02*
X108569879Y-111490121D01*
X108569879Y-111490121D02*
X108569879Y-99934911D01*
X112400080Y-112559910D02*
X112400080Y-111760000D01*
X110149990Y-114810000D02*
X112400080Y-112559910D01*
X106350000Y-114810000D02*
X110149990Y-114810000D01*
X112400080Y-123660090D02*
X112400080Y-124460000D01*
X108569879Y-119829889D02*
X112400080Y-123660090D01*
X108569879Y-117404879D02*
X108569879Y-119829889D01*
X107225000Y-116060000D02*
X108569879Y-117404879D01*
X106350000Y-116060000D02*
X107225000Y-116060000D01*
X167727500Y-75860000D02*
X172479060Y-75860000D01*
X172479060Y-75860000D02*
X172819060Y-76200000D01*
X167727500Y-75860000D02*
X167727500Y-74590000D01*
X167727500Y-77130000D02*
X167727500Y-75860000D01*
X167727500Y-77130000D02*
X165892500Y-77130000D01*
X165892500Y-77130000D02*
X165257500Y-76495000D01*
X167727500Y-78400000D02*
X167727500Y-77130000D01*
X169850000Y-91570000D02*
X169150000Y-91570000D01*
X167910000Y-91940000D02*
X167310000Y-91940000D01*
X169150000Y-91570000D02*
X168780000Y-91940000D01*
X168780000Y-91940000D02*
X167910000Y-91940000D01*
X172819060Y-88900000D02*
X172370000Y-88900000D01*
X172370000Y-88900000D02*
X169850000Y-91420000D01*
X169850000Y-91420000D02*
X169850000Y-91570000D01*
X172819060Y-63500000D02*
X172819060Y-76200000D01*
X172819060Y-76200000D02*
X172819060Y-88900000D01*
X188900000Y-77880000D02*
X189050000Y-77880000D01*
X189050000Y-77880000D02*
X189850001Y-77079999D01*
X183509920Y-66839910D02*
X183509920Y-66040000D01*
X189850001Y-77079999D02*
X189850001Y-73179991D01*
X189850001Y-73179991D02*
X183509920Y-66839910D01*
X188900000Y-76630000D02*
X185680010Y-76630000D01*
X185680010Y-76630000D02*
X183509920Y-74459910D01*
X183509920Y-74459910D02*
X183509920Y-73660000D01*
X188900000Y-75380000D02*
X188025000Y-75380000D01*
X187340121Y-74695121D02*
X187340121Y-72850089D01*
X188025000Y-75380000D02*
X187340121Y-74695121D01*
X187340121Y-72850089D02*
X187275121Y-72785089D01*
X187275121Y-72785089D02*
X179744719Y-72785089D01*
X179744719Y-72785089D02*
X179679719Y-72850089D01*
X179679719Y-72850089D02*
X179679719Y-90565089D01*
X179679719Y-90565089D02*
X180554630Y-91440000D01*
X180554630Y-91440000D02*
X183509920Y-91440000D01*
X167900000Y-115405000D02*
X167900000Y-116675000D01*
X167900000Y-114135000D02*
X167900000Y-115405000D01*
X167900000Y-114135000D02*
X166065000Y-114135000D01*
X166065000Y-114135000D02*
X165430000Y-114770000D01*
X167900000Y-112865000D02*
X167900000Y-114135000D01*
X172819060Y-114300000D02*
X168065000Y-114300000D01*
X168065000Y-114300000D02*
X167900000Y-114135000D01*
X169850000Y-100800000D02*
X168100000Y-100800000D01*
X168100000Y-100800000D02*
X167310000Y-100010000D01*
X167310000Y-100010000D02*
X167310000Y-99560000D01*
X172819060Y-101600000D02*
X170650000Y-101600000D01*
X170650000Y-101600000D02*
X170600000Y-101650000D01*
X170600000Y-101650000D02*
X170550000Y-101650000D01*
X170550000Y-101650000D02*
X169850000Y-100950000D01*
X169850000Y-100950000D02*
X169850000Y-100800000D01*
X172819060Y-127000000D02*
X172819060Y-114300000D01*
X172819060Y-114300000D02*
X172819060Y-101600000D01*
X188900000Y-115980000D02*
X188750000Y-115980000D01*
X188750000Y-115980000D02*
X187340121Y-117389879D01*
X187340121Y-117389879D02*
X187340121Y-117649911D01*
X187340121Y-117649911D02*
X187275121Y-117714911D01*
X187275121Y-117714911D02*
X179744719Y-117714911D01*
X179744719Y-117714911D02*
X179679719Y-117649911D01*
X179679719Y-117649911D02*
X179679719Y-108770111D01*
X179679719Y-108770111D02*
X183509920Y-104939910D01*
X183509920Y-104939910D02*
X183509920Y-104140000D01*
X188900000Y-114730000D02*
X184820010Y-114730000D01*
X184820010Y-114730000D02*
X183509920Y-116040090D01*
X183509920Y-116040090D02*
X183509920Y-116840000D01*
X188900000Y-113480000D02*
X189050000Y-113480000D01*
X189050000Y-113480000D02*
X189850010Y-114280010D01*
X189850010Y-114280010D02*
X189850010Y-126155200D01*
X189850010Y-126155200D02*
X186465210Y-129540000D01*
X186465210Y-129540000D02*
X183509920Y-129540000D01*
X143214299Y-90636140D02*
X144650000Y-92071841D01*
X144650000Y-92071841D02*
X144650000Y-92725000D01*
X143383504Y-75603504D02*
X143180000Y-75807008D01*
X143180000Y-75807008D02*
X143180000Y-85560000D01*
X147535020Y-71451988D02*
X143383504Y-75603504D01*
X147535021Y-71451987D02*
X147535020Y-71451988D01*
X147535021Y-59190391D02*
X147535021Y-71451987D01*
X149105412Y-57620000D02*
X147535021Y-59190391D01*
X156050000Y-57620000D02*
X149105412Y-57620000D01*
X158420000Y-56350000D02*
X157320000Y-56350000D01*
X157320000Y-56350000D02*
X156050000Y-57620000D01*
X144213867Y-57859982D02*
X137069982Y-57859982D01*
X137069982Y-57859982D02*
X135560000Y-56350000D01*
X152941778Y-59288222D02*
X152070000Y-60160000D01*
X152941778Y-59288222D02*
X153340000Y-58890000D01*
X148710010Y-59288222D02*
X152941778Y-59288222D01*
X148710010Y-60160000D02*
X148710010Y-59288222D01*
X148710010Y-71776400D02*
X148710010Y-60160000D01*
X144629512Y-75856898D02*
X148710010Y-71776400D01*
X158801412Y-58890000D02*
X153340000Y-58890000D01*
X160960000Y-56350000D02*
X160045011Y-57264989D01*
X160045011Y-57264989D02*
X160045010Y-57646402D01*
X160045010Y-57646402D02*
X158801412Y-58890000D01*
X144629512Y-84277959D02*
X144629512Y-75856898D01*
X147675000Y-98945000D02*
X148260000Y-99530000D01*
X145720000Y-58890000D02*
X133284995Y-58890000D01*
X133284995Y-58890000D02*
X132170001Y-57775006D01*
X132170001Y-57775006D02*
X132170001Y-57199999D01*
X132170001Y-57199999D02*
X133020000Y-56350000D01*
X149291812Y-58070010D02*
X149291812Y-58425034D01*
X149291812Y-58425034D02*
X149530000Y-58663222D01*
X158984992Y-58070010D02*
X156236400Y-58070010D01*
X160960000Y-53810000D02*
X159595001Y-55174999D01*
X159595001Y-55174999D02*
X159595001Y-57460001D01*
X159595001Y-57460001D02*
X158984992Y-58070010D01*
X149291812Y-58070010D02*
X148365911Y-58995911D01*
X156236400Y-58070010D02*
X149291812Y-58070010D01*
X148260000Y-59101822D02*
X148260000Y-71590000D01*
X148365911Y-58995911D02*
X148260000Y-59101822D01*
X143630010Y-76219990D02*
X143805000Y-84290000D01*
X143805000Y-84290000D02*
X143630010Y-84290000D01*
X144450000Y-75400000D02*
X143630010Y-76219990D01*
X148260000Y-71590000D02*
X144450000Y-75400000D01*
X129213196Y-111226804D02*
X129209458Y-111230542D01*
X129209458Y-111230542D02*
X129209458Y-111470541D01*
X128134990Y-110148598D02*
X129213196Y-111226804D01*
X128134989Y-109610000D02*
X128134990Y-110148598D01*
X128134989Y-102984989D02*
X128134989Y-109610000D01*
X127770000Y-102620000D02*
X128134989Y-102984989D01*
X117670000Y-60250000D02*
X117670000Y-59495000D01*
X117670000Y-59495000D02*
X118330000Y-58835000D01*
X133268920Y-109623960D02*
X133268920Y-109914636D01*
X133268920Y-109914636D02*
X133078151Y-110105405D01*
X132771080Y-109623960D02*
X132771080Y-109798334D01*
X132771080Y-109798334D02*
X133078151Y-110105405D01*
X133268920Y-109623960D02*
X132771080Y-109623960D01*
X137467540Y-79210000D02*
X135900000Y-79210000D01*
X135900000Y-79210000D02*
X135560000Y-79550000D01*
X149530000Y-99530000D02*
X150275000Y-98785000D01*
X150275000Y-98785000D02*
X150275000Y-98350000D01*
X137467540Y-79210000D02*
X137467540Y-80234700D01*
X137467540Y-80234700D02*
X139370000Y-82137160D01*
X139370000Y-82137160D02*
X139370000Y-88100000D01*
X138440000Y-75400000D02*
X138440000Y-78912460D01*
X138440000Y-78912460D02*
X138737540Y-79210000D01*
X138737540Y-79210000D02*
X138737540Y-78735020D01*
X146635001Y-70837559D02*
X146635001Y-55174999D01*
X138737540Y-78735020D02*
X146635001Y-70837559D01*
X146635001Y-55174999D02*
X147150001Y-54659999D01*
X147150001Y-54659999D02*
X148000000Y-53810000D01*
X139537262Y-79210000D02*
X140002460Y-79210000D01*
X140640000Y-75400000D02*
X140640000Y-75948676D01*
X140640000Y-75948676D02*
X140279338Y-76309338D01*
X140002460Y-79210000D02*
X140002460Y-78348138D01*
X140002460Y-78348138D02*
X147085011Y-71265587D01*
X147085011Y-71265587D02*
X147085011Y-59003991D01*
X147085011Y-59003991D02*
X149175001Y-56914001D01*
X149175001Y-56914001D02*
X149175001Y-55174999D01*
X149175001Y-55174999D02*
X149690001Y-54659999D01*
X149690001Y-54659999D02*
X150540000Y-53810000D01*
X144650000Y-95975000D02*
X142925000Y-95975000D01*
X142925000Y-95975000D02*
X142574999Y-96325001D01*
X142574999Y-96325001D02*
X141245001Y-96325001D01*
X141245001Y-96325001D02*
X140777709Y-95857709D01*
X140777709Y-95857709D02*
X135697709Y-95857709D01*
X135697709Y-95857709D02*
X135572819Y-95732819D01*
X135572819Y-95732819D02*
X135572819Y-85949961D01*
X135572819Y-85949961D02*
X136917820Y-84604960D01*
X136917820Y-84604960D02*
X137467540Y-84604960D01*
X140640000Y-96990000D02*
X143849998Y-96990000D01*
X143849998Y-96990000D02*
X144214998Y-96625000D01*
X144214998Y-96625000D02*
X144650000Y-96625000D01*
X141272460Y-84604960D02*
X141272460Y-85629660D01*
X141272460Y-85629660D02*
X140640000Y-86262120D01*
X140640000Y-86262120D02*
X140640000Y-88752739D01*
X129940000Y-101870000D02*
X129940000Y-103204999D01*
X129940000Y-103204999D02*
X129209999Y-103935000D01*
X131110001Y-101869999D02*
X131410000Y-101570000D01*
X129940000Y-101870000D02*
X131110001Y-101869999D01*
X125398223Y-110704260D02*
X125398223Y-107708224D01*
X125398223Y-107708224D02*
X125269999Y-107580000D01*
X144924980Y-125811380D02*
X144386830Y-125811380D01*
X144386830Y-125811380D02*
X134895450Y-116320000D01*
X134895450Y-116320000D02*
X134630000Y-116320000D01*
X144924980Y-125811380D02*
X144891841Y-125778241D01*
X136830000Y-99530000D02*
X138725001Y-97634999D01*
X138725001Y-97634999D02*
X138725001Y-97615001D01*
X134269680Y-104676040D02*
X134269680Y-103360320D01*
X134269680Y-103360320D02*
X135560000Y-102070000D01*
X138100000Y-96990000D02*
X138725001Y-97615001D01*
X138100000Y-89690040D02*
X138100000Y-93180000D01*
X138725001Y-97615001D02*
X144309999Y-97615001D01*
X144309999Y-97615001D02*
X144650000Y-97275000D01*
X137147500Y-88737540D02*
X138100000Y-89690040D01*
X138100000Y-89690040D02*
X138100000Y-89770518D01*
X136672520Y-88737540D02*
X137147500Y-88737540D01*
X136000000Y-104160000D02*
X135283560Y-104160000D01*
X135283560Y-104160000D02*
X134767520Y-104676040D01*
X137600000Y-107520000D02*
X138029670Y-107949670D01*
X138029670Y-107949670D02*
X139474669Y-107949670D01*
X139474669Y-107949670D02*
X138974999Y-107450000D01*
X138974999Y-107450000D02*
X138974999Y-106903401D01*
X138974999Y-106903401D02*
X137316597Y-105244999D01*
X144924980Y-125313540D02*
X144924980Y-124923840D01*
X144924980Y-124923840D02*
X134710000Y-114708860D01*
X134710000Y-114708860D02*
X134710000Y-112675727D01*
X136040010Y-102859990D02*
X136071640Y-102828360D01*
X136071640Y-102828360D02*
X136071640Y-102685000D01*
X135736398Y-102859990D02*
X136040010Y-102859990D01*
X134767520Y-104676040D02*
X134767520Y-103498890D01*
X134767520Y-103498890D02*
X135571409Y-102695001D01*
X135571409Y-102695001D02*
X135736398Y-102859990D01*
X143180000Y-98260000D02*
X141910000Y-98260000D01*
X141910000Y-98260000D02*
X138396941Y-101773059D01*
X143180000Y-98260000D02*
X145635000Y-98260000D01*
X145635000Y-98260000D02*
X145725000Y-98350000D01*
X142067480Y-91272460D02*
X142067480Y-91822180D01*
X142067480Y-91822180D02*
X143180000Y-92934700D01*
X143180000Y-92934700D02*
X143180000Y-94050000D01*
X149680000Y-76190000D02*
X149680000Y-87600478D01*
X149680000Y-87600478D02*
X147902739Y-89377739D01*
X136672520Y-87467540D02*
X137697220Y-87467540D01*
X137697220Y-87467540D02*
X139607419Y-89377739D01*
X139607419Y-89377739D02*
X147902739Y-89377739D01*
X147902739Y-89377739D02*
X149625000Y-91100000D01*
X149625000Y-91100000D02*
X149625000Y-91650000D01*
X142710000Y-121361200D02*
X142840000Y-121231200D01*
X142840000Y-121231200D02*
X142840000Y-118539401D01*
X145651420Y-124587100D02*
X145651420Y-124302620D01*
X145651420Y-124302620D02*
X142710000Y-121361200D01*
X139600000Y-107149999D02*
X139600000Y-106610000D01*
X139600000Y-106610000D02*
X137600000Y-104610000D01*
X137600000Y-104610000D02*
X137254264Y-104610000D01*
X137254264Y-104610000D02*
X136830000Y-104610000D01*
X135493960Y-105402480D02*
X136037520Y-105402480D01*
X136037520Y-105402480D02*
X136830000Y-104610000D01*
X139370000Y-102070000D02*
X139370000Y-102746118D01*
X139370000Y-102746118D02*
X140936941Y-104313059D01*
X142067480Y-90002460D02*
X141592500Y-90002460D01*
X141592500Y-90002460D02*
X138725001Y-92869959D01*
X138725001Y-92869959D02*
X138725001Y-93480001D01*
X138725001Y-93480001D02*
X137755002Y-94450000D01*
X137755002Y-94450000D02*
X136830000Y-94450000D01*
X142067480Y-90002460D02*
X147227460Y-90002460D01*
X147227460Y-90002460D02*
X148325000Y-91100000D01*
X148325000Y-91100000D02*
X148325000Y-91650000D01*
X131084999Y-96324999D02*
X130568588Y-95808588D01*
X130568588Y-95808588D02*
X129860000Y-95808588D01*
X132639999Y-101444999D02*
X131084999Y-99889999D01*
X131084999Y-99889999D02*
X131084999Y-96324999D01*
X129860000Y-91910000D02*
X129860000Y-95808588D01*
X141910000Y-114770000D02*
X144643569Y-114770000D01*
X144643569Y-114770000D02*
X144656269Y-114782700D01*
X132639999Y-101444999D02*
X135860001Y-101444999D01*
X135860001Y-101444999D02*
X140640000Y-106224998D01*
X140640000Y-106224998D02*
X140640000Y-109690000D01*
X129050000Y-93460000D02*
X128390000Y-93460000D01*
X128390000Y-93460000D02*
X128060000Y-93130000D01*
X128480000Y-99470000D02*
X128480000Y-99400000D01*
X128480000Y-99400000D02*
X128610000Y-99270000D01*
X126670000Y-92840000D02*
X127770000Y-92840000D01*
X127770000Y-92840000D02*
X128060000Y-93130000D01*
X135560000Y-53810000D02*
X134195001Y-55174999D01*
X134195001Y-55174999D02*
X134195001Y-56914001D01*
X134195001Y-56914001D02*
X133408999Y-57700003D01*
X133408999Y-57700003D02*
X133020000Y-57700003D01*
X169850000Y-98600000D02*
X169850000Y-93660000D01*
X168080000Y-91290000D02*
X168080000Y-89960000D01*
X168080000Y-89960000D02*
X168410000Y-89630000D01*
X126670000Y-100460000D02*
X127490000Y-100460000D01*
X127490000Y-100460000D02*
X128480000Y-99470000D01*
X129860000Y-91260000D02*
X128100000Y-91260000D01*
X128100000Y-91260000D02*
X126670000Y-92690000D01*
X126670000Y-92690000D02*
X126670000Y-92840000D01*
X167310000Y-98910000D02*
X169540000Y-98910000D01*
X169540000Y-98910000D02*
X169850000Y-98600000D01*
X167310000Y-91290000D02*
X168080000Y-91290000D01*
X168080000Y-91290000D02*
X169850000Y-89520000D01*
X169850000Y-89520000D02*
X169850000Y-89370000D01*
X129860000Y-98230000D02*
X128750000Y-98230000D01*
X128750000Y-98230000D02*
X126670000Y-100310000D01*
X126670000Y-100310000D02*
X126670000Y-100460000D01*
X140640000Y-110960000D02*
X140014999Y-111585001D01*
X140014999Y-111585001D02*
X133664999Y-111585001D01*
X133664999Y-111585001D02*
X133020000Y-112230000D01*
X128460010Y-112253600D02*
X126670000Y-110463590D01*
X126670000Y-102520000D02*
X129860000Y-99330000D01*
X133020000Y-112230000D02*
X133020000Y-117310000D01*
X128460010Y-116560010D02*
X128460010Y-112253600D01*
X133020000Y-117310000D02*
X129210000Y-117310000D01*
X129210000Y-117310000D02*
X128460010Y-116560010D01*
X126670000Y-110463590D02*
X126670000Y-102520000D01*
X129860000Y-99330000D02*
X129860000Y-98880000D01*
X141948100Y-116078100D02*
X140640000Y-114770000D01*
X144656269Y-116078100D02*
X141948100Y-116078100D01*
X152686942Y-115103058D02*
X152686942Y-114377728D01*
X152686942Y-114377728D02*
X153185000Y-113879670D01*
X150244269Y-116078100D02*
X151711900Y-116078100D01*
X151711900Y-116078100D02*
X152686942Y-115103058D01*
X167310000Y-90640000D02*
X166710000Y-90640000D01*
X166710000Y-90640000D02*
X166634999Y-90715001D01*
X166634999Y-90715001D02*
X166634999Y-92400001D01*
X166634999Y-92400001D02*
X156574999Y-102460001D01*
X156574999Y-102460001D02*
X156574999Y-113210001D01*
X152920000Y-112740000D02*
X152920000Y-113164264D01*
X152920000Y-113164264D02*
X151314264Y-114770000D01*
X151314264Y-114770000D02*
X151192769Y-114770000D01*
X151192769Y-114770000D02*
X150244269Y-114770000D01*
X166634999Y-100020001D02*
X166634999Y-103160001D01*
X166634999Y-103160001D02*
X157825000Y-111970000D01*
X167310000Y-98260000D02*
X166710000Y-98260000D01*
X166710000Y-98260000D02*
X166634999Y-98335001D01*
X166634999Y-98335001D02*
X166634999Y-100020001D01*
X142920000Y-56350000D02*
X140640000Y-56350000D01*
X140640000Y-56350000D02*
X138100000Y-53810000D01*
X144656269Y-115417700D02*
X145604769Y-115417700D01*
X145604769Y-115417700D02*
X145940000Y-115752931D01*
X145940000Y-115752931D02*
X145940000Y-117190000D01*
X144656269Y-110094927D02*
X143664927Y-110094927D01*
X143664927Y-110094927D02*
X142970000Y-109400000D01*
X144671196Y-110080000D02*
X144656269Y-110094927D01*
X160395999Y-52634999D02*
X161524999Y-52634999D01*
X161524999Y-52634999D02*
X162324999Y-53434999D01*
X162324999Y-53434999D02*
X162324999Y-54374001D01*
X162324999Y-54374001D02*
X163125997Y-55174999D01*
X163125997Y-55174999D02*
X164064001Y-55174999D01*
X164064001Y-55174999D02*
X164675001Y-55785999D01*
X164675001Y-55785999D02*
X164675001Y-56914001D01*
X153660000Y-67462820D02*
X154126182Y-67462820D01*
X154126182Y-67462820D02*
X164675001Y-56914001D01*
X159595001Y-53435997D02*
X159595001Y-54374001D01*
X160395999Y-52634999D02*
X159595001Y-53435997D01*
X159595001Y-54374001D02*
X158984001Y-54985001D01*
X158984001Y-54985001D02*
X155994003Y-54985001D01*
X155994003Y-54985001D02*
X153644001Y-52634999D01*
X153644001Y-52634999D02*
X152515999Y-52634999D01*
X152515999Y-52634999D02*
X151715001Y-53435997D01*
X151715001Y-53435997D02*
X151715001Y-54509997D01*
X151715001Y-54509997D02*
X151389999Y-54834999D01*
X151389999Y-54834999D02*
X151389999Y-55500001D01*
X151389999Y-55500001D02*
X150540000Y-56350000D01*
X148754999Y-72367821D02*
X153660000Y-67462820D01*
X148754999Y-77095801D02*
X148754999Y-72367821D01*
X146990000Y-78860800D02*
X148754999Y-77095801D01*
X146990000Y-78985800D02*
X146990000Y-78860800D01*
X150540000Y-56350000D02*
X151249050Y-56350000D01*
X145720000Y-90640000D02*
X146375000Y-91295000D01*
X146375000Y-91295000D02*
X146375000Y-91650000D01*
X144450000Y-87760000D02*
X144727261Y-87760000D01*
X144727261Y-87760000D02*
X145720000Y-88752739D01*
X146990000Y-86935800D02*
X146990000Y-87060800D01*
X146990000Y-87060800D02*
X146290800Y-87760000D01*
X146290800Y-87760000D02*
X145150000Y-87760000D01*
X145150000Y-87760000D02*
X144450000Y-87760000D01*
X146990000Y-78985800D02*
X146990000Y-79110800D01*
X146990000Y-79110800D02*
X146990000Y-86935800D01*
X130546040Y-105900320D02*
X130546040Y-106400700D01*
X139370000Y-113500000D02*
X144643569Y-113500000D01*
X144643569Y-113500000D02*
X144656269Y-113487300D01*
X139568649Y-108399680D02*
X139568649Y-110761351D01*
X139568649Y-110761351D02*
X139370000Y-110960000D01*
X135493960Y-108399680D02*
X139568649Y-108399680D01*
X144173669Y-113487300D02*
X144656269Y-113487300D01*
X144656269Y-113487300D02*
X144656269Y-114122300D01*
X138450000Y-121180000D02*
X138450000Y-122710000D01*
X138450000Y-122710000D02*
X138410000Y-122750000D01*
X145485001Y-105330001D02*
X145740001Y-105330001D01*
X145740001Y-105330001D02*
X148540000Y-108130000D01*
X136830000Y-105880000D02*
X135514280Y-105880000D01*
X135514280Y-105880000D02*
X135493960Y-105900320D01*
X151350000Y-97275000D02*
X151450000Y-97275000D01*
X151435001Y-102995001D02*
X147334999Y-102995001D01*
X151450000Y-97275000D02*
X151900000Y-97725000D01*
X151900000Y-97725000D02*
X151900000Y-102530002D01*
X151900000Y-102530002D02*
X151435001Y-102995001D01*
X147334999Y-102995001D02*
X145485001Y-104844999D01*
X145485001Y-104844999D02*
X145485001Y-105330001D01*
X145485001Y-105330001D02*
X144935002Y-105880000D01*
X144935002Y-105880000D02*
X144450000Y-105880000D01*
X146149260Y-122960740D02*
X146149260Y-122879260D01*
X146149260Y-122879260D02*
X144980000Y-121710000D01*
X144980000Y-121710000D02*
X144980000Y-121560000D01*
X146149260Y-124587100D02*
X146149260Y-122960740D01*
X153810000Y-98535000D02*
X151900000Y-96625000D01*
X146149260Y-122960740D02*
X152350010Y-116759990D01*
X152350010Y-116759990D02*
X153620010Y-116759990D01*
X153620010Y-116759990D02*
X153810000Y-116570000D01*
X153810000Y-116570000D02*
X153810000Y-98535000D01*
X151900000Y-96625000D02*
X151350000Y-96625000D01*
X146149260Y-129535020D02*
X146649640Y-129535020D01*
X129209999Y-109360001D02*
X129672480Y-108897520D01*
X129672480Y-108897520D02*
X129687520Y-108897520D01*
X129687520Y-108897520D02*
X130546040Y-108897520D01*
X117780000Y-102070000D02*
X119675001Y-103965001D01*
X119675001Y-103965001D02*
X119675001Y-105629061D01*
X119675001Y-105629061D02*
X122465940Y-108420000D01*
X130480000Y-109690000D02*
X131206440Y-109690000D01*
X131206440Y-109690000D02*
X131272480Y-109623960D01*
X131770320Y-109623960D02*
X131770320Y-110303270D01*
X131770320Y-110303270D02*
X130480000Y-111593590D01*
X130480000Y-111593590D02*
X130480000Y-114770000D01*
X130480000Y-116040000D02*
X131183540Y-116040000D01*
X131183540Y-116040000D02*
X131375241Y-115848299D01*
X131375241Y-111334759D02*
X131375241Y-115848299D01*
X132270700Y-109623960D02*
X132270700Y-110439300D01*
X132270700Y-110439300D02*
X131375241Y-111334759D01*
X135560000Y-110960000D02*
X134931540Y-110960000D01*
X134931540Y-110960000D02*
X134269680Y-110298140D01*
X134269680Y-110298140D02*
X134269680Y-109623960D01*
X150244269Y-117373500D02*
X149295769Y-117373500D01*
X149295769Y-117373500D02*
X148754868Y-117914401D01*
X148754868Y-117914401D02*
X139974401Y-117914401D01*
X139974401Y-117914401D02*
X135560000Y-113500000D01*
X150244269Y-116725800D02*
X150244269Y-117373500D01*
X136830000Y-113500000D02*
X137829263Y-112500737D01*
X137829263Y-112500737D02*
X143450737Y-112500737D01*
X143450737Y-112500737D02*
X143896399Y-112946399D01*
X143896399Y-112946399D02*
X148767568Y-112946399D01*
X148767568Y-112946399D02*
X149295769Y-113474600D01*
X149295769Y-113474600D02*
X150244269Y-113474600D01*
X134767520Y-109623960D02*
X135493960Y-109623960D01*
X135493960Y-109623960D02*
X136830000Y-110960000D01*
X150244269Y-113474600D02*
X150244269Y-114122300D01*
X135493960Y-108897520D02*
X136782170Y-108897520D01*
X136782170Y-108897520D02*
X136830000Y-108849690D01*
X138100000Y-110119690D02*
X136830000Y-108849690D01*
X138100000Y-110960000D02*
X138100000Y-110119690D01*
X144656269Y-117373500D02*
X141973500Y-117373500D01*
X141973500Y-117373500D02*
X138100000Y-113500000D01*
X144656269Y-116725800D02*
X144656269Y-117373500D01*
X144656269Y-108164527D02*
X144656269Y-108799527D01*
X134290000Y-79210000D02*
X134290000Y-74670000D01*
X134290000Y-74670000D02*
X134210000Y-74590000D01*
X134210000Y-74590000D02*
X133610000Y-74590000D01*
X144656269Y-108164527D02*
X144173669Y-108164527D01*
X144173669Y-108164527D02*
X143707769Y-107698627D01*
X130634990Y-94894992D02*
X130634990Y-80670008D01*
X143707769Y-107698627D02*
X143438625Y-107698627D01*
X143438625Y-107698627D02*
X130634990Y-94894992D01*
X130634990Y-80670008D02*
X132094998Y-79210000D01*
X132094998Y-79210000D02*
X132985000Y-79210000D01*
X133610000Y-112440000D02*
X133610000Y-118790000D01*
X144656269Y-112050727D02*
X133999273Y-112050727D01*
X133610000Y-118790000D02*
X133610000Y-119390000D01*
X133999273Y-112050727D02*
X133610000Y-112440000D01*
X144656269Y-111403027D02*
X144656269Y-112050727D01*
X152590000Y-93330000D02*
X162127500Y-83792500D01*
X162127500Y-83792500D02*
X162127500Y-78400000D01*
X154360000Y-98250000D02*
X154360000Y-97830000D01*
X154360000Y-97830000D02*
X153180000Y-96650000D01*
X150244269Y-112050727D02*
X151304275Y-112050727D01*
X151304275Y-112050727D02*
X152800000Y-110555002D01*
X152800000Y-110555002D02*
X152800000Y-99480000D01*
X150244269Y-111403027D02*
X150244269Y-112050727D01*
X151500000Y-124930000D02*
X152880000Y-124930000D01*
X152880000Y-124930000D02*
X161135000Y-116675000D01*
X161135000Y-116675000D02*
X162300000Y-116675000D01*
X147720000Y-109180000D02*
X147720000Y-110820000D01*
X147720000Y-110820000D02*
X146498058Y-112041942D01*
X150244269Y-108799527D02*
X148100473Y-108799527D01*
X148100473Y-108799527D02*
X147720000Y-109180000D01*
X150244269Y-108151827D02*
X150244269Y-108799527D01*
X131220000Y-60585000D02*
X131220000Y-59395000D01*
X131220000Y-59395000D02*
X131280000Y-59335000D01*
X149146460Y-124587100D02*
X149146460Y-124302620D01*
X149146460Y-124302620D02*
X149536160Y-123912920D01*
X149536160Y-123912920D02*
X149820640Y-123912920D01*
X149820640Y-123912920D02*
X161543561Y-112189999D01*
X161543561Y-112189999D02*
X166820001Y-112189999D01*
X166820001Y-112189999D02*
X171110000Y-107900000D01*
X157200000Y-109019999D02*
X157200000Y-115645002D01*
X157200000Y-115645002D02*
X151100001Y-121745001D01*
X151100001Y-121745001D02*
X151104675Y-121745001D01*
X148648620Y-124587100D02*
X148648620Y-123912920D01*
X148648620Y-123912920D02*
X150816539Y-121745001D01*
X150816539Y-121745001D02*
X151100001Y-121745001D01*
X160960000Y-102070000D02*
X160960000Y-103340000D01*
X149872900Y-125811380D02*
X166468158Y-125811380D01*
X166468158Y-125811380D02*
X171599538Y-120680000D01*
X171599538Y-120680000D02*
X172040000Y-120680000D01*
X163475000Y-108600000D02*
X160225000Y-111850000D01*
X149872900Y-125313540D02*
X150157380Y-125313540D01*
X150157380Y-125313540D02*
X160180000Y-115290920D01*
X160180000Y-115290920D02*
X160180000Y-115050000D01*
X106350000Y-67380000D02*
X105475000Y-67380000D01*
X105475000Y-67380000D02*
X105085000Y-66990000D01*
X105085000Y-66990000D02*
X102650000Y-66990000D01*
X106350000Y-67380000D02*
X106350000Y-66130000D01*
X106350000Y-68630000D02*
X106350000Y-67380000D01*
X106350000Y-69880000D02*
X106350000Y-68630000D01*
X102650000Y-66990000D02*
X102650000Y-89630000D01*
X102650000Y-89630000D02*
X106200000Y-93180000D01*
X106200000Y-93180000D02*
X106350000Y-93180000D01*
X114490192Y-71110000D02*
X112075000Y-71110000D01*
X112320000Y-71110000D02*
X112075000Y-71110000D01*
X130634989Y-99191421D02*
X130634989Y-97219987D01*
X130634989Y-97219987D02*
X127844463Y-94429461D01*
X127844463Y-94429461D02*
X121080879Y-94429461D01*
X121080879Y-94429461D02*
X117135001Y-90483583D01*
X117135001Y-90483583D02*
X117135001Y-73754809D01*
X117135001Y-73754809D02*
X114490192Y-71110000D01*
X132000241Y-116290241D02*
X131625481Y-116665001D01*
X131625481Y-116665001D02*
X130179999Y-116665001D01*
X130179999Y-116665001D02*
X129854999Y-116340001D01*
X129854999Y-116340001D02*
X129854999Y-111232197D01*
X129854999Y-111232197D02*
X128584999Y-109962197D01*
X128584999Y-109962197D02*
X128584999Y-101241411D01*
X128584999Y-101241411D02*
X130634989Y-99191421D01*
X132000241Y-116290241D02*
X132000241Y-112067199D01*
X132000241Y-112067199D02*
X133769300Y-110298140D01*
X133769300Y-110298140D02*
X133769300Y-109623960D01*
X149872900Y-126812140D02*
X150719350Y-126812140D01*
X150719350Y-126812140D02*
X150968591Y-127061381D01*
X150968591Y-127061381D02*
X152904999Y-127061381D01*
X152904999Y-127061381D02*
X153530000Y-126436380D01*
X144656269Y-109459927D02*
X146159927Y-109459927D01*
X146159927Y-109459927D02*
X146170000Y-109470000D01*
X152623534Y-126436380D02*
X150980000Y-126436380D01*
X150980000Y-126436380D02*
X150855380Y-126311760D01*
X150855380Y-126311760D02*
X149872900Y-126311760D01*
X144656269Y-110755327D02*
X146064673Y-110755327D01*
X146064673Y-110755327D02*
X146080000Y-110740000D01*
X153610000Y-127330000D02*
X153080000Y-127860000D01*
X153080000Y-127860000D02*
X151097100Y-127860000D01*
X151097100Y-127860000D02*
X150547080Y-127309980D01*
X150547080Y-127309980D02*
X149872900Y-127309980D01*
X150244269Y-110755327D02*
X151665327Y-110755327D01*
X151665327Y-110755327D02*
X151670000Y-110760000D01*
X149872900Y-127810360D02*
X150411050Y-127810360D01*
X150411050Y-127810360D02*
X150910700Y-128310010D01*
X150910700Y-128310010D02*
X153513874Y-128310010D01*
X153513874Y-128310010D02*
X154580784Y-127243100D01*
X149873260Y-127810000D02*
X149872900Y-127810360D01*
X150244269Y-109447227D02*
X151606931Y-109447227D01*
X151606931Y-109447227D02*
X151609852Y-109450148D01*
X106350000Y-125310000D02*
X106350000Y-124060000D01*
X106350000Y-124060000D02*
X106350000Y-122810000D01*
X106350000Y-122810000D02*
X106350000Y-121560000D01*
X106350000Y-121560000D02*
X105080000Y-120290000D01*
X105080000Y-120290000D02*
X105080000Y-108400000D01*
X105080000Y-108400000D02*
X106350000Y-107130000D01*
X109009968Y-59710000D02*
X109009968Y-58770032D01*
X109009968Y-58770032D02*
X110160000Y-57620000D01*
X108119869Y-71520131D02*
X108119869Y-60600099D01*
X108119869Y-60600099D02*
X109009968Y-59710000D01*
X107620000Y-71578616D02*
X108061384Y-71578616D01*
X108061384Y-71578616D02*
X108119869Y-71520131D01*
X107620000Y-83020000D02*
X107620000Y-84440000D01*
X107620000Y-84440000D02*
X106500000Y-85560000D01*
X106500000Y-85560000D02*
X106350000Y-85560000D01*
X106350000Y-85560000D02*
X106350000Y-84835000D01*
X106350000Y-84835000D02*
X105399990Y-83884990D01*
X105399990Y-83884990D02*
X105399990Y-73798626D01*
X105399990Y-73798626D02*
X107620000Y-71578616D01*
X106350000Y-91930000D02*
X106500000Y-91930000D01*
X106500000Y-91930000D02*
X108245001Y-90184999D01*
X108245001Y-90184999D02*
X108245001Y-87799999D01*
X107255002Y-86810000D02*
X107225000Y-86810000D01*
X108245001Y-87799999D02*
X107255002Y-86810000D01*
X107225000Y-86810000D02*
X106350000Y-86810000D01*
X106350000Y-105254999D02*
X106350000Y-105880000D01*
X106350000Y-100800000D02*
X106350000Y-105254999D01*
X144650000Y-93375000D02*
X144100000Y-93375000D01*
X144100000Y-93375000D02*
X143768557Y-93043557D01*
X143768557Y-93043557D02*
X143768557Y-92074282D01*
X147675000Y-98350000D02*
X147675000Y-98945000D01*
X133620000Y-132450000D02*
X133620000Y-135335000D01*
X133620000Y-135335000D02*
X132015000Y-136940000D01*
X132015000Y-136940000D02*
X131790000Y-136940000D01*
X137170000Y-130590000D02*
X137170000Y-133940000D01*
X128220000Y-131180000D02*
X129270000Y-131180000D01*
X129270000Y-131180000D02*
X130600000Y-129850000D01*
X127509989Y-108420000D02*
X127509989Y-110667169D01*
X127509989Y-110667169D02*
X129229999Y-112387179D01*
X129229999Y-112387179D02*
X129229999Y-115395000D01*
X130546040Y-108399680D02*
X129260320Y-108399680D01*
X129260320Y-108399680D02*
X129250000Y-108410000D01*
X135360000Y-131170000D02*
X133630000Y-131170000D01*
X133630000Y-131170000D02*
X133620000Y-131180000D01*
X131770320Y-104676040D02*
X131770320Y-103105318D01*
X131770320Y-103105318D02*
X131350001Y-102684999D01*
X131350001Y-102684999D02*
X130749999Y-102684999D01*
X130749999Y-102684999D02*
X130424999Y-103009999D01*
X130424999Y-103009999D02*
X130424999Y-103885001D01*
X130424999Y-103885001D02*
X129460000Y-104850000D01*
X146170000Y-131840000D02*
X147894998Y-131840000D01*
X148560001Y-131905001D02*
X148885001Y-131580001D01*
X148885001Y-130621261D02*
X148648620Y-130384880D01*
X147894998Y-131840000D02*
X147959999Y-131905001D01*
X147959999Y-131905001D02*
X148560001Y-131905001D01*
X148885001Y-131580001D02*
X148885001Y-130621261D01*
X148648620Y-130384880D02*
X148648620Y-130209200D01*
X148648620Y-130209200D02*
X148648620Y-129535020D01*
X142570000Y-135210000D02*
X142095000Y-135210000D01*
X142095000Y-135210000D02*
X141469999Y-134584999D01*
X141469999Y-134584999D02*
X141469999Y-133379999D01*
X142989998Y-131860000D02*
X144100000Y-131860000D01*
X141469999Y-133379999D02*
X142989998Y-131860000D01*
X143610000Y-129330000D02*
X143909999Y-129030001D01*
X143909999Y-129030001D02*
X143909999Y-128674679D01*
X143909999Y-128674679D02*
X144240799Y-128343879D01*
X144240799Y-128343879D02*
X144891841Y-128343879D01*
X144891841Y-128343879D02*
X144924980Y-128310740D01*
X137170000Y-135210000D02*
X137645000Y-135210000D01*
X142555000Y-130300000D02*
X142570000Y-130300000D01*
X137645000Y-135210000D02*
X142555000Y-130300000D01*
M02*
