G04 #@! TF.FileFunction,Soldermask,Bot*
%FSLAX46Y46*%
G04 Gerber Fmt 4.6, Leading zero omitted, Abs format (unit mm)*
G04 Created by KiCad (PCBNEW 4.0.7) date Monday, February 19, 2018 'AMt' 01:15:01 AM*
%MOMM*%
%LPD*%
G01*
G04 APERTURE LIST*
%ADD10C,0.100000*%
%ADD11R,1.650000X1.350000*%
%ADD12O,1.650000X1.350000*%
%ADD13O,1.650000X1.500000*%
%ADD14R,2.100000X2.100000*%
%ADD15O,2.100000X2.100000*%
%ADD16R,4.750000X4.910000*%
%ADD17R,1.100000X1.100000*%
%ADD18R,1.650000X1.500000*%
%ADD19R,1.600000X1.150000*%
%ADD20R,1.150000X1.600000*%
%ADD21R,1.600000X1.900000*%
%ADD22R,1.300000X1.600000*%
%ADD23R,1.600000X1.300000*%
%ADD24R,1.100000X0.800000*%
%ADD25R,2.190000X0.640000*%
%ADD26R,0.640000X1.000000*%
%ADD27R,1.000000X0.640000*%
%ADD28R,3.000000X8.600000*%
%ADD29R,0.381000X1.041400*%
%ADD30R,1.041400X0.381000*%
%ADD31R,1.143000X1.143000*%
%ADD32R,0.800000X1.100000*%
%ADD33R,1.250000X0.680000*%
%ADD34R,1.150000X0.680000*%
G04 APERTURE END LIST*
D10*
D11*
X106350000Y-79130000D03*
D12*
X106350000Y-77880000D03*
X106350000Y-76630000D03*
X106350000Y-75380000D03*
D13*
X106350000Y-74130000D03*
D14*
X158420000Y-56350000D03*
D15*
X158420000Y-53810000D03*
X160960000Y-56350000D03*
X160960000Y-53810000D03*
X163500000Y-56350000D03*
X163500000Y-53810000D03*
D16*
X137037500Y-67895000D03*
D17*
X133907500Y-67260000D03*
X133907500Y-68530000D03*
X133907500Y-69800000D03*
X133907500Y-65990000D03*
X139507500Y-65990000D03*
X139507500Y-69800000D03*
X139507500Y-68530000D03*
X139507500Y-67260000D03*
D16*
X137077500Y-61455000D03*
D17*
X133947500Y-60820000D03*
X133947500Y-62090000D03*
X133947500Y-63360000D03*
X133947500Y-59550000D03*
X139547500Y-59550000D03*
X139547500Y-63360000D03*
X139547500Y-62090000D03*
X139547500Y-60820000D03*
D14*
X142920000Y-56350000D03*
D15*
X142920000Y-53810000D03*
X145460000Y-56350000D03*
X145460000Y-53810000D03*
X148000000Y-56350000D03*
X148000000Y-53810000D03*
X150540000Y-56350000D03*
X150540000Y-53810000D03*
X153080000Y-56350000D03*
X153080000Y-53810000D03*
D18*
X106350000Y-117310000D03*
D12*
X106350000Y-116060000D03*
X106350000Y-114810000D03*
X106350000Y-113560000D03*
D13*
X106350000Y-112310000D03*
D18*
X188900000Y-74130000D03*
D12*
X188900000Y-75380000D03*
X188900000Y-76630000D03*
X188900000Y-77880000D03*
D13*
X188900000Y-79130000D03*
D18*
X188900000Y-112230000D03*
D12*
X188900000Y-113480000D03*
X188900000Y-114730000D03*
X188900000Y-115980000D03*
D13*
X188900000Y-117230000D03*
D19*
X106350000Y-90640000D03*
X104450000Y-90640000D03*
X119680000Y-90640000D03*
X117780000Y-90640000D03*
D20*
X102540000Y-98900000D03*
X102540000Y-100800000D03*
X116510000Y-98260000D03*
X116510000Y-100160000D03*
X105080000Y-98260000D03*
X105080000Y-100160000D03*
X119050000Y-98260000D03*
X119050000Y-100160000D03*
D21*
X102540000Y-93020000D03*
X102540000Y-95720000D03*
X115240000Y-93180000D03*
X115240000Y-95880000D03*
D22*
X102540000Y-103340000D03*
X102540000Y-105540000D03*
X105080000Y-108760000D03*
X105080000Y-110960000D03*
X102540000Y-110620000D03*
X102540000Y-108420000D03*
X116510000Y-103340000D03*
X116510000Y-105540000D03*
X116510000Y-110960000D03*
X116510000Y-108760000D03*
X119050000Y-108760000D03*
X119050000Y-110960000D03*
D23*
X109820000Y-100800000D03*
X107620000Y-100800000D03*
X123790000Y-100800000D03*
X121590000Y-100800000D03*
X107620000Y-98260000D03*
X109820000Y-98260000D03*
X121930000Y-98260000D03*
X124130000Y-98260000D03*
D24*
X106350000Y-103310000D03*
X106350000Y-103960000D03*
X106350000Y-104610000D03*
X104450000Y-104610000D03*
X104450000Y-103310000D03*
X104450000Y-103960000D03*
D25*
X122310000Y-94940000D03*
X122310000Y-94450000D03*
X122310000Y-93960000D03*
D26*
X122110000Y-93050000D03*
X122610000Y-93050000D03*
X123110000Y-93050000D03*
X123610000Y-93050000D03*
D27*
X124010000Y-93950000D03*
X124010000Y-94450000D03*
X124010000Y-94950000D03*
D26*
X123610000Y-95850000D03*
X123110000Y-95850000D03*
X122610000Y-95850000D03*
X122110000Y-95850000D03*
D24*
X120320000Y-103310000D03*
X120320000Y-103960000D03*
X120320000Y-104610000D03*
X118420000Y-104610000D03*
X118420000Y-103310000D03*
X118420000Y-103960000D03*
D25*
X108460000Y-94940000D03*
X108460000Y-94450000D03*
X108460000Y-93960000D03*
D26*
X108260000Y-93050000D03*
X108760000Y-93050000D03*
X109260000Y-93050000D03*
X109760000Y-93050000D03*
D27*
X110160000Y-93950000D03*
X110160000Y-94450000D03*
X110160000Y-94950000D03*
D26*
X109760000Y-95850000D03*
X109260000Y-95850000D03*
X108760000Y-95850000D03*
X108260000Y-95850000D03*
D19*
X157150000Y-90640000D03*
X155250000Y-90640000D03*
D20*
X180010000Y-90640000D03*
X180010000Y-88740000D03*
D19*
X153970000Y-100800000D03*
X152070000Y-100800000D03*
X178100000Y-100800000D03*
X176200000Y-100800000D03*
D20*
X149530000Y-101440000D03*
X149530000Y-103340000D03*
X173660000Y-101440000D03*
X173660000Y-103340000D03*
D19*
X159060000Y-89370000D03*
X160960000Y-89370000D03*
X183190000Y-88100000D03*
X185090000Y-88100000D03*
X159060000Y-91910000D03*
X160960000Y-91910000D03*
X182550000Y-90640000D03*
X184450000Y-90640000D03*
D20*
X162230000Y-102700000D03*
X162230000Y-100800000D03*
X186360000Y-102700000D03*
X186360000Y-100800000D03*
X159690000Y-96350000D03*
X159690000Y-94450000D03*
X183820000Y-96350000D03*
X183820000Y-94450000D03*
X153340000Y-91910000D03*
X153340000Y-90010000D03*
X176200000Y-93820000D03*
X176200000Y-95720000D03*
D28*
X159690000Y-83020000D03*
X154090000Y-83020000D03*
X180010000Y-83020000D03*
X174410000Y-83020000D03*
D23*
X152070000Y-103340000D03*
X154270000Y-103340000D03*
X176200000Y-103340000D03*
X178400000Y-103340000D03*
X159350000Y-103340000D03*
X157150000Y-103340000D03*
X183480000Y-103340000D03*
X181280000Y-103340000D03*
X156220000Y-100800000D03*
X158420000Y-100800000D03*
X180350000Y-99530000D03*
X182550000Y-99530000D03*
X150970000Y-98260000D03*
X153170000Y-98260000D03*
X174000000Y-98260000D03*
X176200000Y-98260000D03*
D22*
X150800000Y-89030000D03*
X150800000Y-86830000D03*
X176200000Y-91910000D03*
X176200000Y-89710000D03*
D29*
X154399180Y-93520360D03*
X154899560Y-93520360D03*
X155399940Y-93520360D03*
X155900320Y-93520360D03*
X156398160Y-93520360D03*
D30*
X158348880Y-94470320D03*
X158348880Y-95968920D03*
D29*
X157899300Y-96918880D03*
X157398920Y-96918880D03*
X156898540Y-96918880D03*
X156398160Y-96918880D03*
X155900320Y-96918880D03*
D30*
X153949600Y-95968920D03*
X153949600Y-94470320D03*
D31*
X157150000Y-94719240D03*
X155148480Y-94719240D03*
X155148480Y-95720000D03*
X157150000Y-95720000D03*
D29*
X156898540Y-93520360D03*
X155399940Y-96918880D03*
D31*
X156149240Y-95720000D03*
X156149240Y-94719240D03*
D29*
X157409080Y-93520360D03*
X157899300Y-93520360D03*
X154899560Y-96918880D03*
X154399180Y-96918880D03*
X177990700Y-93251120D03*
X178491080Y-93251120D03*
X178991460Y-93251120D03*
X179491840Y-93251120D03*
X179989680Y-93251120D03*
D30*
X181940400Y-94201080D03*
X181940400Y-95699680D03*
D29*
X181490820Y-96649640D03*
X180990440Y-96649640D03*
X180490060Y-96649640D03*
X179989680Y-96649640D03*
X179491840Y-96649640D03*
D30*
X177541120Y-95699680D03*
X177541120Y-94201080D03*
D31*
X180741520Y-94450000D03*
X178740000Y-94450000D03*
X178740000Y-95450760D03*
X180741520Y-95450760D03*
D29*
X180490060Y-93251120D03*
X178991460Y-96649640D03*
D31*
X179740760Y-95450760D03*
X179740760Y-94450000D03*
D29*
X181000600Y-93251120D03*
X181490820Y-93251120D03*
X178491080Y-96649640D03*
X177990700Y-96649640D03*
D20*
X107620000Y-109060000D03*
X107620000Y-110960000D03*
X121590000Y-109060000D03*
X121590000Y-110960000D03*
X181280000Y-107780000D03*
X181280000Y-105880000D03*
X153340000Y-106200000D03*
X153340000Y-108100000D03*
D23*
X163160000Y-105880000D03*
X160960000Y-105880000D03*
D22*
X190170000Y-103000000D03*
X190170000Y-100800000D03*
X158420000Y-108420000D03*
X158420000Y-106220000D03*
X155880000Y-106220000D03*
X155880000Y-108420000D03*
X186360000Y-106220000D03*
X186360000Y-108420000D03*
X183820000Y-108420000D03*
X183820000Y-106220000D03*
D32*
X162260000Y-110320000D03*
X161610000Y-110320000D03*
X160960000Y-110320000D03*
X160960000Y-108420000D03*
X162260000Y-108420000D03*
X161610000Y-108420000D03*
X190170000Y-107780000D03*
X189520000Y-107780000D03*
X188870000Y-107780000D03*
X188870000Y-105880000D03*
X190170000Y-105880000D03*
X189520000Y-105880000D03*
D24*
X116090000Y-62030000D03*
X116090000Y-62680000D03*
X116090000Y-63330000D03*
X114190000Y-63330000D03*
X114190000Y-62030000D03*
X114190000Y-62680000D03*
D19*
X111730000Y-70190000D03*
X113630000Y-70190000D03*
D23*
X124180000Y-57100000D03*
X121980000Y-57100000D03*
X114190000Y-58610000D03*
X116390000Y-58610000D03*
D22*
X111340000Y-62710000D03*
X111340000Y-64910000D03*
X110160000Y-70320000D03*
X110160000Y-68120000D03*
D23*
X111630000Y-72090000D03*
X113830000Y-72090000D03*
D19*
X116240000Y-56470000D03*
X114340000Y-56470000D03*
D33*
X129415000Y-58960000D03*
D34*
X129465000Y-59460000D03*
X129465000Y-59960000D03*
X128315000Y-59960000D03*
X128315000Y-59460000D03*
X128315000Y-58960000D03*
D11*
X106350000Y-86810000D03*
D12*
X106350000Y-85560000D03*
D11*
X106350000Y-93180000D03*
D12*
X106350000Y-91930000D03*
D11*
X106350000Y-100800000D03*
D13*
X106350000Y-99550000D03*
D11*
X106350000Y-107130000D03*
D13*
X106350000Y-105880000D03*
D14*
X130480000Y-56350000D03*
D15*
X130480000Y-53810000D03*
X133020000Y-56350000D03*
X133020000Y-53810000D03*
X135560000Y-56350000D03*
X135560000Y-53810000D03*
X138100000Y-56350000D03*
X138100000Y-53810000D03*
D11*
X106350000Y-69880000D03*
D12*
X106350000Y-68630000D03*
X106350000Y-67380000D03*
X106350000Y-66130000D03*
D11*
X106350000Y-125310000D03*
D12*
X106350000Y-124060000D03*
X106350000Y-122810000D03*
X106350000Y-121560000D03*
M02*
