G04 #@! TF.FileFunction,Legend,Bot*
%FSLAX46Y46*%
G04 Gerber Fmt 4.6, Leading zero omitted, Abs format (unit mm)*
<<<<<<< HEAD
<<<<<<< HEAD
G04 Created by KiCad (PCBNEW 4.0.7) date Sunday, February 18, 2018 'PMt' 02:42:31 PM*
=======
G04 Created by KiCad (PCBNEW 4.0.7) date 02/17/18 23:48:35*
>>>>>>> origin/master
=======
G04 Created by KiCad (PCBNEW 4.0.7) date 02/17/18 23:48:35*
>>>>>>> origin/master
%MOMM*%
%LPD*%
G01*
G04 APERTURE LIST*
%ADD10C,0.100000*%
%ADD11C,0.300000*%
%ADD12C,0.120000*%
%ADD13C,0.150000*%
%ADD14C,0.127000*%
%ADD15C,0.010000*%
%ADD16C,0.060960*%
G04 APERTURE END LIST*
D10*
D11*
X167757142Y-131827857D02*
X167257142Y-131827857D01*
X167042856Y-132613571D02*
X167757142Y-132613571D01*
X167757142Y-131113571D01*
X167042856Y-131113571D01*
X166399999Y-132613571D02*
X166399999Y-131113571D01*
X165828571Y-131113571D01*
X165685713Y-131185000D01*
X165614285Y-131256429D01*
X165542856Y-131399286D01*
X165542856Y-131613571D01*
X165614285Y-131756429D01*
X165685713Y-131827857D01*
X165828571Y-131899286D01*
X166399999Y-131899286D01*
X164971428Y-132542143D02*
X164757142Y-132613571D01*
X164399999Y-132613571D01*
X164257142Y-132542143D01*
X164185713Y-132470714D01*
X164114285Y-132327857D01*
X164114285Y-132185000D01*
X164185713Y-132042143D01*
X164257142Y-131970714D01*
X164399999Y-131899286D01*
X164685713Y-131827857D01*
X164828571Y-131756429D01*
X164899999Y-131685000D01*
X164971428Y-131542143D01*
X164971428Y-131399286D01*
X164899999Y-131256429D01*
X164828571Y-131185000D01*
X164685713Y-131113571D01*
X164328571Y-131113571D01*
X164114285Y-131185000D01*
X162328571Y-132613571D02*
X162328571Y-131113571D01*
X161828571Y-132185000D01*
X161328571Y-131113571D01*
X161328571Y-132613571D01*
X160685714Y-132185000D02*
X159971428Y-132185000D01*
X160828571Y-132613571D02*
X160328571Y-131113571D01*
X159828571Y-132613571D01*
X159328571Y-132613571D02*
X159328571Y-131113571D01*
X158614285Y-132613571D02*
X158614285Y-131113571D01*
X157757142Y-132613571D01*
X157757142Y-131113571D01*
X155257142Y-131113571D02*
X155542856Y-131113571D01*
X155685713Y-131185000D01*
X155757142Y-131256429D01*
X155899999Y-131470714D01*
X155971428Y-131756429D01*
X155971428Y-132327857D01*
X155899999Y-132470714D01*
X155828571Y-132542143D01*
X155685713Y-132613571D01*
X155399999Y-132613571D01*
X155257142Y-132542143D01*
X155185713Y-132470714D01*
X155114285Y-132327857D01*
X155114285Y-131970714D01*
X155185713Y-131827857D01*
X155257142Y-131756429D01*
X155399999Y-131685000D01*
X155685713Y-131685000D01*
X155828571Y-131756429D01*
X155899999Y-131827857D01*
X155971428Y-131970714D01*
X154471428Y-132470714D02*
X154400000Y-132542143D01*
X154471428Y-132613571D01*
X154542857Y-132542143D01*
X154471428Y-132470714D01*
X154471428Y-132613571D01*
X153471428Y-131113571D02*
X153328571Y-131113571D01*
X153185714Y-131185000D01*
X153114285Y-131256429D01*
X153042856Y-131399286D01*
X152971428Y-131685000D01*
X152971428Y-132042143D01*
X153042856Y-132327857D01*
X153114285Y-132470714D01*
X153185714Y-132542143D01*
X153328571Y-132613571D01*
X153471428Y-132613571D01*
X153614285Y-132542143D01*
X153685714Y-132470714D01*
X153757142Y-132327857D01*
X153828571Y-132042143D01*
X153828571Y-131685000D01*
X153757142Y-131399286D01*
X153685714Y-131256429D01*
X153614285Y-131185000D01*
X153471428Y-131113571D01*
X175257143Y-135163571D02*
X175257143Y-133663571D01*
X174900000Y-133663571D01*
X174685715Y-133735000D01*
X174542857Y-133877857D01*
X174471429Y-134020714D01*
X174400000Y-134306429D01*
X174400000Y-134520714D01*
X174471429Y-134806429D01*
X174542857Y-134949286D01*
X174685715Y-135092143D01*
X174900000Y-135163571D01*
X175257143Y-135163571D01*
X173757143Y-134377857D02*
X173257143Y-134377857D01*
X173042857Y-135163571D02*
X173757143Y-135163571D01*
X173757143Y-133663571D01*
X173042857Y-133663571D01*
X172471429Y-135092143D02*
X172257143Y-135163571D01*
X171900000Y-135163571D01*
X171757143Y-135092143D01*
X171685714Y-135020714D01*
X171614286Y-134877857D01*
X171614286Y-134735000D01*
X171685714Y-134592143D01*
X171757143Y-134520714D01*
X171900000Y-134449286D01*
X172185714Y-134377857D01*
X172328572Y-134306429D01*
X172400000Y-134235000D01*
X172471429Y-134092143D01*
X172471429Y-133949286D01*
X172400000Y-133806429D01*
X172328572Y-133735000D01*
X172185714Y-133663571D01*
X171828572Y-133663571D01*
X171614286Y-133735000D01*
X170971429Y-135163571D02*
X170971429Y-133663571D01*
X169471429Y-133735000D02*
X169614286Y-133663571D01*
X169828572Y-133663571D01*
X170042857Y-133735000D01*
X170185715Y-133877857D01*
X170257143Y-134020714D01*
X170328572Y-134306429D01*
X170328572Y-134520714D01*
X170257143Y-134806429D01*
X170185715Y-134949286D01*
X170042857Y-135092143D01*
X169828572Y-135163571D01*
X169685715Y-135163571D01*
X169471429Y-135092143D01*
X169400000Y-135020714D01*
X169400000Y-134520714D01*
X169685715Y-134520714D01*
X168757143Y-135163571D02*
X168757143Y-133663571D01*
X167900000Y-135163571D01*
X167900000Y-133663571D01*
X167185714Y-134377857D02*
X166685714Y-134377857D01*
X166471428Y-135163571D02*
X167185714Y-135163571D01*
X167185714Y-133663571D01*
X166471428Y-133663571D01*
X165828571Y-135163571D02*
X165828571Y-133663571D01*
X165471428Y-133663571D01*
X165257143Y-133735000D01*
X165114285Y-133877857D01*
X165042857Y-134020714D01*
X164971428Y-134306429D01*
X164971428Y-134520714D01*
X165042857Y-134806429D01*
X165114285Y-134949286D01*
X165257143Y-135092143D01*
X165471428Y-135163571D01*
X165828571Y-135163571D01*
X162685714Y-134377857D02*
X162471428Y-134449286D01*
X162400000Y-134520714D01*
X162328571Y-134663571D01*
X162328571Y-134877857D01*
X162400000Y-135020714D01*
X162471428Y-135092143D01*
X162614286Y-135163571D01*
X163185714Y-135163571D01*
X163185714Y-133663571D01*
X162685714Y-133663571D01*
X162542857Y-133735000D01*
X162471428Y-133806429D01*
X162400000Y-133949286D01*
X162400000Y-134092143D01*
X162471428Y-134235000D01*
X162542857Y-134306429D01*
X162685714Y-134377857D01*
X163185714Y-134377857D01*
X161400000Y-134449286D02*
X161400000Y-135163571D01*
X161900000Y-133663571D02*
X161400000Y-134449286D01*
X160900000Y-133663571D01*
X159257143Y-135163571D02*
X159257143Y-133663571D01*
X158757143Y-134735000D01*
X158257143Y-133663571D01*
X158257143Y-135163571D01*
X157542857Y-135163571D02*
X157542857Y-133663571D01*
X157042857Y-133663571D02*
X156185714Y-133663571D01*
X156614285Y-135163571D02*
X156614285Y-133663571D01*
X154828571Y-135020714D02*
X154900000Y-135092143D01*
X155114286Y-135163571D01*
X155257143Y-135163571D01*
X155471428Y-135092143D01*
X155614286Y-134949286D01*
X155685714Y-134806429D01*
X155757143Y-134520714D01*
X155757143Y-134306429D01*
X155685714Y-134020714D01*
X155614286Y-133877857D01*
X155471428Y-133735000D01*
X155257143Y-133663571D01*
X155114286Y-133663571D01*
X154900000Y-133735000D01*
X154828571Y-133806429D01*
X154185714Y-135163571D02*
X154185714Y-133663571D01*
X154185714Y-134377857D02*
X153328571Y-134377857D01*
X153328571Y-135163571D02*
X153328571Y-133663571D01*
X152614285Y-134377857D02*
X152114285Y-134377857D01*
X151899999Y-135163571D02*
X152614285Y-135163571D01*
X152614285Y-133663571D01*
X151899999Y-133663571D01*
X150542856Y-135163571D02*
X151257142Y-135163571D01*
X151257142Y-133663571D01*
X149328570Y-135163571D02*
X150042856Y-135163571D01*
X150042856Y-133663571D01*
X147757142Y-134735000D02*
X147042856Y-134735000D01*
X147899999Y-135163571D02*
X147399999Y-133663571D01*
X146899999Y-135163571D01*
X146399999Y-133663571D02*
X146399999Y-134877857D01*
X146328571Y-135020714D01*
X146257142Y-135092143D01*
X146114285Y-135163571D01*
X145828571Y-135163571D01*
X145685713Y-135092143D01*
X145614285Y-135020714D01*
X145542856Y-134877857D01*
X145542856Y-133663571D01*
D12*
X139107500Y-65295000D02*
X134307500Y-65295000D01*
X139107500Y-70495000D02*
X133507500Y-70495000D01*
X139147500Y-58855000D02*
X134347500Y-58855000D01*
X139147500Y-64055000D02*
X133547500Y-64055000D01*
X105750000Y-90040000D02*
X105050000Y-90040000D01*
X105050000Y-91240000D02*
X105750000Y-91240000D01*
X119080000Y-90040000D02*
X118380000Y-90040000D01*
X118380000Y-91240000D02*
X119080000Y-91240000D01*
X101940000Y-99500000D02*
X101940000Y-100200000D01*
X103140000Y-100200000D02*
X103140000Y-99500000D01*
X115910000Y-98860000D02*
X115910000Y-99560000D01*
X117110000Y-99560000D02*
X117110000Y-98860000D01*
X104480000Y-98860000D02*
X104480000Y-99560000D01*
X105680000Y-99560000D02*
X105680000Y-98860000D01*
X118450000Y-98860000D02*
X118450000Y-99560000D01*
X119650000Y-99560000D02*
X119650000Y-98860000D01*
X101640000Y-92746000D02*
X100916000Y-92746000D01*
X100916000Y-92746000D02*
X100916000Y-95994000D01*
X100916000Y-95994000D02*
X101640000Y-95994000D01*
X103440000Y-92746000D02*
X104164000Y-92746000D01*
X104164000Y-92746000D02*
X104164000Y-95994000D01*
X104164000Y-95994000D02*
X103440000Y-95994000D01*
X114340000Y-92906000D02*
X113616000Y-92906000D01*
X113616000Y-92906000D02*
X113616000Y-96154000D01*
X113616000Y-96154000D02*
X114340000Y-96154000D01*
X116140000Y-92906000D02*
X116864000Y-92906000D01*
X116864000Y-92906000D02*
X116864000Y-96154000D01*
X116864000Y-96154000D02*
X116140000Y-96154000D01*
X103220000Y-104940000D02*
X103220000Y-103940000D01*
X101860000Y-103940000D02*
X101860000Y-104940000D01*
X105760000Y-110360000D02*
X105760000Y-109360000D01*
X104400000Y-109360000D02*
X104400000Y-110360000D01*
X101860000Y-109020000D02*
X101860000Y-110020000D01*
X103220000Y-110020000D02*
X103220000Y-109020000D01*
X117190000Y-104940000D02*
X117190000Y-103940000D01*
X115830000Y-103940000D02*
X115830000Y-104940000D01*
X115830000Y-109360000D02*
X115830000Y-110360000D01*
X117190000Y-110360000D02*
X117190000Y-109360000D01*
X119730000Y-110360000D02*
X119730000Y-109360000D01*
X118370000Y-109360000D02*
X118370000Y-110360000D01*
X108220000Y-101480000D02*
X109220000Y-101480000D01*
X109220000Y-100120000D02*
X108220000Y-100120000D01*
X122190000Y-101480000D02*
X123190000Y-101480000D01*
X123190000Y-100120000D02*
X122190000Y-100120000D01*
X109220000Y-97580000D02*
X108220000Y-97580000D01*
X108220000Y-98940000D02*
X109220000Y-98940000D01*
X123530000Y-97580000D02*
X122530000Y-97580000D01*
X122530000Y-98940000D02*
X123530000Y-98940000D01*
D13*
X121410000Y-92750000D02*
X121410000Y-94980000D01*
X121650000Y-92750000D02*
X121410000Y-92750000D01*
X124310000Y-92750000D02*
X121650000Y-92750000D01*
X124310000Y-96150000D02*
X124310000Y-92750000D01*
X121410000Y-96150000D02*
X124310000Y-96150000D01*
X121410000Y-94980000D02*
X121410000Y-96150000D01*
X107560000Y-92750000D02*
X107560000Y-94980000D01*
X107800000Y-92750000D02*
X107560000Y-92750000D01*
X110460000Y-92750000D02*
X107800000Y-92750000D01*
X110460000Y-96150000D02*
X110460000Y-92750000D01*
X107560000Y-96150000D02*
X110460000Y-96150000D01*
X107560000Y-94980000D02*
X107560000Y-96150000D01*
D12*
X156550000Y-90040000D02*
X155850000Y-90040000D01*
X155850000Y-91240000D02*
X156550000Y-91240000D01*
X180610000Y-90040000D02*
X180610000Y-89340000D01*
X179410000Y-89340000D02*
X179410000Y-90040000D01*
X153370000Y-100200000D02*
X152670000Y-100200000D01*
X152670000Y-101400000D02*
X153370000Y-101400000D01*
X177500000Y-100200000D02*
X176800000Y-100200000D01*
X176800000Y-101400000D02*
X177500000Y-101400000D01*
X148930000Y-102040000D02*
X148930000Y-102740000D01*
X150130000Y-102740000D02*
X150130000Y-102040000D01*
X173060000Y-102040000D02*
X173060000Y-102740000D01*
X174260000Y-102740000D02*
X174260000Y-102040000D01*
X159660000Y-89970000D02*
X160360000Y-89970000D01*
X160360000Y-88770000D02*
X159660000Y-88770000D01*
X183790000Y-88700000D02*
X184490000Y-88700000D01*
X184490000Y-87500000D02*
X183790000Y-87500000D01*
X159660000Y-92510000D02*
X160360000Y-92510000D01*
X160360000Y-91310000D02*
X159660000Y-91310000D01*
X183150000Y-91240000D02*
X183850000Y-91240000D01*
X183850000Y-90040000D02*
X183150000Y-90040000D01*
X162830000Y-102100000D02*
X162830000Y-101400000D01*
X161630000Y-101400000D02*
X161630000Y-102100000D01*
X186960000Y-102100000D02*
X186960000Y-101400000D01*
X185760000Y-101400000D02*
X185760000Y-102100000D01*
X160290000Y-95750000D02*
X160290000Y-95050000D01*
X159090000Y-95050000D02*
X159090000Y-95750000D01*
X184420000Y-95750000D02*
X184420000Y-95050000D01*
X183220000Y-95050000D02*
X183220000Y-95750000D01*
X153940000Y-91310000D02*
X153940000Y-90610000D01*
X152740000Y-90610000D02*
X152740000Y-91310000D01*
X175600000Y-94420000D02*
X175600000Y-95120000D01*
X176800000Y-95120000D02*
X176800000Y-94420000D01*
D13*
X152790000Y-78920000D02*
X160990000Y-78920000D01*
X152790000Y-87120000D02*
X152790000Y-78920000D01*
X160990000Y-87120000D02*
X152790000Y-87120000D01*
X160990000Y-78920000D02*
X160990000Y-87120000D01*
X173110000Y-78920000D02*
X181310000Y-78920000D01*
X173110000Y-87120000D02*
X173110000Y-78920000D01*
X181310000Y-87120000D02*
X173110000Y-87120000D01*
X181310000Y-78920000D02*
X181310000Y-87120000D01*
D12*
X153670000Y-102660000D02*
X152670000Y-102660000D01*
X152670000Y-104020000D02*
X153670000Y-104020000D01*
X177800000Y-102660000D02*
X176800000Y-102660000D01*
X176800000Y-104020000D02*
X177800000Y-104020000D01*
X157750000Y-104020000D02*
X158750000Y-104020000D01*
X158750000Y-102660000D02*
X157750000Y-102660000D01*
X181880000Y-104020000D02*
X182880000Y-104020000D01*
X182880000Y-102660000D02*
X181880000Y-102660000D01*
X157820000Y-100120000D02*
X156820000Y-100120000D01*
X156820000Y-101480000D02*
X157820000Y-101480000D01*
X181950000Y-98850000D02*
X180950000Y-98850000D01*
X180950000Y-100210000D02*
X181950000Y-100210000D01*
X152570000Y-97580000D02*
X151570000Y-97580000D01*
X151570000Y-98940000D02*
X152570000Y-98940000D01*
X175600000Y-97580000D02*
X174600000Y-97580000D01*
X174600000Y-98940000D02*
X175600000Y-98940000D01*
X150120000Y-87430000D02*
X150120000Y-88430000D01*
X151480000Y-88430000D02*
X151480000Y-87430000D01*
X175520000Y-90310000D02*
X175520000Y-91310000D01*
X176880000Y-91310000D02*
X176880000Y-90310000D01*
D14*
X153748940Y-93718480D02*
X153748940Y-93319700D01*
X153748940Y-93319700D02*
X154150260Y-93319700D01*
X154150260Y-93319700D02*
X153748940Y-93718480D01*
X158450480Y-93418760D02*
X153848000Y-93418760D01*
X153848000Y-97020480D02*
X158450480Y-97020480D01*
X154249320Y-93718480D02*
G75*
G03X154249320Y-93718480I-101600J0D01*
G01*
X158450480Y-97020480D02*
X158450480Y-93418760D01*
X153848000Y-93418760D02*
X153848000Y-97020480D01*
X177340460Y-93449240D02*
X177340460Y-93050460D01*
X177340460Y-93050460D02*
X177741780Y-93050460D01*
X177741780Y-93050460D02*
X177340460Y-93449240D01*
X182042000Y-93149520D02*
X177439520Y-93149520D01*
X177439520Y-96751240D02*
X182042000Y-96751240D01*
X177840840Y-93449240D02*
G75*
G03X177840840Y-93449240I-101600J0D01*
G01*
X182042000Y-96751240D02*
X182042000Y-93149520D01*
X177439520Y-93149520D02*
X177439520Y-96751240D01*
D12*
X107020000Y-109660000D02*
X107020000Y-110360000D01*
X108220000Y-110360000D02*
X108220000Y-109660000D01*
X120990000Y-109660000D02*
X120990000Y-110360000D01*
X122190000Y-110360000D02*
X122190000Y-109660000D01*
X181880000Y-107180000D02*
X181880000Y-106480000D01*
X180680000Y-106480000D02*
X180680000Y-107180000D01*
X152740000Y-106800000D02*
X152740000Y-107500000D01*
X153940000Y-107500000D02*
X153940000Y-106800000D01*
X161560000Y-106560000D02*
X162560000Y-106560000D01*
X162560000Y-105200000D02*
X161560000Y-105200000D01*
X189490000Y-101400000D02*
X189490000Y-102400000D01*
X190850000Y-102400000D02*
X190850000Y-101400000D01*
X157740000Y-106820000D02*
X157740000Y-107820000D01*
X159100000Y-107820000D02*
X159100000Y-106820000D01*
X156560000Y-107820000D02*
X156560000Y-106820000D01*
X155200000Y-106820000D02*
X155200000Y-107820000D01*
X187040000Y-107820000D02*
X187040000Y-106820000D01*
X185680000Y-106820000D02*
X185680000Y-107820000D01*
X183140000Y-106820000D02*
X183140000Y-107820000D01*
X184500000Y-107820000D02*
X184500000Y-106820000D01*
X112330000Y-70790000D02*
X113030000Y-70790000D01*
X113030000Y-69590000D02*
X112330000Y-69590000D01*
X122580000Y-57780000D02*
X123580000Y-57780000D01*
X123580000Y-56420000D02*
X122580000Y-56420000D01*
X115790000Y-57930000D02*
X114790000Y-57930000D01*
X114790000Y-59290000D02*
X115790000Y-59290000D01*
X112020000Y-64310000D02*
X112020000Y-63310000D01*
X110660000Y-63310000D02*
X110660000Y-64310000D01*
X109480000Y-68720000D02*
X109480000Y-69720000D01*
X110840000Y-69720000D02*
X110840000Y-68720000D01*
X113230000Y-71410000D02*
X112230000Y-71410000D01*
X112230000Y-72770000D02*
X113230000Y-72770000D01*
X115640000Y-55870000D02*
X114940000Y-55870000D01*
X114940000Y-57070000D02*
X115640000Y-57070000D01*
X129835000Y-58610000D02*
X128135000Y-58610000D01*
X129685000Y-60310000D02*
X128135000Y-60310000D01*
D15*
G36*
X163384481Y-120040565D02*
X163371618Y-120088558D01*
X163378414Y-120201434D01*
X163408278Y-120397216D01*
X163464616Y-120693924D01*
X163550835Y-121109579D01*
X163670342Y-121662204D01*
X163815035Y-122317977D01*
X163902915Y-122720042D01*
X163974500Y-123059134D01*
X164022125Y-123298140D01*
X164038194Y-123398359D01*
X163953193Y-123415090D01*
X163710960Y-123430518D01*
X163330647Y-123444215D01*
X162831410Y-123455754D01*
X162232403Y-123464706D01*
X161552778Y-123470645D01*
X160811692Y-123473143D01*
X160686805Y-123473195D01*
X159937608Y-123474872D01*
X159246820Y-123479653D01*
X158633584Y-123487158D01*
X158117044Y-123497011D01*
X157716344Y-123508832D01*
X157450628Y-123522245D01*
X157339039Y-123536871D01*
X157336767Y-123539340D01*
X157345330Y-123610726D01*
X157378616Y-123669217D01*
X157452811Y-123716244D01*
X157584107Y-123753235D01*
X157788691Y-123781621D01*
X158082753Y-123802832D01*
X158482482Y-123818297D01*
X159004066Y-123829446D01*
X159663695Y-123837710D01*
X160477558Y-123844517D01*
X160819565Y-123846943D01*
X164162344Y-123870070D01*
X164396463Y-124928403D01*
X164612282Y-125906992D01*
X164801110Y-126769329D01*
X164961008Y-127506342D01*
X165090034Y-128108956D01*
X165186250Y-128568101D01*
X165247713Y-128874702D01*
X165272485Y-129019687D01*
X165272917Y-129026900D01*
X165184818Y-129055455D01*
X164920741Y-129078642D01*
X164481015Y-129096454D01*
X163865970Y-129108879D01*
X163075936Y-129115908D01*
X162318403Y-129117639D01*
X161549926Y-129119984D01*
X160871944Y-129126731D01*
X160300245Y-129137446D01*
X159850616Y-129151698D01*
X159538845Y-129169053D01*
X159380721Y-129189079D01*
X159363889Y-129198620D01*
X159365781Y-129293939D01*
X159382912Y-129370748D01*
X159432468Y-129431045D01*
X159531632Y-129476828D01*
X159697589Y-129510094D01*
X159947523Y-129532842D01*
X160298619Y-129547069D01*
X160768061Y-129554774D01*
X161373033Y-129557955D01*
X162130720Y-129558609D01*
X162460130Y-129558611D01*
X163301134Y-129559974D01*
X163979972Y-129564411D01*
X164510852Y-129572446D01*
X164907978Y-129584603D01*
X165185556Y-129601406D01*
X165357792Y-129623379D01*
X165438892Y-129651045D01*
X165449797Y-129668854D01*
X165475557Y-129859285D01*
X165537452Y-130091547D01*
X165614395Y-130302286D01*
X165685299Y-130428152D01*
X165706672Y-130440556D01*
X165758559Y-130361505D01*
X165811704Y-130159317D01*
X165837856Y-129999583D01*
X165896353Y-129558611D01*
X170938164Y-129558611D01*
X172096339Y-130380652D01*
X172594483Y-130735666D01*
X173174099Y-131151033D01*
X173774283Y-131582980D01*
X174334133Y-131987731D01*
X174519769Y-132122492D01*
X175267392Y-132665002D01*
X175876360Y-133104707D01*
X176349752Y-133443798D01*
X176690646Y-133684467D01*
X176902123Y-133828906D01*
X176987261Y-133879306D01*
X176988079Y-133879397D01*
X176993937Y-133817617D01*
X176988079Y-133799494D01*
X176921224Y-133719384D01*
X176745048Y-133529224D01*
X176474286Y-133244351D01*
X176123676Y-132880101D01*
X175707957Y-132451813D01*
X175241865Y-131974823D01*
X174912467Y-131639417D01*
X172866253Y-129559985D01*
X178141676Y-129537249D01*
X183417099Y-129514514D01*
X183343683Y-129316076D01*
X183270267Y-129117639D01*
X172436165Y-129117639D01*
X170333904Y-129117639D01*
X166012328Y-129117639D01*
X166272961Y-127772674D01*
X166363849Y-127309274D01*
X166444012Y-126911089D01*
X166507190Y-126608408D01*
X166547118Y-126431522D01*
X166557050Y-126398625D01*
X166632112Y-126437936D01*
X166823731Y-126565479D01*
X167107087Y-126764007D01*
X167457358Y-127016273D01*
X167668551Y-127170950D01*
X168132739Y-127512250D01*
X168627493Y-127875021D01*
X169098371Y-128219402D01*
X169490934Y-128505535D01*
X169545251Y-128544999D01*
X170333904Y-129117639D01*
X172436165Y-129117639D01*
X169829213Y-126493854D01*
X169192581Y-125853111D01*
X167294917Y-125853111D01*
X167293430Y-125854444D01*
X167203443Y-125805577D01*
X167014487Y-125677581D01*
X166772222Y-125501667D01*
X166523055Y-125322653D01*
X166328711Y-125195693D01*
X166233070Y-125148889D01*
X166158236Y-125221931D01*
X166104848Y-125343917D01*
X166064143Y-125412680D01*
X166014799Y-125357424D01*
X165947208Y-125160032D01*
X165883743Y-124927018D01*
X165808645Y-124625106D01*
X165759142Y-124399872D01*
X165744926Y-124295836D01*
X165745850Y-124293780D01*
X165812191Y-124344337D01*
X165978167Y-124497763D01*
X166219728Y-124731169D01*
X166512827Y-125021663D01*
X166554485Y-125063456D01*
X166846568Y-125360476D01*
X167081838Y-125606616D01*
X167238539Y-125778589D01*
X167294917Y-125853111D01*
X169192581Y-125853111D01*
X167222261Y-123870070D01*
X174361478Y-123847502D01*
X175466494Y-123843219D01*
X176519161Y-123837600D01*
X177506358Y-123830807D01*
X178414965Y-123823004D01*
X179231861Y-123814352D01*
X179943926Y-123805012D01*
X180538040Y-123795148D01*
X181001082Y-123784921D01*
X181319932Y-123774494D01*
X181481470Y-123764028D01*
X181499344Y-123759308D01*
X181495780Y-123707758D01*
X181479921Y-123662711D01*
X181440630Y-123623733D01*
X181366765Y-123590391D01*
X181247187Y-123562253D01*
X181070757Y-123538885D01*
X180826334Y-123519855D01*
X180502778Y-123504729D01*
X180088951Y-123493074D01*
X179573712Y-123484459D01*
X178945922Y-123478448D01*
X178194440Y-123474611D01*
X177308127Y-123472512D01*
X176275844Y-123471721D01*
X175086450Y-123471803D01*
X174111752Y-123472166D01*
X166868008Y-123475177D01*
X165150775Y-121733340D01*
X164702416Y-121281969D01*
X164294225Y-120877563D01*
X163942392Y-120535636D01*
X163663105Y-120271703D01*
X163472553Y-120101280D01*
X163386925Y-120039882D01*
X163384481Y-120040565D01*
X163384481Y-120040565D01*
G37*
X163384481Y-120040565D02*
X163371618Y-120088558D01*
X163378414Y-120201434D01*
X163408278Y-120397216D01*
X163464616Y-120693924D01*
X163550835Y-121109579D01*
X163670342Y-121662204D01*
X163815035Y-122317977D01*
X163902915Y-122720042D01*
X163974500Y-123059134D01*
X164022125Y-123298140D01*
X164038194Y-123398359D01*
X163953193Y-123415090D01*
X163710960Y-123430518D01*
X163330647Y-123444215D01*
X162831410Y-123455754D01*
X162232403Y-123464706D01*
X161552778Y-123470645D01*
X160811692Y-123473143D01*
X160686805Y-123473195D01*
X159937608Y-123474872D01*
X159246820Y-123479653D01*
X158633584Y-123487158D01*
X158117044Y-123497011D01*
X157716344Y-123508832D01*
X157450628Y-123522245D01*
X157339039Y-123536871D01*
X157336767Y-123539340D01*
X157345330Y-123610726D01*
X157378616Y-123669217D01*
X157452811Y-123716244D01*
X157584107Y-123753235D01*
X157788691Y-123781621D01*
X158082753Y-123802832D01*
X158482482Y-123818297D01*
X159004066Y-123829446D01*
X159663695Y-123837710D01*
X160477558Y-123844517D01*
X160819565Y-123846943D01*
X164162344Y-123870070D01*
X164396463Y-124928403D01*
X164612282Y-125906992D01*
X164801110Y-126769329D01*
X164961008Y-127506342D01*
X165090034Y-128108956D01*
X165186250Y-128568101D01*
X165247713Y-128874702D01*
X165272485Y-129019687D01*
X165272917Y-129026900D01*
X165184818Y-129055455D01*
X164920741Y-129078642D01*
X164481015Y-129096454D01*
X163865970Y-129108879D01*
X163075936Y-129115908D01*
X162318403Y-129117639D01*
X161549926Y-129119984D01*
X160871944Y-129126731D01*
X160300245Y-129137446D01*
X159850616Y-129151698D01*
X159538845Y-129169053D01*
X159380721Y-129189079D01*
X159363889Y-129198620D01*
X159365781Y-129293939D01*
X159382912Y-129370748D01*
X159432468Y-129431045D01*
X159531632Y-129476828D01*
X159697589Y-129510094D01*
X159947523Y-129532842D01*
X160298619Y-129547069D01*
X160768061Y-129554774D01*
X161373033Y-129557955D01*
X162130720Y-129558609D01*
X162460130Y-129558611D01*
X163301134Y-129559974D01*
X163979972Y-129564411D01*
X164510852Y-129572446D01*
X164907978Y-129584603D01*
X165185556Y-129601406D01*
X165357792Y-129623379D01*
X165438892Y-129651045D01*
X165449797Y-129668854D01*
X165475557Y-129859285D01*
X165537452Y-130091547D01*
X165614395Y-130302286D01*
X165685299Y-130428152D01*
X165706672Y-130440556D01*
X165758559Y-130361505D01*
X165811704Y-130159317D01*
X165837856Y-129999583D01*
X165896353Y-129558611D01*
X170938164Y-129558611D01*
X172096339Y-130380652D01*
X172594483Y-130735666D01*
X173174099Y-131151033D01*
X173774283Y-131582980D01*
X174334133Y-131987731D01*
X174519769Y-132122492D01*
X175267392Y-132665002D01*
X175876360Y-133104707D01*
X176349752Y-133443798D01*
X176690646Y-133684467D01*
X176902123Y-133828906D01*
X176987261Y-133879306D01*
X176988079Y-133879397D01*
X176993937Y-133817617D01*
X176988079Y-133799494D01*
X176921224Y-133719384D01*
X176745048Y-133529224D01*
X176474286Y-133244351D01*
X176123676Y-132880101D01*
X175707957Y-132451813D01*
X175241865Y-131974823D01*
X174912467Y-131639417D01*
X172866253Y-129559985D01*
X178141676Y-129537249D01*
X183417099Y-129514514D01*
X183343683Y-129316076D01*
X183270267Y-129117639D01*
X172436165Y-129117639D01*
X170333904Y-129117639D01*
X166012328Y-129117639D01*
X166272961Y-127772674D01*
X166363849Y-127309274D01*
X166444012Y-126911089D01*
X166507190Y-126608408D01*
X166547118Y-126431522D01*
X166557050Y-126398625D01*
X166632112Y-126437936D01*
X166823731Y-126565479D01*
X167107087Y-126764007D01*
X167457358Y-127016273D01*
X167668551Y-127170950D01*
X168132739Y-127512250D01*
X168627493Y-127875021D01*
X169098371Y-128219402D01*
X169490934Y-128505535D01*
X169545251Y-128544999D01*
X170333904Y-129117639D01*
X172436165Y-129117639D01*
X169829213Y-126493854D01*
X169192581Y-125853111D01*
X167294917Y-125853111D01*
X167293430Y-125854444D01*
X167203443Y-125805577D01*
X167014487Y-125677581D01*
X166772222Y-125501667D01*
X166523055Y-125322653D01*
X166328711Y-125195693D01*
X166233070Y-125148889D01*
X166158236Y-125221931D01*
X166104848Y-125343917D01*
X166064143Y-125412680D01*
X166014799Y-125357424D01*
X165947208Y-125160032D01*
X165883743Y-124927018D01*
X165808645Y-124625106D01*
X165759142Y-124399872D01*
X165744926Y-124295836D01*
X165745850Y-124293780D01*
X165812191Y-124344337D01*
X165978167Y-124497763D01*
X166219728Y-124731169D01*
X166512827Y-125021663D01*
X166554485Y-125063456D01*
X166846568Y-125360476D01*
X167081838Y-125606616D01*
X167238539Y-125778589D01*
X167294917Y-125853111D01*
X169192581Y-125853111D01*
X167222261Y-123870070D01*
X174361478Y-123847502D01*
X175466494Y-123843219D01*
X176519161Y-123837600D01*
X177506358Y-123830807D01*
X178414965Y-123823004D01*
X179231861Y-123814352D01*
X179943926Y-123805012D01*
X180538040Y-123795148D01*
X181001082Y-123784921D01*
X181319932Y-123774494D01*
X181481470Y-123764028D01*
X181499344Y-123759308D01*
X181495780Y-123707758D01*
X181479921Y-123662711D01*
X181440630Y-123623733D01*
X181366765Y-123590391D01*
X181247187Y-123562253D01*
X181070757Y-123538885D01*
X180826334Y-123519855D01*
X180502778Y-123504729D01*
X180088951Y-123493074D01*
X179573712Y-123484459D01*
X178945922Y-123478448D01*
X178194440Y-123474611D01*
X177308127Y-123472512D01*
X176275844Y-123471721D01*
X175086450Y-123471803D01*
X174111752Y-123472166D01*
X166868008Y-123475177D01*
X165150775Y-121733340D01*
X164702416Y-121281969D01*
X164294225Y-120877563D01*
X163942392Y-120535636D01*
X163663105Y-120271703D01*
X163472553Y-120101280D01*
X163386925Y-120039882D01*
X163384481Y-120040565D01*
G36*
X175365506Y-124681969D02*
X175427622Y-124895606D01*
X175535638Y-125226354D01*
X175672849Y-125626421D01*
X175822547Y-126048012D01*
X175968027Y-126443333D01*
X176092582Y-126764593D01*
X176099032Y-126780486D01*
X176423277Y-127408236D01*
X176834775Y-127892605D01*
X177354242Y-128253569D01*
X177840625Y-128459913D01*
X178166455Y-128536370D01*
X178607885Y-128594937D01*
X179109267Y-128632949D01*
X179614955Y-128647743D01*
X180069300Y-128636652D01*
X180416656Y-128597011D01*
X180467276Y-128585704D01*
X181006536Y-128392659D01*
X181387908Y-128124905D01*
X181610221Y-127783586D01*
X181673288Y-127408002D01*
X181640551Y-127184357D01*
X181552213Y-126832756D01*
X181418449Y-126388911D01*
X181249431Y-125888532D01*
X181205569Y-125766250D01*
X180741645Y-124487431D01*
X180062836Y-124461672D01*
X179742337Y-124458207D01*
X179503399Y-124472191D01*
X179388462Y-124500675D01*
X179384028Y-124508837D01*
X179412768Y-124613607D01*
X179491817Y-124852536D01*
X179610419Y-125194301D01*
X179757818Y-125607580D01*
X179825000Y-125792956D01*
X179981859Y-126232181D01*
X180114123Y-126618528D01*
X180210890Y-126918896D01*
X180261258Y-127100188D01*
X180265972Y-127131750D01*
X180185960Y-127283969D01*
X179969864Y-127396816D01*
X179653590Y-127470051D01*
X179273046Y-127503436D01*
X178864141Y-127496734D01*
X178462782Y-127449707D01*
X178104877Y-127362115D01*
X177826334Y-127233721D01*
X177722761Y-127148622D01*
X177628162Y-126996134D01*
X177494678Y-126711735D01*
X177337661Y-126331355D01*
X177172462Y-125890927D01*
X177112104Y-125719265D01*
X176687008Y-124487431D01*
X175996506Y-124461482D01*
X175306004Y-124435534D01*
X175365506Y-124681969D01*
X175365506Y-124681969D01*
G37*
X175365506Y-124681969D02*
X175427622Y-124895606D01*
X175535638Y-125226354D01*
X175672849Y-125626421D01*
X175822547Y-126048012D01*
X175968027Y-126443333D01*
X176092582Y-126764593D01*
X176099032Y-126780486D01*
X176423277Y-127408236D01*
X176834775Y-127892605D01*
X177354242Y-128253569D01*
X177840625Y-128459913D01*
X178166455Y-128536370D01*
X178607885Y-128594937D01*
X179109267Y-128632949D01*
X179614955Y-128647743D01*
X180069300Y-128636652D01*
X180416656Y-128597011D01*
X180467276Y-128585704D01*
X181006536Y-128392659D01*
X181387908Y-128124905D01*
X181610221Y-127783586D01*
X181673288Y-127408002D01*
X181640551Y-127184357D01*
X181552213Y-126832756D01*
X181418449Y-126388911D01*
X181249431Y-125888532D01*
X181205569Y-125766250D01*
X180741645Y-124487431D01*
X180062836Y-124461672D01*
X179742337Y-124458207D01*
X179503399Y-124472191D01*
X179388462Y-124500675D01*
X179384028Y-124508837D01*
X179412768Y-124613607D01*
X179491817Y-124852536D01*
X179610419Y-125194301D01*
X179757818Y-125607580D01*
X179825000Y-125792956D01*
X179981859Y-126232181D01*
X180114123Y-126618528D01*
X180210890Y-126918896D01*
X180261258Y-127100188D01*
X180265972Y-127131750D01*
X180185960Y-127283969D01*
X179969864Y-127396816D01*
X179653590Y-127470051D01*
X179273046Y-127503436D01*
X178864141Y-127496734D01*
X178462782Y-127449707D01*
X178104877Y-127362115D01*
X177826334Y-127233721D01*
X177722761Y-127148622D01*
X177628162Y-126996134D01*
X177494678Y-126711735D01*
X177337661Y-126331355D01*
X177172462Y-125890927D01*
X177112104Y-125719265D01*
X176687008Y-124487431D01*
X175996506Y-124461482D01*
X175306004Y-124435534D01*
X175365506Y-124681969D01*
G36*
X169729515Y-124720567D02*
X169809579Y-125005860D01*
X169912759Y-125290636D01*
X170035113Y-125583470D01*
X170884672Y-125608714D01*
X171734230Y-125633958D01*
X172119131Y-126736389D01*
X172277131Y-127186928D01*
X172427610Y-127612467D01*
X172554141Y-127966776D01*
X172640298Y-128203623D01*
X172644033Y-128213646D01*
X172784033Y-128588472D01*
X173438197Y-128588472D01*
X173786488Y-128581118D01*
X173990017Y-128554939D01*
X174079954Y-128503761D01*
X174092361Y-128458900D01*
X174063405Y-128335140D01*
X173983423Y-128077219D01*
X173862744Y-127716346D01*
X173711695Y-127283735D01*
X173607292Y-126993088D01*
X173443697Y-126540454D01*
X173303653Y-126149220D01*
X173197270Y-125847933D01*
X173134659Y-125665142D01*
X173122222Y-125623355D01*
X173204341Y-125609605D01*
X173426406Y-125598591D01*
X173751979Y-125591630D01*
X174048264Y-125589861D01*
X174428398Y-125582737D01*
X174732913Y-125563473D01*
X174925380Y-125535229D01*
X174974305Y-125509515D01*
X174944775Y-125389318D01*
X174868252Y-125160191D01*
X174785677Y-124936251D01*
X174597048Y-124443333D01*
X169668624Y-124443333D01*
X169729515Y-124720567D01*
X169729515Y-124720567D01*
G37*
X169729515Y-124720567D02*
X169809579Y-125005860D01*
X169912759Y-125290636D01*
X170035113Y-125583470D01*
X170884672Y-125608714D01*
X171734230Y-125633958D01*
X172119131Y-126736389D01*
X172277131Y-127186928D01*
X172427610Y-127612467D01*
X172554141Y-127966776D01*
X172640298Y-128203623D01*
X172644033Y-128213646D01*
X172784033Y-128588472D01*
X173438197Y-128588472D01*
X173786488Y-128581118D01*
X173990017Y-128554939D01*
X174079954Y-128503761D01*
X174092361Y-128458900D01*
X174063405Y-128335140D01*
X173983423Y-128077219D01*
X173862744Y-127716346D01*
X173711695Y-127283735D01*
X173607292Y-126993088D01*
X173443697Y-126540454D01*
X173303653Y-126149220D01*
X173197270Y-125847933D01*
X173134659Y-125665142D01*
X173122222Y-125623355D01*
X173204341Y-125609605D01*
X173426406Y-125598591D01*
X173751979Y-125591630D01*
X174048264Y-125589861D01*
X174428398Y-125582737D01*
X174732913Y-125563473D01*
X174925380Y-125535229D01*
X174974305Y-125509515D01*
X174944775Y-125389318D01*
X174868252Y-125160191D01*
X174785677Y-124936251D01*
X174597048Y-124443333D01*
X169668624Y-124443333D01*
X169729515Y-124720567D01*
G36*
X160343128Y-124445467D02*
X159728756Y-124452210D01*
X159265925Y-124464081D01*
X158942235Y-124481596D01*
X158745285Y-124505271D01*
X158662675Y-124535623D01*
X158658333Y-124545942D01*
X158684333Y-124681941D01*
X158751246Y-124922973D01*
X158812674Y-125118568D01*
X158967014Y-125588584D01*
X159819199Y-125589223D01*
X160671385Y-125589861D01*
X160897809Y-126185174D01*
X161028870Y-126538833D01*
X161189723Y-126986045D01*
X161354016Y-127453144D01*
X161426240Y-127662431D01*
X161728248Y-128544375D01*
X162398152Y-128570134D01*
X162758814Y-128575957D01*
X162970789Y-128556954D01*
X163060489Y-128509608D01*
X163068055Y-128480935D01*
X163039401Y-128362406D01*
X162960214Y-128108933D01*
X162840656Y-127751192D01*
X162690891Y-127319855D01*
X162582986Y-127016853D01*
X162419983Y-126561217D01*
X162280312Y-126166458D01*
X162173965Y-125861171D01*
X162110936Y-125673954D01*
X162097917Y-125628794D01*
X162180034Y-125612811D01*
X162402097Y-125600008D01*
X162727668Y-125591917D01*
X163023958Y-125589861D01*
X163425925Y-125582250D01*
X163732862Y-125561289D01*
X163914111Y-125529789D01*
X163950000Y-125504975D01*
X163921000Y-125381719D01*
X163845943Y-125150294D01*
X163767274Y-124931711D01*
X163584549Y-124443333D01*
X161121441Y-124443333D01*
X160343128Y-124445467D01*
X160343128Y-124445467D01*
G37*
X160343128Y-124445467D02*
X159728756Y-124452210D01*
X159265925Y-124464081D01*
X158942235Y-124481596D01*
X158745285Y-124505271D01*
X158662675Y-124535623D01*
X158658333Y-124545942D01*
X158684333Y-124681941D01*
X158751246Y-124922973D01*
X158812674Y-125118568D01*
X158967014Y-125588584D01*
X159819199Y-125589223D01*
X160671385Y-125589861D01*
X160897809Y-126185174D01*
X161028870Y-126538833D01*
X161189723Y-126986045D01*
X161354016Y-127453144D01*
X161426240Y-127662431D01*
X161728248Y-128544375D01*
X162398152Y-128570134D01*
X162758814Y-128575957D01*
X162970789Y-128556954D01*
X163060489Y-128509608D01*
X163068055Y-128480935D01*
X163039401Y-128362406D01*
X162960214Y-128108933D01*
X162840656Y-127751192D01*
X162690891Y-127319855D01*
X162582986Y-127016853D01*
X162419983Y-126561217D01*
X162280312Y-126166458D01*
X162173965Y-125861171D01*
X162110936Y-125673954D01*
X162097917Y-125628794D01*
X162180034Y-125612811D01*
X162402097Y-125600008D01*
X162727668Y-125591917D01*
X163023958Y-125589861D01*
X163425925Y-125582250D01*
X163732862Y-125561289D01*
X163914111Y-125529789D01*
X163950000Y-125504975D01*
X163921000Y-125381719D01*
X163845943Y-125150294D01*
X163767274Y-124931711D01*
X163584549Y-124443333D01*
X161121441Y-124443333D01*
X160343128Y-124445467D01*
D13*
X136802738Y-71842619D02*
X136897976Y-71795000D01*
X136993214Y-71699762D01*
X137136071Y-71556905D01*
X137231310Y-71509286D01*
X137326548Y-71509286D01*
X137278929Y-71747381D02*
X137374167Y-71699762D01*
X137469405Y-71604524D01*
X137517024Y-71414048D01*
X137517024Y-71080714D01*
X137469405Y-70890238D01*
X137374167Y-70795000D01*
X137278929Y-70747381D01*
X137088452Y-70747381D01*
X136993214Y-70795000D01*
X136897976Y-70890238D01*
X136850357Y-71080714D01*
X136850357Y-71414048D01*
X136897976Y-71604524D01*
X136993214Y-71699762D01*
X137088452Y-71747381D01*
X137278929Y-71747381D01*
X135945595Y-70747381D02*
X136421786Y-70747381D01*
X136469405Y-71223571D01*
X136421786Y-71175952D01*
X136326548Y-71128333D01*
X136088452Y-71128333D01*
X135993214Y-71175952D01*
X135945595Y-71223571D01*
X135897976Y-71318810D01*
X135897976Y-71556905D01*
X135945595Y-71652143D01*
X135993214Y-71699762D01*
X136088452Y-71747381D01*
X136326548Y-71747381D01*
X136421786Y-71699762D01*
X136469405Y-71652143D01*
X136842738Y-65402619D02*
X136937976Y-65355000D01*
X137033214Y-65259762D01*
X137176071Y-65116905D01*
X137271310Y-65069286D01*
X137366548Y-65069286D01*
X137318929Y-65307381D02*
X137414167Y-65259762D01*
X137509405Y-65164524D01*
X137557024Y-64974048D01*
X137557024Y-64640714D01*
X137509405Y-64450238D01*
X137414167Y-64355000D01*
X137318929Y-64307381D01*
X137128452Y-64307381D01*
X137033214Y-64355000D01*
X136937976Y-64450238D01*
X136890357Y-64640714D01*
X136890357Y-64974048D01*
X136937976Y-65164524D01*
X137033214Y-65259762D01*
X137128452Y-65307381D01*
X137318929Y-65307381D01*
X136033214Y-64307381D02*
X136223691Y-64307381D01*
X136318929Y-64355000D01*
X136366548Y-64402619D01*
X136461786Y-64545476D01*
X136509405Y-64735952D01*
X136509405Y-65116905D01*
X136461786Y-65212143D01*
X136414167Y-65259762D01*
X136318929Y-65307381D01*
X136128452Y-65307381D01*
X136033214Y-65259762D01*
X135985595Y-65212143D01*
X135937976Y-65116905D01*
X135937976Y-64878810D01*
X135985595Y-64783571D01*
X136033214Y-64735952D01*
X136128452Y-64688333D01*
X136318929Y-64688333D01*
X136414167Y-64735952D01*
X136461786Y-64783571D01*
X136509405Y-64878810D01*
X106257142Y-89747143D02*
X106304761Y-89794762D01*
X106447618Y-89842381D01*
X106542856Y-89842381D01*
X106685714Y-89794762D01*
X106780952Y-89699524D01*
X106828571Y-89604286D01*
X106876190Y-89413810D01*
X106876190Y-89270952D01*
X106828571Y-89080476D01*
X106780952Y-88985238D01*
X106685714Y-88890000D01*
X106542856Y-88842381D01*
X106447618Y-88842381D01*
X106304761Y-88890000D01*
X106257142Y-88937619D01*
X105828571Y-89842381D02*
X105828571Y-89175714D01*
X105828571Y-88842381D02*
X105876190Y-88890000D01*
X105828571Y-88937619D01*
X105780952Y-88890000D01*
X105828571Y-88842381D01*
X105828571Y-88937619D01*
X105352381Y-89175714D02*
X105352381Y-89842381D01*
X105352381Y-89270952D02*
X105304762Y-89223333D01*
X105209524Y-89175714D01*
X105066666Y-89175714D01*
X104971428Y-89223333D01*
X104923809Y-89318571D01*
X104923809Y-89842381D01*
X103923809Y-89842381D02*
X104495238Y-89842381D01*
X104209524Y-89842381D02*
X104209524Y-88842381D01*
X104304762Y-88985238D01*
X104400000Y-89080476D01*
X104495238Y-89128095D01*
X119587142Y-89747143D02*
X119634761Y-89794762D01*
X119777618Y-89842381D01*
X119872856Y-89842381D01*
X120015714Y-89794762D01*
X120110952Y-89699524D01*
X120158571Y-89604286D01*
X120206190Y-89413810D01*
X120206190Y-89270952D01*
X120158571Y-89080476D01*
X120110952Y-88985238D01*
X120015714Y-88890000D01*
X119872856Y-88842381D01*
X119777618Y-88842381D01*
X119634761Y-88890000D01*
X119587142Y-88937619D01*
X119158571Y-89842381D02*
X119158571Y-89175714D01*
X119158571Y-88842381D02*
X119206190Y-88890000D01*
X119158571Y-88937619D01*
X119110952Y-88890000D01*
X119158571Y-88842381D01*
X119158571Y-88937619D01*
X118682381Y-89175714D02*
X118682381Y-89842381D01*
X118682381Y-89270952D02*
X118634762Y-89223333D01*
X118539524Y-89175714D01*
X118396666Y-89175714D01*
X118301428Y-89223333D01*
X118253809Y-89318571D01*
X118253809Y-89842381D01*
X117825238Y-88937619D02*
X117777619Y-88890000D01*
X117682381Y-88842381D01*
X117444285Y-88842381D01*
X117349047Y-88890000D01*
X117301428Y-88937619D01*
X117253809Y-89032857D01*
X117253809Y-89128095D01*
X117301428Y-89270952D01*
X117872857Y-89842381D01*
X117253809Y-89842381D01*
X101647143Y-98492857D02*
X101694762Y-98445238D01*
X101742381Y-98302381D01*
X101742381Y-98207143D01*
X101694762Y-98064285D01*
X101599524Y-97969047D01*
X101504286Y-97921428D01*
X101313810Y-97873809D01*
X101170952Y-97873809D01*
X100980476Y-97921428D01*
X100885238Y-97969047D01*
X100790000Y-98064285D01*
X100742381Y-98207143D01*
X100742381Y-98302381D01*
X100790000Y-98445238D01*
X100837619Y-98492857D01*
X101742381Y-99064285D02*
X101694762Y-98969047D01*
X101647143Y-98921428D01*
X101551905Y-98873809D01*
X101266190Y-98873809D01*
X101170952Y-98921428D01*
X101123333Y-98969047D01*
X101075714Y-99064285D01*
X101075714Y-99207143D01*
X101123333Y-99302381D01*
X101170952Y-99350000D01*
X101266190Y-99397619D01*
X101551905Y-99397619D01*
X101647143Y-99350000D01*
X101694762Y-99302381D01*
X101742381Y-99207143D01*
X101742381Y-99064285D01*
X101075714Y-100254762D02*
X101742381Y-100254762D01*
X101075714Y-99826190D02*
X101599524Y-99826190D01*
X101694762Y-99873809D01*
X101742381Y-99969047D01*
X101742381Y-100111905D01*
X101694762Y-100207143D01*
X101647143Y-100254762D01*
X101075714Y-100588095D02*
X101075714Y-100969047D01*
X100742381Y-100730952D02*
X101599524Y-100730952D01*
X101694762Y-100778571D01*
X101742381Y-100873809D01*
X101742381Y-100969047D01*
X101742381Y-101826191D02*
X101742381Y-101254762D01*
X101742381Y-101540476D02*
X100742381Y-101540476D01*
X100885238Y-101445238D01*
X100980476Y-101350000D01*
X101028095Y-101254762D01*
X115617143Y-97852857D02*
X115664762Y-97805238D01*
X115712381Y-97662381D01*
X115712381Y-97567143D01*
X115664762Y-97424285D01*
X115569524Y-97329047D01*
X115474286Y-97281428D01*
X115283810Y-97233809D01*
X115140952Y-97233809D01*
X114950476Y-97281428D01*
X114855238Y-97329047D01*
X114760000Y-97424285D01*
X114712381Y-97567143D01*
X114712381Y-97662381D01*
X114760000Y-97805238D01*
X114807619Y-97852857D01*
X115712381Y-98424285D02*
X115664762Y-98329047D01*
X115617143Y-98281428D01*
X115521905Y-98233809D01*
X115236190Y-98233809D01*
X115140952Y-98281428D01*
X115093333Y-98329047D01*
X115045714Y-98424285D01*
X115045714Y-98567143D01*
X115093333Y-98662381D01*
X115140952Y-98710000D01*
X115236190Y-98757619D01*
X115521905Y-98757619D01*
X115617143Y-98710000D01*
X115664762Y-98662381D01*
X115712381Y-98567143D01*
X115712381Y-98424285D01*
X115045714Y-99614762D02*
X115712381Y-99614762D01*
X115045714Y-99186190D02*
X115569524Y-99186190D01*
X115664762Y-99233809D01*
X115712381Y-99329047D01*
X115712381Y-99471905D01*
X115664762Y-99567143D01*
X115617143Y-99614762D01*
X115045714Y-99948095D02*
X115045714Y-100329047D01*
X114712381Y-100090952D02*
X115569524Y-100090952D01*
X115664762Y-100138571D01*
X115712381Y-100233809D01*
X115712381Y-100329047D01*
X114807619Y-100614762D02*
X114760000Y-100662381D01*
X114712381Y-100757619D01*
X114712381Y-100995715D01*
X114760000Y-101090953D01*
X114807619Y-101138572D01*
X114902857Y-101186191D01*
X114998095Y-101186191D01*
X115140952Y-101138572D01*
X115712381Y-100567143D01*
X115712381Y-101186191D01*
X104187143Y-97448095D02*
X104234762Y-97400476D01*
X104282381Y-97257619D01*
X104282381Y-97162381D01*
X104234762Y-97019523D01*
X104139524Y-96924285D01*
X104044286Y-96876666D01*
X103853810Y-96829047D01*
X103710952Y-96829047D01*
X103520476Y-96876666D01*
X103425238Y-96924285D01*
X103330000Y-97019523D01*
X103282381Y-97162381D01*
X103282381Y-97257619D01*
X103330000Y-97400476D01*
X103377619Y-97448095D01*
X104282381Y-98019523D02*
X104234762Y-97924285D01*
X104187143Y-97876666D01*
X104091905Y-97829047D01*
X103806190Y-97829047D01*
X103710952Y-97876666D01*
X103663333Y-97924285D01*
X103615714Y-98019523D01*
X103615714Y-98162381D01*
X103663333Y-98257619D01*
X103710952Y-98305238D01*
X103806190Y-98352857D01*
X104091905Y-98352857D01*
X104187143Y-98305238D01*
X104234762Y-98257619D01*
X104282381Y-98162381D01*
X104282381Y-98019523D01*
X103615714Y-99210000D02*
X104282381Y-99210000D01*
X103615714Y-98781428D02*
X104139524Y-98781428D01*
X104234762Y-98829047D01*
X104282381Y-98924285D01*
X104282381Y-99067143D01*
X104234762Y-99162381D01*
X104187143Y-99210000D01*
X103615714Y-99543333D02*
X103615714Y-99924285D01*
X103282381Y-99686190D02*
X104139524Y-99686190D01*
X104234762Y-99733809D01*
X104282381Y-99829047D01*
X104282381Y-99924285D01*
X104282381Y-100162381D02*
X103615714Y-100686191D01*
X103615714Y-100162381D02*
X104282381Y-100686191D01*
X104282381Y-101590953D02*
X104282381Y-101019524D01*
X104282381Y-101305238D02*
X103282381Y-101305238D01*
X103425238Y-101210000D01*
X103520476Y-101114762D01*
X103568095Y-101019524D01*
X118157143Y-97448095D02*
X118204762Y-97400476D01*
X118252381Y-97257619D01*
X118252381Y-97162381D01*
X118204762Y-97019523D01*
X118109524Y-96924285D01*
X118014286Y-96876666D01*
X117823810Y-96829047D01*
X117680952Y-96829047D01*
X117490476Y-96876666D01*
X117395238Y-96924285D01*
X117300000Y-97019523D01*
X117252381Y-97162381D01*
X117252381Y-97257619D01*
X117300000Y-97400476D01*
X117347619Y-97448095D01*
X118252381Y-98019523D02*
X118204762Y-97924285D01*
X118157143Y-97876666D01*
X118061905Y-97829047D01*
X117776190Y-97829047D01*
X117680952Y-97876666D01*
X117633333Y-97924285D01*
X117585714Y-98019523D01*
X117585714Y-98162381D01*
X117633333Y-98257619D01*
X117680952Y-98305238D01*
X117776190Y-98352857D01*
X118061905Y-98352857D01*
X118157143Y-98305238D01*
X118204762Y-98257619D01*
X118252381Y-98162381D01*
X118252381Y-98019523D01*
X117585714Y-99210000D02*
X118252381Y-99210000D01*
X117585714Y-98781428D02*
X118109524Y-98781428D01*
X118204762Y-98829047D01*
X118252381Y-98924285D01*
X118252381Y-99067143D01*
X118204762Y-99162381D01*
X118157143Y-99210000D01*
X117585714Y-99543333D02*
X117585714Y-99924285D01*
X117252381Y-99686190D02*
X118109524Y-99686190D01*
X118204762Y-99733809D01*
X118252381Y-99829047D01*
X118252381Y-99924285D01*
X118252381Y-100162381D02*
X117585714Y-100686191D01*
X117585714Y-100162381D02*
X118252381Y-100686191D01*
X117347619Y-101019524D02*
X117300000Y-101067143D01*
X117252381Y-101162381D01*
X117252381Y-101400477D01*
X117300000Y-101495715D01*
X117347619Y-101543334D01*
X117442857Y-101590953D01*
X117538095Y-101590953D01*
X117680952Y-101543334D01*
X118252381Y-100971905D01*
X118252381Y-101590953D01*
X100468381Y-94203334D02*
X100468381Y-93727143D01*
X99468381Y-93727143D01*
X100468381Y-95060477D02*
X100468381Y-94489048D01*
X100468381Y-94774762D02*
X99468381Y-94774762D01*
X99611238Y-94679524D01*
X99706476Y-94584286D01*
X99754095Y-94489048D01*
X113168381Y-94363334D02*
X113168381Y-93887143D01*
X112168381Y-93887143D01*
X112263619Y-94649048D02*
X112216000Y-94696667D01*
X112168381Y-94791905D01*
X112168381Y-95030001D01*
X112216000Y-95125239D01*
X112263619Y-95172858D01*
X112358857Y-95220477D01*
X112454095Y-95220477D01*
X112596952Y-95172858D01*
X113168381Y-94601429D01*
X113168381Y-95220477D01*
X101542381Y-104273334D02*
X101066190Y-103940000D01*
X101542381Y-103701905D02*
X100542381Y-103701905D01*
X100542381Y-104082858D01*
X100590000Y-104178096D01*
X100637619Y-104225715D01*
X100732857Y-104273334D01*
X100875714Y-104273334D01*
X100970952Y-104225715D01*
X101018571Y-104178096D01*
X101066190Y-104082858D01*
X101066190Y-103701905D01*
X100970952Y-104844762D02*
X100923333Y-104749524D01*
X100875714Y-104701905D01*
X100780476Y-104654286D01*
X100732857Y-104654286D01*
X100637619Y-104701905D01*
X100590000Y-104749524D01*
X100542381Y-104844762D01*
X100542381Y-105035239D01*
X100590000Y-105130477D01*
X100637619Y-105178096D01*
X100732857Y-105225715D01*
X100780476Y-105225715D01*
X100875714Y-105178096D01*
X100923333Y-105130477D01*
X100970952Y-105035239D01*
X100970952Y-104844762D01*
X101018571Y-104749524D01*
X101066190Y-104701905D01*
X101161429Y-104654286D01*
X101351905Y-104654286D01*
X101447143Y-104701905D01*
X101494762Y-104749524D01*
X101542381Y-104844762D01*
X101542381Y-105035239D01*
X101494762Y-105130477D01*
X101447143Y-105178096D01*
X101351905Y-105225715D01*
X101161429Y-105225715D01*
X101066190Y-105178096D01*
X101018571Y-105130477D01*
X100970952Y-105035239D01*
X104082381Y-109217143D02*
X103606190Y-108883809D01*
X104082381Y-108645714D02*
X103082381Y-108645714D01*
X103082381Y-109026667D01*
X103130000Y-109121905D01*
X103177619Y-109169524D01*
X103272857Y-109217143D01*
X103415714Y-109217143D01*
X103510952Y-109169524D01*
X103558571Y-109121905D01*
X103606190Y-109026667D01*
X103606190Y-108645714D01*
X104082381Y-110169524D02*
X104082381Y-109598095D01*
X104082381Y-109883809D02*
X103082381Y-109883809D01*
X103225238Y-109788571D01*
X103320476Y-109693333D01*
X103368095Y-109598095D01*
X103082381Y-110788571D02*
X103082381Y-110883810D01*
X103130000Y-110979048D01*
X103177619Y-111026667D01*
X103272857Y-111074286D01*
X103463333Y-111121905D01*
X103701429Y-111121905D01*
X103891905Y-111074286D01*
X103987143Y-111026667D01*
X104034762Y-110979048D01*
X104082381Y-110883810D01*
X104082381Y-110788571D01*
X104034762Y-110693333D01*
X103987143Y-110645714D01*
X103891905Y-110598095D01*
X103701429Y-110550476D01*
X103463333Y-110550476D01*
X103272857Y-110598095D01*
X103177619Y-110645714D01*
X103130000Y-110693333D01*
X103082381Y-110788571D01*
X104442381Y-108877143D02*
X103966190Y-108543809D01*
X104442381Y-108305714D02*
X103442381Y-108305714D01*
X103442381Y-108686667D01*
X103490000Y-108781905D01*
X103537619Y-108829524D01*
X103632857Y-108877143D01*
X103775714Y-108877143D01*
X103870952Y-108829524D01*
X103918571Y-108781905D01*
X103966190Y-108686667D01*
X103966190Y-108305714D01*
X104442381Y-109829524D02*
X104442381Y-109258095D01*
X104442381Y-109543809D02*
X103442381Y-109543809D01*
X103585238Y-109448571D01*
X103680476Y-109353333D01*
X103728095Y-109258095D01*
X103775714Y-110686667D02*
X104442381Y-110686667D01*
X103394762Y-110448571D02*
X104109048Y-110210476D01*
X104109048Y-110829524D01*
X115512381Y-103797143D02*
X115036190Y-103463809D01*
X115512381Y-103225714D02*
X114512381Y-103225714D01*
X114512381Y-103606667D01*
X114560000Y-103701905D01*
X114607619Y-103749524D01*
X114702857Y-103797143D01*
X114845714Y-103797143D01*
X114940952Y-103749524D01*
X114988571Y-103701905D01*
X115036190Y-103606667D01*
X115036190Y-103225714D01*
X114607619Y-104178095D02*
X114560000Y-104225714D01*
X114512381Y-104320952D01*
X114512381Y-104559048D01*
X114560000Y-104654286D01*
X114607619Y-104701905D01*
X114702857Y-104749524D01*
X114798095Y-104749524D01*
X114940952Y-104701905D01*
X115512381Y-104130476D01*
X115512381Y-104749524D01*
X114512381Y-105654286D02*
X114512381Y-105178095D01*
X114988571Y-105130476D01*
X114940952Y-105178095D01*
X114893333Y-105273333D01*
X114893333Y-105511429D01*
X114940952Y-105606667D01*
X114988571Y-105654286D01*
X115083810Y-105701905D01*
X115321905Y-105701905D01*
X115417143Y-105654286D01*
X115464762Y-105606667D01*
X115512381Y-105511429D01*
X115512381Y-105273333D01*
X115464762Y-105178095D01*
X115417143Y-105130476D01*
X118412381Y-109217143D02*
X117936190Y-108883809D01*
X118412381Y-108645714D02*
X117412381Y-108645714D01*
X117412381Y-109026667D01*
X117460000Y-109121905D01*
X117507619Y-109169524D01*
X117602857Y-109217143D01*
X117745714Y-109217143D01*
X117840952Y-109169524D01*
X117888571Y-109121905D01*
X117936190Y-109026667D01*
X117936190Y-108645714D01*
X117507619Y-109598095D02*
X117460000Y-109645714D01*
X117412381Y-109740952D01*
X117412381Y-109979048D01*
X117460000Y-110074286D01*
X117507619Y-110121905D01*
X117602857Y-110169524D01*
X117698095Y-110169524D01*
X117840952Y-110121905D01*
X118412381Y-109550476D01*
X118412381Y-110169524D01*
X117412381Y-111026667D02*
X117412381Y-110836190D01*
X117460000Y-110740952D01*
X117507619Y-110693333D01*
X117650476Y-110598095D01*
X117840952Y-110550476D01*
X118221905Y-110550476D01*
X118317143Y-110598095D01*
X118364762Y-110645714D01*
X118412381Y-110740952D01*
X118412381Y-110931429D01*
X118364762Y-111026667D01*
X118317143Y-111074286D01*
X118221905Y-111121905D01*
X117983810Y-111121905D01*
X117888571Y-111074286D01*
X117840952Y-111026667D01*
X117793333Y-110931429D01*
X117793333Y-110740952D01*
X117840952Y-110645714D01*
X117888571Y-110598095D01*
X117983810Y-110550476D01*
X118052381Y-109217143D02*
X117576190Y-108883809D01*
X118052381Y-108645714D02*
X117052381Y-108645714D01*
X117052381Y-109026667D01*
X117100000Y-109121905D01*
X117147619Y-109169524D01*
X117242857Y-109217143D01*
X117385714Y-109217143D01*
X117480952Y-109169524D01*
X117528571Y-109121905D01*
X117576190Y-109026667D01*
X117576190Y-108645714D01*
X117147619Y-109598095D02*
X117100000Y-109645714D01*
X117052381Y-109740952D01*
X117052381Y-109979048D01*
X117100000Y-110074286D01*
X117147619Y-110121905D01*
X117242857Y-110169524D01*
X117338095Y-110169524D01*
X117480952Y-110121905D01*
X118052381Y-109550476D01*
X118052381Y-110169524D01*
X117052381Y-110502857D02*
X117052381Y-111169524D01*
X118052381Y-110740952D01*
X110077143Y-99802381D02*
X110410477Y-99326190D01*
X110648572Y-99802381D02*
X110648572Y-98802381D01*
X110267619Y-98802381D01*
X110172381Y-98850000D01*
X110124762Y-98897619D01*
X110077143Y-98992857D01*
X110077143Y-99135714D01*
X110124762Y-99230952D01*
X110172381Y-99278571D01*
X110267619Y-99326190D01*
X110648572Y-99326190D01*
X109791429Y-99135714D02*
X109410477Y-99135714D01*
X109648572Y-99802381D02*
X109648572Y-98945238D01*
X109600953Y-98850000D01*
X109505715Y-98802381D01*
X109410477Y-98802381D01*
X109077143Y-99802381D02*
X109077143Y-98802381D01*
X109077143Y-99183333D02*
X108981905Y-99135714D01*
X108791428Y-99135714D01*
X108696190Y-99183333D01*
X108648571Y-99230952D01*
X108600952Y-99326190D01*
X108600952Y-99611905D01*
X108648571Y-99707143D01*
X108696190Y-99754762D01*
X108791428Y-99802381D01*
X108981905Y-99802381D01*
X109077143Y-99754762D01*
X108172381Y-99802381D02*
X108172381Y-98802381D01*
X108172381Y-99183333D02*
X108077143Y-99135714D01*
X107886666Y-99135714D01*
X107791428Y-99183333D01*
X107743809Y-99230952D01*
X107696190Y-99326190D01*
X107696190Y-99611905D01*
X107743809Y-99707143D01*
X107791428Y-99754762D01*
X107886666Y-99802381D01*
X108077143Y-99802381D01*
X108172381Y-99754762D01*
X106743809Y-99802381D02*
X107315238Y-99802381D01*
X107029524Y-99802381D02*
X107029524Y-98802381D01*
X107124762Y-98945238D01*
X107220000Y-99040476D01*
X107315238Y-99088095D01*
X124047143Y-99802381D02*
X124380477Y-99326190D01*
X124618572Y-99802381D02*
X124618572Y-98802381D01*
X124237619Y-98802381D01*
X124142381Y-98850000D01*
X124094762Y-98897619D01*
X124047143Y-98992857D01*
X124047143Y-99135714D01*
X124094762Y-99230952D01*
X124142381Y-99278571D01*
X124237619Y-99326190D01*
X124618572Y-99326190D01*
X123761429Y-99135714D02*
X123380477Y-99135714D01*
X123618572Y-99802381D02*
X123618572Y-98945238D01*
X123570953Y-98850000D01*
X123475715Y-98802381D01*
X123380477Y-98802381D01*
X123047143Y-99802381D02*
X123047143Y-98802381D01*
X123047143Y-99183333D02*
X122951905Y-99135714D01*
X122761428Y-99135714D01*
X122666190Y-99183333D01*
X122618571Y-99230952D01*
X122570952Y-99326190D01*
X122570952Y-99611905D01*
X122618571Y-99707143D01*
X122666190Y-99754762D01*
X122761428Y-99802381D01*
X122951905Y-99802381D01*
X123047143Y-99754762D01*
X122142381Y-99802381D02*
X122142381Y-98802381D01*
X122142381Y-99183333D02*
X122047143Y-99135714D01*
X121856666Y-99135714D01*
X121761428Y-99183333D01*
X121713809Y-99230952D01*
X121666190Y-99326190D01*
X121666190Y-99611905D01*
X121713809Y-99707143D01*
X121761428Y-99754762D01*
X121856666Y-99802381D01*
X122047143Y-99802381D01*
X122142381Y-99754762D01*
X121285238Y-98897619D02*
X121237619Y-98850000D01*
X121142381Y-98802381D01*
X120904285Y-98802381D01*
X120809047Y-98850000D01*
X120761428Y-98897619D01*
X120713809Y-98992857D01*
X120713809Y-99088095D01*
X120761428Y-99230952D01*
X121332857Y-99802381D01*
X120713809Y-99802381D01*
X109910476Y-100162381D02*
X110243810Y-99686190D01*
X110481905Y-100162381D02*
X110481905Y-99162381D01*
X110100952Y-99162381D01*
X110005714Y-99210000D01*
X109958095Y-99257619D01*
X109910476Y-99352857D01*
X109910476Y-99495714D01*
X109958095Y-99590952D01*
X110005714Y-99638571D01*
X110100952Y-99686190D01*
X110481905Y-99686190D01*
X109624762Y-99495714D02*
X109243810Y-99495714D01*
X109481905Y-100162381D02*
X109481905Y-99305238D01*
X109434286Y-99210000D01*
X109339048Y-99162381D01*
X109243810Y-99162381D01*
X108910476Y-100162381D02*
X108910476Y-99162381D01*
X108910476Y-99543333D02*
X108815238Y-99495714D01*
X108624761Y-99495714D01*
X108529523Y-99543333D01*
X108481904Y-99590952D01*
X108434285Y-99686190D01*
X108434285Y-99971905D01*
X108481904Y-100067143D01*
X108529523Y-100114762D01*
X108624761Y-100162381D01*
X108815238Y-100162381D01*
X108910476Y-100114762D01*
X108148571Y-99495714D02*
X107767619Y-99495714D01*
X108005714Y-99162381D02*
X108005714Y-100019524D01*
X107958095Y-100114762D01*
X107862857Y-100162381D01*
X107767619Y-100162381D01*
X106910475Y-100162381D02*
X107481904Y-100162381D01*
X107196190Y-100162381D02*
X107196190Y-99162381D01*
X107291428Y-99305238D01*
X107386666Y-99400476D01*
X107481904Y-99448095D01*
X124220476Y-100162381D02*
X124553810Y-99686190D01*
X124791905Y-100162381D02*
X124791905Y-99162381D01*
X124410952Y-99162381D01*
X124315714Y-99210000D01*
X124268095Y-99257619D01*
X124220476Y-99352857D01*
X124220476Y-99495714D01*
X124268095Y-99590952D01*
X124315714Y-99638571D01*
X124410952Y-99686190D01*
X124791905Y-99686190D01*
X123934762Y-99495714D02*
X123553810Y-99495714D01*
X123791905Y-100162381D02*
X123791905Y-99305238D01*
X123744286Y-99210000D01*
X123649048Y-99162381D01*
X123553810Y-99162381D01*
X123220476Y-100162381D02*
X123220476Y-99162381D01*
X123220476Y-99543333D02*
X123125238Y-99495714D01*
X122934761Y-99495714D01*
X122839523Y-99543333D01*
X122791904Y-99590952D01*
X122744285Y-99686190D01*
X122744285Y-99971905D01*
X122791904Y-100067143D01*
X122839523Y-100114762D01*
X122934761Y-100162381D01*
X123125238Y-100162381D01*
X123220476Y-100114762D01*
X122458571Y-99495714D02*
X122077619Y-99495714D01*
X122315714Y-99162381D02*
X122315714Y-100019524D01*
X122268095Y-100114762D01*
X122172857Y-100162381D01*
X122077619Y-100162381D01*
X121791904Y-99257619D02*
X121744285Y-99210000D01*
X121649047Y-99162381D01*
X121410951Y-99162381D01*
X121315713Y-99210000D01*
X121268094Y-99257619D01*
X121220475Y-99352857D01*
X121220475Y-99448095D01*
X121268094Y-99590952D01*
X121839523Y-100162381D01*
X121220475Y-100162381D01*
X124098095Y-90632381D02*
X124098095Y-91441905D01*
X124050476Y-91537143D01*
X124002857Y-91584762D01*
X123907619Y-91632381D01*
X123717142Y-91632381D01*
X123621904Y-91584762D01*
X123574285Y-91537143D01*
X123526666Y-91441905D01*
X123526666Y-90632381D01*
X122526666Y-91632381D02*
X123098095Y-91632381D01*
X122812381Y-91632381D02*
X122812381Y-90632381D01*
X122907619Y-90775238D01*
X123002857Y-90870476D01*
X123098095Y-90918095D01*
X121621904Y-90632381D02*
X122098095Y-90632381D01*
X122145714Y-91108571D01*
X122098095Y-91060952D01*
X122002857Y-91013333D01*
X121764761Y-91013333D01*
X121669523Y-91060952D01*
X121621904Y-91108571D01*
X121574285Y-91203810D01*
X121574285Y-91441905D01*
X121621904Y-91537143D01*
X121669523Y-91584762D01*
X121764761Y-91632381D01*
X122002857Y-91632381D01*
X122098095Y-91584762D01*
X122145714Y-91537143D01*
X110248095Y-90632381D02*
X110248095Y-91441905D01*
X110200476Y-91537143D01*
X110152857Y-91584762D01*
X110057619Y-91632381D01*
X109867142Y-91632381D01*
X109771904Y-91584762D01*
X109724285Y-91537143D01*
X109676666Y-91441905D01*
X109676666Y-90632381D01*
X108676666Y-91632381D02*
X109248095Y-91632381D01*
X108962381Y-91632381D02*
X108962381Y-90632381D01*
X109057619Y-90775238D01*
X109152857Y-90870476D01*
X109248095Y-90918095D01*
X107724285Y-91632381D02*
X108295714Y-91632381D01*
X108010000Y-91632381D02*
X108010000Y-90632381D01*
X108105238Y-90775238D01*
X108200476Y-90870476D01*
X108295714Y-90918095D01*
X157938095Y-89747143D02*
X157985714Y-89794762D01*
X158128571Y-89842381D01*
X158223809Y-89842381D01*
X158366667Y-89794762D01*
X158461905Y-89699524D01*
X158509524Y-89604286D01*
X158557143Y-89413810D01*
X158557143Y-89270952D01*
X158509524Y-89080476D01*
X158461905Y-88985238D01*
X158366667Y-88890000D01*
X158223809Y-88842381D01*
X158128571Y-88842381D01*
X157985714Y-88890000D01*
X157938095Y-88937619D01*
X157509524Y-89842381D02*
X157509524Y-88842381D01*
X157509524Y-89223333D02*
X157414286Y-89175714D01*
X157223809Y-89175714D01*
X157128571Y-89223333D01*
X157080952Y-89270952D01*
X157033333Y-89366190D01*
X157033333Y-89651905D01*
X157080952Y-89747143D01*
X157128571Y-89794762D01*
X157223809Y-89842381D01*
X157414286Y-89842381D01*
X157509524Y-89794762D01*
X156652381Y-89794762D02*
X156557143Y-89842381D01*
X156366667Y-89842381D01*
X156271428Y-89794762D01*
X156223809Y-89699524D01*
X156223809Y-89651905D01*
X156271428Y-89556667D01*
X156366667Y-89509048D01*
X156509524Y-89509048D01*
X156604762Y-89461429D01*
X156652381Y-89366190D01*
X156652381Y-89318571D01*
X156604762Y-89223333D01*
X156509524Y-89175714D01*
X156366667Y-89175714D01*
X156271428Y-89223333D01*
X155938095Y-89175714D02*
X155557143Y-89175714D01*
X155795238Y-88842381D02*
X155795238Y-89699524D01*
X155747619Y-89794762D01*
X155652381Y-89842381D01*
X155557143Y-89842381D01*
X155271428Y-89556667D02*
X154795237Y-89556667D01*
X155366666Y-89842381D02*
X155033333Y-88842381D01*
X154699999Y-89842381D01*
X153842856Y-89842381D02*
X154414285Y-89842381D01*
X154128571Y-89842381D02*
X154128571Y-88842381D01*
X154223809Y-88985238D01*
X154319047Y-89080476D01*
X154414285Y-89128095D01*
X181617143Y-87880476D02*
X181664762Y-87832857D01*
X181712381Y-87690000D01*
X181712381Y-87594762D01*
X181664762Y-87451904D01*
X181569524Y-87356666D01*
X181474286Y-87309047D01*
X181283810Y-87261428D01*
X181140952Y-87261428D01*
X180950476Y-87309047D01*
X180855238Y-87356666D01*
X180760000Y-87451904D01*
X180712381Y-87594762D01*
X180712381Y-87690000D01*
X180760000Y-87832857D01*
X180807619Y-87880476D01*
X181712381Y-88309047D02*
X180712381Y-88309047D01*
X181093333Y-88309047D02*
X181045714Y-88404285D01*
X181045714Y-88594762D01*
X181093333Y-88690000D01*
X181140952Y-88737619D01*
X181236190Y-88785238D01*
X181521905Y-88785238D01*
X181617143Y-88737619D01*
X181664762Y-88690000D01*
X181712381Y-88594762D01*
X181712381Y-88404285D01*
X181664762Y-88309047D01*
X181664762Y-89166190D02*
X181712381Y-89261428D01*
X181712381Y-89451904D01*
X181664762Y-89547143D01*
X181569524Y-89594762D01*
X181521905Y-89594762D01*
X181426667Y-89547143D01*
X181379048Y-89451904D01*
X181379048Y-89309047D01*
X181331429Y-89213809D01*
X181236190Y-89166190D01*
X181188571Y-89166190D01*
X181093333Y-89213809D01*
X181045714Y-89309047D01*
X181045714Y-89451904D01*
X181093333Y-89547143D01*
X181045714Y-89880476D02*
X181045714Y-90261428D01*
X180712381Y-90023333D02*
X181569524Y-90023333D01*
X181664762Y-90070952D01*
X181712381Y-90166190D01*
X181712381Y-90261428D01*
X181188571Y-90928096D02*
X181236190Y-91070953D01*
X181283810Y-91118572D01*
X181379048Y-91166191D01*
X181521905Y-91166191D01*
X181617143Y-91118572D01*
X181664762Y-91070953D01*
X181712381Y-90975715D01*
X181712381Y-90594762D01*
X180712381Y-90594762D01*
X180712381Y-90928096D01*
X180760000Y-91023334D01*
X180807619Y-91070953D01*
X180902857Y-91118572D01*
X180998095Y-91118572D01*
X181093333Y-91070953D01*
X181140952Y-91023334D01*
X181188571Y-90928096D01*
X181188571Y-90594762D01*
X181712381Y-92118572D02*
X181712381Y-91547143D01*
X181712381Y-91832857D02*
X180712381Y-91832857D01*
X180855238Y-91737619D01*
X180950476Y-91642381D01*
X180998095Y-91547143D01*
X156091428Y-99907143D02*
X156139047Y-99954762D01*
X156281904Y-100002381D01*
X156377142Y-100002381D01*
X156520000Y-99954762D01*
X156615238Y-99859524D01*
X156662857Y-99764286D01*
X156710476Y-99573810D01*
X156710476Y-99430952D01*
X156662857Y-99240476D01*
X156615238Y-99145238D01*
X156520000Y-99050000D01*
X156377142Y-99002381D01*
X156281904Y-99002381D01*
X156139047Y-99050000D01*
X156091428Y-99097619D01*
X155234285Y-99954762D02*
X155329523Y-100002381D01*
X155520000Y-100002381D01*
X155615238Y-99954762D01*
X155662857Y-99907143D01*
X155710476Y-99811905D01*
X155710476Y-99526190D01*
X155662857Y-99430952D01*
X155615238Y-99383333D01*
X155520000Y-99335714D01*
X155329523Y-99335714D01*
X155234285Y-99383333D01*
X154662857Y-100002381D02*
X154758095Y-99954762D01*
X154805714Y-99907143D01*
X154853333Y-99811905D01*
X154853333Y-99526190D01*
X154805714Y-99430952D01*
X154758095Y-99383333D01*
X154662857Y-99335714D01*
X154519999Y-99335714D01*
X154424761Y-99383333D01*
X154377142Y-99430952D01*
X154329523Y-99526190D01*
X154329523Y-99811905D01*
X154377142Y-99907143D01*
X154424761Y-99954762D01*
X154519999Y-100002381D01*
X154662857Y-100002381D01*
X153900952Y-100002381D02*
X153900952Y-99335714D01*
X153900952Y-99430952D02*
X153853333Y-99383333D01*
X153758095Y-99335714D01*
X153615237Y-99335714D01*
X153519999Y-99383333D01*
X153472380Y-99478571D01*
X153472380Y-100002381D01*
X153472380Y-99478571D02*
X153424761Y-99383333D01*
X153329523Y-99335714D01*
X153186666Y-99335714D01*
X153091428Y-99383333D01*
X153043809Y-99478571D01*
X153043809Y-100002381D01*
X152567619Y-99335714D02*
X152567619Y-100335714D01*
X152567619Y-99383333D02*
X152472381Y-99335714D01*
X152281904Y-99335714D01*
X152186666Y-99383333D01*
X152139047Y-99430952D01*
X152091428Y-99526190D01*
X152091428Y-99811905D01*
X152139047Y-99907143D01*
X152186666Y-99954762D01*
X152281904Y-100002381D01*
X152472381Y-100002381D01*
X152567619Y-99954762D01*
X151710476Y-99097619D02*
X151662857Y-99050000D01*
X151567619Y-99002381D01*
X151329523Y-99002381D01*
X151234285Y-99050000D01*
X151186666Y-99097619D01*
X151139047Y-99192857D01*
X151139047Y-99288095D01*
X151186666Y-99430952D01*
X151758095Y-100002381D01*
X151139047Y-100002381D01*
X150758095Y-99716667D02*
X150281904Y-99716667D01*
X150853333Y-100002381D02*
X150520000Y-99002381D01*
X150186666Y-100002381D01*
X149329523Y-100002381D02*
X149900952Y-100002381D01*
X149615238Y-100002381D02*
X149615238Y-99002381D01*
X149710476Y-99145238D01*
X149805714Y-99240476D01*
X149900952Y-99288095D01*
X180292857Y-99907143D02*
X180340476Y-99954762D01*
X180483333Y-100002381D01*
X180578571Y-100002381D01*
X180721429Y-99954762D01*
X180816667Y-99859524D01*
X180864286Y-99764286D01*
X180911905Y-99573810D01*
X180911905Y-99430952D01*
X180864286Y-99240476D01*
X180816667Y-99145238D01*
X180721429Y-99050000D01*
X180578571Y-99002381D01*
X180483333Y-99002381D01*
X180340476Y-99050000D01*
X180292857Y-99097619D01*
X179435714Y-99954762D02*
X179530952Y-100002381D01*
X179721429Y-100002381D01*
X179816667Y-99954762D01*
X179864286Y-99907143D01*
X179911905Y-99811905D01*
X179911905Y-99526190D01*
X179864286Y-99430952D01*
X179816667Y-99383333D01*
X179721429Y-99335714D01*
X179530952Y-99335714D01*
X179435714Y-99383333D01*
X178864286Y-100002381D02*
X178959524Y-99954762D01*
X179007143Y-99907143D01*
X179054762Y-99811905D01*
X179054762Y-99526190D01*
X179007143Y-99430952D01*
X178959524Y-99383333D01*
X178864286Y-99335714D01*
X178721428Y-99335714D01*
X178626190Y-99383333D01*
X178578571Y-99430952D01*
X178530952Y-99526190D01*
X178530952Y-99811905D01*
X178578571Y-99907143D01*
X178626190Y-99954762D01*
X178721428Y-100002381D01*
X178864286Y-100002381D01*
X178102381Y-100002381D02*
X178102381Y-99335714D01*
X178102381Y-99430952D02*
X178054762Y-99383333D01*
X177959524Y-99335714D01*
X177816666Y-99335714D01*
X177721428Y-99383333D01*
X177673809Y-99478571D01*
X177673809Y-100002381D01*
X177673809Y-99478571D02*
X177626190Y-99383333D01*
X177530952Y-99335714D01*
X177388095Y-99335714D01*
X177292857Y-99383333D01*
X177245238Y-99478571D01*
X177245238Y-100002381D01*
X176769048Y-99335714D02*
X176769048Y-100335714D01*
X176769048Y-99383333D02*
X176673810Y-99335714D01*
X176483333Y-99335714D01*
X176388095Y-99383333D01*
X176340476Y-99430952D01*
X176292857Y-99526190D01*
X176292857Y-99811905D01*
X176340476Y-99907143D01*
X176388095Y-99954762D01*
X176483333Y-100002381D01*
X176673810Y-100002381D01*
X176769048Y-99954762D01*
X175911905Y-99097619D02*
X175864286Y-99050000D01*
X175769048Y-99002381D01*
X175530952Y-99002381D01*
X175435714Y-99050000D01*
X175388095Y-99097619D01*
X175340476Y-99192857D01*
X175340476Y-99288095D01*
X175388095Y-99430952D01*
X175959524Y-100002381D01*
X175340476Y-100002381D01*
X174578571Y-99478571D02*
X174435714Y-99526190D01*
X174388095Y-99573810D01*
X174340476Y-99669048D01*
X174340476Y-99811905D01*
X174388095Y-99907143D01*
X174435714Y-99954762D01*
X174530952Y-100002381D01*
X174911905Y-100002381D01*
X174911905Y-99002381D01*
X174578571Y-99002381D01*
X174483333Y-99050000D01*
X174435714Y-99097619D01*
X174388095Y-99192857D01*
X174388095Y-99288095D01*
X174435714Y-99383333D01*
X174483333Y-99430952D01*
X174578571Y-99478571D01*
X174911905Y-99478571D01*
X173388095Y-100002381D02*
X173959524Y-100002381D01*
X173673810Y-100002381D02*
X173673810Y-99002381D01*
X173769048Y-99145238D01*
X173864286Y-99240476D01*
X173959524Y-99288095D01*
X148637143Y-99794762D02*
X148684762Y-99747143D01*
X148732381Y-99604286D01*
X148732381Y-99509048D01*
X148684762Y-99366190D01*
X148589524Y-99270952D01*
X148494286Y-99223333D01*
X148303810Y-99175714D01*
X148160952Y-99175714D01*
X147970476Y-99223333D01*
X147875238Y-99270952D01*
X147780000Y-99366190D01*
X147732381Y-99509048D01*
X147732381Y-99604286D01*
X147780000Y-99747143D01*
X147827619Y-99794762D01*
X148684762Y-100651905D02*
X148732381Y-100556667D01*
X148732381Y-100366190D01*
X148684762Y-100270952D01*
X148637143Y-100223333D01*
X148541905Y-100175714D01*
X148256190Y-100175714D01*
X148160952Y-100223333D01*
X148113333Y-100270952D01*
X148065714Y-100366190D01*
X148065714Y-100556667D01*
X148113333Y-100651905D01*
X148732381Y-101223333D02*
X148684762Y-101128095D01*
X148637143Y-101080476D01*
X148541905Y-101032857D01*
X148256190Y-101032857D01*
X148160952Y-101080476D01*
X148113333Y-101128095D01*
X148065714Y-101223333D01*
X148065714Y-101366191D01*
X148113333Y-101461429D01*
X148160952Y-101509048D01*
X148256190Y-101556667D01*
X148541905Y-101556667D01*
X148637143Y-101509048D01*
X148684762Y-101461429D01*
X148732381Y-101366191D01*
X148732381Y-101223333D01*
X148732381Y-101985238D02*
X148065714Y-101985238D01*
X148160952Y-101985238D02*
X148113333Y-102032857D01*
X148065714Y-102128095D01*
X148065714Y-102270953D01*
X148113333Y-102366191D01*
X148208571Y-102413810D01*
X148732381Y-102413810D01*
X148208571Y-102413810D02*
X148113333Y-102461429D01*
X148065714Y-102556667D01*
X148065714Y-102699524D01*
X148113333Y-102794762D01*
X148208571Y-102842381D01*
X148732381Y-102842381D01*
X148065714Y-103318571D02*
X149065714Y-103318571D01*
X148113333Y-103318571D02*
X148065714Y-103413809D01*
X148065714Y-103604286D01*
X148113333Y-103699524D01*
X148160952Y-103747143D01*
X148256190Y-103794762D01*
X148541905Y-103794762D01*
X148637143Y-103747143D01*
X148684762Y-103699524D01*
X148732381Y-103604286D01*
X148732381Y-103413809D01*
X148684762Y-103318571D01*
X148446667Y-104175714D02*
X148446667Y-104651905D01*
X148732381Y-104080476D02*
X147732381Y-104413809D01*
X148732381Y-104747143D01*
X148732381Y-105604286D02*
X148732381Y-105032857D01*
X148732381Y-105318571D02*
X147732381Y-105318571D01*
X147875238Y-105223333D01*
X147970476Y-105128095D01*
X148018095Y-105032857D01*
X172767143Y-99723334D02*
X172814762Y-99675715D01*
X172862381Y-99532858D01*
X172862381Y-99437620D01*
X172814762Y-99294762D01*
X172719524Y-99199524D01*
X172624286Y-99151905D01*
X172433810Y-99104286D01*
X172290952Y-99104286D01*
X172100476Y-99151905D01*
X172005238Y-99199524D01*
X171910000Y-99294762D01*
X171862381Y-99437620D01*
X171862381Y-99532858D01*
X171910000Y-99675715D01*
X171957619Y-99723334D01*
X172814762Y-100580477D02*
X172862381Y-100485239D01*
X172862381Y-100294762D01*
X172814762Y-100199524D01*
X172767143Y-100151905D01*
X172671905Y-100104286D01*
X172386190Y-100104286D01*
X172290952Y-100151905D01*
X172243333Y-100199524D01*
X172195714Y-100294762D01*
X172195714Y-100485239D01*
X172243333Y-100580477D01*
X172862381Y-101151905D02*
X172814762Y-101056667D01*
X172767143Y-101009048D01*
X172671905Y-100961429D01*
X172386190Y-100961429D01*
X172290952Y-101009048D01*
X172243333Y-101056667D01*
X172195714Y-101151905D01*
X172195714Y-101294763D01*
X172243333Y-101390001D01*
X172290952Y-101437620D01*
X172386190Y-101485239D01*
X172671905Y-101485239D01*
X172767143Y-101437620D01*
X172814762Y-101390001D01*
X172862381Y-101294763D01*
X172862381Y-101151905D01*
X172862381Y-101913810D02*
X172195714Y-101913810D01*
X172290952Y-101913810D02*
X172243333Y-101961429D01*
X172195714Y-102056667D01*
X172195714Y-102199525D01*
X172243333Y-102294763D01*
X172338571Y-102342382D01*
X172862381Y-102342382D01*
X172338571Y-102342382D02*
X172243333Y-102390001D01*
X172195714Y-102485239D01*
X172195714Y-102628096D01*
X172243333Y-102723334D01*
X172338571Y-102770953D01*
X172862381Y-102770953D01*
X172195714Y-103247143D02*
X173195714Y-103247143D01*
X172243333Y-103247143D02*
X172195714Y-103342381D01*
X172195714Y-103532858D01*
X172243333Y-103628096D01*
X172290952Y-103675715D01*
X172386190Y-103723334D01*
X172671905Y-103723334D01*
X172767143Y-103675715D01*
X172814762Y-103628096D01*
X172862381Y-103532858D01*
X172862381Y-103342381D01*
X172814762Y-103247143D01*
X172338571Y-104485239D02*
X172386190Y-104628096D01*
X172433810Y-104675715D01*
X172529048Y-104723334D01*
X172671905Y-104723334D01*
X172767143Y-104675715D01*
X172814762Y-104628096D01*
X172862381Y-104532858D01*
X172862381Y-104151905D01*
X171862381Y-104151905D01*
X171862381Y-104485239D01*
X171910000Y-104580477D01*
X171957619Y-104628096D01*
X172052857Y-104675715D01*
X172148095Y-104675715D01*
X172243333Y-104628096D01*
X172290952Y-104580477D01*
X172338571Y-104485239D01*
X172338571Y-104151905D01*
X172862381Y-105675715D02*
X172862381Y-105104286D01*
X172862381Y-105390000D02*
X171862381Y-105390000D01*
X172005238Y-105294762D01*
X172100476Y-105199524D01*
X172148095Y-105104286D01*
X161771904Y-90977143D02*
X161819523Y-91024762D01*
X161962380Y-91072381D01*
X162057618Y-91072381D01*
X162200476Y-91024762D01*
X162295714Y-90929524D01*
X162343333Y-90834286D01*
X162390952Y-90643810D01*
X162390952Y-90500952D01*
X162343333Y-90310476D01*
X162295714Y-90215238D01*
X162200476Y-90120000D01*
X162057618Y-90072381D01*
X161962380Y-90072381D01*
X161819523Y-90120000D01*
X161771904Y-90167619D01*
X161343333Y-91072381D02*
X161343333Y-90405714D01*
X161343333Y-90072381D02*
X161390952Y-90120000D01*
X161343333Y-90167619D01*
X161295714Y-90120000D01*
X161343333Y-90072381D01*
X161343333Y-90167619D01*
X160867143Y-90405714D02*
X160867143Y-91072381D01*
X160867143Y-90500952D02*
X160819524Y-90453333D01*
X160724286Y-90405714D01*
X160581428Y-90405714D01*
X160486190Y-90453333D01*
X160438571Y-90548571D01*
X160438571Y-91072381D01*
X160010000Y-90167619D02*
X159962381Y-90120000D01*
X159867143Y-90072381D01*
X159629047Y-90072381D01*
X159533809Y-90120000D01*
X159486190Y-90167619D01*
X159438571Y-90262857D01*
X159438571Y-90358095D01*
X159486190Y-90500952D01*
X160057619Y-91072381D01*
X159438571Y-91072381D01*
X159057619Y-90786667D02*
X158581428Y-90786667D01*
X159152857Y-91072381D02*
X158819524Y-90072381D01*
X158486190Y-91072381D01*
X157629047Y-91072381D02*
X158200476Y-91072381D01*
X157914762Y-91072381D02*
X157914762Y-90072381D01*
X158010000Y-90215238D01*
X158105238Y-90310476D01*
X158200476Y-90358095D01*
X185973333Y-89707143D02*
X186020952Y-89754762D01*
X186163809Y-89802381D01*
X186259047Y-89802381D01*
X186401905Y-89754762D01*
X186497143Y-89659524D01*
X186544762Y-89564286D01*
X186592381Y-89373810D01*
X186592381Y-89230952D01*
X186544762Y-89040476D01*
X186497143Y-88945238D01*
X186401905Y-88850000D01*
X186259047Y-88802381D01*
X186163809Y-88802381D01*
X186020952Y-88850000D01*
X185973333Y-88897619D01*
X185544762Y-89802381D02*
X185544762Y-89135714D01*
X185544762Y-88802381D02*
X185592381Y-88850000D01*
X185544762Y-88897619D01*
X185497143Y-88850000D01*
X185544762Y-88802381D01*
X185544762Y-88897619D01*
X185068572Y-89135714D02*
X185068572Y-89802381D01*
X185068572Y-89230952D02*
X185020953Y-89183333D01*
X184925715Y-89135714D01*
X184782857Y-89135714D01*
X184687619Y-89183333D01*
X184640000Y-89278571D01*
X184640000Y-89802381D01*
X184211429Y-88897619D02*
X184163810Y-88850000D01*
X184068572Y-88802381D01*
X183830476Y-88802381D01*
X183735238Y-88850000D01*
X183687619Y-88897619D01*
X183640000Y-88992857D01*
X183640000Y-89088095D01*
X183687619Y-89230952D01*
X184259048Y-89802381D01*
X183640000Y-89802381D01*
X182878095Y-89278571D02*
X182735238Y-89326190D01*
X182687619Y-89373810D01*
X182640000Y-89469048D01*
X182640000Y-89611905D01*
X182687619Y-89707143D01*
X182735238Y-89754762D01*
X182830476Y-89802381D01*
X183211429Y-89802381D01*
X183211429Y-88802381D01*
X182878095Y-88802381D01*
X182782857Y-88850000D01*
X182735238Y-88897619D01*
X182687619Y-88992857D01*
X182687619Y-89088095D01*
X182735238Y-89183333D01*
X182782857Y-89230952D01*
X182878095Y-89278571D01*
X183211429Y-89278571D01*
X181687619Y-89802381D02*
X182259048Y-89802381D01*
X181973334Y-89802381D02*
X181973334Y-88802381D01*
X182068572Y-88945238D01*
X182163810Y-89040476D01*
X182259048Y-89088095D01*
X161295714Y-93517143D02*
X161343333Y-93564762D01*
X161486190Y-93612381D01*
X161581428Y-93612381D01*
X161724286Y-93564762D01*
X161819524Y-93469524D01*
X161867143Y-93374286D01*
X161914762Y-93183810D01*
X161914762Y-93040952D01*
X161867143Y-92850476D01*
X161819524Y-92755238D01*
X161724286Y-92660000D01*
X161581428Y-92612381D01*
X161486190Y-92612381D01*
X161343333Y-92660000D01*
X161295714Y-92707619D01*
X160867143Y-93612381D02*
X160867143Y-92945714D01*
X160867143Y-92612381D02*
X160914762Y-92660000D01*
X160867143Y-92707619D01*
X160819524Y-92660000D01*
X160867143Y-92612381D01*
X160867143Y-92707619D01*
X160390953Y-92945714D02*
X160390953Y-93612381D01*
X160390953Y-93040952D02*
X160343334Y-92993333D01*
X160248096Y-92945714D01*
X160105238Y-92945714D01*
X160010000Y-92993333D01*
X159962381Y-93088571D01*
X159962381Y-93612381D01*
X159533810Y-93326667D02*
X159057619Y-93326667D01*
X159629048Y-93612381D02*
X159295715Y-92612381D01*
X158962381Y-93612381D01*
X158105238Y-93612381D02*
X158676667Y-93612381D01*
X158390953Y-93612381D02*
X158390953Y-92612381D01*
X158486191Y-92755238D01*
X158581429Y-92850476D01*
X158676667Y-92898095D01*
X184857142Y-92247143D02*
X184904761Y-92294762D01*
X185047618Y-92342381D01*
X185142856Y-92342381D01*
X185285714Y-92294762D01*
X185380952Y-92199524D01*
X185428571Y-92104286D01*
X185476190Y-91913810D01*
X185476190Y-91770952D01*
X185428571Y-91580476D01*
X185380952Y-91485238D01*
X185285714Y-91390000D01*
X185142856Y-91342381D01*
X185047618Y-91342381D01*
X184904761Y-91390000D01*
X184857142Y-91437619D01*
X184428571Y-92342381D02*
X184428571Y-91675714D01*
X184428571Y-91342381D02*
X184476190Y-91390000D01*
X184428571Y-91437619D01*
X184380952Y-91390000D01*
X184428571Y-91342381D01*
X184428571Y-91437619D01*
X183952381Y-91675714D02*
X183952381Y-92342381D01*
X183952381Y-91770952D02*
X183904762Y-91723333D01*
X183809524Y-91675714D01*
X183666666Y-91675714D01*
X183571428Y-91723333D01*
X183523809Y-91818571D01*
X183523809Y-92342381D01*
X182714285Y-91818571D02*
X182571428Y-91866190D01*
X182523809Y-91913810D01*
X182476190Y-92009048D01*
X182476190Y-92151905D01*
X182523809Y-92247143D01*
X182571428Y-92294762D01*
X182666666Y-92342381D01*
X183047619Y-92342381D01*
X183047619Y-91342381D01*
X182714285Y-91342381D01*
X182619047Y-91390000D01*
X182571428Y-91437619D01*
X182523809Y-91532857D01*
X182523809Y-91628095D01*
X182571428Y-91723333D01*
X182619047Y-91770952D01*
X182714285Y-91818571D01*
X183047619Y-91818571D01*
X181523809Y-92342381D02*
X182095238Y-92342381D01*
X181809524Y-92342381D02*
X181809524Y-91342381D01*
X181904762Y-91485238D01*
X182000000Y-91580476D01*
X182095238Y-91628095D01*
X163837143Y-99964286D02*
X163884762Y-99916667D01*
X163932381Y-99773810D01*
X163932381Y-99678572D01*
X163884762Y-99535714D01*
X163789524Y-99440476D01*
X163694286Y-99392857D01*
X163503810Y-99345238D01*
X163360952Y-99345238D01*
X163170476Y-99392857D01*
X163075238Y-99440476D01*
X162980000Y-99535714D01*
X162932381Y-99678572D01*
X162932381Y-99773810D01*
X162980000Y-99916667D01*
X163027619Y-99964286D01*
X163932381Y-100535714D02*
X163884762Y-100440476D01*
X163837143Y-100392857D01*
X163741905Y-100345238D01*
X163456190Y-100345238D01*
X163360952Y-100392857D01*
X163313333Y-100440476D01*
X163265714Y-100535714D01*
X163265714Y-100678572D01*
X163313333Y-100773810D01*
X163360952Y-100821429D01*
X163456190Y-100869048D01*
X163741905Y-100869048D01*
X163837143Y-100821429D01*
X163884762Y-100773810D01*
X163932381Y-100678572D01*
X163932381Y-100535714D01*
X163265714Y-101726191D02*
X163932381Y-101726191D01*
X163265714Y-101297619D02*
X163789524Y-101297619D01*
X163884762Y-101345238D01*
X163932381Y-101440476D01*
X163932381Y-101583334D01*
X163884762Y-101678572D01*
X163837143Y-101726191D01*
X163265714Y-102059524D02*
X163265714Y-102440476D01*
X162932381Y-102202381D02*
X163789524Y-102202381D01*
X163884762Y-102250000D01*
X163932381Y-102345238D01*
X163932381Y-102440476D01*
X163646667Y-102726191D02*
X163646667Y-103202382D01*
X163932381Y-102630953D02*
X162932381Y-102964286D01*
X163932381Y-103297620D01*
X163932381Y-104154763D02*
X163932381Y-103583334D01*
X163932381Y-103869048D02*
X162932381Y-103869048D01*
X163075238Y-103773810D01*
X163170476Y-103678572D01*
X163218095Y-103583334D01*
X187967143Y-99892857D02*
X188014762Y-99845238D01*
X188062381Y-99702381D01*
X188062381Y-99607143D01*
X188014762Y-99464285D01*
X187919524Y-99369047D01*
X187824286Y-99321428D01*
X187633810Y-99273809D01*
X187490952Y-99273809D01*
X187300476Y-99321428D01*
X187205238Y-99369047D01*
X187110000Y-99464285D01*
X187062381Y-99607143D01*
X187062381Y-99702381D01*
X187110000Y-99845238D01*
X187157619Y-99892857D01*
X188062381Y-100464285D02*
X188014762Y-100369047D01*
X187967143Y-100321428D01*
X187871905Y-100273809D01*
X187586190Y-100273809D01*
X187490952Y-100321428D01*
X187443333Y-100369047D01*
X187395714Y-100464285D01*
X187395714Y-100607143D01*
X187443333Y-100702381D01*
X187490952Y-100750000D01*
X187586190Y-100797619D01*
X187871905Y-100797619D01*
X187967143Y-100750000D01*
X188014762Y-100702381D01*
X188062381Y-100607143D01*
X188062381Y-100464285D01*
X187395714Y-101654762D02*
X188062381Y-101654762D01*
X187395714Y-101226190D02*
X187919524Y-101226190D01*
X188014762Y-101273809D01*
X188062381Y-101369047D01*
X188062381Y-101511905D01*
X188014762Y-101607143D01*
X187967143Y-101654762D01*
X187395714Y-101988095D02*
X187395714Y-102369047D01*
X187062381Y-102130952D02*
X187919524Y-102130952D01*
X188014762Y-102178571D01*
X188062381Y-102273809D01*
X188062381Y-102369047D01*
X187538571Y-103035715D02*
X187586190Y-103178572D01*
X187633810Y-103226191D01*
X187729048Y-103273810D01*
X187871905Y-103273810D01*
X187967143Y-103226191D01*
X188014762Y-103178572D01*
X188062381Y-103083334D01*
X188062381Y-102702381D01*
X187062381Y-102702381D01*
X187062381Y-103035715D01*
X187110000Y-103130953D01*
X187157619Y-103178572D01*
X187252857Y-103226191D01*
X187348095Y-103226191D01*
X187443333Y-103178572D01*
X187490952Y-103130953D01*
X187538571Y-103035715D01*
X187538571Y-102702381D01*
X188062381Y-104226191D02*
X188062381Y-103654762D01*
X188062381Y-103940476D02*
X187062381Y-103940476D01*
X187205238Y-103845238D01*
X187300476Y-103750000D01*
X187348095Y-103654762D01*
X161297143Y-93995238D02*
X161344762Y-93947619D01*
X161392381Y-93804762D01*
X161392381Y-93709524D01*
X161344762Y-93566666D01*
X161249524Y-93471428D01*
X161154286Y-93423809D01*
X160963810Y-93376190D01*
X160820952Y-93376190D01*
X160630476Y-93423809D01*
X160535238Y-93471428D01*
X160440000Y-93566666D01*
X160392381Y-93709524D01*
X160392381Y-93804762D01*
X160440000Y-93947619D01*
X160487619Y-93995238D01*
X161344762Y-94376190D02*
X161392381Y-94471428D01*
X161392381Y-94661904D01*
X161344762Y-94757143D01*
X161249524Y-94804762D01*
X161201905Y-94804762D01*
X161106667Y-94757143D01*
X161059048Y-94661904D01*
X161059048Y-94519047D01*
X161011429Y-94423809D01*
X160916190Y-94376190D01*
X160868571Y-94376190D01*
X160773333Y-94423809D01*
X160725714Y-94519047D01*
X160725714Y-94661904D01*
X160773333Y-94757143D01*
X161344762Y-95185714D02*
X161392381Y-95280952D01*
X161392381Y-95471428D01*
X161344762Y-95566667D01*
X161249524Y-95614286D01*
X161201905Y-95614286D01*
X161106667Y-95566667D01*
X161059048Y-95471428D01*
X161059048Y-95328571D01*
X161011429Y-95233333D01*
X160916190Y-95185714D01*
X160868571Y-95185714D01*
X160773333Y-95233333D01*
X160725714Y-95328571D01*
X160725714Y-95471428D01*
X160773333Y-95566667D01*
X161106667Y-95995238D02*
X161106667Y-96471429D01*
X161392381Y-95900000D02*
X160392381Y-96233333D01*
X161392381Y-96566667D01*
X161392381Y-97423810D02*
X161392381Y-96852381D01*
X161392381Y-97138095D02*
X160392381Y-97138095D01*
X160535238Y-97042857D01*
X160630476Y-96947619D01*
X160678095Y-96852381D01*
X185427143Y-93923810D02*
X185474762Y-93876191D01*
X185522381Y-93733334D01*
X185522381Y-93638096D01*
X185474762Y-93495238D01*
X185379524Y-93400000D01*
X185284286Y-93352381D01*
X185093810Y-93304762D01*
X184950952Y-93304762D01*
X184760476Y-93352381D01*
X184665238Y-93400000D01*
X184570000Y-93495238D01*
X184522381Y-93638096D01*
X184522381Y-93733334D01*
X184570000Y-93876191D01*
X184617619Y-93923810D01*
X185474762Y-94304762D02*
X185522381Y-94400000D01*
X185522381Y-94590476D01*
X185474762Y-94685715D01*
X185379524Y-94733334D01*
X185331905Y-94733334D01*
X185236667Y-94685715D01*
X185189048Y-94590476D01*
X185189048Y-94447619D01*
X185141429Y-94352381D01*
X185046190Y-94304762D01*
X184998571Y-94304762D01*
X184903333Y-94352381D01*
X184855714Y-94447619D01*
X184855714Y-94590476D01*
X184903333Y-94685715D01*
X185474762Y-95114286D02*
X185522381Y-95209524D01*
X185522381Y-95400000D01*
X185474762Y-95495239D01*
X185379524Y-95542858D01*
X185331905Y-95542858D01*
X185236667Y-95495239D01*
X185189048Y-95400000D01*
X185189048Y-95257143D01*
X185141429Y-95161905D01*
X185046190Y-95114286D01*
X184998571Y-95114286D01*
X184903333Y-95161905D01*
X184855714Y-95257143D01*
X184855714Y-95400000D01*
X184903333Y-95495239D01*
X184998571Y-96304763D02*
X185046190Y-96447620D01*
X185093810Y-96495239D01*
X185189048Y-96542858D01*
X185331905Y-96542858D01*
X185427143Y-96495239D01*
X185474762Y-96447620D01*
X185522381Y-96352382D01*
X185522381Y-95971429D01*
X184522381Y-95971429D01*
X184522381Y-96304763D01*
X184570000Y-96400001D01*
X184617619Y-96447620D01*
X184712857Y-96495239D01*
X184808095Y-96495239D01*
X184903333Y-96447620D01*
X184950952Y-96400001D01*
X184998571Y-96304763D01*
X184998571Y-95971429D01*
X185522381Y-97495239D02*
X185522381Y-96923810D01*
X185522381Y-97209524D02*
X184522381Y-97209524D01*
X184665238Y-97114286D01*
X184760476Y-97019048D01*
X184808095Y-96923810D01*
X154947143Y-89126667D02*
X154994762Y-89079048D01*
X155042381Y-88936191D01*
X155042381Y-88840953D01*
X154994762Y-88698095D01*
X154899524Y-88602857D01*
X154804286Y-88555238D01*
X154613810Y-88507619D01*
X154470952Y-88507619D01*
X154280476Y-88555238D01*
X154185238Y-88602857D01*
X154090000Y-88698095D01*
X154042381Y-88840953D01*
X154042381Y-88936191D01*
X154090000Y-89079048D01*
X154137619Y-89126667D01*
X154375714Y-89460000D02*
X155042381Y-89698095D01*
X154375714Y-89936191D01*
X154994762Y-90745715D02*
X155042381Y-90650477D01*
X155042381Y-90460000D01*
X154994762Y-90364762D01*
X154947143Y-90317143D01*
X154851905Y-90269524D01*
X154566190Y-90269524D01*
X154470952Y-90317143D01*
X154423333Y-90364762D01*
X154375714Y-90460000D01*
X154375714Y-90650477D01*
X154423333Y-90745715D01*
X154994762Y-91602858D02*
X155042381Y-91507620D01*
X155042381Y-91317143D01*
X154994762Y-91221905D01*
X154947143Y-91174286D01*
X154851905Y-91126667D01*
X154566190Y-91126667D01*
X154470952Y-91174286D01*
X154423333Y-91221905D01*
X154375714Y-91317143D01*
X154375714Y-91507620D01*
X154423333Y-91602858D01*
X154756667Y-91983810D02*
X154756667Y-92460001D01*
X155042381Y-91888572D02*
X154042381Y-92221905D01*
X155042381Y-92555239D01*
X155042381Y-93412382D02*
X155042381Y-92840953D01*
X155042381Y-93126667D02*
X154042381Y-93126667D01*
X154185238Y-93031429D01*
X154280476Y-92936191D01*
X154328095Y-92840953D01*
X175307143Y-92865238D02*
X175354762Y-92817619D01*
X175402381Y-92674762D01*
X175402381Y-92579524D01*
X175354762Y-92436666D01*
X175259524Y-92341428D01*
X175164286Y-92293809D01*
X174973810Y-92246190D01*
X174830952Y-92246190D01*
X174640476Y-92293809D01*
X174545238Y-92341428D01*
X174450000Y-92436666D01*
X174402381Y-92579524D01*
X174402381Y-92674762D01*
X174450000Y-92817619D01*
X174497619Y-92865238D01*
X174735714Y-93198571D02*
X175402381Y-93436666D01*
X174735714Y-93674762D01*
X175354762Y-94484286D02*
X175402381Y-94389048D01*
X175402381Y-94198571D01*
X175354762Y-94103333D01*
X175307143Y-94055714D01*
X175211905Y-94008095D01*
X174926190Y-94008095D01*
X174830952Y-94055714D01*
X174783333Y-94103333D01*
X174735714Y-94198571D01*
X174735714Y-94389048D01*
X174783333Y-94484286D01*
X175354762Y-95341429D02*
X175402381Y-95246191D01*
X175402381Y-95055714D01*
X175354762Y-94960476D01*
X175307143Y-94912857D01*
X175211905Y-94865238D01*
X174926190Y-94865238D01*
X174830952Y-94912857D01*
X174783333Y-94960476D01*
X174735714Y-95055714D01*
X174735714Y-95246191D01*
X174783333Y-95341429D01*
X174878571Y-96103334D02*
X174926190Y-96246191D01*
X174973810Y-96293810D01*
X175069048Y-96341429D01*
X175211905Y-96341429D01*
X175307143Y-96293810D01*
X175354762Y-96246191D01*
X175402381Y-96150953D01*
X175402381Y-95770000D01*
X174402381Y-95770000D01*
X174402381Y-96103334D01*
X174450000Y-96198572D01*
X174497619Y-96246191D01*
X174592857Y-96293810D01*
X174688095Y-96293810D01*
X174783333Y-96246191D01*
X174830952Y-96198572D01*
X174878571Y-96103334D01*
X174878571Y-95770000D01*
X175402381Y-97293810D02*
X175402381Y-96722381D01*
X175402381Y-97008095D02*
X174402381Y-97008095D01*
X174545238Y-96912857D01*
X174640476Y-96817619D01*
X174688095Y-96722381D01*
X157485238Y-88972381D02*
X157961429Y-88972381D01*
X157961429Y-87972381D01*
X157199524Y-88686667D02*
X156723333Y-88686667D01*
X157294762Y-88972381D02*
X156961429Y-87972381D01*
X156628095Y-88972381D01*
X155770952Y-88972381D02*
X156342381Y-88972381D01*
X156056667Y-88972381D02*
X156056667Y-87972381D01*
X156151905Y-88115238D01*
X156247143Y-88210476D01*
X156342381Y-88258095D01*
X177876666Y-88972381D02*
X178352857Y-88972381D01*
X178352857Y-87972381D01*
X177209999Y-88448571D02*
X177067142Y-88496190D01*
X177019523Y-88543810D01*
X176971904Y-88639048D01*
X176971904Y-88781905D01*
X177019523Y-88877143D01*
X177067142Y-88924762D01*
X177162380Y-88972381D01*
X177543333Y-88972381D01*
X177543333Y-87972381D01*
X177209999Y-87972381D01*
X177114761Y-88020000D01*
X177067142Y-88067619D01*
X177019523Y-88162857D01*
X177019523Y-88258095D01*
X177067142Y-88353333D01*
X177114761Y-88400952D01*
X177209999Y-88448571D01*
X177543333Y-88448571D01*
X176019523Y-88972381D02*
X176590952Y-88972381D01*
X176305238Y-88972381D02*
X176305238Y-87972381D01*
X176400476Y-88115238D01*
X176495714Y-88210476D01*
X176590952Y-88258095D01*
X155765238Y-105242381D02*
X156098572Y-104766190D01*
X156336667Y-105242381D02*
X156336667Y-104242381D01*
X155955714Y-104242381D01*
X155860476Y-104290000D01*
X155812857Y-104337619D01*
X155765238Y-104432857D01*
X155765238Y-104575714D01*
X155812857Y-104670952D01*
X155860476Y-104718571D01*
X155955714Y-104766190D01*
X156336667Y-104766190D01*
X154908095Y-105194762D02*
X155003333Y-105242381D01*
X155193810Y-105242381D01*
X155289048Y-105194762D01*
X155336667Y-105147143D01*
X155384286Y-105051905D01*
X155384286Y-104766190D01*
X155336667Y-104670952D01*
X155289048Y-104623333D01*
X155193810Y-104575714D01*
X155003333Y-104575714D01*
X154908095Y-104623333D01*
X154336667Y-105242381D02*
X154431905Y-105194762D01*
X154479524Y-105147143D01*
X154527143Y-105051905D01*
X154527143Y-104766190D01*
X154479524Y-104670952D01*
X154431905Y-104623333D01*
X154336667Y-104575714D01*
X154193809Y-104575714D01*
X154098571Y-104623333D01*
X154050952Y-104670952D01*
X154003333Y-104766190D01*
X154003333Y-105051905D01*
X154050952Y-105147143D01*
X154098571Y-105194762D01*
X154193809Y-105242381D01*
X154336667Y-105242381D01*
X153574762Y-105242381D02*
X153574762Y-104575714D01*
X153574762Y-104670952D02*
X153527143Y-104623333D01*
X153431905Y-104575714D01*
X153289047Y-104575714D01*
X153193809Y-104623333D01*
X153146190Y-104718571D01*
X153146190Y-105242381D01*
X153146190Y-104718571D02*
X153098571Y-104623333D01*
X153003333Y-104575714D01*
X152860476Y-104575714D01*
X152765238Y-104623333D01*
X152717619Y-104718571D01*
X152717619Y-105242381D01*
X152241429Y-104575714D02*
X152241429Y-105575714D01*
X152241429Y-104623333D02*
X152146191Y-104575714D01*
X151955714Y-104575714D01*
X151860476Y-104623333D01*
X151812857Y-104670952D01*
X151765238Y-104766190D01*
X151765238Y-105051905D01*
X151812857Y-105147143D01*
X151860476Y-105194762D01*
X151955714Y-105242381D01*
X152146191Y-105242381D01*
X152241429Y-105194762D01*
X151384286Y-104956667D02*
X150908095Y-104956667D01*
X151479524Y-105242381D02*
X151146191Y-104242381D01*
X150812857Y-105242381D01*
X149955714Y-105242381D02*
X150527143Y-105242381D01*
X150241429Y-105242381D02*
X150241429Y-104242381D01*
X150336667Y-104385238D01*
X150431905Y-104480476D01*
X150527143Y-104528095D01*
X179966666Y-105242381D02*
X180300000Y-104766190D01*
X180538095Y-105242381D02*
X180538095Y-104242381D01*
X180157142Y-104242381D01*
X180061904Y-104290000D01*
X180014285Y-104337619D01*
X179966666Y-104432857D01*
X179966666Y-104575714D01*
X180014285Y-104670952D01*
X180061904Y-104718571D01*
X180157142Y-104766190D01*
X180538095Y-104766190D01*
X179109523Y-105194762D02*
X179204761Y-105242381D01*
X179395238Y-105242381D01*
X179490476Y-105194762D01*
X179538095Y-105147143D01*
X179585714Y-105051905D01*
X179585714Y-104766190D01*
X179538095Y-104670952D01*
X179490476Y-104623333D01*
X179395238Y-104575714D01*
X179204761Y-104575714D01*
X179109523Y-104623333D01*
X178538095Y-105242381D02*
X178633333Y-105194762D01*
X178680952Y-105147143D01*
X178728571Y-105051905D01*
X178728571Y-104766190D01*
X178680952Y-104670952D01*
X178633333Y-104623333D01*
X178538095Y-104575714D01*
X178395237Y-104575714D01*
X178299999Y-104623333D01*
X178252380Y-104670952D01*
X178204761Y-104766190D01*
X178204761Y-105051905D01*
X178252380Y-105147143D01*
X178299999Y-105194762D01*
X178395237Y-105242381D01*
X178538095Y-105242381D01*
X177776190Y-105242381D02*
X177776190Y-104575714D01*
X177776190Y-104670952D02*
X177728571Y-104623333D01*
X177633333Y-104575714D01*
X177490475Y-104575714D01*
X177395237Y-104623333D01*
X177347618Y-104718571D01*
X177347618Y-105242381D01*
X177347618Y-104718571D02*
X177299999Y-104623333D01*
X177204761Y-104575714D01*
X177061904Y-104575714D01*
X176966666Y-104623333D01*
X176919047Y-104718571D01*
X176919047Y-105242381D01*
X176442857Y-104575714D02*
X176442857Y-105575714D01*
X176442857Y-104623333D02*
X176347619Y-104575714D01*
X176157142Y-104575714D01*
X176061904Y-104623333D01*
X176014285Y-104670952D01*
X175966666Y-104766190D01*
X175966666Y-105051905D01*
X176014285Y-105147143D01*
X176061904Y-105194762D01*
X176157142Y-105242381D01*
X176347619Y-105242381D01*
X176442857Y-105194762D01*
X175204761Y-104718571D02*
X175061904Y-104766190D01*
X175014285Y-104813810D01*
X174966666Y-104909048D01*
X174966666Y-105051905D01*
X175014285Y-105147143D01*
X175061904Y-105194762D01*
X175157142Y-105242381D01*
X175538095Y-105242381D01*
X175538095Y-104242381D01*
X175204761Y-104242381D01*
X175109523Y-104290000D01*
X175061904Y-104337619D01*
X175014285Y-104432857D01*
X175014285Y-104528095D01*
X175061904Y-104623333D01*
X175109523Y-104670952D01*
X175204761Y-104718571D01*
X175538095Y-104718571D01*
X174014285Y-105242381D02*
X174585714Y-105242381D01*
X174300000Y-105242381D02*
X174300000Y-104242381D01*
X174395238Y-104385238D01*
X174490476Y-104480476D01*
X174585714Y-104528095D01*
X160035714Y-102342381D02*
X160369048Y-101866190D01*
X160607143Y-102342381D02*
X160607143Y-101342381D01*
X160226190Y-101342381D01*
X160130952Y-101390000D01*
X160083333Y-101437619D01*
X160035714Y-101532857D01*
X160035714Y-101675714D01*
X160083333Y-101770952D01*
X160130952Y-101818571D01*
X160226190Y-101866190D01*
X160607143Y-101866190D01*
X159750000Y-101675714D02*
X159369048Y-101675714D01*
X159607143Y-102342381D02*
X159607143Y-101485238D01*
X159559524Y-101390000D01*
X159464286Y-101342381D01*
X159369048Y-101342381D01*
X159035714Y-102342381D02*
X159035714Y-101342381D01*
X159035714Y-101723333D02*
X158940476Y-101675714D01*
X158749999Y-101675714D01*
X158654761Y-101723333D01*
X158607142Y-101770952D01*
X158559523Y-101866190D01*
X158559523Y-102151905D01*
X158607142Y-102247143D01*
X158654761Y-102294762D01*
X158749999Y-102342381D01*
X158940476Y-102342381D01*
X159035714Y-102294762D01*
X158130952Y-102342381D02*
X158130952Y-101342381D01*
X158130952Y-101723333D02*
X158035714Y-101675714D01*
X157845237Y-101675714D01*
X157749999Y-101723333D01*
X157702380Y-101770952D01*
X157654761Y-101866190D01*
X157654761Y-102151905D01*
X157702380Y-102247143D01*
X157749999Y-102294762D01*
X157845237Y-102342381D01*
X158035714Y-102342381D01*
X158130952Y-102294762D01*
X157273809Y-102056667D02*
X156797618Y-102056667D01*
X157369047Y-102342381D02*
X157035714Y-101342381D01*
X156702380Y-102342381D01*
X155845237Y-102342381D02*
X156416666Y-102342381D01*
X156130952Y-102342381D02*
X156130952Y-101342381D01*
X156226190Y-101485238D01*
X156321428Y-101580476D01*
X156416666Y-101628095D01*
X184237143Y-102342381D02*
X184570477Y-101866190D01*
X184808572Y-102342381D02*
X184808572Y-101342381D01*
X184427619Y-101342381D01*
X184332381Y-101390000D01*
X184284762Y-101437619D01*
X184237143Y-101532857D01*
X184237143Y-101675714D01*
X184284762Y-101770952D01*
X184332381Y-101818571D01*
X184427619Y-101866190D01*
X184808572Y-101866190D01*
X183951429Y-101675714D02*
X183570477Y-101675714D01*
X183808572Y-102342381D02*
X183808572Y-101485238D01*
X183760953Y-101390000D01*
X183665715Y-101342381D01*
X183570477Y-101342381D01*
X183237143Y-102342381D02*
X183237143Y-101342381D01*
X183237143Y-101723333D02*
X183141905Y-101675714D01*
X182951428Y-101675714D01*
X182856190Y-101723333D01*
X182808571Y-101770952D01*
X182760952Y-101866190D01*
X182760952Y-102151905D01*
X182808571Y-102247143D01*
X182856190Y-102294762D01*
X182951428Y-102342381D01*
X183141905Y-102342381D01*
X183237143Y-102294762D01*
X182332381Y-102342381D02*
X182332381Y-101342381D01*
X182332381Y-101723333D02*
X182237143Y-101675714D01*
X182046666Y-101675714D01*
X181951428Y-101723333D01*
X181903809Y-101770952D01*
X181856190Y-101866190D01*
X181856190Y-102151905D01*
X181903809Y-102247143D01*
X181951428Y-102294762D01*
X182046666Y-102342381D01*
X182237143Y-102342381D01*
X182332381Y-102294762D01*
X181094285Y-101818571D02*
X180951428Y-101866190D01*
X180903809Y-101913810D01*
X180856190Y-102009048D01*
X180856190Y-102151905D01*
X180903809Y-102247143D01*
X180951428Y-102294762D01*
X181046666Y-102342381D01*
X181427619Y-102342381D01*
X181427619Y-101342381D01*
X181094285Y-101342381D01*
X180999047Y-101390000D01*
X180951428Y-101437619D01*
X180903809Y-101532857D01*
X180903809Y-101628095D01*
X180951428Y-101723333D01*
X180999047Y-101770952D01*
X181094285Y-101818571D01*
X181427619Y-101818571D01*
X179903809Y-102342381D02*
X180475238Y-102342381D01*
X180189524Y-102342381D02*
X180189524Y-101342381D01*
X180284762Y-101485238D01*
X180380000Y-101580476D01*
X180475238Y-101628095D01*
X158939048Y-102702381D02*
X159272382Y-102226190D01*
X159510477Y-102702381D02*
X159510477Y-101702381D01*
X159129524Y-101702381D01*
X159034286Y-101750000D01*
X158986667Y-101797619D01*
X158939048Y-101892857D01*
X158939048Y-102035714D01*
X158986667Y-102130952D01*
X159034286Y-102178571D01*
X159129524Y-102226190D01*
X159510477Y-102226190D01*
X158653334Y-102035714D02*
X158272382Y-102035714D01*
X158510477Y-102702381D02*
X158510477Y-101845238D01*
X158462858Y-101750000D01*
X158367620Y-101702381D01*
X158272382Y-101702381D01*
X157939048Y-102702381D02*
X157939048Y-101702381D01*
X157939048Y-102083333D02*
X157843810Y-102035714D01*
X157653333Y-102035714D01*
X157558095Y-102083333D01*
X157510476Y-102130952D01*
X157462857Y-102226190D01*
X157462857Y-102511905D01*
X157510476Y-102607143D01*
X157558095Y-102654762D01*
X157653333Y-102702381D01*
X157843810Y-102702381D01*
X157939048Y-102654762D01*
X157177143Y-102035714D02*
X156796191Y-102035714D01*
X157034286Y-101702381D02*
X157034286Y-102559524D01*
X156986667Y-102654762D01*
X156891429Y-102702381D01*
X156796191Y-102702381D01*
X156510476Y-102416667D02*
X156034285Y-102416667D01*
X156605714Y-102702381D02*
X156272381Y-101702381D01*
X155939047Y-102702381D01*
X155081904Y-102702381D02*
X155653333Y-102702381D01*
X155367619Y-102702381D02*
X155367619Y-101702381D01*
X155462857Y-101845238D01*
X155558095Y-101940476D01*
X155653333Y-101988095D01*
X183140476Y-101432381D02*
X183473810Y-100956190D01*
X183711905Y-101432381D02*
X183711905Y-100432381D01*
X183330952Y-100432381D01*
X183235714Y-100480000D01*
X183188095Y-100527619D01*
X183140476Y-100622857D01*
X183140476Y-100765714D01*
X183188095Y-100860952D01*
X183235714Y-100908571D01*
X183330952Y-100956190D01*
X183711905Y-100956190D01*
X182854762Y-100765714D02*
X182473810Y-100765714D01*
X182711905Y-101432381D02*
X182711905Y-100575238D01*
X182664286Y-100480000D01*
X182569048Y-100432381D01*
X182473810Y-100432381D01*
X182140476Y-101432381D02*
X182140476Y-100432381D01*
X182140476Y-100813333D02*
X182045238Y-100765714D01*
X181854761Y-100765714D01*
X181759523Y-100813333D01*
X181711904Y-100860952D01*
X181664285Y-100956190D01*
X181664285Y-101241905D01*
X181711904Y-101337143D01*
X181759523Y-101384762D01*
X181854761Y-101432381D01*
X182045238Y-101432381D01*
X182140476Y-101384762D01*
X181378571Y-100765714D02*
X180997619Y-100765714D01*
X181235714Y-100432381D02*
X181235714Y-101289524D01*
X181188095Y-101384762D01*
X181092857Y-101432381D01*
X180997619Y-101432381D01*
X180330951Y-100908571D02*
X180188094Y-100956190D01*
X180140475Y-101003810D01*
X180092856Y-101099048D01*
X180092856Y-101241905D01*
X180140475Y-101337143D01*
X180188094Y-101384762D01*
X180283332Y-101432381D01*
X180664285Y-101432381D01*
X180664285Y-100432381D01*
X180330951Y-100432381D01*
X180235713Y-100480000D01*
X180188094Y-100527619D01*
X180140475Y-100622857D01*
X180140475Y-100718095D01*
X180188094Y-100813333D01*
X180235713Y-100860952D01*
X180330951Y-100908571D01*
X180664285Y-100908571D01*
X179140475Y-101432381D02*
X179711904Y-101432381D01*
X179426190Y-101432381D02*
X179426190Y-100432381D01*
X179521428Y-100575238D01*
X179616666Y-100670476D01*
X179711904Y-100718095D01*
X153831904Y-100162381D02*
X154165238Y-99686190D01*
X154403333Y-100162381D02*
X154403333Y-99162381D01*
X154022380Y-99162381D01*
X153927142Y-99210000D01*
X153879523Y-99257619D01*
X153831904Y-99352857D01*
X153831904Y-99495714D01*
X153879523Y-99590952D01*
X153927142Y-99638571D01*
X154022380Y-99686190D01*
X154403333Y-99686190D01*
X153260476Y-100162381D02*
X153355714Y-100114762D01*
X153403333Y-100019524D01*
X153403333Y-99162381D01*
X152879523Y-100162381D02*
X152879523Y-99495714D01*
X152879523Y-99162381D02*
X152927142Y-99210000D01*
X152879523Y-99257619D01*
X152831904Y-99210000D01*
X152879523Y-99162381D01*
X152879523Y-99257619D01*
X152403333Y-100162381D02*
X152403333Y-99495714D01*
X152403333Y-99590952D02*
X152355714Y-99543333D01*
X152260476Y-99495714D01*
X152117618Y-99495714D01*
X152022380Y-99543333D01*
X151974761Y-99638571D01*
X151974761Y-100162381D01*
X151974761Y-99638571D02*
X151927142Y-99543333D01*
X151831904Y-99495714D01*
X151689047Y-99495714D01*
X151593809Y-99543333D01*
X151546190Y-99638571D01*
X151546190Y-100162381D01*
X151117619Y-99876667D02*
X150641428Y-99876667D01*
X151212857Y-100162381D02*
X150879524Y-99162381D01*
X150546190Y-100162381D01*
X149689047Y-100162381D02*
X150260476Y-100162381D01*
X149974762Y-100162381D02*
X149974762Y-99162381D01*
X150070000Y-99305238D01*
X150165238Y-99400476D01*
X150260476Y-99448095D01*
X176933333Y-100162381D02*
X177266667Y-99686190D01*
X177504762Y-100162381D02*
X177504762Y-99162381D01*
X177123809Y-99162381D01*
X177028571Y-99210000D01*
X176980952Y-99257619D01*
X176933333Y-99352857D01*
X176933333Y-99495714D01*
X176980952Y-99590952D01*
X177028571Y-99638571D01*
X177123809Y-99686190D01*
X177504762Y-99686190D01*
X176361905Y-100162381D02*
X176457143Y-100114762D01*
X176504762Y-100019524D01*
X176504762Y-99162381D01*
X175980952Y-100162381D02*
X175980952Y-99495714D01*
X175980952Y-99162381D02*
X176028571Y-99210000D01*
X175980952Y-99257619D01*
X175933333Y-99210000D01*
X175980952Y-99162381D01*
X175980952Y-99257619D01*
X175504762Y-100162381D02*
X175504762Y-99495714D01*
X175504762Y-99590952D02*
X175457143Y-99543333D01*
X175361905Y-99495714D01*
X175219047Y-99495714D01*
X175123809Y-99543333D01*
X175076190Y-99638571D01*
X175076190Y-100162381D01*
X175076190Y-99638571D02*
X175028571Y-99543333D01*
X174933333Y-99495714D01*
X174790476Y-99495714D01*
X174695238Y-99543333D01*
X174647619Y-99638571D01*
X174647619Y-100162381D01*
X173838095Y-99638571D02*
X173695238Y-99686190D01*
X173647619Y-99733810D01*
X173600000Y-99829048D01*
X173600000Y-99971905D01*
X173647619Y-100067143D01*
X173695238Y-100114762D01*
X173790476Y-100162381D01*
X174171429Y-100162381D01*
X174171429Y-99162381D01*
X173838095Y-99162381D01*
X173742857Y-99210000D01*
X173695238Y-99257619D01*
X173647619Y-99352857D01*
X173647619Y-99448095D01*
X173695238Y-99543333D01*
X173742857Y-99590952D01*
X173838095Y-99638571D01*
X174171429Y-99638571D01*
X172647619Y-100162381D02*
X173219048Y-100162381D01*
X172933334Y-100162381D02*
X172933334Y-99162381D01*
X173028572Y-99305238D01*
X173123810Y-99400476D01*
X173219048Y-99448095D01*
X152702381Y-87049048D02*
X152226190Y-86715714D01*
X152702381Y-86477619D02*
X151702381Y-86477619D01*
X151702381Y-86858572D01*
X151750000Y-86953810D01*
X151797619Y-87001429D01*
X151892857Y-87049048D01*
X152035714Y-87049048D01*
X152130952Y-87001429D01*
X152178571Y-86953810D01*
X152226190Y-86858572D01*
X152226190Y-86477619D01*
X152035714Y-87334762D02*
X152035714Y-87715714D01*
X151702381Y-87477619D02*
X152559524Y-87477619D01*
X152654762Y-87525238D01*
X152702381Y-87620476D01*
X152702381Y-87715714D01*
X152416667Y-88001429D02*
X152416667Y-88477620D01*
X152702381Y-87906191D02*
X151702381Y-88239524D01*
X152702381Y-88572858D01*
X152702381Y-89430001D02*
X152702381Y-88858572D01*
X152702381Y-89144286D02*
X151702381Y-89144286D01*
X151845238Y-89049048D01*
X151940476Y-88953810D01*
X151988095Y-88858572D01*
X178102381Y-89857619D02*
X177626190Y-89524285D01*
X178102381Y-89286190D02*
X177102381Y-89286190D01*
X177102381Y-89667143D01*
X177150000Y-89762381D01*
X177197619Y-89810000D01*
X177292857Y-89857619D01*
X177435714Y-89857619D01*
X177530952Y-89810000D01*
X177578571Y-89762381D01*
X177626190Y-89667143D01*
X177626190Y-89286190D01*
X177435714Y-90143333D02*
X177435714Y-90524285D01*
X177102381Y-90286190D02*
X177959524Y-90286190D01*
X178054762Y-90333809D01*
X178102381Y-90429047D01*
X178102381Y-90524285D01*
X177578571Y-91190953D02*
X177626190Y-91333810D01*
X177673810Y-91381429D01*
X177769048Y-91429048D01*
X177911905Y-91429048D01*
X178007143Y-91381429D01*
X178054762Y-91333810D01*
X178102381Y-91238572D01*
X178102381Y-90857619D01*
X177102381Y-90857619D01*
X177102381Y-91190953D01*
X177150000Y-91286191D01*
X177197619Y-91333810D01*
X177292857Y-91381429D01*
X177388095Y-91381429D01*
X177483333Y-91333810D01*
X177530952Y-91286191D01*
X177578571Y-91190953D01*
X177578571Y-90857619D01*
X178102381Y-92381429D02*
X178102381Y-91810000D01*
X178102381Y-92095714D02*
X177102381Y-92095714D01*
X177245238Y-92000476D01*
X177340476Y-91905238D01*
X177388095Y-91810000D01*
D16*
X156520322Y-97755508D02*
X156520322Y-97998138D01*
X156506050Y-98026683D01*
X156491777Y-98040955D01*
X156463233Y-98055228D01*
X156406143Y-98055228D01*
X156377598Y-98040955D01*
X156363326Y-98026683D01*
X156349054Y-97998138D01*
X156349054Y-97755508D01*
X156049334Y-98055228D02*
X156220602Y-98055228D01*
X156134968Y-98055228D02*
X156134968Y-97755508D01*
X156163513Y-97798325D01*
X156192058Y-97826870D01*
X156220602Y-97841142D01*
X155792431Y-97755508D02*
X155849520Y-97755508D01*
X155878065Y-97769780D01*
X155892337Y-97784052D01*
X155920882Y-97826870D01*
X155935154Y-97883959D01*
X155935154Y-97998138D01*
X155920882Y-98026683D01*
X155906610Y-98040955D01*
X155878065Y-98055228D01*
X155820975Y-98055228D01*
X155792431Y-98040955D01*
X155778158Y-98026683D01*
X155763886Y-97998138D01*
X155763886Y-97926776D01*
X155778158Y-97898231D01*
X155792431Y-97883959D01*
X155820975Y-97869687D01*
X155878065Y-97869687D01*
X155906610Y-97883959D01*
X155920882Y-97898231D01*
X155935154Y-97926776D01*
X157241078Y-92355468D02*
X157069810Y-92355468D01*
X157155444Y-92655188D02*
X157155444Y-92355468D01*
X156969903Y-92655188D02*
X156969903Y-92355468D01*
X156855724Y-92355468D01*
X156827179Y-92369740D01*
X156812907Y-92384012D01*
X156798635Y-92412557D01*
X156798635Y-92455374D01*
X156812907Y-92483919D01*
X156827179Y-92498191D01*
X156855724Y-92512464D01*
X156969903Y-92512464D01*
X156684455Y-92640915D02*
X156641638Y-92655188D01*
X156570276Y-92655188D01*
X156541732Y-92640915D01*
X156527459Y-92626643D01*
X156513187Y-92598098D01*
X156513187Y-92569553D01*
X156527459Y-92541009D01*
X156541732Y-92526736D01*
X156570276Y-92512464D01*
X156627366Y-92498191D01*
X156655911Y-92483919D01*
X156670183Y-92469647D01*
X156684455Y-92441102D01*
X156684455Y-92412557D01*
X156670183Y-92384012D01*
X156655911Y-92369740D01*
X156627366Y-92355468D01*
X156556004Y-92355468D01*
X156513187Y-92369740D01*
X156256284Y-92355468D02*
X156313373Y-92355468D01*
X156341918Y-92369740D01*
X156356190Y-92384012D01*
X156384735Y-92426830D01*
X156399007Y-92483919D01*
X156399007Y-92598098D01*
X156384735Y-92626643D01*
X156370463Y-92640915D01*
X156341918Y-92655188D01*
X156284828Y-92655188D01*
X156256284Y-92640915D01*
X156242011Y-92626643D01*
X156227739Y-92598098D01*
X156227739Y-92526736D01*
X156242011Y-92498191D01*
X156256284Y-92483919D01*
X156284828Y-92469647D01*
X156341918Y-92469647D01*
X156370463Y-92483919D01*
X156384735Y-92498191D01*
X156399007Y-92526736D01*
X155942291Y-92655188D02*
X156113559Y-92655188D01*
X156027925Y-92655188D02*
X156027925Y-92355468D01*
X156056470Y-92398285D01*
X156085015Y-92426830D01*
X156113559Y-92441102D01*
X155756750Y-92355468D02*
X155728205Y-92355468D01*
X155699660Y-92369740D01*
X155685388Y-92384012D01*
X155671115Y-92412557D01*
X155656843Y-92469647D01*
X155656843Y-92541009D01*
X155671115Y-92598098D01*
X155685388Y-92626643D01*
X155699660Y-92640915D01*
X155728205Y-92655188D01*
X155756750Y-92655188D01*
X155785294Y-92640915D01*
X155799567Y-92626643D01*
X155813839Y-92598098D01*
X155828111Y-92541009D01*
X155828111Y-92469647D01*
X155813839Y-92412557D01*
X155799567Y-92384012D01*
X155785294Y-92369740D01*
X155756750Y-92355468D01*
X155485574Y-92483919D02*
X155514119Y-92469647D01*
X155528391Y-92455374D01*
X155542663Y-92426830D01*
X155542663Y-92412557D01*
X155528391Y-92384012D01*
X155514119Y-92369740D01*
X155485574Y-92355468D01*
X155428484Y-92355468D01*
X155399940Y-92369740D01*
X155385667Y-92384012D01*
X155371395Y-92412557D01*
X155371395Y-92426830D01*
X155385667Y-92455374D01*
X155399940Y-92469647D01*
X155428484Y-92483919D01*
X155485574Y-92483919D01*
X155514119Y-92498191D01*
X155528391Y-92512464D01*
X155542663Y-92541009D01*
X155542663Y-92598098D01*
X155528391Y-92626643D01*
X155514119Y-92640915D01*
X155485574Y-92655188D01*
X155428484Y-92655188D01*
X155399940Y-92640915D01*
X155385667Y-92626643D01*
X155371395Y-92598098D01*
X155371395Y-92541009D01*
X155385667Y-92512464D01*
X155399940Y-92498191D01*
X155428484Y-92483919D01*
X155200126Y-92483919D02*
X155228671Y-92469647D01*
X155242943Y-92455374D01*
X155257215Y-92426830D01*
X155257215Y-92412557D01*
X155242943Y-92384012D01*
X155228671Y-92369740D01*
X155200126Y-92355468D01*
X155143036Y-92355468D01*
X155114492Y-92369740D01*
X155100219Y-92384012D01*
X155085947Y-92412557D01*
X155085947Y-92426830D01*
X155100219Y-92455374D01*
X155114492Y-92469647D01*
X155143036Y-92483919D01*
X155200126Y-92483919D01*
X155228671Y-92498191D01*
X155242943Y-92512464D01*
X155257215Y-92541009D01*
X155257215Y-92598098D01*
X155242943Y-92626643D01*
X155228671Y-92640915D01*
X155200126Y-92655188D01*
X155143036Y-92655188D01*
X155114492Y-92640915D01*
X155100219Y-92626643D01*
X155085947Y-92598098D01*
X155085947Y-92541009D01*
X155100219Y-92512464D01*
X155114492Y-92498191D01*
X155143036Y-92483919D01*
X180111842Y-97486268D02*
X180111842Y-97728898D01*
X180097570Y-97757443D01*
X180083297Y-97771715D01*
X180054753Y-97785988D01*
X179997663Y-97785988D01*
X179969118Y-97771715D01*
X179954846Y-97757443D01*
X179940574Y-97728898D01*
X179940574Y-97486268D01*
X179640854Y-97785988D02*
X179812122Y-97785988D01*
X179726488Y-97785988D02*
X179726488Y-97486268D01*
X179755033Y-97529085D01*
X179783578Y-97557630D01*
X179812122Y-97571902D01*
X179540947Y-97486268D02*
X179341134Y-97486268D01*
X179469585Y-97785988D01*
X180832598Y-92086228D02*
X180661330Y-92086228D01*
X180746964Y-92385948D02*
X180746964Y-92086228D01*
X180561423Y-92385948D02*
X180561423Y-92086228D01*
X180447244Y-92086228D01*
X180418699Y-92100500D01*
X180404427Y-92114772D01*
X180390155Y-92143317D01*
X180390155Y-92186134D01*
X180404427Y-92214679D01*
X180418699Y-92228951D01*
X180447244Y-92243224D01*
X180561423Y-92243224D01*
X180275975Y-92371675D02*
X180233158Y-92385948D01*
X180161796Y-92385948D01*
X180133252Y-92371675D01*
X180118979Y-92357403D01*
X180104707Y-92328858D01*
X180104707Y-92300313D01*
X180118979Y-92271769D01*
X180133252Y-92257496D01*
X180161796Y-92243224D01*
X180218886Y-92228951D01*
X180247431Y-92214679D01*
X180261703Y-92200407D01*
X180275975Y-92171862D01*
X180275975Y-92143317D01*
X180261703Y-92114772D01*
X180247431Y-92100500D01*
X180218886Y-92086228D01*
X180147524Y-92086228D01*
X180104707Y-92100500D01*
X179847804Y-92086228D02*
X179904893Y-92086228D01*
X179933438Y-92100500D01*
X179947710Y-92114772D01*
X179976255Y-92157590D01*
X179990527Y-92214679D01*
X179990527Y-92328858D01*
X179976255Y-92357403D01*
X179961983Y-92371675D01*
X179933438Y-92385948D01*
X179876348Y-92385948D01*
X179847804Y-92371675D01*
X179833531Y-92357403D01*
X179819259Y-92328858D01*
X179819259Y-92257496D01*
X179833531Y-92228951D01*
X179847804Y-92214679D01*
X179876348Y-92200407D01*
X179933438Y-92200407D01*
X179961983Y-92214679D01*
X179976255Y-92228951D01*
X179990527Y-92257496D01*
X179533811Y-92385948D02*
X179705079Y-92385948D01*
X179619445Y-92385948D02*
X179619445Y-92086228D01*
X179647990Y-92129045D01*
X179676535Y-92157590D01*
X179705079Y-92171862D01*
X179348270Y-92086228D02*
X179319725Y-92086228D01*
X179291180Y-92100500D01*
X179276908Y-92114772D01*
X179262635Y-92143317D01*
X179248363Y-92200407D01*
X179248363Y-92271769D01*
X179262635Y-92328858D01*
X179276908Y-92357403D01*
X179291180Y-92371675D01*
X179319725Y-92385948D01*
X179348270Y-92385948D01*
X179376814Y-92371675D01*
X179391087Y-92357403D01*
X179405359Y-92328858D01*
X179419631Y-92271769D01*
X179419631Y-92200407D01*
X179405359Y-92143317D01*
X179391087Y-92114772D01*
X179376814Y-92100500D01*
X179348270Y-92086228D01*
X179077094Y-92214679D02*
X179105639Y-92200407D01*
X179119911Y-92186134D01*
X179134183Y-92157590D01*
X179134183Y-92143317D01*
X179119911Y-92114772D01*
X179105639Y-92100500D01*
X179077094Y-92086228D01*
X179020004Y-92086228D01*
X178991460Y-92100500D01*
X178977187Y-92114772D01*
X178962915Y-92143317D01*
X178962915Y-92157590D01*
X178977187Y-92186134D01*
X178991460Y-92200407D01*
X179020004Y-92214679D01*
X179077094Y-92214679D01*
X179105639Y-92228951D01*
X179119911Y-92243224D01*
X179134183Y-92271769D01*
X179134183Y-92328858D01*
X179119911Y-92357403D01*
X179105639Y-92371675D01*
X179077094Y-92385948D01*
X179020004Y-92385948D01*
X178991460Y-92371675D01*
X178977187Y-92357403D01*
X178962915Y-92328858D01*
X178962915Y-92271769D01*
X178977187Y-92243224D01*
X178991460Y-92228951D01*
X179020004Y-92214679D01*
X178791646Y-92214679D02*
X178820191Y-92200407D01*
X178834463Y-92186134D01*
X178848735Y-92157590D01*
X178848735Y-92143317D01*
X178834463Y-92114772D01*
X178820191Y-92100500D01*
X178791646Y-92086228D01*
X178734556Y-92086228D01*
X178706012Y-92100500D01*
X178691739Y-92114772D01*
X178677467Y-92143317D01*
X178677467Y-92157590D01*
X178691739Y-92186134D01*
X178706012Y-92200407D01*
X178734556Y-92214679D01*
X178791646Y-92214679D01*
X178820191Y-92228951D01*
X178834463Y-92243224D01*
X178848735Y-92271769D01*
X178848735Y-92328858D01*
X178834463Y-92357403D01*
X178820191Y-92371675D01*
X178791646Y-92385948D01*
X178734556Y-92385948D01*
X178706012Y-92371675D01*
X178691739Y-92357403D01*
X178677467Y-92328858D01*
X178677467Y-92271769D01*
X178691739Y-92243224D01*
X178706012Y-92228951D01*
X178734556Y-92214679D01*
D13*
X106727143Y-109843334D02*
X106774762Y-109795715D01*
X106822381Y-109652858D01*
X106822381Y-109557620D01*
X106774762Y-109414762D01*
X106679524Y-109319524D01*
X106584286Y-109271905D01*
X106393810Y-109224286D01*
X106250952Y-109224286D01*
X106060476Y-109271905D01*
X105965238Y-109319524D01*
X105870000Y-109414762D01*
X105822381Y-109557620D01*
X105822381Y-109652858D01*
X105870000Y-109795715D01*
X105917619Y-109843334D01*
X106822381Y-110319524D02*
X106822381Y-110510000D01*
X106774762Y-110605239D01*
X106727143Y-110652858D01*
X106584286Y-110748096D01*
X106393810Y-110795715D01*
X106012857Y-110795715D01*
X105917619Y-110748096D01*
X105870000Y-110700477D01*
X105822381Y-110605239D01*
X105822381Y-110414762D01*
X105870000Y-110319524D01*
X105917619Y-110271905D01*
X106012857Y-110224286D01*
X106250952Y-110224286D01*
X106346190Y-110271905D01*
X106393810Y-110319524D01*
X106441429Y-110414762D01*
X106441429Y-110605239D01*
X106393810Y-110700477D01*
X106346190Y-110748096D01*
X106250952Y-110795715D01*
X120697143Y-109367143D02*
X120744762Y-109319524D01*
X120792381Y-109176667D01*
X120792381Y-109081429D01*
X120744762Y-108938571D01*
X120649524Y-108843333D01*
X120554286Y-108795714D01*
X120363810Y-108748095D01*
X120220952Y-108748095D01*
X120030476Y-108795714D01*
X119935238Y-108843333D01*
X119840000Y-108938571D01*
X119792381Y-109081429D01*
X119792381Y-109176667D01*
X119840000Y-109319524D01*
X119887619Y-109367143D01*
X120792381Y-110319524D02*
X120792381Y-109748095D01*
X120792381Y-110033809D02*
X119792381Y-110033809D01*
X119935238Y-109938571D01*
X120030476Y-109843333D01*
X120078095Y-109748095D01*
X119792381Y-110938571D02*
X119792381Y-111033810D01*
X119840000Y-111129048D01*
X119887619Y-111176667D01*
X119982857Y-111224286D01*
X120173333Y-111271905D01*
X120411429Y-111271905D01*
X120601905Y-111224286D01*
X120697143Y-111176667D01*
X120744762Y-111129048D01*
X120792381Y-111033810D01*
X120792381Y-110938571D01*
X120744762Y-110843333D01*
X120697143Y-110795714D01*
X120601905Y-110748095D01*
X120411429Y-110700476D01*
X120173333Y-110700476D01*
X119982857Y-110748095D01*
X119887619Y-110795714D01*
X119840000Y-110843333D01*
X119792381Y-110938571D01*
X182887143Y-106187143D02*
X182934762Y-106139524D01*
X182982381Y-105996667D01*
X182982381Y-105901429D01*
X182934762Y-105758571D01*
X182839524Y-105663333D01*
X182744286Y-105615714D01*
X182553810Y-105568095D01*
X182410952Y-105568095D01*
X182220476Y-105615714D01*
X182125238Y-105663333D01*
X182030000Y-105758571D01*
X181982381Y-105901429D01*
X181982381Y-105996667D01*
X182030000Y-106139524D01*
X182077619Y-106187143D01*
X182982381Y-107139524D02*
X182982381Y-106568095D01*
X182982381Y-106853809D02*
X181982381Y-106853809D01*
X182125238Y-106758571D01*
X182220476Y-106663333D01*
X182268095Y-106568095D01*
X182982381Y-108091905D02*
X182982381Y-107520476D01*
X182982381Y-107806190D02*
X181982381Y-107806190D01*
X182125238Y-107710952D01*
X182220476Y-107615714D01*
X182268095Y-107520476D01*
X152447143Y-106507143D02*
X152494762Y-106459524D01*
X152542381Y-106316667D01*
X152542381Y-106221429D01*
X152494762Y-106078571D01*
X152399524Y-105983333D01*
X152304286Y-105935714D01*
X152113810Y-105888095D01*
X151970952Y-105888095D01*
X151780476Y-105935714D01*
X151685238Y-105983333D01*
X151590000Y-106078571D01*
X151542381Y-106221429D01*
X151542381Y-106316667D01*
X151590000Y-106459524D01*
X151637619Y-106507143D01*
X152542381Y-107459524D02*
X152542381Y-106888095D01*
X152542381Y-107173809D02*
X151542381Y-107173809D01*
X151685238Y-107078571D01*
X151780476Y-106983333D01*
X151828095Y-106888095D01*
X151637619Y-107840476D02*
X151590000Y-107888095D01*
X151542381Y-107983333D01*
X151542381Y-108221429D01*
X151590000Y-108316667D01*
X151637619Y-108364286D01*
X151732857Y-108411905D01*
X151828095Y-108411905D01*
X151970952Y-108364286D01*
X152542381Y-107792857D01*
X152542381Y-108411905D01*
X162702857Y-104882381D02*
X163036191Y-104406190D01*
X163274286Y-104882381D02*
X163274286Y-103882381D01*
X162893333Y-103882381D01*
X162798095Y-103930000D01*
X162750476Y-103977619D01*
X162702857Y-104072857D01*
X162702857Y-104215714D01*
X162750476Y-104310952D01*
X162798095Y-104358571D01*
X162893333Y-104406190D01*
X163274286Y-104406190D01*
X161750476Y-104882381D02*
X162321905Y-104882381D01*
X162036191Y-104882381D02*
X162036191Y-103882381D01*
X162131429Y-104025238D01*
X162226667Y-104120476D01*
X162321905Y-104168095D01*
X161417143Y-103882381D02*
X160750476Y-103882381D01*
X161179048Y-104882381D01*
X192072381Y-101257143D02*
X191596190Y-100923809D01*
X192072381Y-100685714D02*
X191072381Y-100685714D01*
X191072381Y-101066667D01*
X191120000Y-101161905D01*
X191167619Y-101209524D01*
X191262857Y-101257143D01*
X191405714Y-101257143D01*
X191500952Y-101209524D01*
X191548571Y-101161905D01*
X191596190Y-101066667D01*
X191596190Y-100685714D01*
X192072381Y-102209524D02*
X192072381Y-101638095D01*
X192072381Y-101923809D02*
X191072381Y-101923809D01*
X191215238Y-101828571D01*
X191310476Y-101733333D01*
X191358095Y-101638095D01*
X191500952Y-102780952D02*
X191453333Y-102685714D01*
X191405714Y-102638095D01*
X191310476Y-102590476D01*
X191262857Y-102590476D01*
X191167619Y-102638095D01*
X191120000Y-102685714D01*
X191072381Y-102780952D01*
X191072381Y-102971429D01*
X191120000Y-103066667D01*
X191167619Y-103114286D01*
X191262857Y-103161905D01*
X191310476Y-103161905D01*
X191405714Y-103114286D01*
X191453333Y-103066667D01*
X191500952Y-102971429D01*
X191500952Y-102780952D01*
X191548571Y-102685714D01*
X191596190Y-102638095D01*
X191691429Y-102590476D01*
X191881905Y-102590476D01*
X191977143Y-102638095D01*
X192024762Y-102685714D01*
X192072381Y-102780952D01*
X192072381Y-102971429D01*
X192024762Y-103066667D01*
X191977143Y-103114286D01*
X191881905Y-103161905D01*
X191691429Y-103161905D01*
X191596190Y-103114286D01*
X191548571Y-103066667D01*
X191500952Y-102971429D01*
X160322381Y-106677143D02*
X159846190Y-106343809D01*
X160322381Y-106105714D02*
X159322381Y-106105714D01*
X159322381Y-106486667D01*
X159370000Y-106581905D01*
X159417619Y-106629524D01*
X159512857Y-106677143D01*
X159655714Y-106677143D01*
X159750952Y-106629524D01*
X159798571Y-106581905D01*
X159846190Y-106486667D01*
X159846190Y-106105714D01*
X160322381Y-107629524D02*
X160322381Y-107058095D01*
X160322381Y-107343809D02*
X159322381Y-107343809D01*
X159465238Y-107248571D01*
X159560476Y-107153333D01*
X159608095Y-107058095D01*
X160322381Y-108105714D02*
X160322381Y-108296190D01*
X160274762Y-108391429D01*
X160227143Y-108439048D01*
X160084286Y-108534286D01*
X159893810Y-108581905D01*
X159512857Y-108581905D01*
X159417619Y-108534286D01*
X159370000Y-108486667D01*
X159322381Y-108391429D01*
X159322381Y-108200952D01*
X159370000Y-108105714D01*
X159417619Y-108058095D01*
X159512857Y-108010476D01*
X159750952Y-108010476D01*
X159846190Y-108058095D01*
X159893810Y-108105714D01*
X159941429Y-108200952D01*
X159941429Y-108391429D01*
X159893810Y-108486667D01*
X159846190Y-108534286D01*
X159750952Y-108581905D01*
X154882381Y-106677143D02*
X154406190Y-106343809D01*
X154882381Y-106105714D02*
X153882381Y-106105714D01*
X153882381Y-106486667D01*
X153930000Y-106581905D01*
X153977619Y-106629524D01*
X154072857Y-106677143D01*
X154215714Y-106677143D01*
X154310952Y-106629524D01*
X154358571Y-106581905D01*
X154406190Y-106486667D01*
X154406190Y-106105714D01*
X153977619Y-107058095D02*
X153930000Y-107105714D01*
X153882381Y-107200952D01*
X153882381Y-107439048D01*
X153930000Y-107534286D01*
X153977619Y-107581905D01*
X154072857Y-107629524D01*
X154168095Y-107629524D01*
X154310952Y-107581905D01*
X154882381Y-107010476D01*
X154882381Y-107629524D01*
X153882381Y-108248571D02*
X153882381Y-108343810D01*
X153930000Y-108439048D01*
X153977619Y-108486667D01*
X154072857Y-108534286D01*
X154263333Y-108581905D01*
X154501429Y-108581905D01*
X154691905Y-108534286D01*
X154787143Y-108486667D01*
X154834762Y-108439048D01*
X154882381Y-108343810D01*
X154882381Y-108248571D01*
X154834762Y-108153333D01*
X154787143Y-108105714D01*
X154691905Y-108058095D01*
X154501429Y-108010476D01*
X154263333Y-108010476D01*
X154072857Y-108058095D01*
X153977619Y-108105714D01*
X153930000Y-108153333D01*
X153882381Y-108248571D01*
X185362381Y-106677143D02*
X184886190Y-106343809D01*
X185362381Y-106105714D02*
X184362381Y-106105714D01*
X184362381Y-106486667D01*
X184410000Y-106581905D01*
X184457619Y-106629524D01*
X184552857Y-106677143D01*
X184695714Y-106677143D01*
X184790952Y-106629524D01*
X184838571Y-106581905D01*
X184886190Y-106486667D01*
X184886190Y-106105714D01*
X184457619Y-107058095D02*
X184410000Y-107105714D01*
X184362381Y-107200952D01*
X184362381Y-107439048D01*
X184410000Y-107534286D01*
X184457619Y-107581905D01*
X184552857Y-107629524D01*
X184648095Y-107629524D01*
X184790952Y-107581905D01*
X185362381Y-107010476D01*
X185362381Y-107629524D01*
X184790952Y-108200952D02*
X184743333Y-108105714D01*
X184695714Y-108058095D01*
X184600476Y-108010476D01*
X184552857Y-108010476D01*
X184457619Y-108058095D01*
X184410000Y-108105714D01*
X184362381Y-108200952D01*
X184362381Y-108391429D01*
X184410000Y-108486667D01*
X184457619Y-108534286D01*
X184552857Y-108581905D01*
X184600476Y-108581905D01*
X184695714Y-108534286D01*
X184743333Y-108486667D01*
X184790952Y-108391429D01*
X184790952Y-108200952D01*
X184838571Y-108105714D01*
X184886190Y-108058095D01*
X184981429Y-108010476D01*
X185171905Y-108010476D01*
X185267143Y-108058095D01*
X185314762Y-108105714D01*
X185362381Y-108200952D01*
X185362381Y-108391429D01*
X185314762Y-108486667D01*
X185267143Y-108534286D01*
X185171905Y-108581905D01*
X184981429Y-108581905D01*
X184886190Y-108534286D01*
X184838571Y-108486667D01*
X184790952Y-108391429D01*
X185722381Y-106677143D02*
X185246190Y-106343809D01*
X185722381Y-106105714D02*
X184722381Y-106105714D01*
X184722381Y-106486667D01*
X184770000Y-106581905D01*
X184817619Y-106629524D01*
X184912857Y-106677143D01*
X185055714Y-106677143D01*
X185150952Y-106629524D01*
X185198571Y-106581905D01*
X185246190Y-106486667D01*
X185246190Y-106105714D01*
X184817619Y-107058095D02*
X184770000Y-107105714D01*
X184722381Y-107200952D01*
X184722381Y-107439048D01*
X184770000Y-107534286D01*
X184817619Y-107581905D01*
X184912857Y-107629524D01*
X185008095Y-107629524D01*
X185150952Y-107581905D01*
X185722381Y-107010476D01*
X185722381Y-107629524D01*
X185722381Y-108105714D02*
X185722381Y-108296190D01*
X185674762Y-108391429D01*
X185627143Y-108439048D01*
X185484286Y-108534286D01*
X185293810Y-108581905D01*
X184912857Y-108581905D01*
X184817619Y-108534286D01*
X184770000Y-108486667D01*
X184722381Y-108391429D01*
X184722381Y-108200952D01*
X184770000Y-108105714D01*
X184817619Y-108058095D01*
X184912857Y-108010476D01*
X185150952Y-108010476D01*
X185246190Y-108058095D01*
X185293810Y-108105714D01*
X185341429Y-108200952D01*
X185341429Y-108391429D01*
X185293810Y-108486667D01*
X185246190Y-108534286D01*
X185150952Y-108581905D01*
X113322857Y-71797143D02*
X113370476Y-71844762D01*
X113513333Y-71892381D01*
X113608571Y-71892381D01*
X113751429Y-71844762D01*
X113846667Y-71749524D01*
X113894286Y-71654286D01*
X113941905Y-71463810D01*
X113941905Y-71320952D01*
X113894286Y-71130476D01*
X113846667Y-71035238D01*
X113751429Y-70940000D01*
X113608571Y-70892381D01*
X113513333Y-70892381D01*
X113370476Y-70940000D01*
X113322857Y-70987619D01*
X112370476Y-71892381D02*
X112941905Y-71892381D01*
X112656191Y-71892381D02*
X112656191Y-70892381D01*
X112751429Y-71035238D01*
X112846667Y-71130476D01*
X112941905Y-71178095D01*
X112037143Y-70892381D02*
X111418095Y-70892381D01*
X111751429Y-71273333D01*
X111608571Y-71273333D01*
X111513333Y-71320952D01*
X111465714Y-71368571D01*
X111418095Y-71463810D01*
X111418095Y-71701905D01*
X111465714Y-71797143D01*
X111513333Y-71844762D01*
X111608571Y-71892381D01*
X111894286Y-71892381D01*
X111989524Y-71844762D01*
X112037143Y-71797143D01*
X123722857Y-56102381D02*
X124056191Y-55626190D01*
X124294286Y-56102381D02*
X124294286Y-55102381D01*
X123913333Y-55102381D01*
X123818095Y-55150000D01*
X123770476Y-55197619D01*
X123722857Y-55292857D01*
X123722857Y-55435714D01*
X123770476Y-55530952D01*
X123818095Y-55578571D01*
X123913333Y-55626190D01*
X124294286Y-55626190D01*
X122770476Y-56102381D02*
X123341905Y-56102381D01*
X123056191Y-56102381D02*
X123056191Y-55102381D01*
X123151429Y-55245238D01*
X123246667Y-55340476D01*
X123341905Y-55388095D01*
X121818095Y-56102381D02*
X122389524Y-56102381D01*
X122103810Y-56102381D02*
X122103810Y-55102381D01*
X122199048Y-55245238D01*
X122294286Y-55340476D01*
X122389524Y-55388095D01*
X115932857Y-60512381D02*
X116266191Y-60036190D01*
X116504286Y-60512381D02*
X116504286Y-59512381D01*
X116123333Y-59512381D01*
X116028095Y-59560000D01*
X115980476Y-59607619D01*
X115932857Y-59702857D01*
X115932857Y-59845714D01*
X115980476Y-59940952D01*
X116028095Y-59988571D01*
X116123333Y-60036190D01*
X116504286Y-60036190D01*
X114980476Y-60512381D02*
X115551905Y-60512381D01*
X115266191Y-60512381D02*
X115266191Y-59512381D01*
X115361429Y-59655238D01*
X115456667Y-59750476D01*
X115551905Y-59798095D01*
X114599524Y-59607619D02*
X114551905Y-59560000D01*
X114456667Y-59512381D01*
X114218571Y-59512381D01*
X114123333Y-59560000D01*
X114075714Y-59607619D01*
X114028095Y-59702857D01*
X114028095Y-59798095D01*
X114075714Y-59940952D01*
X114647143Y-60512381D01*
X114028095Y-60512381D01*
X110342381Y-63167143D02*
X109866190Y-62833809D01*
X110342381Y-62595714D02*
X109342381Y-62595714D01*
X109342381Y-62976667D01*
X109390000Y-63071905D01*
X109437619Y-63119524D01*
X109532857Y-63167143D01*
X109675714Y-63167143D01*
X109770952Y-63119524D01*
X109818571Y-63071905D01*
X109866190Y-62976667D01*
X109866190Y-62595714D01*
X110342381Y-64119524D02*
X110342381Y-63548095D01*
X110342381Y-63833809D02*
X109342381Y-63833809D01*
X109485238Y-63738571D01*
X109580476Y-63643333D01*
X109628095Y-63548095D01*
X109342381Y-64452857D02*
X109342381Y-65071905D01*
X109723333Y-64738571D01*
X109723333Y-64881429D01*
X109770952Y-64976667D01*
X109818571Y-65024286D01*
X109913810Y-65071905D01*
X110151905Y-65071905D01*
X110247143Y-65024286D01*
X110294762Y-64976667D01*
X110342381Y-64881429D01*
X110342381Y-64595714D01*
X110294762Y-64500476D01*
X110247143Y-64452857D01*
X112062381Y-68577143D02*
X111586190Y-68243809D01*
X112062381Y-68005714D02*
X111062381Y-68005714D01*
X111062381Y-68386667D01*
X111110000Y-68481905D01*
X111157619Y-68529524D01*
X111252857Y-68577143D01*
X111395714Y-68577143D01*
X111490952Y-68529524D01*
X111538571Y-68481905D01*
X111586190Y-68386667D01*
X111586190Y-68005714D01*
X111157619Y-68958095D02*
X111110000Y-69005714D01*
X111062381Y-69100952D01*
X111062381Y-69339048D01*
X111110000Y-69434286D01*
X111157619Y-69481905D01*
X111252857Y-69529524D01*
X111348095Y-69529524D01*
X111490952Y-69481905D01*
X112062381Y-68910476D01*
X112062381Y-69529524D01*
X111062381Y-69862857D02*
X111062381Y-70481905D01*
X111443333Y-70148571D01*
X111443333Y-70291429D01*
X111490952Y-70386667D01*
X111538571Y-70434286D01*
X111633810Y-70481905D01*
X111871905Y-70481905D01*
X111967143Y-70434286D01*
X112014762Y-70386667D01*
X112062381Y-70291429D01*
X112062381Y-70005714D01*
X112014762Y-69910476D01*
X111967143Y-69862857D01*
X113372857Y-73992381D02*
X113706191Y-73516190D01*
X113944286Y-73992381D02*
X113944286Y-72992381D01*
X113563333Y-72992381D01*
X113468095Y-73040000D01*
X113420476Y-73087619D01*
X113372857Y-73182857D01*
X113372857Y-73325714D01*
X113420476Y-73420952D01*
X113468095Y-73468571D01*
X113563333Y-73516190D01*
X113944286Y-73516190D01*
X112991905Y-73087619D02*
X112944286Y-73040000D01*
X112849048Y-72992381D01*
X112610952Y-72992381D01*
X112515714Y-73040000D01*
X112468095Y-73087619D01*
X112420476Y-73182857D01*
X112420476Y-73278095D01*
X112468095Y-73420952D01*
X113039524Y-73992381D01*
X112420476Y-73992381D01*
X111563333Y-73325714D02*
X111563333Y-73992381D01*
X111801429Y-72944762D02*
X112039524Y-73659048D01*
X111420476Y-73659048D01*
X115456666Y-55577143D02*
X115504285Y-55624762D01*
X115647142Y-55672381D01*
X115742380Y-55672381D01*
X115885238Y-55624762D01*
X115980476Y-55529524D01*
X116028095Y-55434286D01*
X116075714Y-55243810D01*
X116075714Y-55100952D01*
X116028095Y-54910476D01*
X115980476Y-54815238D01*
X115885238Y-54720000D01*
X115742380Y-54672381D01*
X115647142Y-54672381D01*
X115504285Y-54720000D01*
X115456666Y-54767619D01*
X114885238Y-55100952D02*
X114980476Y-55053333D01*
X115028095Y-55005714D01*
X115075714Y-54910476D01*
X115075714Y-54862857D01*
X115028095Y-54767619D01*
X114980476Y-54720000D01*
X114885238Y-54672381D01*
X114694761Y-54672381D01*
X114599523Y-54720000D01*
X114551904Y-54767619D01*
X114504285Y-54862857D01*
X114504285Y-54910476D01*
X114551904Y-55005714D01*
X114599523Y-55053333D01*
X114694761Y-55100952D01*
X114885238Y-55100952D01*
X114980476Y-55148571D01*
X115028095Y-55196190D01*
X115075714Y-55291429D01*
X115075714Y-55481905D01*
X115028095Y-55577143D01*
X114980476Y-55624762D01*
X114885238Y-55672381D01*
X114694761Y-55672381D01*
X114599523Y-55624762D01*
X114551904Y-55577143D01*
X114504285Y-55481905D01*
X114504285Y-55291429D01*
X114551904Y-55196190D01*
X114599523Y-55148571D01*
X114694761Y-55100952D01*
X130128095Y-56912381D02*
X130128095Y-57721905D01*
X130080476Y-57817143D01*
X130032857Y-57864762D01*
X129937619Y-57912381D01*
X129747142Y-57912381D01*
X129651904Y-57864762D01*
X129604285Y-57817143D01*
X129556666Y-57721905D01*
X129556666Y-56912381D01*
X128556666Y-57912381D02*
X129128095Y-57912381D01*
X128842381Y-57912381D02*
X128842381Y-56912381D01*
X128937619Y-57055238D01*
X129032857Y-57150476D01*
X129128095Y-57198095D01*
X128175714Y-57007619D02*
X128128095Y-56960000D01*
X128032857Y-56912381D01*
X127794761Y-56912381D01*
X127699523Y-56960000D01*
X127651904Y-57007619D01*
X127604285Y-57102857D01*
X127604285Y-57198095D01*
X127651904Y-57340952D01*
X128223333Y-57912381D01*
X127604285Y-57912381D01*
M02*
