G04 #@! TF.FileFunction,Copper,L3,Inr,Plane*
%FSLAX46Y46*%
G04 Gerber Fmt 4.6, Leading zero omitted, Abs format (unit mm)*
G04 Created by KiCad (PCBNEW 4.0.6) date 02/19/18 00:31:27*
%MOMM*%
%LPD*%
G01*
G04 APERTURE LIST*
%ADD10C,0.100000*%
%ADD11R,1.250000X0.950000*%
%ADD12O,1.250000X0.950000*%
%ADD13O,1.250000X1.100000*%
%ADD14R,1.700000X1.700000*%
%ADD15O,1.700000X1.700000*%
%ADD16C,6.400000*%
%ADD17C,0.600000*%
%ADD18C,0.254000*%
G04 APERTURE END LIST*
D10*
D11*
X106350000Y-79130000D03*
D12*
X106350000Y-77880000D03*
X106350000Y-76630000D03*
X106350000Y-75380000D03*
D13*
X106350000Y-74130000D03*
D14*
X158420000Y-56350000D03*
D15*
X158420000Y-53810000D03*
X160960000Y-56350000D03*
X160960000Y-53810000D03*
X163500000Y-56350000D03*
X163500000Y-53810000D03*
D14*
X142920000Y-56350000D03*
D15*
X142920000Y-53810000D03*
X145460000Y-56350000D03*
X145460000Y-53810000D03*
X148000000Y-56350000D03*
X148000000Y-53810000D03*
X150540000Y-56350000D03*
X150540000Y-53810000D03*
X153080000Y-56350000D03*
X153080000Y-53810000D03*
D11*
X106350000Y-117310000D03*
D12*
X106350000Y-116060000D03*
X106350000Y-114810000D03*
X106350000Y-113560000D03*
D13*
X106350000Y-112310000D03*
D11*
X188900000Y-74130000D03*
D12*
X188900000Y-75380000D03*
X188900000Y-76630000D03*
X188900000Y-77880000D03*
D13*
X188900000Y-79130000D03*
D11*
X188900000Y-112230000D03*
D12*
X188900000Y-113480000D03*
X188900000Y-114730000D03*
X188900000Y-115980000D03*
D13*
X188900000Y-117230000D03*
D11*
X106350000Y-86810000D03*
D12*
X106350000Y-85560000D03*
D11*
X106350000Y-93180000D03*
D12*
X106350000Y-91930000D03*
D11*
X106350000Y-100800000D03*
D13*
X106350000Y-99550000D03*
D11*
X106350000Y-107130000D03*
D12*
X106350000Y-105880000D03*
D14*
X130480000Y-56350000D03*
D15*
X130480000Y-53810000D03*
X133020000Y-56350000D03*
X133020000Y-53810000D03*
X135560000Y-56350000D03*
X135560000Y-53810000D03*
X138100000Y-56350000D03*
X138100000Y-53810000D03*
D11*
X106350000Y-69880000D03*
D12*
X106350000Y-68630000D03*
X106350000Y-67380000D03*
X106350000Y-66130000D03*
D11*
X106350000Y-125310000D03*
D12*
X106350000Y-124060000D03*
X106350000Y-122810000D03*
X106350000Y-121560000D03*
D16*
X105190000Y-131110000D03*
X190920000Y-54910000D03*
X190920000Y-134920000D03*
X105190000Y-57450000D03*
D17*
X106670000Y-108270000D03*
X106670000Y-118430000D03*
X106670000Y-72710000D03*
X187950000Y-120970000D03*
X193030000Y-110810000D03*
X187950000Y-82870000D03*
X151810000Y-106330000D03*
X140790000Y-100730000D03*
X144280000Y-132950000D03*
X126670000Y-135210000D03*
X112410000Y-56470000D03*
X127940000Y-52540000D03*
X128094442Y-57465558D03*
X107620000Y-95720000D03*
X142430000Y-126510000D03*
X164440000Y-100520000D03*
X160560000Y-116080000D03*
X151510000Y-76710000D03*
X148230000Y-115420000D03*
X148620000Y-110110000D03*
X148150000Y-122740000D03*
X148260000Y-131280000D03*
X117780000Y-62700000D03*
X152070000Y-55080000D03*
X106350000Y-81750000D03*
X136830000Y-91910000D03*
X133020000Y-88100000D03*
X140015000Y-94270303D03*
X133020000Y-99530000D03*
X134290000Y-102070000D03*
X117780000Y-99530000D03*
X135560000Y-123660000D03*
X131750000Y-80480000D03*
X136830000Y-107150000D03*
X129210000Y-107150000D03*
X190170000Y-109690000D03*
X154610000Y-107150000D03*
X163500000Y-110960000D03*
X159690000Y-102070000D03*
X119050000Y-107150000D03*
X107620000Y-103340000D03*
X183820000Y-102070000D03*
X158420000Y-95720000D03*
X153340000Y-88100000D03*
X162230000Y-91910000D03*
X116510000Y-90640000D03*
X102540000Y-90640000D03*
X115240000Y-94450000D03*
X101270000Y-100800000D03*
X102535015Y-94343002D03*
X188773063Y-72986937D03*
X188900000Y-74130000D03*
X188900000Y-117230000D03*
X188900000Y-117230000D03*
X106350000Y-112310000D03*
X188900000Y-117230000D03*
X188900000Y-112230000D03*
X188900000Y-79130000D03*
X188900000Y-74130000D03*
X131050000Y-103310000D03*
X128010000Y-126800000D03*
X162550000Y-98110000D03*
X160010000Y-98110000D03*
X142067480Y-78112520D03*
X145520000Y-76730000D03*
X138390000Y-126490000D03*
X146400000Y-120780000D03*
X143792140Y-126812140D03*
X117154999Y-64614999D03*
X112700000Y-98010088D03*
X136830000Y-93180000D03*
X134290000Y-94450000D03*
X136830000Y-90472738D03*
X133020000Y-103310000D03*
X135560000Y-96990000D03*
X131750000Y-96990000D03*
X119050000Y-105880000D03*
X101270000Y-105880000D03*
X101270000Y-103340000D03*
X135319448Y-85319448D03*
X139995000Y-85617910D03*
X148859441Y-121134443D03*
X137316597Y-106514999D03*
X150800000Y-121120000D03*
X143214299Y-90636140D03*
X143180000Y-85560000D03*
X144213867Y-57859982D03*
X152070000Y-60160000D03*
X144629512Y-84277959D03*
X148260000Y-99530000D03*
X145720000Y-58890000D03*
X149530000Y-58663222D03*
X143805000Y-84290000D03*
X129209458Y-111470541D03*
X117670000Y-60250000D03*
X118330000Y-58835000D03*
X133078151Y-110105405D03*
X127770000Y-102620000D03*
X149530000Y-99530000D03*
X139370000Y-88100000D03*
X139537262Y-79210000D03*
X140279338Y-76309338D03*
X140640000Y-96990000D03*
X140640000Y-88752739D03*
X129209999Y-103935000D03*
X131410000Y-101570000D03*
X125269999Y-107580000D03*
X125398223Y-110704260D03*
X134630000Y-116320000D03*
X136830000Y-99530000D03*
X135560000Y-102070000D03*
X138100000Y-96990000D03*
X138100000Y-93180000D03*
X136000000Y-104160000D03*
X137316597Y-105244999D03*
X137600000Y-107520000D03*
X134710000Y-112675727D03*
X136071640Y-102685000D03*
X138396941Y-101773059D03*
X143180000Y-98260000D03*
X143180000Y-94050000D03*
X139600000Y-107149999D03*
X142840000Y-118539401D03*
X136830000Y-104610000D03*
X140936941Y-104313059D03*
X139370000Y-102070000D03*
X136830000Y-94450000D03*
X141910000Y-114770000D03*
X140640000Y-109690000D03*
X129050000Y-93460000D03*
X128610000Y-99270000D03*
X128060000Y-93130000D03*
X133020000Y-57700003D03*
X169850000Y-93660000D03*
X168410000Y-89630000D03*
X110160000Y-64990088D03*
X107620000Y-88100000D03*
X183820000Y-93180000D03*
X159690000Y-93180000D03*
X140640000Y-110960000D03*
X140640000Y-114770000D03*
X156574999Y-113210001D03*
X153185000Y-113879670D03*
X152920000Y-112740000D03*
X157825000Y-111970000D03*
X155880000Y-110960000D03*
X194760000Y-97940000D03*
X145940000Y-117190000D03*
X142970000Y-109400000D03*
X145720000Y-90640000D03*
X145720000Y-88752739D03*
X139370000Y-113500000D03*
X139370000Y-110960000D03*
X138450000Y-121180000D03*
X148540000Y-108130000D03*
X136830000Y-105880000D03*
X144450000Y-105880000D03*
X129209999Y-109360001D03*
X122465940Y-108420000D03*
X117780000Y-102070000D03*
X130480000Y-109690000D03*
X130480000Y-114770000D03*
X130480000Y-116040000D03*
X135560000Y-110960000D03*
X135560000Y-113500000D03*
X136830000Y-113500000D03*
X136830000Y-110960000D03*
X138100000Y-110960000D03*
X138100000Y-113500000D03*
X134290000Y-79210000D03*
X132985000Y-79210000D03*
X152590000Y-93330000D03*
X153180000Y-96650000D03*
X154274560Y-98112976D03*
X152800000Y-99480000D03*
X151500000Y-124930000D03*
X146498058Y-112041942D03*
X131280000Y-59335000D03*
X131220000Y-60585000D03*
X171110000Y-107900000D03*
X157200000Y-109019999D03*
X164770000Y-103340000D03*
X160960000Y-103340000D03*
X160960000Y-102070000D03*
X192710000Y-102070000D03*
X172040000Y-120680000D03*
X163475000Y-108600000D03*
X160225000Y-111850000D03*
X160180000Y-115050000D03*
X112075000Y-71110000D03*
X153530000Y-126436380D03*
X146170000Y-109470000D03*
X152623534Y-126436380D03*
X146080000Y-110740000D03*
X153610000Y-127330000D03*
X151670000Y-110760000D03*
X154580784Y-127243100D03*
X151609852Y-109450148D03*
X107620000Y-83020000D03*
X110160000Y-57620000D03*
X106350000Y-105880000D03*
X143768557Y-92074282D03*
X130600000Y-129850000D03*
X129229999Y-115395000D03*
X127509989Y-108420000D03*
X129250000Y-108410000D03*
X135360000Y-131170000D03*
X129460000Y-104850000D03*
X146170000Y-131840000D03*
X144100000Y-131860000D03*
X143610000Y-129330000D03*
X142570000Y-130300000D03*
D18*
G36*
X195290000Y-97147672D02*
X194946799Y-97005162D01*
X194574833Y-97004838D01*
X194231057Y-97146883D01*
X193967808Y-97409673D01*
X193825162Y-97753201D01*
X193824838Y-98125167D01*
X193966883Y-98468943D01*
X194229673Y-98732192D01*
X194573201Y-98874838D01*
X194945167Y-98875162D01*
X195288943Y-98733117D01*
X195290000Y-98732062D01*
X195290000Y-139290000D01*
X100820000Y-139290000D01*
X100820000Y-135679482D01*
X187084336Y-135679482D01*
X187666950Y-137089515D01*
X188744811Y-138169259D01*
X190153825Y-138754333D01*
X191679482Y-138755664D01*
X193089515Y-138173050D01*
X194169259Y-137095189D01*
X194754333Y-135686175D01*
X194755664Y-134160518D01*
X194173050Y-132750485D01*
X193095189Y-131670741D01*
X191686175Y-131085667D01*
X190160518Y-131084336D01*
X188750485Y-131666950D01*
X187670741Y-132744811D01*
X187085667Y-134153825D01*
X187084336Y-135679482D01*
X100820000Y-135679482D01*
X100820000Y-131869482D01*
X101354336Y-131869482D01*
X101936950Y-133279515D01*
X103014811Y-134359259D01*
X104423825Y-134944333D01*
X105949482Y-134945664D01*
X107359515Y-134363050D01*
X108439259Y-133285189D01*
X109024333Y-131876175D01*
X109024787Y-131355167D01*
X134424838Y-131355167D01*
X134566883Y-131698943D01*
X134829673Y-131962192D01*
X135173201Y-132104838D01*
X135545167Y-132105162D01*
X135690366Y-132045167D01*
X143164838Y-132045167D01*
X143306883Y-132388943D01*
X143569673Y-132652192D01*
X143913201Y-132794838D01*
X144285167Y-132795162D01*
X144628943Y-132653117D01*
X144892192Y-132390327D01*
X145034838Y-132046799D01*
X145034856Y-132025167D01*
X145234838Y-132025167D01*
X145376883Y-132368943D01*
X145639673Y-132632192D01*
X145983201Y-132774838D01*
X146355167Y-132775162D01*
X146698943Y-132633117D01*
X146962192Y-132370327D01*
X147104838Y-132026799D01*
X147105162Y-131654833D01*
X146963117Y-131311057D01*
X146700327Y-131047808D01*
X146356799Y-130905162D01*
X145984833Y-130904838D01*
X145641057Y-131046883D01*
X145377808Y-131309673D01*
X145235162Y-131653201D01*
X145234838Y-132025167D01*
X145034856Y-132025167D01*
X145035162Y-131674833D01*
X144893117Y-131331057D01*
X144630327Y-131067808D01*
X144286799Y-130925162D01*
X143914833Y-130924838D01*
X143571057Y-131066883D01*
X143307808Y-131329673D01*
X143165162Y-131673201D01*
X143164838Y-132045167D01*
X135690366Y-132045167D01*
X135888943Y-131963117D01*
X136152192Y-131700327D01*
X136294838Y-131356799D01*
X136295162Y-130984833D01*
X136153117Y-130641057D01*
X135997499Y-130485167D01*
X141634838Y-130485167D01*
X141776883Y-130828943D01*
X142039673Y-131092192D01*
X142383201Y-131234838D01*
X142755167Y-131235162D01*
X143098943Y-131093117D01*
X143362192Y-130830327D01*
X143504838Y-130486799D01*
X143505031Y-130264909D01*
X143795167Y-130265162D01*
X144138943Y-130123117D01*
X144402192Y-129860327D01*
X144544838Y-129516799D01*
X144545162Y-129144833D01*
X144403117Y-128801057D01*
X144140327Y-128537808D01*
X143796799Y-128395162D01*
X143424833Y-128394838D01*
X143081057Y-128536883D01*
X142817808Y-128799673D01*
X142675162Y-129143201D01*
X142674969Y-129365091D01*
X142384833Y-129364838D01*
X142041057Y-129506883D01*
X141777808Y-129769673D01*
X141635162Y-130113201D01*
X141634838Y-130485167D01*
X135997499Y-130485167D01*
X135890327Y-130377808D01*
X135546799Y-130235162D01*
X135174833Y-130234838D01*
X134831057Y-130376883D01*
X134567808Y-130639673D01*
X134425162Y-130983201D01*
X134424838Y-131355167D01*
X109024787Y-131355167D01*
X109025664Y-130350518D01*
X108895364Y-130035167D01*
X129664838Y-130035167D01*
X129806883Y-130378943D01*
X130069673Y-130642192D01*
X130413201Y-130784838D01*
X130785167Y-130785162D01*
X131128943Y-130643117D01*
X131392192Y-130380327D01*
X131534838Y-130036799D01*
X131535162Y-129664833D01*
X131393117Y-129321057D01*
X131130327Y-129057808D01*
X130786799Y-128915162D01*
X130414833Y-128914838D01*
X130071057Y-129056883D01*
X129807808Y-129319673D01*
X129665162Y-129663201D01*
X129664838Y-130035167D01*
X108895364Y-130035167D01*
X108443050Y-128940485D01*
X107365189Y-127860741D01*
X105956175Y-127275667D01*
X104430518Y-127274336D01*
X103020485Y-127856950D01*
X101940741Y-128934811D01*
X101355667Y-130343825D01*
X101354336Y-131869482D01*
X100820000Y-131869482D01*
X100820000Y-126985167D01*
X127074838Y-126985167D01*
X127216883Y-127328943D01*
X127479673Y-127592192D01*
X127823201Y-127734838D01*
X128195167Y-127735162D01*
X128538943Y-127593117D01*
X128802192Y-127330327D01*
X128944838Y-126986799D01*
X128945109Y-126675167D01*
X137454838Y-126675167D01*
X137596883Y-127018943D01*
X137859673Y-127282192D01*
X138203201Y-127424838D01*
X138575167Y-127425162D01*
X138918943Y-127283117D01*
X139182192Y-127020327D01*
X139191750Y-126997307D01*
X142856978Y-126997307D01*
X142999023Y-127341083D01*
X143261813Y-127604332D01*
X143605341Y-127746978D01*
X143977307Y-127747302D01*
X144321083Y-127605257D01*
X144584332Y-127342467D01*
X144726978Y-126998939D01*
X144727302Y-126626973D01*
X144585257Y-126283197D01*
X144322467Y-126019948D01*
X143978939Y-125877302D01*
X143606973Y-125876978D01*
X143263197Y-126019023D01*
X142999948Y-126281813D01*
X142857302Y-126625341D01*
X142856978Y-126997307D01*
X139191750Y-126997307D01*
X139324838Y-126676799D01*
X139325162Y-126304833D01*
X139183117Y-125961057D01*
X138920327Y-125697808D01*
X138576799Y-125555162D01*
X138204833Y-125554838D01*
X137861057Y-125696883D01*
X137597808Y-125959673D01*
X137455162Y-126303201D01*
X137454838Y-126675167D01*
X128945109Y-126675167D01*
X128945162Y-126614833D01*
X128803117Y-126271057D01*
X128540327Y-126007808D01*
X128196799Y-125865162D01*
X127824833Y-125864838D01*
X127481057Y-126006883D01*
X127217808Y-126269673D01*
X127075162Y-126613201D01*
X127074838Y-126985167D01*
X100820000Y-126985167D01*
X100820000Y-121560000D01*
X105065315Y-121560000D01*
X105149809Y-121984779D01*
X105283592Y-122185000D01*
X105149809Y-122385221D01*
X105065315Y-122810000D01*
X105149809Y-123234779D01*
X105283592Y-123435000D01*
X105149809Y-123635221D01*
X105065315Y-124060000D01*
X105149809Y-124484779D01*
X105172526Y-124518777D01*
X105128569Y-124583110D01*
X105077560Y-124835000D01*
X105077560Y-125785000D01*
X105121838Y-126020317D01*
X105260910Y-126236441D01*
X105473110Y-126381431D01*
X105725000Y-126432440D01*
X106975000Y-126432440D01*
X107210317Y-126388162D01*
X107426441Y-126249090D01*
X107571431Y-126036890D01*
X107622440Y-125785000D01*
X107622440Y-125115167D01*
X150564838Y-125115167D01*
X150706883Y-125458943D01*
X150969673Y-125722192D01*
X151313201Y-125864838D01*
X151685167Y-125865162D01*
X152004466Y-125733231D01*
X151831342Y-125906053D01*
X151688696Y-126249581D01*
X151688372Y-126621547D01*
X151830417Y-126965323D01*
X152093207Y-127228572D01*
X152436735Y-127371218D01*
X152674963Y-127371426D01*
X152674838Y-127515167D01*
X152816883Y-127858943D01*
X153079673Y-128122192D01*
X153423201Y-128264838D01*
X153795167Y-128265162D01*
X154138943Y-128123117D01*
X154175082Y-128087041D01*
X154393985Y-128177938D01*
X154765951Y-128178262D01*
X155109727Y-128036217D01*
X155372976Y-127773427D01*
X155515622Y-127429899D01*
X155515946Y-127057933D01*
X155373901Y-126714157D01*
X155111111Y-126450908D01*
X154767583Y-126308262D01*
X154465113Y-126307999D01*
X154465162Y-126251213D01*
X154323117Y-125907437D01*
X154060327Y-125644188D01*
X153716799Y-125501542D01*
X153344833Y-125501218D01*
X153076531Y-125612078D01*
X152810333Y-125501542D01*
X152438367Y-125501218D01*
X152119068Y-125633149D01*
X152292192Y-125460327D01*
X152434838Y-125116799D01*
X152435162Y-124744833D01*
X152293117Y-124401057D01*
X152030327Y-124137808D01*
X151686799Y-123995162D01*
X151314833Y-123994838D01*
X150971057Y-124136883D01*
X150707808Y-124399673D01*
X150565162Y-124743201D01*
X150564838Y-125115167D01*
X107622440Y-125115167D01*
X107622440Y-124835000D01*
X107578162Y-124599683D01*
X107526774Y-124519824D01*
X107550191Y-124484779D01*
X107634685Y-124060000D01*
X107550191Y-123635221D01*
X107416408Y-123435000D01*
X107550191Y-123234779D01*
X107634685Y-122810000D01*
X107550191Y-122385221D01*
X107416408Y-122185000D01*
X107550191Y-121984779D01*
X107634685Y-121560000D01*
X107595931Y-121365167D01*
X137514838Y-121365167D01*
X137656883Y-121708943D01*
X137919673Y-121972192D01*
X138263201Y-122114838D01*
X138635167Y-122115162D01*
X138978943Y-121973117D01*
X139242192Y-121710327D01*
X139384838Y-121366799D01*
X139385162Y-120994833D01*
X139372905Y-120965167D01*
X145464838Y-120965167D01*
X145606883Y-121308943D01*
X145869673Y-121572192D01*
X146213201Y-121714838D01*
X146585167Y-121715162D01*
X146928943Y-121573117D01*
X147182892Y-121319610D01*
X147924279Y-121319610D01*
X148066324Y-121663386D01*
X148329114Y-121926635D01*
X148672642Y-122069281D01*
X149044608Y-122069605D01*
X149388384Y-121927560D01*
X149651633Y-121664770D01*
X149794279Y-121321242D01*
X149794293Y-121305167D01*
X149864838Y-121305167D01*
X150006883Y-121648943D01*
X150269673Y-121912192D01*
X150613201Y-122054838D01*
X150985167Y-122055162D01*
X151328943Y-121913117D01*
X151592192Y-121650327D01*
X151734838Y-121306799D01*
X151735162Y-120934833D01*
X151706377Y-120865167D01*
X171104838Y-120865167D01*
X171246883Y-121208943D01*
X171509673Y-121472192D01*
X171853201Y-121614838D01*
X172225167Y-121615162D01*
X172568943Y-121473117D01*
X172832192Y-121210327D01*
X172974838Y-120866799D01*
X172975162Y-120494833D01*
X172833117Y-120151057D01*
X172570327Y-119887808D01*
X172226799Y-119745162D01*
X171854833Y-119744838D01*
X171511057Y-119886883D01*
X171247808Y-120149673D01*
X171105162Y-120493201D01*
X171104838Y-120865167D01*
X151706377Y-120865167D01*
X151593117Y-120591057D01*
X151330327Y-120327808D01*
X150986799Y-120185162D01*
X150614833Y-120184838D01*
X150271057Y-120326883D01*
X150007808Y-120589673D01*
X149865162Y-120933201D01*
X149864838Y-121305167D01*
X149794293Y-121305167D01*
X149794603Y-120949276D01*
X149652558Y-120605500D01*
X149389768Y-120342251D01*
X149046240Y-120199605D01*
X148674274Y-120199281D01*
X148330498Y-120341326D01*
X148067249Y-120604116D01*
X147924603Y-120947644D01*
X147924279Y-121319610D01*
X147182892Y-121319610D01*
X147192192Y-121310327D01*
X147334838Y-120966799D01*
X147335162Y-120594833D01*
X147193117Y-120251057D01*
X146930327Y-119987808D01*
X146586799Y-119845162D01*
X146214833Y-119844838D01*
X145871057Y-119986883D01*
X145607808Y-120249673D01*
X145465162Y-120593201D01*
X145464838Y-120965167D01*
X139372905Y-120965167D01*
X139243117Y-120651057D01*
X138980327Y-120387808D01*
X138636799Y-120245162D01*
X138264833Y-120244838D01*
X137921057Y-120386883D01*
X137657808Y-120649673D01*
X137515162Y-120993201D01*
X137514838Y-121365167D01*
X107595931Y-121365167D01*
X107550191Y-121135221D01*
X107309574Y-120775111D01*
X106949464Y-120534494D01*
X106524685Y-120450000D01*
X106175315Y-120450000D01*
X105750536Y-120534494D01*
X105390426Y-120775111D01*
X105149809Y-121135221D01*
X105065315Y-121560000D01*
X100820000Y-121560000D01*
X100820000Y-118724568D01*
X141904838Y-118724568D01*
X142046883Y-119068344D01*
X142309673Y-119331593D01*
X142653201Y-119474239D01*
X143025167Y-119474563D01*
X143368943Y-119332518D01*
X143632192Y-119069728D01*
X143774838Y-118726200D01*
X143775162Y-118354234D01*
X143633117Y-118010458D01*
X143370327Y-117747209D01*
X143026799Y-117604563D01*
X142654833Y-117604239D01*
X142311057Y-117746284D01*
X142047808Y-118009074D01*
X141905162Y-118352602D01*
X141904838Y-118724568D01*
X100820000Y-118724568D01*
X100820000Y-117595750D01*
X105090000Y-117595750D01*
X105090000Y-117911309D01*
X105186673Y-118144698D01*
X105365301Y-118323327D01*
X105598690Y-118420000D01*
X106064250Y-118420000D01*
X106223000Y-118261250D01*
X106223000Y-117437000D01*
X106477000Y-117437000D01*
X106477000Y-118261250D01*
X106635750Y-118420000D01*
X107101310Y-118420000D01*
X107334699Y-118323327D01*
X107513327Y-118144698D01*
X107610000Y-117911309D01*
X107610000Y-117595750D01*
X107451250Y-117437000D01*
X106477000Y-117437000D01*
X106223000Y-117437000D01*
X105248750Y-117437000D01*
X105090000Y-117595750D01*
X100820000Y-117595750D01*
X100820000Y-117375167D01*
X145004838Y-117375167D01*
X145146883Y-117718943D01*
X145409673Y-117982192D01*
X145753201Y-118124838D01*
X146125167Y-118125162D01*
X146468943Y-117983117D01*
X146732192Y-117720327D01*
X146807176Y-117539744D01*
X187681197Y-117539744D01*
X187838003Y-117882820D01*
X188162957Y-118210834D01*
X188588701Y-118389525D01*
X188773000Y-118253465D01*
X188773000Y-117357000D01*
X189027000Y-117357000D01*
X189027000Y-118253465D01*
X189211299Y-118389525D01*
X189637043Y-118210834D01*
X189961997Y-117882820D01*
X190118803Y-117539744D01*
X189993361Y-117357000D01*
X189027000Y-117357000D01*
X188773000Y-117357000D01*
X187806639Y-117357000D01*
X187681197Y-117539744D01*
X146807176Y-117539744D01*
X146874838Y-117376799D01*
X146875162Y-117004833D01*
X146733117Y-116661057D01*
X146470327Y-116397808D01*
X146126799Y-116255162D01*
X145754833Y-116254838D01*
X145411057Y-116396883D01*
X145147808Y-116659673D01*
X145005162Y-117003201D01*
X145004838Y-117375167D01*
X100820000Y-117375167D01*
X100820000Y-113560000D01*
X105065315Y-113560000D01*
X105149809Y-113984779D01*
X105283592Y-114185000D01*
X105149809Y-114385221D01*
X105065315Y-114810000D01*
X105149809Y-115234779D01*
X105283592Y-115435000D01*
X105149809Y-115635221D01*
X105065315Y-116060000D01*
X105149809Y-116484779D01*
X105170142Y-116515210D01*
X105090000Y-116708691D01*
X105090000Y-117024250D01*
X105248750Y-117183000D01*
X106223000Y-117183000D01*
X106223000Y-117170000D01*
X106477000Y-117170000D01*
X106477000Y-117183000D01*
X107451250Y-117183000D01*
X107610000Y-117024250D01*
X107610000Y-116708691D01*
X107529858Y-116515210D01*
X107550191Y-116484779D01*
X107634685Y-116060000D01*
X107550191Y-115635221D01*
X107513406Y-115580167D01*
X128294837Y-115580167D01*
X128436882Y-115923943D01*
X128699672Y-116187192D01*
X129043200Y-116329838D01*
X129415166Y-116330162D01*
X129562984Y-116269085D01*
X129686883Y-116568943D01*
X129949673Y-116832192D01*
X130293201Y-116974838D01*
X130665167Y-116975162D01*
X131008943Y-116833117D01*
X131272192Y-116570327D01*
X131299248Y-116505167D01*
X133694838Y-116505167D01*
X133836883Y-116848943D01*
X134099673Y-117112192D01*
X134443201Y-117254838D01*
X134815167Y-117255162D01*
X135158943Y-117113117D01*
X135422192Y-116850327D01*
X135564838Y-116506799D01*
X135565162Y-116134833D01*
X135423117Y-115791057D01*
X135160327Y-115527808D01*
X134816799Y-115385162D01*
X134444833Y-115384838D01*
X134101057Y-115526883D01*
X133837808Y-115789673D01*
X133695162Y-116133201D01*
X133694838Y-116505167D01*
X131299248Y-116505167D01*
X131414838Y-116226799D01*
X131415162Y-115854833D01*
X131273117Y-115511057D01*
X131167290Y-115405046D01*
X131272192Y-115300327D01*
X131414838Y-114956799D01*
X131415162Y-114584833D01*
X131273117Y-114241057D01*
X131010327Y-113977808D01*
X130666799Y-113835162D01*
X130294833Y-113834838D01*
X129951057Y-113976883D01*
X129687808Y-114239673D01*
X129569861Y-114523720D01*
X129416798Y-114460162D01*
X129044832Y-114459838D01*
X128701056Y-114601883D01*
X128437807Y-114864673D01*
X128295161Y-115208201D01*
X128294837Y-115580167D01*
X107513406Y-115580167D01*
X107416408Y-115435000D01*
X107550191Y-115234779D01*
X107634685Y-114810000D01*
X107550191Y-114385221D01*
X107416408Y-114185000D01*
X107550191Y-113984779D01*
X107634685Y-113560000D01*
X107550191Y-113135221D01*
X107421339Y-112942380D01*
X107458582Y-112860894D01*
X133774838Y-112860894D01*
X133916883Y-113204670D01*
X134179673Y-113467919D01*
X134523201Y-113610565D01*
X134624903Y-113610654D01*
X134624838Y-113685167D01*
X134766883Y-114028943D01*
X135029673Y-114292192D01*
X135373201Y-114434838D01*
X135745167Y-114435162D01*
X136088943Y-114293117D01*
X136194954Y-114187290D01*
X136299673Y-114292192D01*
X136643201Y-114434838D01*
X137015167Y-114435162D01*
X137358943Y-114293117D01*
X137464954Y-114187290D01*
X137569673Y-114292192D01*
X137913201Y-114434838D01*
X138285167Y-114435162D01*
X138628943Y-114293117D01*
X138734954Y-114187290D01*
X138839673Y-114292192D01*
X139183201Y-114434838D01*
X139555167Y-114435162D01*
X139810430Y-114329690D01*
X139705162Y-114583201D01*
X139704838Y-114955167D01*
X139846883Y-115298943D01*
X140109673Y-115562192D01*
X140453201Y-115704838D01*
X140825167Y-115705162D01*
X141168943Y-115563117D01*
X141274954Y-115457290D01*
X141379673Y-115562192D01*
X141723201Y-115704838D01*
X142095167Y-115705162D01*
X142438943Y-115563117D01*
X142702192Y-115300327D01*
X142729248Y-115235167D01*
X159244838Y-115235167D01*
X159386883Y-115578943D01*
X159649673Y-115842192D01*
X159993201Y-115984838D01*
X160365167Y-115985162D01*
X160708943Y-115843117D01*
X160972192Y-115580327D01*
X161114838Y-115236799D01*
X161115162Y-114864833D01*
X160973117Y-114521057D01*
X160710327Y-114257808D01*
X160366799Y-114115162D01*
X159994833Y-114114838D01*
X159651057Y-114256883D01*
X159387808Y-114519673D01*
X159245162Y-114863201D01*
X159244838Y-115235167D01*
X142729248Y-115235167D01*
X142844838Y-114956799D01*
X142845162Y-114584833D01*
X142703117Y-114241057D01*
X142440327Y-113977808D01*
X142096799Y-113835162D01*
X141724833Y-113834838D01*
X141381057Y-113976883D01*
X141275046Y-114082710D01*
X141170327Y-113977808D01*
X140826799Y-113835162D01*
X140454833Y-113834838D01*
X140199570Y-113940310D01*
X140304838Y-113686799D01*
X140305162Y-113314833D01*
X140163117Y-112971057D01*
X139900327Y-112707808D01*
X139556799Y-112565162D01*
X139184833Y-112564838D01*
X138841057Y-112706883D01*
X138735046Y-112812710D01*
X138630327Y-112707808D01*
X138286799Y-112565162D01*
X137914833Y-112564838D01*
X137571057Y-112706883D01*
X137465046Y-112812710D01*
X137360327Y-112707808D01*
X137016799Y-112565162D01*
X136644833Y-112564838D01*
X136301057Y-112706883D01*
X136195046Y-112812710D01*
X136090327Y-112707808D01*
X135746799Y-112565162D01*
X135645097Y-112565073D01*
X135645162Y-112490560D01*
X135503117Y-112146784D01*
X135240327Y-111883535D01*
X134896799Y-111740889D01*
X134524833Y-111740565D01*
X134181057Y-111882610D01*
X133917808Y-112145400D01*
X133775162Y-112488928D01*
X133774838Y-112860894D01*
X107458582Y-112860894D01*
X107568803Y-112619744D01*
X107443361Y-112437000D01*
X106477000Y-112437000D01*
X106477000Y-112450000D01*
X106223000Y-112450000D01*
X106223000Y-112437000D01*
X105256639Y-112437000D01*
X105131197Y-112619744D01*
X105278661Y-112942380D01*
X105149809Y-113135221D01*
X105065315Y-113560000D01*
X100820000Y-113560000D01*
X100820000Y-112000256D01*
X105131197Y-112000256D01*
X105256639Y-112183000D01*
X106223000Y-112183000D01*
X106223000Y-111286535D01*
X106477000Y-111286535D01*
X106477000Y-112183000D01*
X107443361Y-112183000D01*
X107568803Y-112000256D01*
X107411997Y-111657180D01*
X107410539Y-111655708D01*
X128274296Y-111655708D01*
X128416341Y-111999484D01*
X128679131Y-112262733D01*
X129022659Y-112405379D01*
X129394625Y-112405703D01*
X129738401Y-112263658D01*
X130001650Y-112000868D01*
X130144296Y-111657340D01*
X130144620Y-111285374D01*
X130086688Y-111145167D01*
X134624838Y-111145167D01*
X134766883Y-111488943D01*
X135029673Y-111752192D01*
X135373201Y-111894838D01*
X135745167Y-111895162D01*
X136088943Y-111753117D01*
X136194954Y-111647290D01*
X136299673Y-111752192D01*
X136643201Y-111894838D01*
X137015167Y-111895162D01*
X137358943Y-111753117D01*
X137464954Y-111647290D01*
X137569673Y-111752192D01*
X137913201Y-111894838D01*
X138285167Y-111895162D01*
X138628943Y-111753117D01*
X138734954Y-111647290D01*
X138839673Y-111752192D01*
X139183201Y-111894838D01*
X139555167Y-111895162D01*
X139898943Y-111753117D01*
X140004954Y-111647290D01*
X140109673Y-111752192D01*
X140453201Y-111894838D01*
X140825167Y-111895162D01*
X141168943Y-111753117D01*
X141432192Y-111490327D01*
X141574838Y-111146799D01*
X141575031Y-110925167D01*
X145144838Y-110925167D01*
X145286883Y-111268943D01*
X145549673Y-111532192D01*
X145675608Y-111584485D01*
X145563220Y-111855143D01*
X145562896Y-112227109D01*
X145704941Y-112570885D01*
X145967731Y-112834134D01*
X146311259Y-112976780D01*
X146683225Y-112977104D01*
X146808922Y-112925167D01*
X151984838Y-112925167D01*
X152126883Y-113268943D01*
X152338266Y-113480695D01*
X152250162Y-113692871D01*
X152249838Y-114064837D01*
X152391883Y-114408613D01*
X152654673Y-114671862D01*
X152998201Y-114814508D01*
X153370167Y-114814832D01*
X153713943Y-114672787D01*
X153977192Y-114409997D01*
X154119838Y-114066469D01*
X154120162Y-113694503D01*
X153996480Y-113395168D01*
X155639837Y-113395168D01*
X155781882Y-113738944D01*
X156044672Y-114002193D01*
X156388200Y-114144839D01*
X156760166Y-114145163D01*
X157103942Y-114003118D01*
X157367191Y-113740328D01*
X157475289Y-113480000D01*
X187615315Y-113480000D01*
X187699809Y-113904779D01*
X187833592Y-114105000D01*
X187699809Y-114305221D01*
X187615315Y-114730000D01*
X187699809Y-115154779D01*
X187833592Y-115355000D01*
X187699809Y-115555221D01*
X187615315Y-115980000D01*
X187699809Y-116404779D01*
X187828661Y-116597620D01*
X187681197Y-116920256D01*
X187806639Y-117103000D01*
X188773000Y-117103000D01*
X188773000Y-117090000D01*
X189027000Y-117090000D01*
X189027000Y-117103000D01*
X189993361Y-117103000D01*
X190118803Y-116920256D01*
X189971339Y-116597620D01*
X190100191Y-116404779D01*
X190184685Y-115980000D01*
X190100191Y-115555221D01*
X189966408Y-115355000D01*
X190100191Y-115154779D01*
X190184685Y-114730000D01*
X190100191Y-114305221D01*
X189966408Y-114105000D01*
X190100191Y-113904779D01*
X190184685Y-113480000D01*
X190100191Y-113055221D01*
X190079858Y-113024790D01*
X190160000Y-112831309D01*
X190160000Y-112515750D01*
X190001250Y-112357000D01*
X189027000Y-112357000D01*
X189027000Y-112370000D01*
X188773000Y-112370000D01*
X188773000Y-112357000D01*
X187798750Y-112357000D01*
X187640000Y-112515750D01*
X187640000Y-112831309D01*
X187720142Y-113024790D01*
X187699809Y-113055221D01*
X187615315Y-113480000D01*
X157475289Y-113480000D01*
X157509837Y-113396800D01*
X157510161Y-113024834D01*
X157423793Y-112815808D01*
X157638201Y-112904838D01*
X158010167Y-112905162D01*
X158353943Y-112763117D01*
X158617192Y-112500327D01*
X158759838Y-112156799D01*
X158759943Y-112035167D01*
X159289838Y-112035167D01*
X159431883Y-112378943D01*
X159694673Y-112642192D01*
X160038201Y-112784838D01*
X160410167Y-112785162D01*
X160753943Y-112643117D01*
X161017192Y-112380327D01*
X161159838Y-112036799D01*
X161160162Y-111664833D01*
X161145229Y-111628691D01*
X187640000Y-111628691D01*
X187640000Y-111944250D01*
X187798750Y-112103000D01*
X188773000Y-112103000D01*
X188773000Y-111278750D01*
X189027000Y-111278750D01*
X189027000Y-112103000D01*
X190001250Y-112103000D01*
X190160000Y-111944250D01*
X190160000Y-111628691D01*
X190063327Y-111395302D01*
X189884699Y-111216673D01*
X189651310Y-111120000D01*
X189185750Y-111120000D01*
X189027000Y-111278750D01*
X188773000Y-111278750D01*
X188614250Y-111120000D01*
X188148690Y-111120000D01*
X187915301Y-111216673D01*
X187736673Y-111395302D01*
X187640000Y-111628691D01*
X161145229Y-111628691D01*
X161018117Y-111321057D01*
X160755327Y-111057808D01*
X160411799Y-110915162D01*
X160039833Y-110914838D01*
X159696057Y-111056883D01*
X159432808Y-111319673D01*
X159290162Y-111663201D01*
X159289838Y-112035167D01*
X158759943Y-112035167D01*
X158760162Y-111784833D01*
X158618117Y-111441057D01*
X158355327Y-111177808D01*
X158011799Y-111035162D01*
X157639833Y-111034838D01*
X157296057Y-111176883D01*
X157032808Y-111439673D01*
X156890162Y-111783201D01*
X156889838Y-112155167D01*
X156976206Y-112364193D01*
X156761798Y-112275163D01*
X156389832Y-112274839D01*
X156046056Y-112416884D01*
X155782807Y-112679674D01*
X155640161Y-113023202D01*
X155639837Y-113395168D01*
X153996480Y-113395168D01*
X153978117Y-113350727D01*
X153766734Y-113138975D01*
X153854838Y-112926799D01*
X153855162Y-112554833D01*
X153713117Y-112211057D01*
X153450327Y-111947808D01*
X153106799Y-111805162D01*
X152734833Y-111804838D01*
X152391057Y-111946883D01*
X152127808Y-112209673D01*
X151985162Y-112553201D01*
X151984838Y-112925167D01*
X146808922Y-112925167D01*
X147027001Y-112835059D01*
X147290250Y-112572269D01*
X147432896Y-112228741D01*
X147433220Y-111856775D01*
X147291175Y-111512999D01*
X147028385Y-111249750D01*
X146902450Y-111197457D01*
X147014838Y-110926799D01*
X147015162Y-110554833D01*
X146873117Y-110211057D01*
X146812212Y-110150046D01*
X146962192Y-110000327D01*
X147104838Y-109656799D01*
X147104856Y-109635315D01*
X150674690Y-109635315D01*
X150816735Y-109979091D01*
X150972509Y-110135137D01*
X150877808Y-110229673D01*
X150735162Y-110573201D01*
X150734838Y-110945167D01*
X150876883Y-111288943D01*
X151139673Y-111552192D01*
X151483201Y-111694838D01*
X151855167Y-111695162D01*
X152198943Y-111553117D01*
X152462192Y-111290327D01*
X152522467Y-111145167D01*
X154944838Y-111145167D01*
X155086883Y-111488943D01*
X155349673Y-111752192D01*
X155693201Y-111894838D01*
X156065167Y-111895162D01*
X156408943Y-111753117D01*
X156672192Y-111490327D01*
X156814838Y-111146799D01*
X156815162Y-110774833D01*
X156673117Y-110431057D01*
X156410327Y-110167808D01*
X156066799Y-110025162D01*
X155694833Y-110024838D01*
X155351057Y-110166883D01*
X155087808Y-110429673D01*
X154945162Y-110773201D01*
X154944838Y-111145167D01*
X152522467Y-111145167D01*
X152604838Y-110946799D01*
X152605162Y-110574833D01*
X152463117Y-110231057D01*
X152307343Y-110075011D01*
X152402044Y-109980475D01*
X152544690Y-109636947D01*
X152545014Y-109264981D01*
X152520300Y-109205166D01*
X156264838Y-109205166D01*
X156406883Y-109548942D01*
X156669673Y-109812191D01*
X157013201Y-109954837D01*
X157385167Y-109955161D01*
X157728943Y-109813116D01*
X157992192Y-109550326D01*
X158134838Y-109206798D01*
X158135162Y-108834832D01*
X158114641Y-108785167D01*
X162539838Y-108785167D01*
X162681883Y-109128943D01*
X162944673Y-109392192D01*
X163288201Y-109534838D01*
X163660167Y-109535162D01*
X164003943Y-109393117D01*
X164267192Y-109130327D01*
X164409838Y-108786799D01*
X164410162Y-108414833D01*
X164273948Y-108085167D01*
X170174838Y-108085167D01*
X170316883Y-108428943D01*
X170579673Y-108692192D01*
X170923201Y-108834838D01*
X171295167Y-108835162D01*
X171638943Y-108693117D01*
X171902192Y-108430327D01*
X172044838Y-108086799D01*
X172045162Y-107714833D01*
X171903117Y-107371057D01*
X171640327Y-107107808D01*
X171296799Y-106965162D01*
X170924833Y-106964838D01*
X170581057Y-107106883D01*
X170317808Y-107369673D01*
X170175162Y-107713201D01*
X170174838Y-108085167D01*
X164273948Y-108085167D01*
X164268117Y-108071057D01*
X164005327Y-107807808D01*
X163661799Y-107665162D01*
X163289833Y-107664838D01*
X162946057Y-107806883D01*
X162682808Y-108069673D01*
X162540162Y-108413201D01*
X162539838Y-108785167D01*
X158114641Y-108785167D01*
X157993117Y-108491056D01*
X157730327Y-108227807D01*
X157386799Y-108085161D01*
X157014833Y-108084837D01*
X156671057Y-108226882D01*
X156407808Y-108489672D01*
X156265162Y-108833200D01*
X156264838Y-109205166D01*
X152520300Y-109205166D01*
X152402969Y-108921205D01*
X152140179Y-108657956D01*
X151796651Y-108515310D01*
X151424685Y-108514986D01*
X151080909Y-108657031D01*
X150817660Y-108919821D01*
X150675014Y-109263349D01*
X150674690Y-109635315D01*
X147104856Y-109635315D01*
X147105162Y-109284833D01*
X146963117Y-108941057D01*
X146700327Y-108677808D01*
X146356799Y-108535162D01*
X145984833Y-108534838D01*
X145641057Y-108676883D01*
X145377808Y-108939673D01*
X145235162Y-109283201D01*
X145234838Y-109655167D01*
X145376883Y-109998943D01*
X145437788Y-110059954D01*
X145287808Y-110209673D01*
X145145162Y-110553201D01*
X145144838Y-110925167D01*
X141575031Y-110925167D01*
X141575162Y-110774833D01*
X141433117Y-110431057D01*
X141327290Y-110325046D01*
X141432192Y-110220327D01*
X141574838Y-109876799D01*
X141575092Y-109585167D01*
X142034838Y-109585167D01*
X142176883Y-109928943D01*
X142439673Y-110192192D01*
X142783201Y-110334838D01*
X143155167Y-110335162D01*
X143498943Y-110193117D01*
X143762192Y-109930327D01*
X143904838Y-109586799D01*
X143905162Y-109214833D01*
X143763117Y-108871057D01*
X143500327Y-108607808D01*
X143156799Y-108465162D01*
X142784833Y-108464838D01*
X142441057Y-108606883D01*
X142177808Y-108869673D01*
X142035162Y-109213201D01*
X142034838Y-109585167D01*
X141575092Y-109585167D01*
X141575162Y-109504833D01*
X141433117Y-109161057D01*
X141170327Y-108897808D01*
X140826799Y-108755162D01*
X140454833Y-108754838D01*
X140111057Y-108896883D01*
X139847808Y-109159673D01*
X139705162Y-109503201D01*
X139704838Y-109875167D01*
X139810310Y-110130430D01*
X139556799Y-110025162D01*
X139184833Y-110024838D01*
X138841057Y-110166883D01*
X138735046Y-110272710D01*
X138630327Y-110167808D01*
X138286799Y-110025162D01*
X137914833Y-110024838D01*
X137571057Y-110166883D01*
X137465046Y-110272710D01*
X137360327Y-110167808D01*
X137016799Y-110025162D01*
X136644833Y-110024838D01*
X136301057Y-110166883D01*
X136195046Y-110272710D01*
X136090327Y-110167808D01*
X135746799Y-110025162D01*
X135374833Y-110024838D01*
X135031057Y-110166883D01*
X134767808Y-110429673D01*
X134625162Y-110773201D01*
X134624838Y-111145167D01*
X130086688Y-111145167D01*
X130002575Y-110941598D01*
X129739785Y-110678349D01*
X129396257Y-110535703D01*
X129024291Y-110535379D01*
X128680515Y-110677424D01*
X128417266Y-110940214D01*
X128274620Y-111283742D01*
X128274296Y-111655708D01*
X107410539Y-111655708D01*
X107087043Y-111329166D01*
X106661299Y-111150475D01*
X106477000Y-111286535D01*
X106223000Y-111286535D01*
X106038701Y-111150475D01*
X105612957Y-111329166D01*
X105288003Y-111657180D01*
X105131197Y-112000256D01*
X100820000Y-112000256D01*
X100820000Y-110889427D01*
X124463061Y-110889427D01*
X124605106Y-111233203D01*
X124867896Y-111496452D01*
X125211424Y-111639098D01*
X125583390Y-111639422D01*
X125927166Y-111497377D01*
X126190415Y-111234587D01*
X126333061Y-110891059D01*
X126333385Y-110519093D01*
X126191340Y-110175317D01*
X125928550Y-109912068D01*
X125585022Y-109769422D01*
X125213056Y-109769098D01*
X124869280Y-109911143D01*
X124606031Y-110173933D01*
X124463385Y-110517461D01*
X124463061Y-110889427D01*
X100820000Y-110889427D01*
X100820000Y-108605167D01*
X121530778Y-108605167D01*
X121672823Y-108948943D01*
X121935613Y-109212192D01*
X122279141Y-109354838D01*
X122651107Y-109355162D01*
X122994883Y-109213117D01*
X123258132Y-108950327D01*
X123400778Y-108606799D01*
X123400779Y-108605167D01*
X126574827Y-108605167D01*
X126716872Y-108948943D01*
X126979662Y-109212192D01*
X127323190Y-109354838D01*
X127695156Y-109355162D01*
X128038932Y-109213117D01*
X128302181Y-108950327D01*
X128382081Y-108757908D01*
X128414763Y-108837005D01*
X128275161Y-109173202D01*
X128274837Y-109545168D01*
X128416882Y-109888944D01*
X128679672Y-110152193D01*
X129023200Y-110294839D01*
X129395166Y-110295163D01*
X129671243Y-110181091D01*
X129686883Y-110218943D01*
X129949673Y-110482192D01*
X130293201Y-110624838D01*
X130665167Y-110625162D01*
X131008943Y-110483117D01*
X131201824Y-110290572D01*
X132142989Y-110290572D01*
X132285034Y-110634348D01*
X132547824Y-110897597D01*
X132891352Y-111040243D01*
X133263318Y-111040567D01*
X133607094Y-110898522D01*
X133870343Y-110635732D01*
X134012989Y-110292204D01*
X134013313Y-109920238D01*
X133871268Y-109576462D01*
X133608478Y-109313213D01*
X133264950Y-109170567D01*
X132892984Y-109170243D01*
X132549208Y-109312288D01*
X132285959Y-109575078D01*
X132143313Y-109918606D01*
X132142989Y-110290572D01*
X131201824Y-110290572D01*
X131272192Y-110220327D01*
X131414838Y-109876799D01*
X131415162Y-109504833D01*
X131273117Y-109161057D01*
X131010327Y-108897808D01*
X130666799Y-108755162D01*
X130294833Y-108754838D01*
X130082842Y-108842431D01*
X130184838Y-108596799D01*
X130185162Y-108224833D01*
X130043117Y-107881057D01*
X129780327Y-107617808D01*
X129436799Y-107475162D01*
X129064833Y-107474838D01*
X128721057Y-107616883D01*
X128457808Y-107879673D01*
X128377908Y-108072092D01*
X128303106Y-107891057D01*
X128040316Y-107627808D01*
X127696788Y-107485162D01*
X127324822Y-107484838D01*
X126981046Y-107626883D01*
X126717797Y-107889673D01*
X126575151Y-108233201D01*
X126574827Y-108605167D01*
X123400779Y-108605167D01*
X123401102Y-108234833D01*
X123259057Y-107891057D01*
X123133387Y-107765167D01*
X124334837Y-107765167D01*
X124476882Y-108108943D01*
X124739672Y-108372192D01*
X125083200Y-108514838D01*
X125455166Y-108515162D01*
X125798942Y-108373117D01*
X126062191Y-108110327D01*
X126204837Y-107766799D01*
X126205161Y-107394833D01*
X126063116Y-107051057D01*
X125800326Y-106787808D01*
X125456798Y-106645162D01*
X125084832Y-106644838D01*
X124741056Y-106786883D01*
X124477807Y-107049673D01*
X124335161Y-107393201D01*
X124334837Y-107765167D01*
X123133387Y-107765167D01*
X122996267Y-107627808D01*
X122652739Y-107485162D01*
X122280773Y-107484838D01*
X121936997Y-107626883D01*
X121673748Y-107889673D01*
X121531102Y-108233201D01*
X121530778Y-108605167D01*
X100820000Y-108605167D01*
X100820000Y-106705547D01*
X101083201Y-106814838D01*
X101455167Y-106815162D01*
X101798943Y-106673117D01*
X102062192Y-106410327D01*
X102204838Y-106066799D01*
X102205000Y-105880000D01*
X105065315Y-105880000D01*
X105149809Y-106304779D01*
X105172526Y-106338777D01*
X105128569Y-106403110D01*
X105077560Y-106655000D01*
X105077560Y-107605000D01*
X105121838Y-107840317D01*
X105260910Y-108056441D01*
X105473110Y-108201431D01*
X105725000Y-108252440D01*
X106975000Y-108252440D01*
X107210317Y-108208162D01*
X107426441Y-108069090D01*
X107571431Y-107856890D01*
X107622440Y-107605000D01*
X107622440Y-106655000D01*
X107578162Y-106419683D01*
X107526774Y-106339824D01*
X107550191Y-106304779D01*
X107597852Y-106065167D01*
X118114838Y-106065167D01*
X118256883Y-106408943D01*
X118519673Y-106672192D01*
X118863201Y-106814838D01*
X119235167Y-106815162D01*
X119578943Y-106673117D01*
X119842192Y-106410327D01*
X119984838Y-106066799D01*
X119985162Y-105694833D01*
X119843117Y-105351057D01*
X119580327Y-105087808D01*
X119236799Y-104945162D01*
X118864833Y-104944838D01*
X118521057Y-105086883D01*
X118257808Y-105349673D01*
X118115162Y-105693201D01*
X118114838Y-106065167D01*
X107597852Y-106065167D01*
X107634685Y-105880000D01*
X107550191Y-105455221D01*
X107309574Y-105095111D01*
X106949464Y-104854494D01*
X106524685Y-104770000D01*
X106175315Y-104770000D01*
X105750536Y-104854494D01*
X105390426Y-105095111D01*
X105149809Y-105455221D01*
X105065315Y-105880000D01*
X102205000Y-105880000D01*
X102205162Y-105694833D01*
X102063117Y-105351057D01*
X101800327Y-105087808D01*
X101456799Y-104945162D01*
X101084833Y-104944838D01*
X100820000Y-105054264D01*
X100820000Y-104165547D01*
X101083201Y-104274838D01*
X101455167Y-104275162D01*
X101798943Y-104133117D01*
X101811915Y-104120167D01*
X128274837Y-104120167D01*
X128416882Y-104463943D01*
X128551786Y-104599083D01*
X128525162Y-104663201D01*
X128524838Y-105035167D01*
X128666883Y-105378943D01*
X128929673Y-105642192D01*
X129273201Y-105784838D01*
X129645167Y-105785162D01*
X129988943Y-105643117D01*
X130252192Y-105380327D01*
X130394838Y-105036799D01*
X130395162Y-104664833D01*
X130253117Y-104321057D01*
X130118213Y-104185917D01*
X130144837Y-104121799D01*
X130145161Y-103749833D01*
X130039936Y-103495167D01*
X130114838Y-103495167D01*
X130256883Y-103838943D01*
X130519673Y-104102192D01*
X130863201Y-104244838D01*
X131235167Y-104245162D01*
X131578943Y-104103117D01*
X131842192Y-103840327D01*
X131984838Y-103496799D01*
X131984839Y-103495167D01*
X132084838Y-103495167D01*
X132226883Y-103838943D01*
X132489673Y-104102192D01*
X132833201Y-104244838D01*
X133205167Y-104245162D01*
X133548943Y-104103117D01*
X133812192Y-103840327D01*
X133954838Y-103496799D01*
X133955162Y-103124833D01*
X133813117Y-102781057D01*
X133550327Y-102517808D01*
X133206799Y-102375162D01*
X132834833Y-102374838D01*
X132491057Y-102516883D01*
X132227808Y-102779673D01*
X132085162Y-103123201D01*
X132084838Y-103495167D01*
X131984839Y-103495167D01*
X131985162Y-103124833D01*
X131843117Y-102781057D01*
X131580327Y-102517808D01*
X131549777Y-102505122D01*
X131595167Y-102505162D01*
X131938943Y-102363117D01*
X132047081Y-102255167D01*
X134624838Y-102255167D01*
X134766883Y-102598943D01*
X135029673Y-102862192D01*
X135154620Y-102914075D01*
X135278523Y-103213943D01*
X135451092Y-103386813D01*
X135207808Y-103629673D01*
X135065162Y-103973201D01*
X135064838Y-104345167D01*
X135206883Y-104688943D01*
X135469673Y-104952192D01*
X135813201Y-105094838D01*
X136018733Y-105095017D01*
X136036883Y-105138943D01*
X136142710Y-105244954D01*
X136037808Y-105349673D01*
X135895162Y-105693201D01*
X135894838Y-106065167D01*
X136036883Y-106408943D01*
X136299673Y-106672192D01*
X136384416Y-106707381D01*
X136523480Y-107043942D01*
X136708367Y-107229152D01*
X136665162Y-107333201D01*
X136664838Y-107705167D01*
X136806883Y-108048943D01*
X137069673Y-108312192D01*
X137413201Y-108454838D01*
X137785167Y-108455162D01*
X138123981Y-108315167D01*
X147604838Y-108315167D01*
X147746883Y-108658943D01*
X148009673Y-108922192D01*
X148353201Y-109064838D01*
X148725167Y-109065162D01*
X149068943Y-108923117D01*
X149332192Y-108660327D01*
X149474838Y-108316799D01*
X149475162Y-107944833D01*
X149333117Y-107601057D01*
X149070327Y-107337808D01*
X148726799Y-107195162D01*
X148354833Y-107194838D01*
X148011057Y-107336883D01*
X147747808Y-107599673D01*
X147605162Y-107943201D01*
X147604838Y-108315167D01*
X138123981Y-108315167D01*
X138128943Y-108313117D01*
X138392192Y-108050327D01*
X138534838Y-107706799D01*
X138535161Y-107335166D01*
X138664838Y-107335166D01*
X138806883Y-107678942D01*
X139069673Y-107942191D01*
X139413201Y-108084837D01*
X139785167Y-108085161D01*
X140128943Y-107943116D01*
X140392192Y-107680326D01*
X140534838Y-107336798D01*
X140535162Y-106964832D01*
X140393117Y-106621056D01*
X140130327Y-106357807D01*
X139786799Y-106215161D01*
X139414833Y-106214837D01*
X139071057Y-106356882D01*
X138807808Y-106619672D01*
X138665162Y-106963200D01*
X138664838Y-107335166D01*
X138535161Y-107335166D01*
X138535162Y-107334833D01*
X138393117Y-106991057D01*
X138208230Y-106805847D01*
X138251435Y-106701798D01*
X138251759Y-106329832D01*
X138142402Y-106065167D01*
X143514838Y-106065167D01*
X143656883Y-106408943D01*
X143919673Y-106672192D01*
X144263201Y-106814838D01*
X144635167Y-106815162D01*
X144978943Y-106673117D01*
X145242192Y-106410327D01*
X145384838Y-106066799D01*
X145385162Y-105694833D01*
X145243117Y-105351057D01*
X144980327Y-105087808D01*
X144636799Y-104945162D01*
X144264833Y-104944838D01*
X143921057Y-105086883D01*
X143657808Y-105349673D01*
X143515162Y-105693201D01*
X143514838Y-106065167D01*
X138142402Y-106065167D01*
X138109714Y-105986056D01*
X138003887Y-105880045D01*
X138108789Y-105775326D01*
X138251435Y-105431798D01*
X138251759Y-105059832D01*
X138109714Y-104716056D01*
X137892264Y-104498226D01*
X140001779Y-104498226D01*
X140143824Y-104842002D01*
X140406614Y-105105251D01*
X140750142Y-105247897D01*
X141122108Y-105248221D01*
X141465884Y-105106176D01*
X141729133Y-104843386D01*
X141871779Y-104499858D01*
X141872103Y-104127892D01*
X141730058Y-103784116D01*
X141467268Y-103520867D01*
X141123740Y-103378221D01*
X140751774Y-103377897D01*
X140407998Y-103519942D01*
X140144749Y-103782732D01*
X140002103Y-104126260D01*
X140001779Y-104498226D01*
X137892264Y-104498226D01*
X137846924Y-104452807D01*
X137762181Y-104417618D01*
X137623117Y-104081057D01*
X137360327Y-103817808D01*
X137016799Y-103675162D01*
X136811267Y-103674983D01*
X136793117Y-103631057D01*
X136620548Y-103458187D01*
X136863832Y-103215327D01*
X137006478Y-102871799D01*
X137006802Y-102499833D01*
X136864757Y-102156057D01*
X136667271Y-101958226D01*
X137461779Y-101958226D01*
X137603824Y-102302002D01*
X137866614Y-102565251D01*
X138210142Y-102707897D01*
X138582108Y-102708221D01*
X138655641Y-102677838D01*
X138839673Y-102862192D01*
X139183201Y-103004838D01*
X139555167Y-103005162D01*
X139898943Y-102863117D01*
X140162192Y-102600327D01*
X140304838Y-102256799D01*
X140304839Y-102255167D01*
X160024838Y-102255167D01*
X160166883Y-102598943D01*
X160272710Y-102704954D01*
X160167808Y-102809673D01*
X160025162Y-103153201D01*
X160024838Y-103525167D01*
X160166883Y-103868943D01*
X160429673Y-104132192D01*
X160773201Y-104274838D01*
X161145167Y-104275162D01*
X161488943Y-104133117D01*
X161752192Y-103870327D01*
X161894838Y-103526799D01*
X161894839Y-103525167D01*
X163834838Y-103525167D01*
X163976883Y-103868943D01*
X164239673Y-104132192D01*
X164583201Y-104274838D01*
X164955167Y-104275162D01*
X165298943Y-104133117D01*
X165562192Y-103870327D01*
X165704838Y-103526799D01*
X165705162Y-103154833D01*
X165563117Y-102811057D01*
X165300327Y-102547808D01*
X164956799Y-102405162D01*
X164584833Y-102404838D01*
X164241057Y-102546883D01*
X163977808Y-102809673D01*
X163835162Y-103153201D01*
X163834838Y-103525167D01*
X161894839Y-103525167D01*
X161895162Y-103154833D01*
X161753117Y-102811057D01*
X161647290Y-102705046D01*
X161752192Y-102600327D01*
X161894838Y-102256799D01*
X161894839Y-102255167D01*
X191774838Y-102255167D01*
X191916883Y-102598943D01*
X192179673Y-102862192D01*
X192523201Y-103004838D01*
X192895167Y-103005162D01*
X193238943Y-102863117D01*
X193502192Y-102600327D01*
X193644838Y-102256799D01*
X193645162Y-101884833D01*
X193503117Y-101541057D01*
X193240327Y-101277808D01*
X192896799Y-101135162D01*
X192524833Y-101134838D01*
X192181057Y-101276883D01*
X191917808Y-101539673D01*
X191775162Y-101883201D01*
X191774838Y-102255167D01*
X161894839Y-102255167D01*
X161895162Y-101884833D01*
X161753117Y-101541057D01*
X161490327Y-101277808D01*
X161146799Y-101135162D01*
X160774833Y-101134838D01*
X160431057Y-101276883D01*
X160167808Y-101539673D01*
X160025162Y-101883201D01*
X160024838Y-102255167D01*
X140304839Y-102255167D01*
X140305162Y-101884833D01*
X140163117Y-101541057D01*
X139900327Y-101277808D01*
X139556799Y-101135162D01*
X139184833Y-101134838D01*
X139111300Y-101165221D01*
X138927268Y-100980867D01*
X138583740Y-100838221D01*
X138211774Y-100837897D01*
X137867998Y-100979942D01*
X137604749Y-101242732D01*
X137462103Y-101586260D01*
X137461779Y-101958226D01*
X136667271Y-101958226D01*
X136601967Y-101892808D01*
X136477020Y-101840925D01*
X136353117Y-101541057D01*
X136090327Y-101277808D01*
X135746799Y-101135162D01*
X135374833Y-101134838D01*
X135031057Y-101276883D01*
X134767808Y-101539673D01*
X134625162Y-101883201D01*
X134624838Y-102255167D01*
X132047081Y-102255167D01*
X132202192Y-102100327D01*
X132344838Y-101756799D01*
X132345162Y-101384833D01*
X132203117Y-101041057D01*
X131940327Y-100777808D01*
X131596799Y-100635162D01*
X131224833Y-100634838D01*
X130881057Y-100776883D01*
X130617808Y-101039673D01*
X130475162Y-101383201D01*
X130474838Y-101755167D01*
X130616883Y-102098943D01*
X130879673Y-102362192D01*
X130910223Y-102374878D01*
X130864833Y-102374838D01*
X130521057Y-102516883D01*
X130257808Y-102779673D01*
X130115162Y-103123201D01*
X130114838Y-103495167D01*
X130039936Y-103495167D01*
X130003116Y-103406057D01*
X129740326Y-103142808D01*
X129396798Y-103000162D01*
X129024832Y-102999838D01*
X128681056Y-103141883D01*
X128417807Y-103404673D01*
X128275161Y-103748201D01*
X128274837Y-104120167D01*
X101811915Y-104120167D01*
X102062192Y-103870327D01*
X102204838Y-103526799D01*
X102205162Y-103154833D01*
X102063117Y-102811057D01*
X101800327Y-102547808D01*
X101456799Y-102405162D01*
X101084833Y-102404838D01*
X100820000Y-102514264D01*
X100820000Y-102255167D01*
X116844838Y-102255167D01*
X116986883Y-102598943D01*
X117249673Y-102862192D01*
X117593201Y-103004838D01*
X117965167Y-103005162D01*
X118308943Y-102863117D01*
X118366994Y-102805167D01*
X126834838Y-102805167D01*
X126976883Y-103148943D01*
X127239673Y-103412192D01*
X127583201Y-103554838D01*
X127955167Y-103555162D01*
X128298943Y-103413117D01*
X128562192Y-103150327D01*
X128704838Y-102806799D01*
X128705162Y-102434833D01*
X128563117Y-102091057D01*
X128300327Y-101827808D01*
X127956799Y-101685162D01*
X127584833Y-101684838D01*
X127241057Y-101826883D01*
X126977808Y-102089673D01*
X126835162Y-102433201D01*
X126834838Y-102805167D01*
X118366994Y-102805167D01*
X118572192Y-102600327D01*
X118714838Y-102256799D01*
X118715162Y-101884833D01*
X118573117Y-101541057D01*
X118310327Y-101277808D01*
X117966799Y-101135162D01*
X117594833Y-101134838D01*
X117251057Y-101276883D01*
X116987808Y-101539673D01*
X116845162Y-101883201D01*
X116844838Y-102255167D01*
X100820000Y-102255167D01*
X100820000Y-100325000D01*
X105077560Y-100325000D01*
X105077560Y-101275000D01*
X105121838Y-101510317D01*
X105260910Y-101726441D01*
X105473110Y-101871431D01*
X105725000Y-101922440D01*
X106975000Y-101922440D01*
X107210317Y-101878162D01*
X107426441Y-101739090D01*
X107571431Y-101526890D01*
X107622440Y-101275000D01*
X107622440Y-100325000D01*
X107578162Y-100089683D01*
X107511241Y-99985684D01*
X107568803Y-99859744D01*
X107443361Y-99677000D01*
X106477000Y-99677000D01*
X106477000Y-99677560D01*
X106223000Y-99677560D01*
X106223000Y-99677000D01*
X105256639Y-99677000D01*
X105131197Y-99859744D01*
X105188577Y-99985286D01*
X105128569Y-100073110D01*
X105077560Y-100325000D01*
X100820000Y-100325000D01*
X100820000Y-99455167D01*
X127674838Y-99455167D01*
X127816883Y-99798943D01*
X128079673Y-100062192D01*
X128423201Y-100204838D01*
X128795167Y-100205162D01*
X129138943Y-100063117D01*
X129402192Y-99800327D01*
X129437553Y-99715167D01*
X135894838Y-99715167D01*
X136036883Y-100058943D01*
X136299673Y-100322192D01*
X136643201Y-100464838D01*
X137015167Y-100465162D01*
X137358943Y-100323117D01*
X137622192Y-100060327D01*
X137764838Y-99716799D01*
X137764839Y-99715167D01*
X147324838Y-99715167D01*
X147466883Y-100058943D01*
X147729673Y-100322192D01*
X148073201Y-100464838D01*
X148445167Y-100465162D01*
X148788943Y-100323117D01*
X148894954Y-100217290D01*
X148999673Y-100322192D01*
X149343201Y-100464838D01*
X149715167Y-100465162D01*
X150058943Y-100323117D01*
X150322192Y-100060327D01*
X150464838Y-99716799D01*
X150464882Y-99665167D01*
X151864838Y-99665167D01*
X152006883Y-100008943D01*
X152269673Y-100272192D01*
X152613201Y-100414838D01*
X152985167Y-100415162D01*
X153328943Y-100273117D01*
X153592192Y-100010327D01*
X153734838Y-99666799D01*
X153735162Y-99294833D01*
X153593117Y-98951057D01*
X153330327Y-98687808D01*
X152986799Y-98545162D01*
X152614833Y-98544838D01*
X152271057Y-98686883D01*
X152007808Y-98949673D01*
X151865162Y-99293201D01*
X151864838Y-99665167D01*
X150464882Y-99665167D01*
X150465162Y-99344833D01*
X150323117Y-99001057D01*
X150060327Y-98737808D01*
X149716799Y-98595162D01*
X149344833Y-98594838D01*
X149001057Y-98736883D01*
X148895046Y-98842710D01*
X148790327Y-98737808D01*
X148446799Y-98595162D01*
X148074833Y-98594838D01*
X147731057Y-98736883D01*
X147467808Y-98999673D01*
X147325162Y-99343201D01*
X147324838Y-99715167D01*
X137764839Y-99715167D01*
X137765162Y-99344833D01*
X137623117Y-99001057D01*
X137360327Y-98737808D01*
X137016799Y-98595162D01*
X136644833Y-98594838D01*
X136301057Y-98736883D01*
X136037808Y-98999673D01*
X135895162Y-99343201D01*
X135894838Y-99715167D01*
X129437553Y-99715167D01*
X129544838Y-99456799D01*
X129545162Y-99084833D01*
X129403117Y-98741057D01*
X129140327Y-98477808D01*
X129061720Y-98445167D01*
X142244838Y-98445167D01*
X142386883Y-98788943D01*
X142649673Y-99052192D01*
X142993201Y-99194838D01*
X143365167Y-99195162D01*
X143708943Y-99053117D01*
X143972192Y-98790327D01*
X144114838Y-98446799D01*
X144115162Y-98074833D01*
X143973117Y-97731057D01*
X143710327Y-97467808D01*
X143366799Y-97325162D01*
X142994833Y-97324838D01*
X142651057Y-97466883D01*
X142387808Y-97729673D01*
X142245162Y-98073201D01*
X142244838Y-98445167D01*
X129061720Y-98445167D01*
X128796799Y-98335162D01*
X128424833Y-98334838D01*
X128081057Y-98476883D01*
X127817808Y-98739673D01*
X127675162Y-99083201D01*
X127674838Y-99455167D01*
X100820000Y-99455167D01*
X100820000Y-99240256D01*
X105131197Y-99240256D01*
X105256639Y-99423000D01*
X106223000Y-99423000D01*
X106223000Y-98526535D01*
X106477000Y-98526535D01*
X106477000Y-99423000D01*
X107443361Y-99423000D01*
X107568803Y-99240256D01*
X107411997Y-98897180D01*
X107087043Y-98569166D01*
X106661299Y-98390475D01*
X106477000Y-98526535D01*
X106223000Y-98526535D01*
X106038701Y-98390475D01*
X105612957Y-98569166D01*
X105288003Y-98897180D01*
X105131197Y-99240256D01*
X100820000Y-99240256D01*
X100820000Y-98195255D01*
X111764838Y-98195255D01*
X111906883Y-98539031D01*
X112169673Y-98802280D01*
X112513201Y-98944926D01*
X112885167Y-98945250D01*
X113228943Y-98803205D01*
X113492192Y-98540415D01*
X113634838Y-98196887D01*
X113635162Y-97824921D01*
X113493117Y-97481145D01*
X113230327Y-97217896D01*
X113127425Y-97175167D01*
X130814838Y-97175167D01*
X130956883Y-97518943D01*
X131219673Y-97782192D01*
X131563201Y-97924838D01*
X131935167Y-97925162D01*
X132278943Y-97783117D01*
X132542192Y-97520327D01*
X132684838Y-97176799D01*
X132684839Y-97175167D01*
X134624838Y-97175167D01*
X134766883Y-97518943D01*
X135029673Y-97782192D01*
X135373201Y-97924838D01*
X135745167Y-97925162D01*
X136088943Y-97783117D01*
X136352192Y-97520327D01*
X136494838Y-97176799D01*
X136494839Y-97175167D01*
X137164838Y-97175167D01*
X137306883Y-97518943D01*
X137569673Y-97782192D01*
X137913201Y-97924838D01*
X138285167Y-97925162D01*
X138628943Y-97783117D01*
X138892192Y-97520327D01*
X139034838Y-97176799D01*
X139034839Y-97175167D01*
X139704838Y-97175167D01*
X139846883Y-97518943D01*
X140109673Y-97782192D01*
X140453201Y-97924838D01*
X140825167Y-97925162D01*
X141168943Y-97783117D01*
X141432192Y-97520327D01*
X141574838Y-97176799D01*
X141575135Y-96835167D01*
X152244838Y-96835167D01*
X152386883Y-97178943D01*
X152649673Y-97442192D01*
X152993201Y-97584838D01*
X153365167Y-97585162D01*
X153560844Y-97504310D01*
X153482368Y-97582649D01*
X153339722Y-97926177D01*
X153339398Y-98298143D01*
X153481443Y-98641919D01*
X153744233Y-98905168D01*
X154087761Y-99047814D01*
X154459727Y-99048138D01*
X154803503Y-98906093D01*
X155066752Y-98643303D01*
X155209398Y-98299775D01*
X155209402Y-98295167D01*
X159074838Y-98295167D01*
X159216883Y-98638943D01*
X159479673Y-98902192D01*
X159823201Y-99044838D01*
X160195167Y-99045162D01*
X160538943Y-98903117D01*
X160802192Y-98640327D01*
X160944838Y-98296799D01*
X160944839Y-98295167D01*
X161614838Y-98295167D01*
X161756883Y-98638943D01*
X162019673Y-98902192D01*
X162363201Y-99044838D01*
X162735167Y-99045162D01*
X163078943Y-98903117D01*
X163342192Y-98640327D01*
X163484838Y-98296799D01*
X163485162Y-97924833D01*
X163343117Y-97581057D01*
X163080327Y-97317808D01*
X162736799Y-97175162D01*
X162364833Y-97174838D01*
X162021057Y-97316883D01*
X161757808Y-97579673D01*
X161615162Y-97923201D01*
X161614838Y-98295167D01*
X160944839Y-98295167D01*
X160945162Y-97924833D01*
X160803117Y-97581057D01*
X160540327Y-97317808D01*
X160196799Y-97175162D01*
X159824833Y-97174838D01*
X159481057Y-97316883D01*
X159217808Y-97579673D01*
X159075162Y-97923201D01*
X159074838Y-98295167D01*
X155209402Y-98295167D01*
X155209722Y-97927809D01*
X155067677Y-97584033D01*
X154804887Y-97320784D01*
X154461359Y-97178138D01*
X154089393Y-97177814D01*
X153893716Y-97258666D01*
X153972192Y-97180327D01*
X154114838Y-96836799D01*
X154115162Y-96464833D01*
X153973117Y-96121057D01*
X153710327Y-95857808D01*
X153366799Y-95715162D01*
X152994833Y-95714838D01*
X152651057Y-95856883D01*
X152387808Y-96119673D01*
X152245162Y-96463201D01*
X152244838Y-96835167D01*
X141575135Y-96835167D01*
X141575162Y-96804833D01*
X141433117Y-96461057D01*
X141170327Y-96197808D01*
X140826799Y-96055162D01*
X140454833Y-96054838D01*
X140111057Y-96196883D01*
X139847808Y-96459673D01*
X139705162Y-96803201D01*
X139704838Y-97175167D01*
X139034839Y-97175167D01*
X139035162Y-96804833D01*
X138893117Y-96461057D01*
X138630327Y-96197808D01*
X138286799Y-96055162D01*
X137914833Y-96054838D01*
X137571057Y-96196883D01*
X137307808Y-96459673D01*
X137165162Y-96803201D01*
X137164838Y-97175167D01*
X136494839Y-97175167D01*
X136495162Y-96804833D01*
X136353117Y-96461057D01*
X136090327Y-96197808D01*
X135746799Y-96055162D01*
X135374833Y-96054838D01*
X135031057Y-96196883D01*
X134767808Y-96459673D01*
X134625162Y-96803201D01*
X134624838Y-97175167D01*
X132684839Y-97175167D01*
X132685162Y-96804833D01*
X132543117Y-96461057D01*
X132280327Y-96197808D01*
X131936799Y-96055162D01*
X131564833Y-96054838D01*
X131221057Y-96196883D01*
X130957808Y-96459673D01*
X130815162Y-96803201D01*
X130814838Y-97175167D01*
X113127425Y-97175167D01*
X112886799Y-97075250D01*
X112514833Y-97074926D01*
X112171057Y-97216971D01*
X111907808Y-97479761D01*
X111765162Y-97823289D01*
X111764838Y-98195255D01*
X100820000Y-98195255D01*
X100820000Y-94635167D01*
X133354838Y-94635167D01*
X133496883Y-94978943D01*
X133759673Y-95242192D01*
X134103201Y-95384838D01*
X134475167Y-95385162D01*
X134818943Y-95243117D01*
X135082192Y-94980327D01*
X135224838Y-94636799D01*
X135225162Y-94264833D01*
X135083117Y-93921057D01*
X134820327Y-93657808D01*
X134476799Y-93515162D01*
X134104833Y-93514838D01*
X133761057Y-93656883D01*
X133497808Y-93919673D01*
X133355162Y-94263201D01*
X133354838Y-94635167D01*
X100820000Y-94635167D01*
X100820000Y-91930000D01*
X105065315Y-91930000D01*
X105149809Y-92354779D01*
X105172526Y-92388777D01*
X105128569Y-92453110D01*
X105077560Y-92705000D01*
X105077560Y-93655000D01*
X105121838Y-93890317D01*
X105260910Y-94106441D01*
X105473110Y-94251431D01*
X105725000Y-94302440D01*
X106975000Y-94302440D01*
X107210317Y-94258162D01*
X107426441Y-94119090D01*
X107571431Y-93906890D01*
X107622440Y-93655000D01*
X107622440Y-93315167D01*
X127124838Y-93315167D01*
X127266883Y-93658943D01*
X127529673Y-93922192D01*
X127873201Y-94064838D01*
X128245167Y-94065162D01*
X128307329Y-94039477D01*
X128519673Y-94252192D01*
X128863201Y-94394838D01*
X129235167Y-94395162D01*
X129578943Y-94253117D01*
X129842192Y-93990327D01*
X129984838Y-93646799D01*
X129985083Y-93365167D01*
X135894838Y-93365167D01*
X136036883Y-93708943D01*
X136142710Y-93814954D01*
X136037808Y-93919673D01*
X135895162Y-94263201D01*
X135894838Y-94635167D01*
X136036883Y-94978943D01*
X136299673Y-95242192D01*
X136643201Y-95384838D01*
X137015167Y-95385162D01*
X137358943Y-95243117D01*
X137622192Y-94980327D01*
X137764838Y-94636799D01*
X137765162Y-94264833D01*
X137752905Y-94235167D01*
X142244838Y-94235167D01*
X142386883Y-94578943D01*
X142649673Y-94842192D01*
X142993201Y-94984838D01*
X143365167Y-94985162D01*
X143708943Y-94843117D01*
X143972192Y-94580327D01*
X144114838Y-94236799D01*
X144115162Y-93864833D01*
X143973117Y-93521057D01*
X143967238Y-93515167D01*
X151654838Y-93515167D01*
X151796883Y-93858943D01*
X152059673Y-94122192D01*
X152403201Y-94264838D01*
X152775167Y-94265162D01*
X153118943Y-94123117D01*
X153382192Y-93860327D01*
X153524838Y-93516799D01*
X153524970Y-93365167D01*
X158754838Y-93365167D01*
X158896883Y-93708943D01*
X159159673Y-93972192D01*
X159503201Y-94114838D01*
X159875167Y-94115162D01*
X160218943Y-93973117D01*
X160347116Y-93845167D01*
X168914838Y-93845167D01*
X169056883Y-94188943D01*
X169319673Y-94452192D01*
X169663201Y-94594838D01*
X170035167Y-94595162D01*
X170378943Y-94453117D01*
X170642192Y-94190327D01*
X170784838Y-93846799D01*
X170785162Y-93474833D01*
X170739850Y-93365167D01*
X182884838Y-93365167D01*
X183026883Y-93708943D01*
X183289673Y-93972192D01*
X183633201Y-94114838D01*
X184005167Y-94115162D01*
X184348943Y-93973117D01*
X184612192Y-93710327D01*
X184754838Y-93366799D01*
X184755162Y-92994833D01*
X184613117Y-92651057D01*
X184350327Y-92387808D01*
X184006799Y-92245162D01*
X183634833Y-92244838D01*
X183291057Y-92386883D01*
X183027808Y-92649673D01*
X182885162Y-92993201D01*
X182884838Y-93365167D01*
X170739850Y-93365167D01*
X170643117Y-93131057D01*
X170380327Y-92867808D01*
X170036799Y-92725162D01*
X169664833Y-92724838D01*
X169321057Y-92866883D01*
X169057808Y-93129673D01*
X168915162Y-93473201D01*
X168914838Y-93845167D01*
X160347116Y-93845167D01*
X160482192Y-93710327D01*
X160624838Y-93366799D01*
X160625162Y-92994833D01*
X160483117Y-92651057D01*
X160220327Y-92387808D01*
X159876799Y-92245162D01*
X159504833Y-92244838D01*
X159161057Y-92386883D01*
X158897808Y-92649673D01*
X158755162Y-92993201D01*
X158754838Y-93365167D01*
X153524970Y-93365167D01*
X153525162Y-93144833D01*
X153383117Y-92801057D01*
X153120327Y-92537808D01*
X152776799Y-92395162D01*
X152404833Y-92394838D01*
X152061057Y-92536883D01*
X151797808Y-92799673D01*
X151655162Y-93143201D01*
X151654838Y-93515167D01*
X143967238Y-93515167D01*
X143710327Y-93257808D01*
X143366799Y-93115162D01*
X142994833Y-93114838D01*
X142651057Y-93256883D01*
X142387808Y-93519673D01*
X142245162Y-93863201D01*
X142244838Y-94235167D01*
X137752905Y-94235167D01*
X137659690Y-94009570D01*
X137913201Y-94114838D01*
X138285167Y-94115162D01*
X138628943Y-93973117D01*
X138892192Y-93710327D01*
X139034838Y-93366799D01*
X139035162Y-92994833D01*
X138893117Y-92651057D01*
X138630327Y-92387808D01*
X138286799Y-92245162D01*
X137914833Y-92244838D01*
X137571057Y-92386883D01*
X137465046Y-92492710D01*
X137360327Y-92387808D01*
X137016799Y-92245162D01*
X136644833Y-92244838D01*
X136301057Y-92386883D01*
X136037808Y-92649673D01*
X135895162Y-92993201D01*
X135894838Y-93365167D01*
X129985083Y-93365167D01*
X129985162Y-93274833D01*
X129843117Y-92931057D01*
X129580327Y-92667808D01*
X129236799Y-92525162D01*
X128864833Y-92524838D01*
X128802671Y-92550523D01*
X128590327Y-92337808D01*
X128246799Y-92195162D01*
X127874833Y-92194838D01*
X127531057Y-92336883D01*
X127267808Y-92599673D01*
X127125162Y-92943201D01*
X127124838Y-93315167D01*
X107622440Y-93315167D01*
X107622440Y-92705000D01*
X107578162Y-92469683D01*
X107526774Y-92389824D01*
X107550191Y-92354779D01*
X107634685Y-91930000D01*
X107550191Y-91505221D01*
X107309574Y-91145111D01*
X106949464Y-90904494D01*
X106524685Y-90820000D01*
X106175315Y-90820000D01*
X105750536Y-90904494D01*
X105390426Y-91145111D01*
X105149809Y-91505221D01*
X105065315Y-91930000D01*
X100820000Y-91930000D01*
X100820000Y-90657905D01*
X135894838Y-90657905D01*
X136036883Y-91001681D01*
X136299673Y-91264930D01*
X136643201Y-91407576D01*
X137015167Y-91407900D01*
X137358943Y-91265855D01*
X137622192Y-91003065D01*
X137697664Y-90821307D01*
X142279137Y-90821307D01*
X142421182Y-91165083D01*
X142683972Y-91428332D01*
X142974314Y-91548893D01*
X142833719Y-91887483D01*
X142833395Y-92259449D01*
X142975440Y-92603225D01*
X143238230Y-92866474D01*
X143581758Y-93009120D01*
X143953724Y-93009444D01*
X144297500Y-92867399D01*
X144560749Y-92604609D01*
X144703395Y-92261081D01*
X144703719Y-91889115D01*
X144561674Y-91545339D01*
X144298884Y-91282090D01*
X144008542Y-91161529D01*
X144148211Y-90825167D01*
X144784838Y-90825167D01*
X144926883Y-91168943D01*
X145189673Y-91432192D01*
X145533201Y-91574838D01*
X145905167Y-91575162D01*
X146248943Y-91433117D01*
X146512192Y-91170327D01*
X146654838Y-90826799D01*
X146655162Y-90454833D01*
X146513117Y-90111057D01*
X146250327Y-89847808D01*
X146171720Y-89815167D01*
X167474838Y-89815167D01*
X167616883Y-90158943D01*
X167879673Y-90422192D01*
X168223201Y-90564838D01*
X168595167Y-90565162D01*
X168938943Y-90423117D01*
X169202192Y-90160327D01*
X169344838Y-89816799D01*
X169345162Y-89444833D01*
X169203117Y-89101057D01*
X168940327Y-88837808D01*
X168596799Y-88695162D01*
X168224833Y-88694838D01*
X167881057Y-88836883D01*
X167617808Y-89099673D01*
X167475162Y-89443201D01*
X167474838Y-89815167D01*
X146171720Y-89815167D01*
X145906799Y-89705162D01*
X145534833Y-89704838D01*
X145191057Y-89846883D01*
X144927808Y-90109673D01*
X144785162Y-90453201D01*
X144784838Y-90825167D01*
X144148211Y-90825167D01*
X144149137Y-90822939D01*
X144149461Y-90450973D01*
X144007416Y-90107197D01*
X143744626Y-89843948D01*
X143401098Y-89701302D01*
X143029132Y-89700978D01*
X142685356Y-89843023D01*
X142422107Y-90105813D01*
X142279461Y-90449341D01*
X142279137Y-90821307D01*
X137697664Y-90821307D01*
X137764838Y-90659537D01*
X137765162Y-90287571D01*
X137623117Y-89943795D01*
X137360327Y-89680546D01*
X137016799Y-89537900D01*
X136644833Y-89537576D01*
X136301057Y-89679621D01*
X136037808Y-89942411D01*
X135895162Y-90285939D01*
X135894838Y-90657905D01*
X100820000Y-90657905D01*
X100820000Y-85560000D01*
X105065315Y-85560000D01*
X105149809Y-85984779D01*
X105172526Y-86018777D01*
X105128569Y-86083110D01*
X105077560Y-86335000D01*
X105077560Y-87285000D01*
X105121838Y-87520317D01*
X105260910Y-87736441D01*
X105473110Y-87881431D01*
X105725000Y-87932440D01*
X106685145Y-87932440D01*
X106684838Y-88285167D01*
X106826883Y-88628943D01*
X107089673Y-88892192D01*
X107433201Y-89034838D01*
X107805167Y-89035162D01*
X108148943Y-88893117D01*
X108412192Y-88630327D01*
X108554838Y-88286799D01*
X108554839Y-88285167D01*
X138434838Y-88285167D01*
X138576883Y-88628943D01*
X138839673Y-88892192D01*
X139183201Y-89034838D01*
X139555167Y-89035162D01*
X139717337Y-88968155D01*
X139846883Y-89281682D01*
X140109673Y-89544931D01*
X140453201Y-89687577D01*
X140825167Y-89687901D01*
X141168943Y-89545856D01*
X141432192Y-89283066D01*
X141574838Y-88939538D01*
X141574839Y-88937906D01*
X144784838Y-88937906D01*
X144926883Y-89281682D01*
X145189673Y-89544931D01*
X145533201Y-89687577D01*
X145905167Y-89687901D01*
X146248943Y-89545856D01*
X146512192Y-89283066D01*
X146654838Y-88939538D01*
X146655162Y-88567572D01*
X146513117Y-88223796D01*
X146250327Y-87960547D01*
X145906799Y-87817901D01*
X145534833Y-87817577D01*
X145191057Y-87959622D01*
X144927808Y-88222412D01*
X144785162Y-88565940D01*
X144784838Y-88937906D01*
X141574839Y-88937906D01*
X141575162Y-88567572D01*
X141433117Y-88223796D01*
X141170327Y-87960547D01*
X140826799Y-87817901D01*
X140454833Y-87817577D01*
X140292663Y-87884584D01*
X140163117Y-87571057D01*
X139900327Y-87307808D01*
X139556799Y-87165162D01*
X139184833Y-87164838D01*
X138841057Y-87306883D01*
X138577808Y-87569673D01*
X138435162Y-87913201D01*
X138434838Y-88285167D01*
X108554839Y-88285167D01*
X108555162Y-87914833D01*
X108413117Y-87571057D01*
X108150327Y-87307808D01*
X107806799Y-87165162D01*
X107622440Y-87165001D01*
X107622440Y-86335000D01*
X107578162Y-86099683D01*
X107526774Y-86019824D01*
X107550191Y-85984779D01*
X107634685Y-85560000D01*
X107623669Y-85504615D01*
X134384286Y-85504615D01*
X134526331Y-85848391D01*
X134789121Y-86111640D01*
X135132649Y-86254286D01*
X135504615Y-86254610D01*
X135848391Y-86112565D01*
X136111640Y-85849775D01*
X136131030Y-85803077D01*
X139059838Y-85803077D01*
X139201883Y-86146853D01*
X139464673Y-86410102D01*
X139808201Y-86552748D01*
X140180167Y-86553072D01*
X140523943Y-86411027D01*
X140787192Y-86148237D01*
X140929838Y-85804709D01*
X140929889Y-85745167D01*
X142244838Y-85745167D01*
X142386883Y-86088943D01*
X142649673Y-86352192D01*
X142993201Y-86494838D01*
X143365167Y-86495162D01*
X143708943Y-86353117D01*
X143972192Y-86090327D01*
X144114838Y-85746799D01*
X144115162Y-85374833D01*
X144044110Y-85202873D01*
X144231925Y-85125270D01*
X144442713Y-85212797D01*
X144814679Y-85213121D01*
X145158455Y-85071076D01*
X145421704Y-84808286D01*
X145564350Y-84464758D01*
X145564674Y-84092792D01*
X145422629Y-83749016D01*
X145159839Y-83485767D01*
X144816311Y-83343121D01*
X144444345Y-83342797D01*
X144202587Y-83442689D01*
X143991799Y-83355162D01*
X143619833Y-83354838D01*
X143276057Y-83496883D01*
X143012808Y-83759673D01*
X142870162Y-84103201D01*
X142869838Y-84475167D01*
X142940890Y-84647127D01*
X142651057Y-84766883D01*
X142387808Y-85029673D01*
X142245162Y-85373201D01*
X142244838Y-85745167D01*
X140929889Y-85745167D01*
X140930162Y-85432743D01*
X140788117Y-85088967D01*
X140525327Y-84825718D01*
X140181799Y-84683072D01*
X139809833Y-84682748D01*
X139466057Y-84824793D01*
X139202808Y-85087583D01*
X139060162Y-85431111D01*
X139059838Y-85803077D01*
X136131030Y-85803077D01*
X136254286Y-85506247D01*
X136254610Y-85134281D01*
X136112565Y-84790505D01*
X135849775Y-84527256D01*
X135506247Y-84384610D01*
X135134281Y-84384286D01*
X134790505Y-84526331D01*
X134527256Y-84789121D01*
X134384610Y-85132649D01*
X134384286Y-85504615D01*
X107623669Y-85504615D01*
X107550191Y-85135221D01*
X107309574Y-84775111D01*
X106949464Y-84534494D01*
X106524685Y-84450000D01*
X106175315Y-84450000D01*
X105750536Y-84534494D01*
X105390426Y-84775111D01*
X105149809Y-85135221D01*
X105065315Y-85560000D01*
X100820000Y-85560000D01*
X100820000Y-83205167D01*
X106684838Y-83205167D01*
X106826883Y-83548943D01*
X107089673Y-83812192D01*
X107433201Y-83954838D01*
X107805167Y-83955162D01*
X108148943Y-83813117D01*
X108412192Y-83550327D01*
X108554838Y-83206799D01*
X108555162Y-82834833D01*
X108413117Y-82491057D01*
X108150327Y-82227808D01*
X107806799Y-82085162D01*
X107434833Y-82084838D01*
X107091057Y-82226883D01*
X106827808Y-82489673D01*
X106685162Y-82833201D01*
X106684838Y-83205167D01*
X100820000Y-83205167D01*
X100820000Y-79415750D01*
X105090000Y-79415750D01*
X105090000Y-79731309D01*
X105186673Y-79964698D01*
X105365301Y-80143327D01*
X105598690Y-80240000D01*
X106064250Y-80240000D01*
X106223000Y-80081250D01*
X106223000Y-79257000D01*
X106477000Y-79257000D01*
X106477000Y-80081250D01*
X106635750Y-80240000D01*
X107101310Y-80240000D01*
X107334699Y-80143327D01*
X107513327Y-79964698D01*
X107610000Y-79731309D01*
X107610000Y-79415750D01*
X107589417Y-79395167D01*
X132049838Y-79395167D01*
X132191883Y-79738943D01*
X132454673Y-80002192D01*
X132798201Y-80144838D01*
X133170167Y-80145162D01*
X133513943Y-80003117D01*
X133637485Y-79879790D01*
X133759673Y-80002192D01*
X134103201Y-80144838D01*
X134475167Y-80145162D01*
X134818943Y-80003117D01*
X135082192Y-79740327D01*
X135224838Y-79396799D01*
X135224839Y-79395167D01*
X138602100Y-79395167D01*
X138744145Y-79738943D01*
X139006935Y-80002192D01*
X139350463Y-80144838D01*
X139722429Y-80145162D01*
X140066205Y-80003117D01*
X140329454Y-79740327D01*
X140454267Y-79439744D01*
X187681197Y-79439744D01*
X187838003Y-79782820D01*
X188162957Y-80110834D01*
X188588701Y-80289525D01*
X188773000Y-80153465D01*
X188773000Y-79257000D01*
X189027000Y-79257000D01*
X189027000Y-80153465D01*
X189211299Y-80289525D01*
X189637043Y-80110834D01*
X189961997Y-79782820D01*
X190118803Y-79439744D01*
X189993361Y-79257000D01*
X189027000Y-79257000D01*
X188773000Y-79257000D01*
X187806639Y-79257000D01*
X187681197Y-79439744D01*
X140454267Y-79439744D01*
X140472100Y-79396799D01*
X140472424Y-79024833D01*
X140330379Y-78681057D01*
X140067589Y-78417808D01*
X139778307Y-78297687D01*
X141132318Y-78297687D01*
X141274363Y-78641463D01*
X141537153Y-78904712D01*
X141880681Y-79047358D01*
X142252647Y-79047682D01*
X142596423Y-78905637D01*
X142859672Y-78642847D01*
X143002318Y-78299319D01*
X143002642Y-77927353D01*
X142860597Y-77583577D01*
X142597807Y-77320328D01*
X142254279Y-77177682D01*
X141882313Y-77177358D01*
X141538537Y-77319403D01*
X141275288Y-77582193D01*
X141132642Y-77925721D01*
X141132318Y-78297687D01*
X139778307Y-78297687D01*
X139724061Y-78275162D01*
X139352095Y-78274838D01*
X139008319Y-78416883D01*
X138745070Y-78679673D01*
X138602424Y-79023201D01*
X138602100Y-79395167D01*
X135224839Y-79395167D01*
X135225162Y-79024833D01*
X135083117Y-78681057D01*
X134820327Y-78417808D01*
X134476799Y-78275162D01*
X134104833Y-78274838D01*
X133761057Y-78416883D01*
X133637515Y-78540210D01*
X133515327Y-78417808D01*
X133171799Y-78275162D01*
X132799833Y-78274838D01*
X132456057Y-78416883D01*
X132192808Y-78679673D01*
X132050162Y-79023201D01*
X132049838Y-79395167D01*
X107589417Y-79395167D01*
X107451250Y-79257000D01*
X106477000Y-79257000D01*
X106223000Y-79257000D01*
X105248750Y-79257000D01*
X105090000Y-79415750D01*
X100820000Y-79415750D01*
X100820000Y-75380000D01*
X105065315Y-75380000D01*
X105149809Y-75804779D01*
X105283592Y-76005000D01*
X105149809Y-76205221D01*
X105065315Y-76630000D01*
X105149809Y-77054779D01*
X105283592Y-77255000D01*
X105149809Y-77455221D01*
X105065315Y-77880000D01*
X105149809Y-78304779D01*
X105170142Y-78335210D01*
X105090000Y-78528691D01*
X105090000Y-78844250D01*
X105248750Y-79003000D01*
X106223000Y-79003000D01*
X106223000Y-78990000D01*
X106477000Y-78990000D01*
X106477000Y-79003000D01*
X107451250Y-79003000D01*
X107610000Y-78844250D01*
X107610000Y-78528691D01*
X107529858Y-78335210D01*
X107550191Y-78304779D01*
X107634685Y-77880000D01*
X107550191Y-77455221D01*
X107416408Y-77255000D01*
X107550191Y-77054779D01*
X107634685Y-76630000D01*
X107607734Y-76494505D01*
X139344176Y-76494505D01*
X139486221Y-76838281D01*
X139749011Y-77101530D01*
X140092539Y-77244176D01*
X140464505Y-77244500D01*
X140808281Y-77102455D01*
X140995896Y-76915167D01*
X144584838Y-76915167D01*
X144726883Y-77258943D01*
X144989673Y-77522192D01*
X145333201Y-77664838D01*
X145705167Y-77665162D01*
X146048943Y-77523117D01*
X146312192Y-77260327D01*
X146454838Y-76916799D01*
X146455162Y-76544833D01*
X146313117Y-76201057D01*
X146050327Y-75937808D01*
X145706799Y-75795162D01*
X145334833Y-75794838D01*
X144991057Y-75936883D01*
X144727808Y-76199673D01*
X144585162Y-76543201D01*
X144584838Y-76915167D01*
X140995896Y-76915167D01*
X141071530Y-76839665D01*
X141214176Y-76496137D01*
X141214500Y-76124171D01*
X141072455Y-75780395D01*
X140809665Y-75517146D01*
X140479383Y-75380000D01*
X187615315Y-75380000D01*
X187699809Y-75804779D01*
X187833592Y-76005000D01*
X187699809Y-76205221D01*
X187615315Y-76630000D01*
X187699809Y-77054779D01*
X187833592Y-77255000D01*
X187699809Y-77455221D01*
X187615315Y-77880000D01*
X187699809Y-78304779D01*
X187828661Y-78497620D01*
X187681197Y-78820256D01*
X187806639Y-79003000D01*
X188773000Y-79003000D01*
X188773000Y-78990000D01*
X189027000Y-78990000D01*
X189027000Y-79003000D01*
X189993361Y-79003000D01*
X190118803Y-78820256D01*
X189971339Y-78497620D01*
X190100191Y-78304779D01*
X190184685Y-77880000D01*
X190100191Y-77455221D01*
X189966408Y-77255000D01*
X190100191Y-77054779D01*
X190184685Y-76630000D01*
X190100191Y-76205221D01*
X189966408Y-76005000D01*
X190100191Y-75804779D01*
X190184685Y-75380000D01*
X190100191Y-74955221D01*
X190079858Y-74924790D01*
X190160000Y-74731309D01*
X190160000Y-74415750D01*
X190001250Y-74257000D01*
X189027000Y-74257000D01*
X189027000Y-74270000D01*
X188773000Y-74270000D01*
X188773000Y-74257000D01*
X187798750Y-74257000D01*
X187640000Y-74415750D01*
X187640000Y-74731309D01*
X187720142Y-74924790D01*
X187699809Y-74955221D01*
X187615315Y-75380000D01*
X140479383Y-75380000D01*
X140466137Y-75374500D01*
X140094171Y-75374176D01*
X139750395Y-75516221D01*
X139487146Y-75779011D01*
X139344500Y-76122539D01*
X139344176Y-76494505D01*
X107607734Y-76494505D01*
X107550191Y-76205221D01*
X107416408Y-76005000D01*
X107550191Y-75804779D01*
X107634685Y-75380000D01*
X107550191Y-74955221D01*
X107421339Y-74762380D01*
X107568803Y-74439744D01*
X107443361Y-74257000D01*
X106477000Y-74257000D01*
X106477000Y-74270000D01*
X106223000Y-74270000D01*
X106223000Y-74257000D01*
X105256639Y-74257000D01*
X105131197Y-74439744D01*
X105278661Y-74762380D01*
X105149809Y-74955221D01*
X105065315Y-75380000D01*
X100820000Y-75380000D01*
X100820000Y-73820256D01*
X105131197Y-73820256D01*
X105256639Y-74003000D01*
X106223000Y-74003000D01*
X106223000Y-73106535D01*
X106477000Y-73106535D01*
X106477000Y-74003000D01*
X107443361Y-74003000D01*
X107568803Y-73820256D01*
X107435541Y-73528691D01*
X187640000Y-73528691D01*
X187640000Y-73844250D01*
X187798750Y-74003000D01*
X188773000Y-74003000D01*
X188773000Y-73178750D01*
X189027000Y-73178750D01*
X189027000Y-74003000D01*
X190001250Y-74003000D01*
X190160000Y-73844250D01*
X190160000Y-73528691D01*
X190063327Y-73295302D01*
X189884699Y-73116673D01*
X189651310Y-73020000D01*
X189185750Y-73020000D01*
X189027000Y-73178750D01*
X188773000Y-73178750D01*
X188614250Y-73020000D01*
X188148690Y-73020000D01*
X187915301Y-73116673D01*
X187736673Y-73295302D01*
X187640000Y-73528691D01*
X107435541Y-73528691D01*
X107411997Y-73477180D01*
X107087043Y-73149166D01*
X106661299Y-72970475D01*
X106477000Y-73106535D01*
X106223000Y-73106535D01*
X106038701Y-72970475D01*
X105612957Y-73149166D01*
X105288003Y-73477180D01*
X105131197Y-73820256D01*
X100820000Y-73820256D01*
X100820000Y-71295167D01*
X111139838Y-71295167D01*
X111281883Y-71638943D01*
X111544673Y-71902192D01*
X111888201Y-72044838D01*
X112260167Y-72045162D01*
X112603943Y-71903117D01*
X112867192Y-71640327D01*
X113009838Y-71296799D01*
X113010162Y-70924833D01*
X112868117Y-70581057D01*
X112605327Y-70317808D01*
X112261799Y-70175162D01*
X111889833Y-70174838D01*
X111546057Y-70316883D01*
X111282808Y-70579673D01*
X111140162Y-70923201D01*
X111139838Y-71295167D01*
X100820000Y-71295167D01*
X100820000Y-66130000D01*
X105065315Y-66130000D01*
X105149809Y-66554779D01*
X105283592Y-66755000D01*
X105149809Y-66955221D01*
X105065315Y-67380000D01*
X105149809Y-67804779D01*
X105283592Y-68005000D01*
X105149809Y-68205221D01*
X105065315Y-68630000D01*
X105149809Y-69054779D01*
X105172526Y-69088777D01*
X105128569Y-69153110D01*
X105077560Y-69405000D01*
X105077560Y-70355000D01*
X105121838Y-70590317D01*
X105260910Y-70806441D01*
X105473110Y-70951431D01*
X105725000Y-71002440D01*
X106975000Y-71002440D01*
X107210317Y-70958162D01*
X107426441Y-70819090D01*
X107571431Y-70606890D01*
X107622440Y-70355000D01*
X107622440Y-69405000D01*
X107578162Y-69169683D01*
X107526774Y-69089824D01*
X107550191Y-69054779D01*
X107634685Y-68630000D01*
X107550191Y-68205221D01*
X107416408Y-68005000D01*
X107550191Y-67804779D01*
X107634685Y-67380000D01*
X107550191Y-66955221D01*
X107416408Y-66755000D01*
X107550191Y-66554779D01*
X107634685Y-66130000D01*
X107550191Y-65705221D01*
X107309574Y-65345111D01*
X107055366Y-65175255D01*
X109224838Y-65175255D01*
X109366883Y-65519031D01*
X109629673Y-65782280D01*
X109973201Y-65924926D01*
X110345167Y-65925250D01*
X110688943Y-65783205D01*
X110952192Y-65520415D01*
X111094838Y-65176887D01*
X111095162Y-64804921D01*
X111093198Y-64800166D01*
X116219837Y-64800166D01*
X116361882Y-65143942D01*
X116624672Y-65407191D01*
X116968200Y-65549837D01*
X117340166Y-65550161D01*
X117683942Y-65408116D01*
X117947191Y-65145326D01*
X118089837Y-64801798D01*
X118090161Y-64429832D01*
X117948116Y-64086056D01*
X117685326Y-63822807D01*
X117341798Y-63680161D01*
X116969832Y-63679837D01*
X116626056Y-63821882D01*
X116362807Y-64084672D01*
X116220161Y-64428200D01*
X116219837Y-64800166D01*
X111093198Y-64800166D01*
X110953117Y-64461145D01*
X110690327Y-64197896D01*
X110346799Y-64055250D01*
X109974833Y-64054926D01*
X109631057Y-64196971D01*
X109367808Y-64459761D01*
X109225162Y-64803289D01*
X109224838Y-65175255D01*
X107055366Y-65175255D01*
X106949464Y-65104494D01*
X106524685Y-65020000D01*
X106175315Y-65020000D01*
X105750536Y-65104494D01*
X105390426Y-65345111D01*
X105149809Y-65705221D01*
X105065315Y-66130000D01*
X100820000Y-66130000D01*
X100820000Y-58209482D01*
X101354336Y-58209482D01*
X101936950Y-59619515D01*
X103014811Y-60699259D01*
X104423825Y-61284333D01*
X105949482Y-61285664D01*
X107359515Y-60703050D01*
X107627865Y-60435167D01*
X116734838Y-60435167D01*
X116876883Y-60778943D01*
X117139673Y-61042192D01*
X117483201Y-61184838D01*
X117855167Y-61185162D01*
X118198943Y-61043117D01*
X118462192Y-60780327D01*
X118466410Y-60770167D01*
X130284838Y-60770167D01*
X130426883Y-61113943D01*
X130689673Y-61377192D01*
X131033201Y-61519838D01*
X131405167Y-61520162D01*
X131748943Y-61378117D01*
X132012192Y-61115327D01*
X132154838Y-60771799D01*
X132155162Y-60399833D01*
X132132575Y-60345167D01*
X151134838Y-60345167D01*
X151276883Y-60688943D01*
X151539673Y-60952192D01*
X151883201Y-61094838D01*
X152255167Y-61095162D01*
X152598943Y-60953117D01*
X152862192Y-60690327D01*
X153004838Y-60346799D01*
X153005162Y-59974833D01*
X152863117Y-59631057D01*
X152600327Y-59367808D01*
X152256799Y-59225162D01*
X151884833Y-59224838D01*
X151541057Y-59366883D01*
X151277808Y-59629673D01*
X151135162Y-59973201D01*
X151134838Y-60345167D01*
X132132575Y-60345167D01*
X132013117Y-60056057D01*
X131947238Y-59990063D01*
X132072192Y-59865327D01*
X132214838Y-59521799D01*
X132215162Y-59149833D01*
X132073117Y-58806057D01*
X131810327Y-58542808D01*
X131466799Y-58400162D01*
X131094833Y-58399838D01*
X130751057Y-58541883D01*
X130487808Y-58804673D01*
X130345162Y-59148201D01*
X130344838Y-59520167D01*
X130486883Y-59863943D01*
X130552762Y-59929937D01*
X130427808Y-60054673D01*
X130285162Y-60398201D01*
X130284838Y-60770167D01*
X118466410Y-60770167D01*
X118604838Y-60436799D01*
X118605162Y-60064833D01*
X118483395Y-59770134D01*
X118515167Y-59770162D01*
X118858943Y-59628117D01*
X119122192Y-59365327D01*
X119264838Y-59021799D01*
X119265162Y-58649833D01*
X119123117Y-58306057D01*
X118860327Y-58042808D01*
X118516799Y-57900162D01*
X118144833Y-57899838D01*
X117801057Y-58041883D01*
X117537808Y-58304673D01*
X117395162Y-58648201D01*
X117394838Y-59020167D01*
X117516605Y-59314866D01*
X117484833Y-59314838D01*
X117141057Y-59456883D01*
X116877808Y-59719673D01*
X116735162Y-60063201D01*
X116734838Y-60435167D01*
X107627865Y-60435167D01*
X108439259Y-59625189D01*
X109024333Y-58216175D01*
X109024691Y-57805167D01*
X109224838Y-57805167D01*
X109366883Y-58148943D01*
X109629673Y-58412192D01*
X109973201Y-58554838D01*
X110345167Y-58555162D01*
X110688943Y-58413117D01*
X110952192Y-58150327D01*
X111094838Y-57806799D01*
X111095162Y-57434833D01*
X110953117Y-57091057D01*
X110690327Y-56827808D01*
X110346799Y-56685162D01*
X109974833Y-56684838D01*
X109631057Y-56826883D01*
X109367808Y-57089673D01*
X109225162Y-57433201D01*
X109224838Y-57805167D01*
X109024691Y-57805167D01*
X109025664Y-56690518D01*
X109003035Y-56635750D01*
X128995000Y-56635750D01*
X128995000Y-57326309D01*
X129091673Y-57559698D01*
X129270301Y-57738327D01*
X129503690Y-57835000D01*
X130194250Y-57835000D01*
X130353000Y-57676250D01*
X130353000Y-56477000D01*
X129153750Y-56477000D01*
X128995000Y-56635750D01*
X109003035Y-56635750D01*
X108481562Y-55373691D01*
X128995000Y-55373691D01*
X128995000Y-56064250D01*
X129153750Y-56223000D01*
X130353000Y-56223000D01*
X130353000Y-53937000D01*
X129159181Y-53937000D01*
X129038514Y-54166892D01*
X129284817Y-54691358D01*
X129484208Y-54873070D01*
X129270301Y-54961673D01*
X129091673Y-55140302D01*
X128995000Y-55373691D01*
X108481562Y-55373691D01*
X108443050Y-55280485D01*
X107365189Y-54200741D01*
X105956175Y-53615667D01*
X104430518Y-53614336D01*
X103020485Y-54196950D01*
X101940741Y-55274811D01*
X101355667Y-56683825D01*
X101354336Y-58209482D01*
X100820000Y-58209482D01*
X100820000Y-53453108D01*
X129038514Y-53453108D01*
X129159181Y-53683000D01*
X130353000Y-53683000D01*
X130353000Y-52489845D01*
X130607000Y-52489845D01*
X130607000Y-53683000D01*
X130627000Y-53683000D01*
X130627000Y-53937000D01*
X130607000Y-53937000D01*
X130607000Y-56223000D01*
X130627000Y-56223000D01*
X130627000Y-56477000D01*
X130607000Y-56477000D01*
X130607000Y-57676250D01*
X130765750Y-57835000D01*
X131456310Y-57835000D01*
X131689699Y-57738327D01*
X131868327Y-57559698D01*
X131940597Y-57385223D01*
X131969946Y-57429147D01*
X132087461Y-57507668D01*
X132085162Y-57513204D01*
X132084838Y-57885170D01*
X132226883Y-58228946D01*
X132489673Y-58492195D01*
X132833201Y-58634841D01*
X133205167Y-58635165D01*
X133548943Y-58493120D01*
X133812192Y-58230330D01*
X133954838Y-57886802D01*
X133955162Y-57514836D01*
X133952273Y-57507845D01*
X134070054Y-57429147D01*
X134290000Y-57099974D01*
X134509946Y-57429147D01*
X134991715Y-57751054D01*
X135560000Y-57864093D01*
X136128285Y-57751054D01*
X136610054Y-57429147D01*
X136830000Y-57099974D01*
X137049946Y-57429147D01*
X137531715Y-57751054D01*
X138100000Y-57864093D01*
X138668285Y-57751054D01*
X139150054Y-57429147D01*
X139471961Y-56947378D01*
X139585000Y-56379093D01*
X139585000Y-56320907D01*
X139471961Y-55752622D01*
X139303165Y-55500000D01*
X141422560Y-55500000D01*
X141422560Y-57200000D01*
X141466838Y-57435317D01*
X141605910Y-57651441D01*
X141818110Y-57796431D01*
X142070000Y-57847440D01*
X143278877Y-57847440D01*
X143278705Y-58045149D01*
X143420750Y-58388925D01*
X143683540Y-58652174D01*
X144027068Y-58794820D01*
X144399034Y-58795144D01*
X144742810Y-58653099D01*
X144850680Y-58545417D01*
X144785162Y-58703201D01*
X144784838Y-59075167D01*
X144926883Y-59418943D01*
X145189673Y-59682192D01*
X145533201Y-59824838D01*
X145905167Y-59825162D01*
X146248943Y-59683117D01*
X146512192Y-59420327D01*
X146654838Y-59076799D01*
X146655036Y-58848389D01*
X148594838Y-58848389D01*
X148736883Y-59192165D01*
X148999673Y-59455414D01*
X149343201Y-59598060D01*
X149715167Y-59598384D01*
X150058943Y-59456339D01*
X150322192Y-59193549D01*
X150464838Y-58850021D01*
X150465162Y-58478055D01*
X150323117Y-58134279D01*
X150060327Y-57871030D01*
X149716799Y-57728384D01*
X149344833Y-57728060D01*
X149001057Y-57870105D01*
X148737808Y-58132895D01*
X148595162Y-58476423D01*
X148594838Y-58848389D01*
X146655036Y-58848389D01*
X146655162Y-58704833D01*
X146513117Y-58361057D01*
X146250327Y-58097808D01*
X145906799Y-57955162D01*
X145534833Y-57954838D01*
X145191057Y-58096883D01*
X145083187Y-58204565D01*
X145148705Y-58046781D01*
X145148918Y-57802215D01*
X145460000Y-57864093D01*
X146028285Y-57751054D01*
X146510054Y-57429147D01*
X146730000Y-57099974D01*
X146949946Y-57429147D01*
X147431715Y-57751054D01*
X148000000Y-57864093D01*
X148568285Y-57751054D01*
X149050054Y-57429147D01*
X149270000Y-57099974D01*
X149489946Y-57429147D01*
X149971715Y-57751054D01*
X150540000Y-57864093D01*
X151108285Y-57751054D01*
X151590054Y-57429147D01*
X151817702Y-57088447D01*
X151884817Y-57231358D01*
X152313076Y-57621645D01*
X152723110Y-57791476D01*
X152953000Y-57670155D01*
X152953000Y-56477000D01*
X153207000Y-56477000D01*
X153207000Y-57670155D01*
X153436890Y-57791476D01*
X153846924Y-57621645D01*
X154275183Y-57231358D01*
X154521486Y-56706892D01*
X154400819Y-56477000D01*
X153207000Y-56477000D01*
X152953000Y-56477000D01*
X152933000Y-56477000D01*
X152933000Y-56223000D01*
X152953000Y-56223000D01*
X152953000Y-53937000D01*
X153207000Y-53937000D01*
X153207000Y-56223000D01*
X154400819Y-56223000D01*
X154521486Y-55993108D01*
X154289910Y-55500000D01*
X156922560Y-55500000D01*
X156922560Y-57200000D01*
X156966838Y-57435317D01*
X157105910Y-57651441D01*
X157318110Y-57796431D01*
X157570000Y-57847440D01*
X159270000Y-57847440D01*
X159505317Y-57803162D01*
X159721441Y-57664090D01*
X159866431Y-57451890D01*
X159880086Y-57384459D01*
X159909946Y-57429147D01*
X160391715Y-57751054D01*
X160960000Y-57864093D01*
X161528285Y-57751054D01*
X162010054Y-57429147D01*
X162230000Y-57099974D01*
X162449946Y-57429147D01*
X162931715Y-57751054D01*
X163500000Y-57864093D01*
X164068285Y-57751054D01*
X164550054Y-57429147D01*
X164871961Y-56947378D01*
X164985000Y-56379093D01*
X164985000Y-56320907D01*
X164871961Y-55752622D01*
X164816409Y-55669482D01*
X187084336Y-55669482D01*
X187666950Y-57079515D01*
X188744811Y-58159259D01*
X190153825Y-58744333D01*
X191679482Y-58745664D01*
X193089515Y-58163050D01*
X194169259Y-57085189D01*
X194754333Y-55676175D01*
X194755664Y-54150518D01*
X194173050Y-52740485D01*
X193095189Y-51660741D01*
X191686175Y-51075667D01*
X190160518Y-51074336D01*
X188750485Y-51656950D01*
X187670741Y-52734811D01*
X187085667Y-54143825D01*
X187084336Y-55669482D01*
X164816409Y-55669482D01*
X164550054Y-55270853D01*
X164266899Y-55081655D01*
X164266924Y-55081645D01*
X164695183Y-54691358D01*
X164941486Y-54166892D01*
X164820819Y-53937000D01*
X163627000Y-53937000D01*
X163627000Y-53957000D01*
X163373000Y-53957000D01*
X163373000Y-53937000D01*
X163353000Y-53937000D01*
X163353000Y-53683000D01*
X163373000Y-53683000D01*
X163373000Y-52489845D01*
X163627000Y-52489845D01*
X163627000Y-53683000D01*
X164820819Y-53683000D01*
X164941486Y-53453108D01*
X164695183Y-52928642D01*
X164266924Y-52538355D01*
X163856890Y-52368524D01*
X163627000Y-52489845D01*
X163373000Y-52489845D01*
X163143110Y-52368524D01*
X162733076Y-52538355D01*
X162304817Y-52928642D01*
X162237702Y-53071553D01*
X162010054Y-52730853D01*
X161528285Y-52408946D01*
X160960000Y-52295907D01*
X160391715Y-52408946D01*
X159909946Y-52730853D01*
X159690000Y-53060026D01*
X159470054Y-52730853D01*
X158988285Y-52408946D01*
X158420000Y-52295907D01*
X157851715Y-52408946D01*
X157369946Y-52730853D01*
X157048039Y-53212622D01*
X156935000Y-53780907D01*
X156935000Y-53839093D01*
X157048039Y-54407378D01*
X157369946Y-54889147D01*
X157371179Y-54889971D01*
X157334683Y-54896838D01*
X157118559Y-55035910D01*
X156973569Y-55248110D01*
X156922560Y-55500000D01*
X154289910Y-55500000D01*
X154275183Y-55468642D01*
X153848729Y-55080000D01*
X154275183Y-54691358D01*
X154521486Y-54166892D01*
X154400819Y-53937000D01*
X153207000Y-53937000D01*
X152953000Y-53937000D01*
X152933000Y-53937000D01*
X152933000Y-53683000D01*
X152953000Y-53683000D01*
X152953000Y-52489845D01*
X153207000Y-52489845D01*
X153207000Y-53683000D01*
X154400819Y-53683000D01*
X154521486Y-53453108D01*
X154275183Y-52928642D01*
X153846924Y-52538355D01*
X153436890Y-52368524D01*
X153207000Y-52489845D01*
X152953000Y-52489845D01*
X152723110Y-52368524D01*
X152313076Y-52538355D01*
X151884817Y-52928642D01*
X151817702Y-53071553D01*
X151590054Y-52730853D01*
X151108285Y-52408946D01*
X150540000Y-52295907D01*
X149971715Y-52408946D01*
X149489946Y-52730853D01*
X149270000Y-53060026D01*
X149050054Y-52730853D01*
X148568285Y-52408946D01*
X148000000Y-52295907D01*
X147431715Y-52408946D01*
X146949946Y-52730853D01*
X146730000Y-53060026D01*
X146510054Y-52730853D01*
X146028285Y-52408946D01*
X145460000Y-52295907D01*
X144891715Y-52408946D01*
X144409946Y-52730853D01*
X144190000Y-53060026D01*
X143970054Y-52730853D01*
X143488285Y-52408946D01*
X142920000Y-52295907D01*
X142351715Y-52408946D01*
X141869946Y-52730853D01*
X141548039Y-53212622D01*
X141435000Y-53780907D01*
X141435000Y-53839093D01*
X141548039Y-54407378D01*
X141869946Y-54889147D01*
X141871179Y-54889971D01*
X141834683Y-54896838D01*
X141618559Y-55035910D01*
X141473569Y-55248110D01*
X141422560Y-55500000D01*
X139303165Y-55500000D01*
X139150054Y-55270853D01*
X138864422Y-55080000D01*
X139150054Y-54889147D01*
X139471961Y-54407378D01*
X139585000Y-53839093D01*
X139585000Y-53780907D01*
X139471961Y-53212622D01*
X139150054Y-52730853D01*
X138668285Y-52408946D01*
X138100000Y-52295907D01*
X137531715Y-52408946D01*
X137049946Y-52730853D01*
X136830000Y-53060026D01*
X136610054Y-52730853D01*
X136128285Y-52408946D01*
X135560000Y-52295907D01*
X134991715Y-52408946D01*
X134509946Y-52730853D01*
X134290000Y-53060026D01*
X134070054Y-52730853D01*
X133588285Y-52408946D01*
X133020000Y-52295907D01*
X132451715Y-52408946D01*
X131969946Y-52730853D01*
X131742298Y-53071553D01*
X131675183Y-52928642D01*
X131246924Y-52538355D01*
X130836890Y-52368524D01*
X130607000Y-52489845D01*
X130353000Y-52489845D01*
X130123110Y-52368524D01*
X129713076Y-52538355D01*
X129284817Y-52928642D01*
X129038514Y-53453108D01*
X100820000Y-53453108D01*
X100820000Y-50540000D01*
X195290000Y-50540000D01*
X195290000Y-97147672D01*
X195290000Y-97147672D01*
G37*
X195290000Y-97147672D02*
X194946799Y-97005162D01*
X194574833Y-97004838D01*
X194231057Y-97146883D01*
X193967808Y-97409673D01*
X193825162Y-97753201D01*
X193824838Y-98125167D01*
X193966883Y-98468943D01*
X194229673Y-98732192D01*
X194573201Y-98874838D01*
X194945167Y-98875162D01*
X195288943Y-98733117D01*
X195290000Y-98732062D01*
X195290000Y-139290000D01*
X100820000Y-139290000D01*
X100820000Y-135679482D01*
X187084336Y-135679482D01*
X187666950Y-137089515D01*
X188744811Y-138169259D01*
X190153825Y-138754333D01*
X191679482Y-138755664D01*
X193089515Y-138173050D01*
X194169259Y-137095189D01*
X194754333Y-135686175D01*
X194755664Y-134160518D01*
X194173050Y-132750485D01*
X193095189Y-131670741D01*
X191686175Y-131085667D01*
X190160518Y-131084336D01*
X188750485Y-131666950D01*
X187670741Y-132744811D01*
X187085667Y-134153825D01*
X187084336Y-135679482D01*
X100820000Y-135679482D01*
X100820000Y-131869482D01*
X101354336Y-131869482D01*
X101936950Y-133279515D01*
X103014811Y-134359259D01*
X104423825Y-134944333D01*
X105949482Y-134945664D01*
X107359515Y-134363050D01*
X108439259Y-133285189D01*
X109024333Y-131876175D01*
X109024787Y-131355167D01*
X134424838Y-131355167D01*
X134566883Y-131698943D01*
X134829673Y-131962192D01*
X135173201Y-132104838D01*
X135545167Y-132105162D01*
X135690366Y-132045167D01*
X143164838Y-132045167D01*
X143306883Y-132388943D01*
X143569673Y-132652192D01*
X143913201Y-132794838D01*
X144285167Y-132795162D01*
X144628943Y-132653117D01*
X144892192Y-132390327D01*
X145034838Y-132046799D01*
X145034856Y-132025167D01*
X145234838Y-132025167D01*
X145376883Y-132368943D01*
X145639673Y-132632192D01*
X145983201Y-132774838D01*
X146355167Y-132775162D01*
X146698943Y-132633117D01*
X146962192Y-132370327D01*
X147104838Y-132026799D01*
X147105162Y-131654833D01*
X146963117Y-131311057D01*
X146700327Y-131047808D01*
X146356799Y-130905162D01*
X145984833Y-130904838D01*
X145641057Y-131046883D01*
X145377808Y-131309673D01*
X145235162Y-131653201D01*
X145234838Y-132025167D01*
X145034856Y-132025167D01*
X145035162Y-131674833D01*
X144893117Y-131331057D01*
X144630327Y-131067808D01*
X144286799Y-130925162D01*
X143914833Y-130924838D01*
X143571057Y-131066883D01*
X143307808Y-131329673D01*
X143165162Y-131673201D01*
X143164838Y-132045167D01*
X135690366Y-132045167D01*
X135888943Y-131963117D01*
X136152192Y-131700327D01*
X136294838Y-131356799D01*
X136295162Y-130984833D01*
X136153117Y-130641057D01*
X135997499Y-130485167D01*
X141634838Y-130485167D01*
X141776883Y-130828943D01*
X142039673Y-131092192D01*
X142383201Y-131234838D01*
X142755167Y-131235162D01*
X143098943Y-131093117D01*
X143362192Y-130830327D01*
X143504838Y-130486799D01*
X143505031Y-130264909D01*
X143795167Y-130265162D01*
X144138943Y-130123117D01*
X144402192Y-129860327D01*
X144544838Y-129516799D01*
X144545162Y-129144833D01*
X144403117Y-128801057D01*
X144140327Y-128537808D01*
X143796799Y-128395162D01*
X143424833Y-128394838D01*
X143081057Y-128536883D01*
X142817808Y-128799673D01*
X142675162Y-129143201D01*
X142674969Y-129365091D01*
X142384833Y-129364838D01*
X142041057Y-129506883D01*
X141777808Y-129769673D01*
X141635162Y-130113201D01*
X141634838Y-130485167D01*
X135997499Y-130485167D01*
X135890327Y-130377808D01*
X135546799Y-130235162D01*
X135174833Y-130234838D01*
X134831057Y-130376883D01*
X134567808Y-130639673D01*
X134425162Y-130983201D01*
X134424838Y-131355167D01*
X109024787Y-131355167D01*
X109025664Y-130350518D01*
X108895364Y-130035167D01*
X129664838Y-130035167D01*
X129806883Y-130378943D01*
X130069673Y-130642192D01*
X130413201Y-130784838D01*
X130785167Y-130785162D01*
X131128943Y-130643117D01*
X131392192Y-130380327D01*
X131534838Y-130036799D01*
X131535162Y-129664833D01*
X131393117Y-129321057D01*
X131130327Y-129057808D01*
X130786799Y-128915162D01*
X130414833Y-128914838D01*
X130071057Y-129056883D01*
X129807808Y-129319673D01*
X129665162Y-129663201D01*
X129664838Y-130035167D01*
X108895364Y-130035167D01*
X108443050Y-128940485D01*
X107365189Y-127860741D01*
X105956175Y-127275667D01*
X104430518Y-127274336D01*
X103020485Y-127856950D01*
X101940741Y-128934811D01*
X101355667Y-130343825D01*
X101354336Y-131869482D01*
X100820000Y-131869482D01*
X100820000Y-126985167D01*
X127074838Y-126985167D01*
X127216883Y-127328943D01*
X127479673Y-127592192D01*
X127823201Y-127734838D01*
X128195167Y-127735162D01*
X128538943Y-127593117D01*
X128802192Y-127330327D01*
X128944838Y-126986799D01*
X128945109Y-126675167D01*
X137454838Y-126675167D01*
X137596883Y-127018943D01*
X137859673Y-127282192D01*
X138203201Y-127424838D01*
X138575167Y-127425162D01*
X138918943Y-127283117D01*
X139182192Y-127020327D01*
X139191750Y-126997307D01*
X142856978Y-126997307D01*
X142999023Y-127341083D01*
X143261813Y-127604332D01*
X143605341Y-127746978D01*
X143977307Y-127747302D01*
X144321083Y-127605257D01*
X144584332Y-127342467D01*
X144726978Y-126998939D01*
X144727302Y-126626973D01*
X144585257Y-126283197D01*
X144322467Y-126019948D01*
X143978939Y-125877302D01*
X143606973Y-125876978D01*
X143263197Y-126019023D01*
X142999948Y-126281813D01*
X142857302Y-126625341D01*
X142856978Y-126997307D01*
X139191750Y-126997307D01*
X139324838Y-126676799D01*
X139325162Y-126304833D01*
X139183117Y-125961057D01*
X138920327Y-125697808D01*
X138576799Y-125555162D01*
X138204833Y-125554838D01*
X137861057Y-125696883D01*
X137597808Y-125959673D01*
X137455162Y-126303201D01*
X137454838Y-126675167D01*
X128945109Y-126675167D01*
X128945162Y-126614833D01*
X128803117Y-126271057D01*
X128540327Y-126007808D01*
X128196799Y-125865162D01*
X127824833Y-125864838D01*
X127481057Y-126006883D01*
X127217808Y-126269673D01*
X127075162Y-126613201D01*
X127074838Y-126985167D01*
X100820000Y-126985167D01*
X100820000Y-121560000D01*
X105065315Y-121560000D01*
X105149809Y-121984779D01*
X105283592Y-122185000D01*
X105149809Y-122385221D01*
X105065315Y-122810000D01*
X105149809Y-123234779D01*
X105283592Y-123435000D01*
X105149809Y-123635221D01*
X105065315Y-124060000D01*
X105149809Y-124484779D01*
X105172526Y-124518777D01*
X105128569Y-124583110D01*
X105077560Y-124835000D01*
X105077560Y-125785000D01*
X105121838Y-126020317D01*
X105260910Y-126236441D01*
X105473110Y-126381431D01*
X105725000Y-126432440D01*
X106975000Y-126432440D01*
X107210317Y-126388162D01*
X107426441Y-126249090D01*
X107571431Y-126036890D01*
X107622440Y-125785000D01*
X107622440Y-125115167D01*
X150564838Y-125115167D01*
X150706883Y-125458943D01*
X150969673Y-125722192D01*
X151313201Y-125864838D01*
X151685167Y-125865162D01*
X152004466Y-125733231D01*
X151831342Y-125906053D01*
X151688696Y-126249581D01*
X151688372Y-126621547D01*
X151830417Y-126965323D01*
X152093207Y-127228572D01*
X152436735Y-127371218D01*
X152674963Y-127371426D01*
X152674838Y-127515167D01*
X152816883Y-127858943D01*
X153079673Y-128122192D01*
X153423201Y-128264838D01*
X153795167Y-128265162D01*
X154138943Y-128123117D01*
X154175082Y-128087041D01*
X154393985Y-128177938D01*
X154765951Y-128178262D01*
X155109727Y-128036217D01*
X155372976Y-127773427D01*
X155515622Y-127429899D01*
X155515946Y-127057933D01*
X155373901Y-126714157D01*
X155111111Y-126450908D01*
X154767583Y-126308262D01*
X154465113Y-126307999D01*
X154465162Y-126251213D01*
X154323117Y-125907437D01*
X154060327Y-125644188D01*
X153716799Y-125501542D01*
X153344833Y-125501218D01*
X153076531Y-125612078D01*
X152810333Y-125501542D01*
X152438367Y-125501218D01*
X152119068Y-125633149D01*
X152292192Y-125460327D01*
X152434838Y-125116799D01*
X152435162Y-124744833D01*
X152293117Y-124401057D01*
X152030327Y-124137808D01*
X151686799Y-123995162D01*
X151314833Y-123994838D01*
X150971057Y-124136883D01*
X150707808Y-124399673D01*
X150565162Y-124743201D01*
X150564838Y-125115167D01*
X107622440Y-125115167D01*
X107622440Y-124835000D01*
X107578162Y-124599683D01*
X107526774Y-124519824D01*
X107550191Y-124484779D01*
X107634685Y-124060000D01*
X107550191Y-123635221D01*
X107416408Y-123435000D01*
X107550191Y-123234779D01*
X107634685Y-122810000D01*
X107550191Y-122385221D01*
X107416408Y-122185000D01*
X107550191Y-121984779D01*
X107634685Y-121560000D01*
X107595931Y-121365167D01*
X137514838Y-121365167D01*
X137656883Y-121708943D01*
X137919673Y-121972192D01*
X138263201Y-122114838D01*
X138635167Y-122115162D01*
X138978943Y-121973117D01*
X139242192Y-121710327D01*
X139384838Y-121366799D01*
X139385162Y-120994833D01*
X139372905Y-120965167D01*
X145464838Y-120965167D01*
X145606883Y-121308943D01*
X145869673Y-121572192D01*
X146213201Y-121714838D01*
X146585167Y-121715162D01*
X146928943Y-121573117D01*
X147182892Y-121319610D01*
X147924279Y-121319610D01*
X148066324Y-121663386D01*
X148329114Y-121926635D01*
X148672642Y-122069281D01*
X149044608Y-122069605D01*
X149388384Y-121927560D01*
X149651633Y-121664770D01*
X149794279Y-121321242D01*
X149794293Y-121305167D01*
X149864838Y-121305167D01*
X150006883Y-121648943D01*
X150269673Y-121912192D01*
X150613201Y-122054838D01*
X150985167Y-122055162D01*
X151328943Y-121913117D01*
X151592192Y-121650327D01*
X151734838Y-121306799D01*
X151735162Y-120934833D01*
X151706377Y-120865167D01*
X171104838Y-120865167D01*
X171246883Y-121208943D01*
X171509673Y-121472192D01*
X171853201Y-121614838D01*
X172225167Y-121615162D01*
X172568943Y-121473117D01*
X172832192Y-121210327D01*
X172974838Y-120866799D01*
X172975162Y-120494833D01*
X172833117Y-120151057D01*
X172570327Y-119887808D01*
X172226799Y-119745162D01*
X171854833Y-119744838D01*
X171511057Y-119886883D01*
X171247808Y-120149673D01*
X171105162Y-120493201D01*
X171104838Y-120865167D01*
X151706377Y-120865167D01*
X151593117Y-120591057D01*
X151330327Y-120327808D01*
X150986799Y-120185162D01*
X150614833Y-120184838D01*
X150271057Y-120326883D01*
X150007808Y-120589673D01*
X149865162Y-120933201D01*
X149864838Y-121305167D01*
X149794293Y-121305167D01*
X149794603Y-120949276D01*
X149652558Y-120605500D01*
X149389768Y-120342251D01*
X149046240Y-120199605D01*
X148674274Y-120199281D01*
X148330498Y-120341326D01*
X148067249Y-120604116D01*
X147924603Y-120947644D01*
X147924279Y-121319610D01*
X147182892Y-121319610D01*
X147192192Y-121310327D01*
X147334838Y-120966799D01*
X147335162Y-120594833D01*
X147193117Y-120251057D01*
X146930327Y-119987808D01*
X146586799Y-119845162D01*
X146214833Y-119844838D01*
X145871057Y-119986883D01*
X145607808Y-120249673D01*
X145465162Y-120593201D01*
X145464838Y-120965167D01*
X139372905Y-120965167D01*
X139243117Y-120651057D01*
X138980327Y-120387808D01*
X138636799Y-120245162D01*
X138264833Y-120244838D01*
X137921057Y-120386883D01*
X137657808Y-120649673D01*
X137515162Y-120993201D01*
X137514838Y-121365167D01*
X107595931Y-121365167D01*
X107550191Y-121135221D01*
X107309574Y-120775111D01*
X106949464Y-120534494D01*
X106524685Y-120450000D01*
X106175315Y-120450000D01*
X105750536Y-120534494D01*
X105390426Y-120775111D01*
X105149809Y-121135221D01*
X105065315Y-121560000D01*
X100820000Y-121560000D01*
X100820000Y-118724568D01*
X141904838Y-118724568D01*
X142046883Y-119068344D01*
X142309673Y-119331593D01*
X142653201Y-119474239D01*
X143025167Y-119474563D01*
X143368943Y-119332518D01*
X143632192Y-119069728D01*
X143774838Y-118726200D01*
X143775162Y-118354234D01*
X143633117Y-118010458D01*
X143370327Y-117747209D01*
X143026799Y-117604563D01*
X142654833Y-117604239D01*
X142311057Y-117746284D01*
X142047808Y-118009074D01*
X141905162Y-118352602D01*
X141904838Y-118724568D01*
X100820000Y-118724568D01*
X100820000Y-117595750D01*
X105090000Y-117595750D01*
X105090000Y-117911309D01*
X105186673Y-118144698D01*
X105365301Y-118323327D01*
X105598690Y-118420000D01*
X106064250Y-118420000D01*
X106223000Y-118261250D01*
X106223000Y-117437000D01*
X106477000Y-117437000D01*
X106477000Y-118261250D01*
X106635750Y-118420000D01*
X107101310Y-118420000D01*
X107334699Y-118323327D01*
X107513327Y-118144698D01*
X107610000Y-117911309D01*
X107610000Y-117595750D01*
X107451250Y-117437000D01*
X106477000Y-117437000D01*
X106223000Y-117437000D01*
X105248750Y-117437000D01*
X105090000Y-117595750D01*
X100820000Y-117595750D01*
X100820000Y-117375167D01*
X145004838Y-117375167D01*
X145146883Y-117718943D01*
X145409673Y-117982192D01*
X145753201Y-118124838D01*
X146125167Y-118125162D01*
X146468943Y-117983117D01*
X146732192Y-117720327D01*
X146807176Y-117539744D01*
X187681197Y-117539744D01*
X187838003Y-117882820D01*
X188162957Y-118210834D01*
X188588701Y-118389525D01*
X188773000Y-118253465D01*
X188773000Y-117357000D01*
X189027000Y-117357000D01*
X189027000Y-118253465D01*
X189211299Y-118389525D01*
X189637043Y-118210834D01*
X189961997Y-117882820D01*
X190118803Y-117539744D01*
X189993361Y-117357000D01*
X189027000Y-117357000D01*
X188773000Y-117357000D01*
X187806639Y-117357000D01*
X187681197Y-117539744D01*
X146807176Y-117539744D01*
X146874838Y-117376799D01*
X146875162Y-117004833D01*
X146733117Y-116661057D01*
X146470327Y-116397808D01*
X146126799Y-116255162D01*
X145754833Y-116254838D01*
X145411057Y-116396883D01*
X145147808Y-116659673D01*
X145005162Y-117003201D01*
X145004838Y-117375167D01*
X100820000Y-117375167D01*
X100820000Y-113560000D01*
X105065315Y-113560000D01*
X105149809Y-113984779D01*
X105283592Y-114185000D01*
X105149809Y-114385221D01*
X105065315Y-114810000D01*
X105149809Y-115234779D01*
X105283592Y-115435000D01*
X105149809Y-115635221D01*
X105065315Y-116060000D01*
X105149809Y-116484779D01*
X105170142Y-116515210D01*
X105090000Y-116708691D01*
X105090000Y-117024250D01*
X105248750Y-117183000D01*
X106223000Y-117183000D01*
X106223000Y-117170000D01*
X106477000Y-117170000D01*
X106477000Y-117183000D01*
X107451250Y-117183000D01*
X107610000Y-117024250D01*
X107610000Y-116708691D01*
X107529858Y-116515210D01*
X107550191Y-116484779D01*
X107634685Y-116060000D01*
X107550191Y-115635221D01*
X107513406Y-115580167D01*
X128294837Y-115580167D01*
X128436882Y-115923943D01*
X128699672Y-116187192D01*
X129043200Y-116329838D01*
X129415166Y-116330162D01*
X129562984Y-116269085D01*
X129686883Y-116568943D01*
X129949673Y-116832192D01*
X130293201Y-116974838D01*
X130665167Y-116975162D01*
X131008943Y-116833117D01*
X131272192Y-116570327D01*
X131299248Y-116505167D01*
X133694838Y-116505167D01*
X133836883Y-116848943D01*
X134099673Y-117112192D01*
X134443201Y-117254838D01*
X134815167Y-117255162D01*
X135158943Y-117113117D01*
X135422192Y-116850327D01*
X135564838Y-116506799D01*
X135565162Y-116134833D01*
X135423117Y-115791057D01*
X135160327Y-115527808D01*
X134816799Y-115385162D01*
X134444833Y-115384838D01*
X134101057Y-115526883D01*
X133837808Y-115789673D01*
X133695162Y-116133201D01*
X133694838Y-116505167D01*
X131299248Y-116505167D01*
X131414838Y-116226799D01*
X131415162Y-115854833D01*
X131273117Y-115511057D01*
X131167290Y-115405046D01*
X131272192Y-115300327D01*
X131414838Y-114956799D01*
X131415162Y-114584833D01*
X131273117Y-114241057D01*
X131010327Y-113977808D01*
X130666799Y-113835162D01*
X130294833Y-113834838D01*
X129951057Y-113976883D01*
X129687808Y-114239673D01*
X129569861Y-114523720D01*
X129416798Y-114460162D01*
X129044832Y-114459838D01*
X128701056Y-114601883D01*
X128437807Y-114864673D01*
X128295161Y-115208201D01*
X128294837Y-115580167D01*
X107513406Y-115580167D01*
X107416408Y-115435000D01*
X107550191Y-115234779D01*
X107634685Y-114810000D01*
X107550191Y-114385221D01*
X107416408Y-114185000D01*
X107550191Y-113984779D01*
X107634685Y-113560000D01*
X107550191Y-113135221D01*
X107421339Y-112942380D01*
X107458582Y-112860894D01*
X133774838Y-112860894D01*
X133916883Y-113204670D01*
X134179673Y-113467919D01*
X134523201Y-113610565D01*
X134624903Y-113610654D01*
X134624838Y-113685167D01*
X134766883Y-114028943D01*
X135029673Y-114292192D01*
X135373201Y-114434838D01*
X135745167Y-114435162D01*
X136088943Y-114293117D01*
X136194954Y-114187290D01*
X136299673Y-114292192D01*
X136643201Y-114434838D01*
X137015167Y-114435162D01*
X137358943Y-114293117D01*
X137464954Y-114187290D01*
X137569673Y-114292192D01*
X137913201Y-114434838D01*
X138285167Y-114435162D01*
X138628943Y-114293117D01*
X138734954Y-114187290D01*
X138839673Y-114292192D01*
X139183201Y-114434838D01*
X139555167Y-114435162D01*
X139810430Y-114329690D01*
X139705162Y-114583201D01*
X139704838Y-114955167D01*
X139846883Y-115298943D01*
X140109673Y-115562192D01*
X140453201Y-115704838D01*
X140825167Y-115705162D01*
X141168943Y-115563117D01*
X141274954Y-115457290D01*
X141379673Y-115562192D01*
X141723201Y-115704838D01*
X142095167Y-115705162D01*
X142438943Y-115563117D01*
X142702192Y-115300327D01*
X142729248Y-115235167D01*
X159244838Y-115235167D01*
X159386883Y-115578943D01*
X159649673Y-115842192D01*
X159993201Y-115984838D01*
X160365167Y-115985162D01*
X160708943Y-115843117D01*
X160972192Y-115580327D01*
X161114838Y-115236799D01*
X161115162Y-114864833D01*
X160973117Y-114521057D01*
X160710327Y-114257808D01*
X160366799Y-114115162D01*
X159994833Y-114114838D01*
X159651057Y-114256883D01*
X159387808Y-114519673D01*
X159245162Y-114863201D01*
X159244838Y-115235167D01*
X142729248Y-115235167D01*
X142844838Y-114956799D01*
X142845162Y-114584833D01*
X142703117Y-114241057D01*
X142440327Y-113977808D01*
X142096799Y-113835162D01*
X141724833Y-113834838D01*
X141381057Y-113976883D01*
X141275046Y-114082710D01*
X141170327Y-113977808D01*
X140826799Y-113835162D01*
X140454833Y-113834838D01*
X140199570Y-113940310D01*
X140304838Y-113686799D01*
X140305162Y-113314833D01*
X140163117Y-112971057D01*
X139900327Y-112707808D01*
X139556799Y-112565162D01*
X139184833Y-112564838D01*
X138841057Y-112706883D01*
X138735046Y-112812710D01*
X138630327Y-112707808D01*
X138286799Y-112565162D01*
X137914833Y-112564838D01*
X137571057Y-112706883D01*
X137465046Y-112812710D01*
X137360327Y-112707808D01*
X137016799Y-112565162D01*
X136644833Y-112564838D01*
X136301057Y-112706883D01*
X136195046Y-112812710D01*
X136090327Y-112707808D01*
X135746799Y-112565162D01*
X135645097Y-112565073D01*
X135645162Y-112490560D01*
X135503117Y-112146784D01*
X135240327Y-111883535D01*
X134896799Y-111740889D01*
X134524833Y-111740565D01*
X134181057Y-111882610D01*
X133917808Y-112145400D01*
X133775162Y-112488928D01*
X133774838Y-112860894D01*
X107458582Y-112860894D01*
X107568803Y-112619744D01*
X107443361Y-112437000D01*
X106477000Y-112437000D01*
X106477000Y-112450000D01*
X106223000Y-112450000D01*
X106223000Y-112437000D01*
X105256639Y-112437000D01*
X105131197Y-112619744D01*
X105278661Y-112942380D01*
X105149809Y-113135221D01*
X105065315Y-113560000D01*
X100820000Y-113560000D01*
X100820000Y-112000256D01*
X105131197Y-112000256D01*
X105256639Y-112183000D01*
X106223000Y-112183000D01*
X106223000Y-111286535D01*
X106477000Y-111286535D01*
X106477000Y-112183000D01*
X107443361Y-112183000D01*
X107568803Y-112000256D01*
X107411997Y-111657180D01*
X107410539Y-111655708D01*
X128274296Y-111655708D01*
X128416341Y-111999484D01*
X128679131Y-112262733D01*
X129022659Y-112405379D01*
X129394625Y-112405703D01*
X129738401Y-112263658D01*
X130001650Y-112000868D01*
X130144296Y-111657340D01*
X130144620Y-111285374D01*
X130086688Y-111145167D01*
X134624838Y-111145167D01*
X134766883Y-111488943D01*
X135029673Y-111752192D01*
X135373201Y-111894838D01*
X135745167Y-111895162D01*
X136088943Y-111753117D01*
X136194954Y-111647290D01*
X136299673Y-111752192D01*
X136643201Y-111894838D01*
X137015167Y-111895162D01*
X137358943Y-111753117D01*
X137464954Y-111647290D01*
X137569673Y-111752192D01*
X137913201Y-111894838D01*
X138285167Y-111895162D01*
X138628943Y-111753117D01*
X138734954Y-111647290D01*
X138839673Y-111752192D01*
X139183201Y-111894838D01*
X139555167Y-111895162D01*
X139898943Y-111753117D01*
X140004954Y-111647290D01*
X140109673Y-111752192D01*
X140453201Y-111894838D01*
X140825167Y-111895162D01*
X141168943Y-111753117D01*
X141432192Y-111490327D01*
X141574838Y-111146799D01*
X141575031Y-110925167D01*
X145144838Y-110925167D01*
X145286883Y-111268943D01*
X145549673Y-111532192D01*
X145675608Y-111584485D01*
X145563220Y-111855143D01*
X145562896Y-112227109D01*
X145704941Y-112570885D01*
X145967731Y-112834134D01*
X146311259Y-112976780D01*
X146683225Y-112977104D01*
X146808922Y-112925167D01*
X151984838Y-112925167D01*
X152126883Y-113268943D01*
X152338266Y-113480695D01*
X152250162Y-113692871D01*
X152249838Y-114064837D01*
X152391883Y-114408613D01*
X152654673Y-114671862D01*
X152998201Y-114814508D01*
X153370167Y-114814832D01*
X153713943Y-114672787D01*
X153977192Y-114409997D01*
X154119838Y-114066469D01*
X154120162Y-113694503D01*
X153996480Y-113395168D01*
X155639837Y-113395168D01*
X155781882Y-113738944D01*
X156044672Y-114002193D01*
X156388200Y-114144839D01*
X156760166Y-114145163D01*
X157103942Y-114003118D01*
X157367191Y-113740328D01*
X157475289Y-113480000D01*
X187615315Y-113480000D01*
X187699809Y-113904779D01*
X187833592Y-114105000D01*
X187699809Y-114305221D01*
X187615315Y-114730000D01*
X187699809Y-115154779D01*
X187833592Y-115355000D01*
X187699809Y-115555221D01*
X187615315Y-115980000D01*
X187699809Y-116404779D01*
X187828661Y-116597620D01*
X187681197Y-116920256D01*
X187806639Y-117103000D01*
X188773000Y-117103000D01*
X188773000Y-117090000D01*
X189027000Y-117090000D01*
X189027000Y-117103000D01*
X189993361Y-117103000D01*
X190118803Y-116920256D01*
X189971339Y-116597620D01*
X190100191Y-116404779D01*
X190184685Y-115980000D01*
X190100191Y-115555221D01*
X189966408Y-115355000D01*
X190100191Y-115154779D01*
X190184685Y-114730000D01*
X190100191Y-114305221D01*
X189966408Y-114105000D01*
X190100191Y-113904779D01*
X190184685Y-113480000D01*
X190100191Y-113055221D01*
X190079858Y-113024790D01*
X190160000Y-112831309D01*
X190160000Y-112515750D01*
X190001250Y-112357000D01*
X189027000Y-112357000D01*
X189027000Y-112370000D01*
X188773000Y-112370000D01*
X188773000Y-112357000D01*
X187798750Y-112357000D01*
X187640000Y-112515750D01*
X187640000Y-112831309D01*
X187720142Y-113024790D01*
X187699809Y-113055221D01*
X187615315Y-113480000D01*
X157475289Y-113480000D01*
X157509837Y-113396800D01*
X157510161Y-113024834D01*
X157423793Y-112815808D01*
X157638201Y-112904838D01*
X158010167Y-112905162D01*
X158353943Y-112763117D01*
X158617192Y-112500327D01*
X158759838Y-112156799D01*
X158759943Y-112035167D01*
X159289838Y-112035167D01*
X159431883Y-112378943D01*
X159694673Y-112642192D01*
X160038201Y-112784838D01*
X160410167Y-112785162D01*
X160753943Y-112643117D01*
X161017192Y-112380327D01*
X161159838Y-112036799D01*
X161160162Y-111664833D01*
X161145229Y-111628691D01*
X187640000Y-111628691D01*
X187640000Y-111944250D01*
X187798750Y-112103000D01*
X188773000Y-112103000D01*
X188773000Y-111278750D01*
X189027000Y-111278750D01*
X189027000Y-112103000D01*
X190001250Y-112103000D01*
X190160000Y-111944250D01*
X190160000Y-111628691D01*
X190063327Y-111395302D01*
X189884699Y-111216673D01*
X189651310Y-111120000D01*
X189185750Y-111120000D01*
X189027000Y-111278750D01*
X188773000Y-111278750D01*
X188614250Y-111120000D01*
X188148690Y-111120000D01*
X187915301Y-111216673D01*
X187736673Y-111395302D01*
X187640000Y-111628691D01*
X161145229Y-111628691D01*
X161018117Y-111321057D01*
X160755327Y-111057808D01*
X160411799Y-110915162D01*
X160039833Y-110914838D01*
X159696057Y-111056883D01*
X159432808Y-111319673D01*
X159290162Y-111663201D01*
X159289838Y-112035167D01*
X158759943Y-112035167D01*
X158760162Y-111784833D01*
X158618117Y-111441057D01*
X158355327Y-111177808D01*
X158011799Y-111035162D01*
X157639833Y-111034838D01*
X157296057Y-111176883D01*
X157032808Y-111439673D01*
X156890162Y-111783201D01*
X156889838Y-112155167D01*
X156976206Y-112364193D01*
X156761798Y-112275163D01*
X156389832Y-112274839D01*
X156046056Y-112416884D01*
X155782807Y-112679674D01*
X155640161Y-113023202D01*
X155639837Y-113395168D01*
X153996480Y-113395168D01*
X153978117Y-113350727D01*
X153766734Y-113138975D01*
X153854838Y-112926799D01*
X153855162Y-112554833D01*
X153713117Y-112211057D01*
X153450327Y-111947808D01*
X153106799Y-111805162D01*
X152734833Y-111804838D01*
X152391057Y-111946883D01*
X152127808Y-112209673D01*
X151985162Y-112553201D01*
X151984838Y-112925167D01*
X146808922Y-112925167D01*
X147027001Y-112835059D01*
X147290250Y-112572269D01*
X147432896Y-112228741D01*
X147433220Y-111856775D01*
X147291175Y-111512999D01*
X147028385Y-111249750D01*
X146902450Y-111197457D01*
X147014838Y-110926799D01*
X147015162Y-110554833D01*
X146873117Y-110211057D01*
X146812212Y-110150046D01*
X146962192Y-110000327D01*
X147104838Y-109656799D01*
X147104856Y-109635315D01*
X150674690Y-109635315D01*
X150816735Y-109979091D01*
X150972509Y-110135137D01*
X150877808Y-110229673D01*
X150735162Y-110573201D01*
X150734838Y-110945167D01*
X150876883Y-111288943D01*
X151139673Y-111552192D01*
X151483201Y-111694838D01*
X151855167Y-111695162D01*
X152198943Y-111553117D01*
X152462192Y-111290327D01*
X152522467Y-111145167D01*
X154944838Y-111145167D01*
X155086883Y-111488943D01*
X155349673Y-111752192D01*
X155693201Y-111894838D01*
X156065167Y-111895162D01*
X156408943Y-111753117D01*
X156672192Y-111490327D01*
X156814838Y-111146799D01*
X156815162Y-110774833D01*
X156673117Y-110431057D01*
X156410327Y-110167808D01*
X156066799Y-110025162D01*
X155694833Y-110024838D01*
X155351057Y-110166883D01*
X155087808Y-110429673D01*
X154945162Y-110773201D01*
X154944838Y-111145167D01*
X152522467Y-111145167D01*
X152604838Y-110946799D01*
X152605162Y-110574833D01*
X152463117Y-110231057D01*
X152307343Y-110075011D01*
X152402044Y-109980475D01*
X152544690Y-109636947D01*
X152545014Y-109264981D01*
X152520300Y-109205166D01*
X156264838Y-109205166D01*
X156406883Y-109548942D01*
X156669673Y-109812191D01*
X157013201Y-109954837D01*
X157385167Y-109955161D01*
X157728943Y-109813116D01*
X157992192Y-109550326D01*
X158134838Y-109206798D01*
X158135162Y-108834832D01*
X158114641Y-108785167D01*
X162539838Y-108785167D01*
X162681883Y-109128943D01*
X162944673Y-109392192D01*
X163288201Y-109534838D01*
X163660167Y-109535162D01*
X164003943Y-109393117D01*
X164267192Y-109130327D01*
X164409838Y-108786799D01*
X164410162Y-108414833D01*
X164273948Y-108085167D01*
X170174838Y-108085167D01*
X170316883Y-108428943D01*
X170579673Y-108692192D01*
X170923201Y-108834838D01*
X171295167Y-108835162D01*
X171638943Y-108693117D01*
X171902192Y-108430327D01*
X172044838Y-108086799D01*
X172045162Y-107714833D01*
X171903117Y-107371057D01*
X171640327Y-107107808D01*
X171296799Y-106965162D01*
X170924833Y-106964838D01*
X170581057Y-107106883D01*
X170317808Y-107369673D01*
X170175162Y-107713201D01*
X170174838Y-108085167D01*
X164273948Y-108085167D01*
X164268117Y-108071057D01*
X164005327Y-107807808D01*
X163661799Y-107665162D01*
X163289833Y-107664838D01*
X162946057Y-107806883D01*
X162682808Y-108069673D01*
X162540162Y-108413201D01*
X162539838Y-108785167D01*
X158114641Y-108785167D01*
X157993117Y-108491056D01*
X157730327Y-108227807D01*
X157386799Y-108085161D01*
X157014833Y-108084837D01*
X156671057Y-108226882D01*
X156407808Y-108489672D01*
X156265162Y-108833200D01*
X156264838Y-109205166D01*
X152520300Y-109205166D01*
X152402969Y-108921205D01*
X152140179Y-108657956D01*
X151796651Y-108515310D01*
X151424685Y-108514986D01*
X151080909Y-108657031D01*
X150817660Y-108919821D01*
X150675014Y-109263349D01*
X150674690Y-109635315D01*
X147104856Y-109635315D01*
X147105162Y-109284833D01*
X146963117Y-108941057D01*
X146700327Y-108677808D01*
X146356799Y-108535162D01*
X145984833Y-108534838D01*
X145641057Y-108676883D01*
X145377808Y-108939673D01*
X145235162Y-109283201D01*
X145234838Y-109655167D01*
X145376883Y-109998943D01*
X145437788Y-110059954D01*
X145287808Y-110209673D01*
X145145162Y-110553201D01*
X145144838Y-110925167D01*
X141575031Y-110925167D01*
X141575162Y-110774833D01*
X141433117Y-110431057D01*
X141327290Y-110325046D01*
X141432192Y-110220327D01*
X141574838Y-109876799D01*
X141575092Y-109585167D01*
X142034838Y-109585167D01*
X142176883Y-109928943D01*
X142439673Y-110192192D01*
X142783201Y-110334838D01*
X143155167Y-110335162D01*
X143498943Y-110193117D01*
X143762192Y-109930327D01*
X143904838Y-109586799D01*
X143905162Y-109214833D01*
X143763117Y-108871057D01*
X143500327Y-108607808D01*
X143156799Y-108465162D01*
X142784833Y-108464838D01*
X142441057Y-108606883D01*
X142177808Y-108869673D01*
X142035162Y-109213201D01*
X142034838Y-109585167D01*
X141575092Y-109585167D01*
X141575162Y-109504833D01*
X141433117Y-109161057D01*
X141170327Y-108897808D01*
X140826799Y-108755162D01*
X140454833Y-108754838D01*
X140111057Y-108896883D01*
X139847808Y-109159673D01*
X139705162Y-109503201D01*
X139704838Y-109875167D01*
X139810310Y-110130430D01*
X139556799Y-110025162D01*
X139184833Y-110024838D01*
X138841057Y-110166883D01*
X138735046Y-110272710D01*
X138630327Y-110167808D01*
X138286799Y-110025162D01*
X137914833Y-110024838D01*
X137571057Y-110166883D01*
X137465046Y-110272710D01*
X137360327Y-110167808D01*
X137016799Y-110025162D01*
X136644833Y-110024838D01*
X136301057Y-110166883D01*
X136195046Y-110272710D01*
X136090327Y-110167808D01*
X135746799Y-110025162D01*
X135374833Y-110024838D01*
X135031057Y-110166883D01*
X134767808Y-110429673D01*
X134625162Y-110773201D01*
X134624838Y-111145167D01*
X130086688Y-111145167D01*
X130002575Y-110941598D01*
X129739785Y-110678349D01*
X129396257Y-110535703D01*
X129024291Y-110535379D01*
X128680515Y-110677424D01*
X128417266Y-110940214D01*
X128274620Y-111283742D01*
X128274296Y-111655708D01*
X107410539Y-111655708D01*
X107087043Y-111329166D01*
X106661299Y-111150475D01*
X106477000Y-111286535D01*
X106223000Y-111286535D01*
X106038701Y-111150475D01*
X105612957Y-111329166D01*
X105288003Y-111657180D01*
X105131197Y-112000256D01*
X100820000Y-112000256D01*
X100820000Y-110889427D01*
X124463061Y-110889427D01*
X124605106Y-111233203D01*
X124867896Y-111496452D01*
X125211424Y-111639098D01*
X125583390Y-111639422D01*
X125927166Y-111497377D01*
X126190415Y-111234587D01*
X126333061Y-110891059D01*
X126333385Y-110519093D01*
X126191340Y-110175317D01*
X125928550Y-109912068D01*
X125585022Y-109769422D01*
X125213056Y-109769098D01*
X124869280Y-109911143D01*
X124606031Y-110173933D01*
X124463385Y-110517461D01*
X124463061Y-110889427D01*
X100820000Y-110889427D01*
X100820000Y-108605167D01*
X121530778Y-108605167D01*
X121672823Y-108948943D01*
X121935613Y-109212192D01*
X122279141Y-109354838D01*
X122651107Y-109355162D01*
X122994883Y-109213117D01*
X123258132Y-108950327D01*
X123400778Y-108606799D01*
X123400779Y-108605167D01*
X126574827Y-108605167D01*
X126716872Y-108948943D01*
X126979662Y-109212192D01*
X127323190Y-109354838D01*
X127695156Y-109355162D01*
X128038932Y-109213117D01*
X128302181Y-108950327D01*
X128382081Y-108757908D01*
X128414763Y-108837005D01*
X128275161Y-109173202D01*
X128274837Y-109545168D01*
X128416882Y-109888944D01*
X128679672Y-110152193D01*
X129023200Y-110294839D01*
X129395166Y-110295163D01*
X129671243Y-110181091D01*
X129686883Y-110218943D01*
X129949673Y-110482192D01*
X130293201Y-110624838D01*
X130665167Y-110625162D01*
X131008943Y-110483117D01*
X131201824Y-110290572D01*
X132142989Y-110290572D01*
X132285034Y-110634348D01*
X132547824Y-110897597D01*
X132891352Y-111040243D01*
X133263318Y-111040567D01*
X133607094Y-110898522D01*
X133870343Y-110635732D01*
X134012989Y-110292204D01*
X134013313Y-109920238D01*
X133871268Y-109576462D01*
X133608478Y-109313213D01*
X133264950Y-109170567D01*
X132892984Y-109170243D01*
X132549208Y-109312288D01*
X132285959Y-109575078D01*
X132143313Y-109918606D01*
X132142989Y-110290572D01*
X131201824Y-110290572D01*
X131272192Y-110220327D01*
X131414838Y-109876799D01*
X131415162Y-109504833D01*
X131273117Y-109161057D01*
X131010327Y-108897808D01*
X130666799Y-108755162D01*
X130294833Y-108754838D01*
X130082842Y-108842431D01*
X130184838Y-108596799D01*
X130185162Y-108224833D01*
X130043117Y-107881057D01*
X129780327Y-107617808D01*
X129436799Y-107475162D01*
X129064833Y-107474838D01*
X128721057Y-107616883D01*
X128457808Y-107879673D01*
X128377908Y-108072092D01*
X128303106Y-107891057D01*
X128040316Y-107627808D01*
X127696788Y-107485162D01*
X127324822Y-107484838D01*
X126981046Y-107626883D01*
X126717797Y-107889673D01*
X126575151Y-108233201D01*
X126574827Y-108605167D01*
X123400779Y-108605167D01*
X123401102Y-108234833D01*
X123259057Y-107891057D01*
X123133387Y-107765167D01*
X124334837Y-107765167D01*
X124476882Y-108108943D01*
X124739672Y-108372192D01*
X125083200Y-108514838D01*
X125455166Y-108515162D01*
X125798942Y-108373117D01*
X126062191Y-108110327D01*
X126204837Y-107766799D01*
X126205161Y-107394833D01*
X126063116Y-107051057D01*
X125800326Y-106787808D01*
X125456798Y-106645162D01*
X125084832Y-106644838D01*
X124741056Y-106786883D01*
X124477807Y-107049673D01*
X124335161Y-107393201D01*
X124334837Y-107765167D01*
X123133387Y-107765167D01*
X122996267Y-107627808D01*
X122652739Y-107485162D01*
X122280773Y-107484838D01*
X121936997Y-107626883D01*
X121673748Y-107889673D01*
X121531102Y-108233201D01*
X121530778Y-108605167D01*
X100820000Y-108605167D01*
X100820000Y-106705547D01*
X101083201Y-106814838D01*
X101455167Y-106815162D01*
X101798943Y-106673117D01*
X102062192Y-106410327D01*
X102204838Y-106066799D01*
X102205000Y-105880000D01*
X105065315Y-105880000D01*
X105149809Y-106304779D01*
X105172526Y-106338777D01*
X105128569Y-106403110D01*
X105077560Y-106655000D01*
X105077560Y-107605000D01*
X105121838Y-107840317D01*
X105260910Y-108056441D01*
X105473110Y-108201431D01*
X105725000Y-108252440D01*
X106975000Y-108252440D01*
X107210317Y-108208162D01*
X107426441Y-108069090D01*
X107571431Y-107856890D01*
X107622440Y-107605000D01*
X107622440Y-106655000D01*
X107578162Y-106419683D01*
X107526774Y-106339824D01*
X107550191Y-106304779D01*
X107597852Y-106065167D01*
X118114838Y-106065167D01*
X118256883Y-106408943D01*
X118519673Y-106672192D01*
X118863201Y-106814838D01*
X119235167Y-106815162D01*
X119578943Y-106673117D01*
X119842192Y-106410327D01*
X119984838Y-106066799D01*
X119985162Y-105694833D01*
X119843117Y-105351057D01*
X119580327Y-105087808D01*
X119236799Y-104945162D01*
X118864833Y-104944838D01*
X118521057Y-105086883D01*
X118257808Y-105349673D01*
X118115162Y-105693201D01*
X118114838Y-106065167D01*
X107597852Y-106065167D01*
X107634685Y-105880000D01*
X107550191Y-105455221D01*
X107309574Y-105095111D01*
X106949464Y-104854494D01*
X106524685Y-104770000D01*
X106175315Y-104770000D01*
X105750536Y-104854494D01*
X105390426Y-105095111D01*
X105149809Y-105455221D01*
X105065315Y-105880000D01*
X102205000Y-105880000D01*
X102205162Y-105694833D01*
X102063117Y-105351057D01*
X101800327Y-105087808D01*
X101456799Y-104945162D01*
X101084833Y-104944838D01*
X100820000Y-105054264D01*
X100820000Y-104165547D01*
X101083201Y-104274838D01*
X101455167Y-104275162D01*
X101798943Y-104133117D01*
X101811915Y-104120167D01*
X128274837Y-104120167D01*
X128416882Y-104463943D01*
X128551786Y-104599083D01*
X128525162Y-104663201D01*
X128524838Y-105035167D01*
X128666883Y-105378943D01*
X128929673Y-105642192D01*
X129273201Y-105784838D01*
X129645167Y-105785162D01*
X129988943Y-105643117D01*
X130252192Y-105380327D01*
X130394838Y-105036799D01*
X130395162Y-104664833D01*
X130253117Y-104321057D01*
X130118213Y-104185917D01*
X130144837Y-104121799D01*
X130145161Y-103749833D01*
X130039936Y-103495167D01*
X130114838Y-103495167D01*
X130256883Y-103838943D01*
X130519673Y-104102192D01*
X130863201Y-104244838D01*
X131235167Y-104245162D01*
X131578943Y-104103117D01*
X131842192Y-103840327D01*
X131984838Y-103496799D01*
X131984839Y-103495167D01*
X132084838Y-103495167D01*
X132226883Y-103838943D01*
X132489673Y-104102192D01*
X132833201Y-104244838D01*
X133205167Y-104245162D01*
X133548943Y-104103117D01*
X133812192Y-103840327D01*
X133954838Y-103496799D01*
X133955162Y-103124833D01*
X133813117Y-102781057D01*
X133550327Y-102517808D01*
X133206799Y-102375162D01*
X132834833Y-102374838D01*
X132491057Y-102516883D01*
X132227808Y-102779673D01*
X132085162Y-103123201D01*
X132084838Y-103495167D01*
X131984839Y-103495167D01*
X131985162Y-103124833D01*
X131843117Y-102781057D01*
X131580327Y-102517808D01*
X131549777Y-102505122D01*
X131595167Y-102505162D01*
X131938943Y-102363117D01*
X132047081Y-102255167D01*
X134624838Y-102255167D01*
X134766883Y-102598943D01*
X135029673Y-102862192D01*
X135154620Y-102914075D01*
X135278523Y-103213943D01*
X135451092Y-103386813D01*
X135207808Y-103629673D01*
X135065162Y-103973201D01*
X135064838Y-104345167D01*
X135206883Y-104688943D01*
X135469673Y-104952192D01*
X135813201Y-105094838D01*
X136018733Y-105095017D01*
X136036883Y-105138943D01*
X136142710Y-105244954D01*
X136037808Y-105349673D01*
X135895162Y-105693201D01*
X135894838Y-106065167D01*
X136036883Y-106408943D01*
X136299673Y-106672192D01*
X136384416Y-106707381D01*
X136523480Y-107043942D01*
X136708367Y-107229152D01*
X136665162Y-107333201D01*
X136664838Y-107705167D01*
X136806883Y-108048943D01*
X137069673Y-108312192D01*
X137413201Y-108454838D01*
X137785167Y-108455162D01*
X138123981Y-108315167D01*
X147604838Y-108315167D01*
X147746883Y-108658943D01*
X148009673Y-108922192D01*
X148353201Y-109064838D01*
X148725167Y-109065162D01*
X149068943Y-108923117D01*
X149332192Y-108660327D01*
X149474838Y-108316799D01*
X149475162Y-107944833D01*
X149333117Y-107601057D01*
X149070327Y-107337808D01*
X148726799Y-107195162D01*
X148354833Y-107194838D01*
X148011057Y-107336883D01*
X147747808Y-107599673D01*
X147605162Y-107943201D01*
X147604838Y-108315167D01*
X138123981Y-108315167D01*
X138128943Y-108313117D01*
X138392192Y-108050327D01*
X138534838Y-107706799D01*
X138535161Y-107335166D01*
X138664838Y-107335166D01*
X138806883Y-107678942D01*
X139069673Y-107942191D01*
X139413201Y-108084837D01*
X139785167Y-108085161D01*
X140128943Y-107943116D01*
X140392192Y-107680326D01*
X140534838Y-107336798D01*
X140535162Y-106964832D01*
X140393117Y-106621056D01*
X140130327Y-106357807D01*
X139786799Y-106215161D01*
X139414833Y-106214837D01*
X139071057Y-106356882D01*
X138807808Y-106619672D01*
X138665162Y-106963200D01*
X138664838Y-107335166D01*
X138535161Y-107335166D01*
X138535162Y-107334833D01*
X138393117Y-106991057D01*
X138208230Y-106805847D01*
X138251435Y-106701798D01*
X138251759Y-106329832D01*
X138142402Y-106065167D01*
X143514838Y-106065167D01*
X143656883Y-106408943D01*
X143919673Y-106672192D01*
X144263201Y-106814838D01*
X144635167Y-106815162D01*
X144978943Y-106673117D01*
X145242192Y-106410327D01*
X145384838Y-106066799D01*
X145385162Y-105694833D01*
X145243117Y-105351057D01*
X144980327Y-105087808D01*
X144636799Y-104945162D01*
X144264833Y-104944838D01*
X143921057Y-105086883D01*
X143657808Y-105349673D01*
X143515162Y-105693201D01*
X143514838Y-106065167D01*
X138142402Y-106065167D01*
X138109714Y-105986056D01*
X138003887Y-105880045D01*
X138108789Y-105775326D01*
X138251435Y-105431798D01*
X138251759Y-105059832D01*
X138109714Y-104716056D01*
X137892264Y-104498226D01*
X140001779Y-104498226D01*
X140143824Y-104842002D01*
X140406614Y-105105251D01*
X140750142Y-105247897D01*
X141122108Y-105248221D01*
X141465884Y-105106176D01*
X141729133Y-104843386D01*
X141871779Y-104499858D01*
X141872103Y-104127892D01*
X141730058Y-103784116D01*
X141467268Y-103520867D01*
X141123740Y-103378221D01*
X140751774Y-103377897D01*
X140407998Y-103519942D01*
X140144749Y-103782732D01*
X140002103Y-104126260D01*
X140001779Y-104498226D01*
X137892264Y-104498226D01*
X137846924Y-104452807D01*
X137762181Y-104417618D01*
X137623117Y-104081057D01*
X137360327Y-103817808D01*
X137016799Y-103675162D01*
X136811267Y-103674983D01*
X136793117Y-103631057D01*
X136620548Y-103458187D01*
X136863832Y-103215327D01*
X137006478Y-102871799D01*
X137006802Y-102499833D01*
X136864757Y-102156057D01*
X136667271Y-101958226D01*
X137461779Y-101958226D01*
X137603824Y-102302002D01*
X137866614Y-102565251D01*
X138210142Y-102707897D01*
X138582108Y-102708221D01*
X138655641Y-102677838D01*
X138839673Y-102862192D01*
X139183201Y-103004838D01*
X139555167Y-103005162D01*
X139898943Y-102863117D01*
X140162192Y-102600327D01*
X140304838Y-102256799D01*
X140304839Y-102255167D01*
X160024838Y-102255167D01*
X160166883Y-102598943D01*
X160272710Y-102704954D01*
X160167808Y-102809673D01*
X160025162Y-103153201D01*
X160024838Y-103525167D01*
X160166883Y-103868943D01*
X160429673Y-104132192D01*
X160773201Y-104274838D01*
X161145167Y-104275162D01*
X161488943Y-104133117D01*
X161752192Y-103870327D01*
X161894838Y-103526799D01*
X161894839Y-103525167D01*
X163834838Y-103525167D01*
X163976883Y-103868943D01*
X164239673Y-104132192D01*
X164583201Y-104274838D01*
X164955167Y-104275162D01*
X165298943Y-104133117D01*
X165562192Y-103870327D01*
X165704838Y-103526799D01*
X165705162Y-103154833D01*
X165563117Y-102811057D01*
X165300327Y-102547808D01*
X164956799Y-102405162D01*
X164584833Y-102404838D01*
X164241057Y-102546883D01*
X163977808Y-102809673D01*
X163835162Y-103153201D01*
X163834838Y-103525167D01*
X161894839Y-103525167D01*
X161895162Y-103154833D01*
X161753117Y-102811057D01*
X161647290Y-102705046D01*
X161752192Y-102600327D01*
X161894838Y-102256799D01*
X161894839Y-102255167D01*
X191774838Y-102255167D01*
X191916883Y-102598943D01*
X192179673Y-102862192D01*
X192523201Y-103004838D01*
X192895167Y-103005162D01*
X193238943Y-102863117D01*
X193502192Y-102600327D01*
X193644838Y-102256799D01*
X193645162Y-101884833D01*
X193503117Y-101541057D01*
X193240327Y-101277808D01*
X192896799Y-101135162D01*
X192524833Y-101134838D01*
X192181057Y-101276883D01*
X191917808Y-101539673D01*
X191775162Y-101883201D01*
X191774838Y-102255167D01*
X161894839Y-102255167D01*
X161895162Y-101884833D01*
X161753117Y-101541057D01*
X161490327Y-101277808D01*
X161146799Y-101135162D01*
X160774833Y-101134838D01*
X160431057Y-101276883D01*
X160167808Y-101539673D01*
X160025162Y-101883201D01*
X160024838Y-102255167D01*
X140304839Y-102255167D01*
X140305162Y-101884833D01*
X140163117Y-101541057D01*
X139900327Y-101277808D01*
X139556799Y-101135162D01*
X139184833Y-101134838D01*
X139111300Y-101165221D01*
X138927268Y-100980867D01*
X138583740Y-100838221D01*
X138211774Y-100837897D01*
X137867998Y-100979942D01*
X137604749Y-101242732D01*
X137462103Y-101586260D01*
X137461779Y-101958226D01*
X136667271Y-101958226D01*
X136601967Y-101892808D01*
X136477020Y-101840925D01*
X136353117Y-101541057D01*
X136090327Y-101277808D01*
X135746799Y-101135162D01*
X135374833Y-101134838D01*
X135031057Y-101276883D01*
X134767808Y-101539673D01*
X134625162Y-101883201D01*
X134624838Y-102255167D01*
X132047081Y-102255167D01*
X132202192Y-102100327D01*
X132344838Y-101756799D01*
X132345162Y-101384833D01*
X132203117Y-101041057D01*
X131940327Y-100777808D01*
X131596799Y-100635162D01*
X131224833Y-100634838D01*
X130881057Y-100776883D01*
X130617808Y-101039673D01*
X130475162Y-101383201D01*
X130474838Y-101755167D01*
X130616883Y-102098943D01*
X130879673Y-102362192D01*
X130910223Y-102374878D01*
X130864833Y-102374838D01*
X130521057Y-102516883D01*
X130257808Y-102779673D01*
X130115162Y-103123201D01*
X130114838Y-103495167D01*
X130039936Y-103495167D01*
X130003116Y-103406057D01*
X129740326Y-103142808D01*
X129396798Y-103000162D01*
X129024832Y-102999838D01*
X128681056Y-103141883D01*
X128417807Y-103404673D01*
X128275161Y-103748201D01*
X128274837Y-104120167D01*
X101811915Y-104120167D01*
X102062192Y-103870327D01*
X102204838Y-103526799D01*
X102205162Y-103154833D01*
X102063117Y-102811057D01*
X101800327Y-102547808D01*
X101456799Y-102405162D01*
X101084833Y-102404838D01*
X100820000Y-102514264D01*
X100820000Y-102255167D01*
X116844838Y-102255167D01*
X116986883Y-102598943D01*
X117249673Y-102862192D01*
X117593201Y-103004838D01*
X117965167Y-103005162D01*
X118308943Y-102863117D01*
X118366994Y-102805167D01*
X126834838Y-102805167D01*
X126976883Y-103148943D01*
X127239673Y-103412192D01*
X127583201Y-103554838D01*
X127955167Y-103555162D01*
X128298943Y-103413117D01*
X128562192Y-103150327D01*
X128704838Y-102806799D01*
X128705162Y-102434833D01*
X128563117Y-102091057D01*
X128300327Y-101827808D01*
X127956799Y-101685162D01*
X127584833Y-101684838D01*
X127241057Y-101826883D01*
X126977808Y-102089673D01*
X126835162Y-102433201D01*
X126834838Y-102805167D01*
X118366994Y-102805167D01*
X118572192Y-102600327D01*
X118714838Y-102256799D01*
X118715162Y-101884833D01*
X118573117Y-101541057D01*
X118310327Y-101277808D01*
X117966799Y-101135162D01*
X117594833Y-101134838D01*
X117251057Y-101276883D01*
X116987808Y-101539673D01*
X116845162Y-101883201D01*
X116844838Y-102255167D01*
X100820000Y-102255167D01*
X100820000Y-100325000D01*
X105077560Y-100325000D01*
X105077560Y-101275000D01*
X105121838Y-101510317D01*
X105260910Y-101726441D01*
X105473110Y-101871431D01*
X105725000Y-101922440D01*
X106975000Y-101922440D01*
X107210317Y-101878162D01*
X107426441Y-101739090D01*
X107571431Y-101526890D01*
X107622440Y-101275000D01*
X107622440Y-100325000D01*
X107578162Y-100089683D01*
X107511241Y-99985684D01*
X107568803Y-99859744D01*
X107443361Y-99677000D01*
X106477000Y-99677000D01*
X106477000Y-99677560D01*
X106223000Y-99677560D01*
X106223000Y-99677000D01*
X105256639Y-99677000D01*
X105131197Y-99859744D01*
X105188577Y-99985286D01*
X105128569Y-100073110D01*
X105077560Y-100325000D01*
X100820000Y-100325000D01*
X100820000Y-99455167D01*
X127674838Y-99455167D01*
X127816883Y-99798943D01*
X128079673Y-100062192D01*
X128423201Y-100204838D01*
X128795167Y-100205162D01*
X129138943Y-100063117D01*
X129402192Y-99800327D01*
X129437553Y-99715167D01*
X135894838Y-99715167D01*
X136036883Y-100058943D01*
X136299673Y-100322192D01*
X136643201Y-100464838D01*
X137015167Y-100465162D01*
X137358943Y-100323117D01*
X137622192Y-100060327D01*
X137764838Y-99716799D01*
X137764839Y-99715167D01*
X147324838Y-99715167D01*
X147466883Y-100058943D01*
X147729673Y-100322192D01*
X148073201Y-100464838D01*
X148445167Y-100465162D01*
X148788943Y-100323117D01*
X148894954Y-100217290D01*
X148999673Y-100322192D01*
X149343201Y-100464838D01*
X149715167Y-100465162D01*
X150058943Y-100323117D01*
X150322192Y-100060327D01*
X150464838Y-99716799D01*
X150464882Y-99665167D01*
X151864838Y-99665167D01*
X152006883Y-100008943D01*
X152269673Y-100272192D01*
X152613201Y-100414838D01*
X152985167Y-100415162D01*
X153328943Y-100273117D01*
X153592192Y-100010327D01*
X153734838Y-99666799D01*
X153735162Y-99294833D01*
X153593117Y-98951057D01*
X153330327Y-98687808D01*
X152986799Y-98545162D01*
X152614833Y-98544838D01*
X152271057Y-98686883D01*
X152007808Y-98949673D01*
X151865162Y-99293201D01*
X151864838Y-99665167D01*
X150464882Y-99665167D01*
X150465162Y-99344833D01*
X150323117Y-99001057D01*
X150060327Y-98737808D01*
X149716799Y-98595162D01*
X149344833Y-98594838D01*
X149001057Y-98736883D01*
X148895046Y-98842710D01*
X148790327Y-98737808D01*
X148446799Y-98595162D01*
X148074833Y-98594838D01*
X147731057Y-98736883D01*
X147467808Y-98999673D01*
X147325162Y-99343201D01*
X147324838Y-99715167D01*
X137764839Y-99715167D01*
X137765162Y-99344833D01*
X137623117Y-99001057D01*
X137360327Y-98737808D01*
X137016799Y-98595162D01*
X136644833Y-98594838D01*
X136301057Y-98736883D01*
X136037808Y-98999673D01*
X135895162Y-99343201D01*
X135894838Y-99715167D01*
X129437553Y-99715167D01*
X129544838Y-99456799D01*
X129545162Y-99084833D01*
X129403117Y-98741057D01*
X129140327Y-98477808D01*
X129061720Y-98445167D01*
X142244838Y-98445167D01*
X142386883Y-98788943D01*
X142649673Y-99052192D01*
X142993201Y-99194838D01*
X143365167Y-99195162D01*
X143708943Y-99053117D01*
X143972192Y-98790327D01*
X144114838Y-98446799D01*
X144115162Y-98074833D01*
X143973117Y-97731057D01*
X143710327Y-97467808D01*
X143366799Y-97325162D01*
X142994833Y-97324838D01*
X142651057Y-97466883D01*
X142387808Y-97729673D01*
X142245162Y-98073201D01*
X142244838Y-98445167D01*
X129061720Y-98445167D01*
X128796799Y-98335162D01*
X128424833Y-98334838D01*
X128081057Y-98476883D01*
X127817808Y-98739673D01*
X127675162Y-99083201D01*
X127674838Y-99455167D01*
X100820000Y-99455167D01*
X100820000Y-99240256D01*
X105131197Y-99240256D01*
X105256639Y-99423000D01*
X106223000Y-99423000D01*
X106223000Y-98526535D01*
X106477000Y-98526535D01*
X106477000Y-99423000D01*
X107443361Y-99423000D01*
X107568803Y-99240256D01*
X107411997Y-98897180D01*
X107087043Y-98569166D01*
X106661299Y-98390475D01*
X106477000Y-98526535D01*
X106223000Y-98526535D01*
X106038701Y-98390475D01*
X105612957Y-98569166D01*
X105288003Y-98897180D01*
X105131197Y-99240256D01*
X100820000Y-99240256D01*
X100820000Y-98195255D01*
X111764838Y-98195255D01*
X111906883Y-98539031D01*
X112169673Y-98802280D01*
X112513201Y-98944926D01*
X112885167Y-98945250D01*
X113228943Y-98803205D01*
X113492192Y-98540415D01*
X113634838Y-98196887D01*
X113635162Y-97824921D01*
X113493117Y-97481145D01*
X113230327Y-97217896D01*
X113127425Y-97175167D01*
X130814838Y-97175167D01*
X130956883Y-97518943D01*
X131219673Y-97782192D01*
X131563201Y-97924838D01*
X131935167Y-97925162D01*
X132278943Y-97783117D01*
X132542192Y-97520327D01*
X132684838Y-97176799D01*
X132684839Y-97175167D01*
X134624838Y-97175167D01*
X134766883Y-97518943D01*
X135029673Y-97782192D01*
X135373201Y-97924838D01*
X135745167Y-97925162D01*
X136088943Y-97783117D01*
X136352192Y-97520327D01*
X136494838Y-97176799D01*
X136494839Y-97175167D01*
X137164838Y-97175167D01*
X137306883Y-97518943D01*
X137569673Y-97782192D01*
X137913201Y-97924838D01*
X138285167Y-97925162D01*
X138628943Y-97783117D01*
X138892192Y-97520327D01*
X139034838Y-97176799D01*
X139034839Y-97175167D01*
X139704838Y-97175167D01*
X139846883Y-97518943D01*
X140109673Y-97782192D01*
X140453201Y-97924838D01*
X140825167Y-97925162D01*
X141168943Y-97783117D01*
X141432192Y-97520327D01*
X141574838Y-97176799D01*
X141575135Y-96835167D01*
X152244838Y-96835167D01*
X152386883Y-97178943D01*
X152649673Y-97442192D01*
X152993201Y-97584838D01*
X153365167Y-97585162D01*
X153560844Y-97504310D01*
X153482368Y-97582649D01*
X153339722Y-97926177D01*
X153339398Y-98298143D01*
X153481443Y-98641919D01*
X153744233Y-98905168D01*
X154087761Y-99047814D01*
X154459727Y-99048138D01*
X154803503Y-98906093D01*
X155066752Y-98643303D01*
X155209398Y-98299775D01*
X155209402Y-98295167D01*
X159074838Y-98295167D01*
X159216883Y-98638943D01*
X159479673Y-98902192D01*
X159823201Y-99044838D01*
X160195167Y-99045162D01*
X160538943Y-98903117D01*
X160802192Y-98640327D01*
X160944838Y-98296799D01*
X160944839Y-98295167D01*
X161614838Y-98295167D01*
X161756883Y-98638943D01*
X162019673Y-98902192D01*
X162363201Y-99044838D01*
X162735167Y-99045162D01*
X163078943Y-98903117D01*
X163342192Y-98640327D01*
X163484838Y-98296799D01*
X163485162Y-97924833D01*
X163343117Y-97581057D01*
X163080327Y-97317808D01*
X162736799Y-97175162D01*
X162364833Y-97174838D01*
X162021057Y-97316883D01*
X161757808Y-97579673D01*
X161615162Y-97923201D01*
X161614838Y-98295167D01*
X160944839Y-98295167D01*
X160945162Y-97924833D01*
X160803117Y-97581057D01*
X160540327Y-97317808D01*
X160196799Y-97175162D01*
X159824833Y-97174838D01*
X159481057Y-97316883D01*
X159217808Y-97579673D01*
X159075162Y-97923201D01*
X159074838Y-98295167D01*
X155209402Y-98295167D01*
X155209722Y-97927809D01*
X155067677Y-97584033D01*
X154804887Y-97320784D01*
X154461359Y-97178138D01*
X154089393Y-97177814D01*
X153893716Y-97258666D01*
X153972192Y-97180327D01*
X154114838Y-96836799D01*
X154115162Y-96464833D01*
X153973117Y-96121057D01*
X153710327Y-95857808D01*
X153366799Y-95715162D01*
X152994833Y-95714838D01*
X152651057Y-95856883D01*
X152387808Y-96119673D01*
X152245162Y-96463201D01*
X152244838Y-96835167D01*
X141575135Y-96835167D01*
X141575162Y-96804833D01*
X141433117Y-96461057D01*
X141170327Y-96197808D01*
X140826799Y-96055162D01*
X140454833Y-96054838D01*
X140111057Y-96196883D01*
X139847808Y-96459673D01*
X139705162Y-96803201D01*
X139704838Y-97175167D01*
X139034839Y-97175167D01*
X139035162Y-96804833D01*
X138893117Y-96461057D01*
X138630327Y-96197808D01*
X138286799Y-96055162D01*
X137914833Y-96054838D01*
X137571057Y-96196883D01*
X137307808Y-96459673D01*
X137165162Y-96803201D01*
X137164838Y-97175167D01*
X136494839Y-97175167D01*
X136495162Y-96804833D01*
X136353117Y-96461057D01*
X136090327Y-96197808D01*
X135746799Y-96055162D01*
X135374833Y-96054838D01*
X135031057Y-96196883D01*
X134767808Y-96459673D01*
X134625162Y-96803201D01*
X134624838Y-97175167D01*
X132684839Y-97175167D01*
X132685162Y-96804833D01*
X132543117Y-96461057D01*
X132280327Y-96197808D01*
X131936799Y-96055162D01*
X131564833Y-96054838D01*
X131221057Y-96196883D01*
X130957808Y-96459673D01*
X130815162Y-96803201D01*
X130814838Y-97175167D01*
X113127425Y-97175167D01*
X112886799Y-97075250D01*
X112514833Y-97074926D01*
X112171057Y-97216971D01*
X111907808Y-97479761D01*
X111765162Y-97823289D01*
X111764838Y-98195255D01*
X100820000Y-98195255D01*
X100820000Y-94635167D01*
X133354838Y-94635167D01*
X133496883Y-94978943D01*
X133759673Y-95242192D01*
X134103201Y-95384838D01*
X134475167Y-95385162D01*
X134818943Y-95243117D01*
X135082192Y-94980327D01*
X135224838Y-94636799D01*
X135225162Y-94264833D01*
X135083117Y-93921057D01*
X134820327Y-93657808D01*
X134476799Y-93515162D01*
X134104833Y-93514838D01*
X133761057Y-93656883D01*
X133497808Y-93919673D01*
X133355162Y-94263201D01*
X133354838Y-94635167D01*
X100820000Y-94635167D01*
X100820000Y-91930000D01*
X105065315Y-91930000D01*
X105149809Y-92354779D01*
X105172526Y-92388777D01*
X105128569Y-92453110D01*
X105077560Y-92705000D01*
X105077560Y-93655000D01*
X105121838Y-93890317D01*
X105260910Y-94106441D01*
X105473110Y-94251431D01*
X105725000Y-94302440D01*
X106975000Y-94302440D01*
X107210317Y-94258162D01*
X107426441Y-94119090D01*
X107571431Y-93906890D01*
X107622440Y-93655000D01*
X107622440Y-93315167D01*
X127124838Y-93315167D01*
X127266883Y-93658943D01*
X127529673Y-93922192D01*
X127873201Y-94064838D01*
X128245167Y-94065162D01*
X128307329Y-94039477D01*
X128519673Y-94252192D01*
X128863201Y-94394838D01*
X129235167Y-94395162D01*
X129578943Y-94253117D01*
X129842192Y-93990327D01*
X129984838Y-93646799D01*
X129985083Y-93365167D01*
X135894838Y-93365167D01*
X136036883Y-93708943D01*
X136142710Y-93814954D01*
X136037808Y-93919673D01*
X135895162Y-94263201D01*
X135894838Y-94635167D01*
X136036883Y-94978943D01*
X136299673Y-95242192D01*
X136643201Y-95384838D01*
X137015167Y-95385162D01*
X137358943Y-95243117D01*
X137622192Y-94980327D01*
X137764838Y-94636799D01*
X137765162Y-94264833D01*
X137752905Y-94235167D01*
X142244838Y-94235167D01*
X142386883Y-94578943D01*
X142649673Y-94842192D01*
X142993201Y-94984838D01*
X143365167Y-94985162D01*
X143708943Y-94843117D01*
X143972192Y-94580327D01*
X144114838Y-94236799D01*
X144115162Y-93864833D01*
X143973117Y-93521057D01*
X143967238Y-93515167D01*
X151654838Y-93515167D01*
X151796883Y-93858943D01*
X152059673Y-94122192D01*
X152403201Y-94264838D01*
X152775167Y-94265162D01*
X153118943Y-94123117D01*
X153382192Y-93860327D01*
X153524838Y-93516799D01*
X153524970Y-93365167D01*
X158754838Y-93365167D01*
X158896883Y-93708943D01*
X159159673Y-93972192D01*
X159503201Y-94114838D01*
X159875167Y-94115162D01*
X160218943Y-93973117D01*
X160347116Y-93845167D01*
X168914838Y-93845167D01*
X169056883Y-94188943D01*
X169319673Y-94452192D01*
X169663201Y-94594838D01*
X170035167Y-94595162D01*
X170378943Y-94453117D01*
X170642192Y-94190327D01*
X170784838Y-93846799D01*
X170785162Y-93474833D01*
X170739850Y-93365167D01*
X182884838Y-93365167D01*
X183026883Y-93708943D01*
X183289673Y-93972192D01*
X183633201Y-94114838D01*
X184005167Y-94115162D01*
X184348943Y-93973117D01*
X184612192Y-93710327D01*
X184754838Y-93366799D01*
X184755162Y-92994833D01*
X184613117Y-92651057D01*
X184350327Y-92387808D01*
X184006799Y-92245162D01*
X183634833Y-92244838D01*
X183291057Y-92386883D01*
X183027808Y-92649673D01*
X182885162Y-92993201D01*
X182884838Y-93365167D01*
X170739850Y-93365167D01*
X170643117Y-93131057D01*
X170380327Y-92867808D01*
X170036799Y-92725162D01*
X169664833Y-92724838D01*
X169321057Y-92866883D01*
X169057808Y-93129673D01*
X168915162Y-93473201D01*
X168914838Y-93845167D01*
X160347116Y-93845167D01*
X160482192Y-93710327D01*
X160624838Y-93366799D01*
X160625162Y-92994833D01*
X160483117Y-92651057D01*
X160220327Y-92387808D01*
X159876799Y-92245162D01*
X159504833Y-92244838D01*
X159161057Y-92386883D01*
X158897808Y-92649673D01*
X158755162Y-92993201D01*
X158754838Y-93365167D01*
X153524970Y-93365167D01*
X153525162Y-93144833D01*
X153383117Y-92801057D01*
X153120327Y-92537808D01*
X152776799Y-92395162D01*
X152404833Y-92394838D01*
X152061057Y-92536883D01*
X151797808Y-92799673D01*
X151655162Y-93143201D01*
X151654838Y-93515167D01*
X143967238Y-93515167D01*
X143710327Y-93257808D01*
X143366799Y-93115162D01*
X142994833Y-93114838D01*
X142651057Y-93256883D01*
X142387808Y-93519673D01*
X142245162Y-93863201D01*
X142244838Y-94235167D01*
X137752905Y-94235167D01*
X137659690Y-94009570D01*
X137913201Y-94114838D01*
X138285167Y-94115162D01*
X138628943Y-93973117D01*
X138892192Y-93710327D01*
X139034838Y-93366799D01*
X139035162Y-92994833D01*
X138893117Y-92651057D01*
X138630327Y-92387808D01*
X138286799Y-92245162D01*
X137914833Y-92244838D01*
X137571057Y-92386883D01*
X137465046Y-92492710D01*
X137360327Y-92387808D01*
X137016799Y-92245162D01*
X136644833Y-92244838D01*
X136301057Y-92386883D01*
X136037808Y-92649673D01*
X135895162Y-92993201D01*
X135894838Y-93365167D01*
X129985083Y-93365167D01*
X129985162Y-93274833D01*
X129843117Y-92931057D01*
X129580327Y-92667808D01*
X129236799Y-92525162D01*
X128864833Y-92524838D01*
X128802671Y-92550523D01*
X128590327Y-92337808D01*
X128246799Y-92195162D01*
X127874833Y-92194838D01*
X127531057Y-92336883D01*
X127267808Y-92599673D01*
X127125162Y-92943201D01*
X127124838Y-93315167D01*
X107622440Y-93315167D01*
X107622440Y-92705000D01*
X107578162Y-92469683D01*
X107526774Y-92389824D01*
X107550191Y-92354779D01*
X107634685Y-91930000D01*
X107550191Y-91505221D01*
X107309574Y-91145111D01*
X106949464Y-90904494D01*
X106524685Y-90820000D01*
X106175315Y-90820000D01*
X105750536Y-90904494D01*
X105390426Y-91145111D01*
X105149809Y-91505221D01*
X105065315Y-91930000D01*
X100820000Y-91930000D01*
X100820000Y-90657905D01*
X135894838Y-90657905D01*
X136036883Y-91001681D01*
X136299673Y-91264930D01*
X136643201Y-91407576D01*
X137015167Y-91407900D01*
X137358943Y-91265855D01*
X137622192Y-91003065D01*
X137697664Y-90821307D01*
X142279137Y-90821307D01*
X142421182Y-91165083D01*
X142683972Y-91428332D01*
X142974314Y-91548893D01*
X142833719Y-91887483D01*
X142833395Y-92259449D01*
X142975440Y-92603225D01*
X143238230Y-92866474D01*
X143581758Y-93009120D01*
X143953724Y-93009444D01*
X144297500Y-92867399D01*
X144560749Y-92604609D01*
X144703395Y-92261081D01*
X144703719Y-91889115D01*
X144561674Y-91545339D01*
X144298884Y-91282090D01*
X144008542Y-91161529D01*
X144148211Y-90825167D01*
X144784838Y-90825167D01*
X144926883Y-91168943D01*
X145189673Y-91432192D01*
X145533201Y-91574838D01*
X145905167Y-91575162D01*
X146248943Y-91433117D01*
X146512192Y-91170327D01*
X146654838Y-90826799D01*
X146655162Y-90454833D01*
X146513117Y-90111057D01*
X146250327Y-89847808D01*
X146171720Y-89815167D01*
X167474838Y-89815167D01*
X167616883Y-90158943D01*
X167879673Y-90422192D01*
X168223201Y-90564838D01*
X168595167Y-90565162D01*
X168938943Y-90423117D01*
X169202192Y-90160327D01*
X169344838Y-89816799D01*
X169345162Y-89444833D01*
X169203117Y-89101057D01*
X168940327Y-88837808D01*
X168596799Y-88695162D01*
X168224833Y-88694838D01*
X167881057Y-88836883D01*
X167617808Y-89099673D01*
X167475162Y-89443201D01*
X167474838Y-89815167D01*
X146171720Y-89815167D01*
X145906799Y-89705162D01*
X145534833Y-89704838D01*
X145191057Y-89846883D01*
X144927808Y-90109673D01*
X144785162Y-90453201D01*
X144784838Y-90825167D01*
X144148211Y-90825167D01*
X144149137Y-90822939D01*
X144149461Y-90450973D01*
X144007416Y-90107197D01*
X143744626Y-89843948D01*
X143401098Y-89701302D01*
X143029132Y-89700978D01*
X142685356Y-89843023D01*
X142422107Y-90105813D01*
X142279461Y-90449341D01*
X142279137Y-90821307D01*
X137697664Y-90821307D01*
X137764838Y-90659537D01*
X137765162Y-90287571D01*
X137623117Y-89943795D01*
X137360327Y-89680546D01*
X137016799Y-89537900D01*
X136644833Y-89537576D01*
X136301057Y-89679621D01*
X136037808Y-89942411D01*
X135895162Y-90285939D01*
X135894838Y-90657905D01*
X100820000Y-90657905D01*
X100820000Y-85560000D01*
X105065315Y-85560000D01*
X105149809Y-85984779D01*
X105172526Y-86018777D01*
X105128569Y-86083110D01*
X105077560Y-86335000D01*
X105077560Y-87285000D01*
X105121838Y-87520317D01*
X105260910Y-87736441D01*
X105473110Y-87881431D01*
X105725000Y-87932440D01*
X106685145Y-87932440D01*
X106684838Y-88285167D01*
X106826883Y-88628943D01*
X107089673Y-88892192D01*
X107433201Y-89034838D01*
X107805167Y-89035162D01*
X108148943Y-88893117D01*
X108412192Y-88630327D01*
X108554838Y-88286799D01*
X108554839Y-88285167D01*
X138434838Y-88285167D01*
X138576883Y-88628943D01*
X138839673Y-88892192D01*
X139183201Y-89034838D01*
X139555167Y-89035162D01*
X139717337Y-88968155D01*
X139846883Y-89281682D01*
X140109673Y-89544931D01*
X140453201Y-89687577D01*
X140825167Y-89687901D01*
X141168943Y-89545856D01*
X141432192Y-89283066D01*
X141574838Y-88939538D01*
X141574839Y-88937906D01*
X144784838Y-88937906D01*
X144926883Y-89281682D01*
X145189673Y-89544931D01*
X145533201Y-89687577D01*
X145905167Y-89687901D01*
X146248943Y-89545856D01*
X146512192Y-89283066D01*
X146654838Y-88939538D01*
X146655162Y-88567572D01*
X146513117Y-88223796D01*
X146250327Y-87960547D01*
X145906799Y-87817901D01*
X145534833Y-87817577D01*
X145191057Y-87959622D01*
X144927808Y-88222412D01*
X144785162Y-88565940D01*
X144784838Y-88937906D01*
X141574839Y-88937906D01*
X141575162Y-88567572D01*
X141433117Y-88223796D01*
X141170327Y-87960547D01*
X140826799Y-87817901D01*
X140454833Y-87817577D01*
X140292663Y-87884584D01*
X140163117Y-87571057D01*
X139900327Y-87307808D01*
X139556799Y-87165162D01*
X139184833Y-87164838D01*
X138841057Y-87306883D01*
X138577808Y-87569673D01*
X138435162Y-87913201D01*
X138434838Y-88285167D01*
X108554839Y-88285167D01*
X108555162Y-87914833D01*
X108413117Y-87571057D01*
X108150327Y-87307808D01*
X107806799Y-87165162D01*
X107622440Y-87165001D01*
X107622440Y-86335000D01*
X107578162Y-86099683D01*
X107526774Y-86019824D01*
X107550191Y-85984779D01*
X107634685Y-85560000D01*
X107623669Y-85504615D01*
X134384286Y-85504615D01*
X134526331Y-85848391D01*
X134789121Y-86111640D01*
X135132649Y-86254286D01*
X135504615Y-86254610D01*
X135848391Y-86112565D01*
X136111640Y-85849775D01*
X136131030Y-85803077D01*
X139059838Y-85803077D01*
X139201883Y-86146853D01*
X139464673Y-86410102D01*
X139808201Y-86552748D01*
X140180167Y-86553072D01*
X140523943Y-86411027D01*
X140787192Y-86148237D01*
X140929838Y-85804709D01*
X140929889Y-85745167D01*
X142244838Y-85745167D01*
X142386883Y-86088943D01*
X142649673Y-86352192D01*
X142993201Y-86494838D01*
X143365167Y-86495162D01*
X143708943Y-86353117D01*
X143972192Y-86090327D01*
X144114838Y-85746799D01*
X144115162Y-85374833D01*
X144044110Y-85202873D01*
X144231925Y-85125270D01*
X144442713Y-85212797D01*
X144814679Y-85213121D01*
X145158455Y-85071076D01*
X145421704Y-84808286D01*
X145564350Y-84464758D01*
X145564674Y-84092792D01*
X145422629Y-83749016D01*
X145159839Y-83485767D01*
X144816311Y-83343121D01*
X144444345Y-83342797D01*
X144202587Y-83442689D01*
X143991799Y-83355162D01*
X143619833Y-83354838D01*
X143276057Y-83496883D01*
X143012808Y-83759673D01*
X142870162Y-84103201D01*
X142869838Y-84475167D01*
X142940890Y-84647127D01*
X142651057Y-84766883D01*
X142387808Y-85029673D01*
X142245162Y-85373201D01*
X142244838Y-85745167D01*
X140929889Y-85745167D01*
X140930162Y-85432743D01*
X140788117Y-85088967D01*
X140525327Y-84825718D01*
X140181799Y-84683072D01*
X139809833Y-84682748D01*
X139466057Y-84824793D01*
X139202808Y-85087583D01*
X139060162Y-85431111D01*
X139059838Y-85803077D01*
X136131030Y-85803077D01*
X136254286Y-85506247D01*
X136254610Y-85134281D01*
X136112565Y-84790505D01*
X135849775Y-84527256D01*
X135506247Y-84384610D01*
X135134281Y-84384286D01*
X134790505Y-84526331D01*
X134527256Y-84789121D01*
X134384610Y-85132649D01*
X134384286Y-85504615D01*
X107623669Y-85504615D01*
X107550191Y-85135221D01*
X107309574Y-84775111D01*
X106949464Y-84534494D01*
X106524685Y-84450000D01*
X106175315Y-84450000D01*
X105750536Y-84534494D01*
X105390426Y-84775111D01*
X105149809Y-85135221D01*
X105065315Y-85560000D01*
X100820000Y-85560000D01*
X100820000Y-83205167D01*
X106684838Y-83205167D01*
X106826883Y-83548943D01*
X107089673Y-83812192D01*
X107433201Y-83954838D01*
X107805167Y-83955162D01*
X108148943Y-83813117D01*
X108412192Y-83550327D01*
X108554838Y-83206799D01*
X108555162Y-82834833D01*
X108413117Y-82491057D01*
X108150327Y-82227808D01*
X107806799Y-82085162D01*
X107434833Y-82084838D01*
X107091057Y-82226883D01*
X106827808Y-82489673D01*
X106685162Y-82833201D01*
X106684838Y-83205167D01*
X100820000Y-83205167D01*
X100820000Y-79415750D01*
X105090000Y-79415750D01*
X105090000Y-79731309D01*
X105186673Y-79964698D01*
X105365301Y-80143327D01*
X105598690Y-80240000D01*
X106064250Y-80240000D01*
X106223000Y-80081250D01*
X106223000Y-79257000D01*
X106477000Y-79257000D01*
X106477000Y-80081250D01*
X106635750Y-80240000D01*
X107101310Y-80240000D01*
X107334699Y-80143327D01*
X107513327Y-79964698D01*
X107610000Y-79731309D01*
X107610000Y-79415750D01*
X107589417Y-79395167D01*
X132049838Y-79395167D01*
X132191883Y-79738943D01*
X132454673Y-80002192D01*
X132798201Y-80144838D01*
X133170167Y-80145162D01*
X133513943Y-80003117D01*
X133637485Y-79879790D01*
X133759673Y-80002192D01*
X134103201Y-80144838D01*
X134475167Y-80145162D01*
X134818943Y-80003117D01*
X135082192Y-79740327D01*
X135224838Y-79396799D01*
X135224839Y-79395167D01*
X138602100Y-79395167D01*
X138744145Y-79738943D01*
X139006935Y-80002192D01*
X139350463Y-80144838D01*
X139722429Y-80145162D01*
X140066205Y-80003117D01*
X140329454Y-79740327D01*
X140454267Y-79439744D01*
X187681197Y-79439744D01*
X187838003Y-79782820D01*
X188162957Y-80110834D01*
X188588701Y-80289525D01*
X188773000Y-80153465D01*
X188773000Y-79257000D01*
X189027000Y-79257000D01*
X189027000Y-80153465D01*
X189211299Y-80289525D01*
X189637043Y-80110834D01*
X189961997Y-79782820D01*
X190118803Y-79439744D01*
X189993361Y-79257000D01*
X189027000Y-79257000D01*
X188773000Y-79257000D01*
X187806639Y-79257000D01*
X187681197Y-79439744D01*
X140454267Y-79439744D01*
X140472100Y-79396799D01*
X140472424Y-79024833D01*
X140330379Y-78681057D01*
X140067589Y-78417808D01*
X139778307Y-78297687D01*
X141132318Y-78297687D01*
X141274363Y-78641463D01*
X141537153Y-78904712D01*
X141880681Y-79047358D01*
X142252647Y-79047682D01*
X142596423Y-78905637D01*
X142859672Y-78642847D01*
X143002318Y-78299319D01*
X143002642Y-77927353D01*
X142860597Y-77583577D01*
X142597807Y-77320328D01*
X142254279Y-77177682D01*
X141882313Y-77177358D01*
X141538537Y-77319403D01*
X141275288Y-77582193D01*
X141132642Y-77925721D01*
X141132318Y-78297687D01*
X139778307Y-78297687D01*
X139724061Y-78275162D01*
X139352095Y-78274838D01*
X139008319Y-78416883D01*
X138745070Y-78679673D01*
X138602424Y-79023201D01*
X138602100Y-79395167D01*
X135224839Y-79395167D01*
X135225162Y-79024833D01*
X135083117Y-78681057D01*
X134820327Y-78417808D01*
X134476799Y-78275162D01*
X134104833Y-78274838D01*
X133761057Y-78416883D01*
X133637515Y-78540210D01*
X133515327Y-78417808D01*
X133171799Y-78275162D01*
X132799833Y-78274838D01*
X132456057Y-78416883D01*
X132192808Y-78679673D01*
X132050162Y-79023201D01*
X132049838Y-79395167D01*
X107589417Y-79395167D01*
X107451250Y-79257000D01*
X106477000Y-79257000D01*
X106223000Y-79257000D01*
X105248750Y-79257000D01*
X105090000Y-79415750D01*
X100820000Y-79415750D01*
X100820000Y-75380000D01*
X105065315Y-75380000D01*
X105149809Y-75804779D01*
X105283592Y-76005000D01*
X105149809Y-76205221D01*
X105065315Y-76630000D01*
X105149809Y-77054779D01*
X105283592Y-77255000D01*
X105149809Y-77455221D01*
X105065315Y-77880000D01*
X105149809Y-78304779D01*
X105170142Y-78335210D01*
X105090000Y-78528691D01*
X105090000Y-78844250D01*
X105248750Y-79003000D01*
X106223000Y-79003000D01*
X106223000Y-78990000D01*
X106477000Y-78990000D01*
X106477000Y-79003000D01*
X107451250Y-79003000D01*
X107610000Y-78844250D01*
X107610000Y-78528691D01*
X107529858Y-78335210D01*
X107550191Y-78304779D01*
X107634685Y-77880000D01*
X107550191Y-77455221D01*
X107416408Y-77255000D01*
X107550191Y-77054779D01*
X107634685Y-76630000D01*
X107607734Y-76494505D01*
X139344176Y-76494505D01*
X139486221Y-76838281D01*
X139749011Y-77101530D01*
X140092539Y-77244176D01*
X140464505Y-77244500D01*
X140808281Y-77102455D01*
X140995896Y-76915167D01*
X144584838Y-76915167D01*
X144726883Y-77258943D01*
X144989673Y-77522192D01*
X145333201Y-77664838D01*
X145705167Y-77665162D01*
X146048943Y-77523117D01*
X146312192Y-77260327D01*
X146454838Y-76916799D01*
X146455162Y-76544833D01*
X146313117Y-76201057D01*
X146050327Y-75937808D01*
X145706799Y-75795162D01*
X145334833Y-75794838D01*
X144991057Y-75936883D01*
X144727808Y-76199673D01*
X144585162Y-76543201D01*
X144584838Y-76915167D01*
X140995896Y-76915167D01*
X141071530Y-76839665D01*
X141214176Y-76496137D01*
X141214500Y-76124171D01*
X141072455Y-75780395D01*
X140809665Y-75517146D01*
X140479383Y-75380000D01*
X187615315Y-75380000D01*
X187699809Y-75804779D01*
X187833592Y-76005000D01*
X187699809Y-76205221D01*
X187615315Y-76630000D01*
X187699809Y-77054779D01*
X187833592Y-77255000D01*
X187699809Y-77455221D01*
X187615315Y-77880000D01*
X187699809Y-78304779D01*
X187828661Y-78497620D01*
X187681197Y-78820256D01*
X187806639Y-79003000D01*
X188773000Y-79003000D01*
X188773000Y-78990000D01*
X189027000Y-78990000D01*
X189027000Y-79003000D01*
X189993361Y-79003000D01*
X190118803Y-78820256D01*
X189971339Y-78497620D01*
X190100191Y-78304779D01*
X190184685Y-77880000D01*
X190100191Y-77455221D01*
X189966408Y-77255000D01*
X190100191Y-77054779D01*
X190184685Y-76630000D01*
X190100191Y-76205221D01*
X189966408Y-76005000D01*
X190100191Y-75804779D01*
X190184685Y-75380000D01*
X190100191Y-74955221D01*
X190079858Y-74924790D01*
X190160000Y-74731309D01*
X190160000Y-74415750D01*
X190001250Y-74257000D01*
X189027000Y-74257000D01*
X189027000Y-74270000D01*
X188773000Y-74270000D01*
X188773000Y-74257000D01*
X187798750Y-74257000D01*
X187640000Y-74415750D01*
X187640000Y-74731309D01*
X187720142Y-74924790D01*
X187699809Y-74955221D01*
X187615315Y-75380000D01*
X140479383Y-75380000D01*
X140466137Y-75374500D01*
X140094171Y-75374176D01*
X139750395Y-75516221D01*
X139487146Y-75779011D01*
X139344500Y-76122539D01*
X139344176Y-76494505D01*
X107607734Y-76494505D01*
X107550191Y-76205221D01*
X107416408Y-76005000D01*
X107550191Y-75804779D01*
X107634685Y-75380000D01*
X107550191Y-74955221D01*
X107421339Y-74762380D01*
X107568803Y-74439744D01*
X107443361Y-74257000D01*
X106477000Y-74257000D01*
X106477000Y-74270000D01*
X106223000Y-74270000D01*
X106223000Y-74257000D01*
X105256639Y-74257000D01*
X105131197Y-74439744D01*
X105278661Y-74762380D01*
X105149809Y-74955221D01*
X105065315Y-75380000D01*
X100820000Y-75380000D01*
X100820000Y-73820256D01*
X105131197Y-73820256D01*
X105256639Y-74003000D01*
X106223000Y-74003000D01*
X106223000Y-73106535D01*
X106477000Y-73106535D01*
X106477000Y-74003000D01*
X107443361Y-74003000D01*
X107568803Y-73820256D01*
X107435541Y-73528691D01*
X187640000Y-73528691D01*
X187640000Y-73844250D01*
X187798750Y-74003000D01*
X188773000Y-74003000D01*
X188773000Y-73178750D01*
X189027000Y-73178750D01*
X189027000Y-74003000D01*
X190001250Y-74003000D01*
X190160000Y-73844250D01*
X190160000Y-73528691D01*
X190063327Y-73295302D01*
X189884699Y-73116673D01*
X189651310Y-73020000D01*
X189185750Y-73020000D01*
X189027000Y-73178750D01*
X188773000Y-73178750D01*
X188614250Y-73020000D01*
X188148690Y-73020000D01*
X187915301Y-73116673D01*
X187736673Y-73295302D01*
X187640000Y-73528691D01*
X107435541Y-73528691D01*
X107411997Y-73477180D01*
X107087043Y-73149166D01*
X106661299Y-72970475D01*
X106477000Y-73106535D01*
X106223000Y-73106535D01*
X106038701Y-72970475D01*
X105612957Y-73149166D01*
X105288003Y-73477180D01*
X105131197Y-73820256D01*
X100820000Y-73820256D01*
X100820000Y-71295167D01*
X111139838Y-71295167D01*
X111281883Y-71638943D01*
X111544673Y-71902192D01*
X111888201Y-72044838D01*
X112260167Y-72045162D01*
X112603943Y-71903117D01*
X112867192Y-71640327D01*
X113009838Y-71296799D01*
X113010162Y-70924833D01*
X112868117Y-70581057D01*
X112605327Y-70317808D01*
X112261799Y-70175162D01*
X111889833Y-70174838D01*
X111546057Y-70316883D01*
X111282808Y-70579673D01*
X111140162Y-70923201D01*
X111139838Y-71295167D01*
X100820000Y-71295167D01*
X100820000Y-66130000D01*
X105065315Y-66130000D01*
X105149809Y-66554779D01*
X105283592Y-66755000D01*
X105149809Y-66955221D01*
X105065315Y-67380000D01*
X105149809Y-67804779D01*
X105283592Y-68005000D01*
X105149809Y-68205221D01*
X105065315Y-68630000D01*
X105149809Y-69054779D01*
X105172526Y-69088777D01*
X105128569Y-69153110D01*
X105077560Y-69405000D01*
X105077560Y-70355000D01*
X105121838Y-70590317D01*
X105260910Y-70806441D01*
X105473110Y-70951431D01*
X105725000Y-71002440D01*
X106975000Y-71002440D01*
X107210317Y-70958162D01*
X107426441Y-70819090D01*
X107571431Y-70606890D01*
X107622440Y-70355000D01*
X107622440Y-69405000D01*
X107578162Y-69169683D01*
X107526774Y-69089824D01*
X107550191Y-69054779D01*
X107634685Y-68630000D01*
X107550191Y-68205221D01*
X107416408Y-68005000D01*
X107550191Y-67804779D01*
X107634685Y-67380000D01*
X107550191Y-66955221D01*
X107416408Y-66755000D01*
X107550191Y-66554779D01*
X107634685Y-66130000D01*
X107550191Y-65705221D01*
X107309574Y-65345111D01*
X107055366Y-65175255D01*
X109224838Y-65175255D01*
X109366883Y-65519031D01*
X109629673Y-65782280D01*
X109973201Y-65924926D01*
X110345167Y-65925250D01*
X110688943Y-65783205D01*
X110952192Y-65520415D01*
X111094838Y-65176887D01*
X111095162Y-64804921D01*
X111093198Y-64800166D01*
X116219837Y-64800166D01*
X116361882Y-65143942D01*
X116624672Y-65407191D01*
X116968200Y-65549837D01*
X117340166Y-65550161D01*
X117683942Y-65408116D01*
X117947191Y-65145326D01*
X118089837Y-64801798D01*
X118090161Y-64429832D01*
X117948116Y-64086056D01*
X117685326Y-63822807D01*
X117341798Y-63680161D01*
X116969832Y-63679837D01*
X116626056Y-63821882D01*
X116362807Y-64084672D01*
X116220161Y-64428200D01*
X116219837Y-64800166D01*
X111093198Y-64800166D01*
X110953117Y-64461145D01*
X110690327Y-64197896D01*
X110346799Y-64055250D01*
X109974833Y-64054926D01*
X109631057Y-64196971D01*
X109367808Y-64459761D01*
X109225162Y-64803289D01*
X109224838Y-65175255D01*
X107055366Y-65175255D01*
X106949464Y-65104494D01*
X106524685Y-65020000D01*
X106175315Y-65020000D01*
X105750536Y-65104494D01*
X105390426Y-65345111D01*
X105149809Y-65705221D01*
X105065315Y-66130000D01*
X100820000Y-66130000D01*
X100820000Y-58209482D01*
X101354336Y-58209482D01*
X101936950Y-59619515D01*
X103014811Y-60699259D01*
X104423825Y-61284333D01*
X105949482Y-61285664D01*
X107359515Y-60703050D01*
X107627865Y-60435167D01*
X116734838Y-60435167D01*
X116876883Y-60778943D01*
X117139673Y-61042192D01*
X117483201Y-61184838D01*
X117855167Y-61185162D01*
X118198943Y-61043117D01*
X118462192Y-60780327D01*
X118466410Y-60770167D01*
X130284838Y-60770167D01*
X130426883Y-61113943D01*
X130689673Y-61377192D01*
X131033201Y-61519838D01*
X131405167Y-61520162D01*
X131748943Y-61378117D01*
X132012192Y-61115327D01*
X132154838Y-60771799D01*
X132155162Y-60399833D01*
X132132575Y-60345167D01*
X151134838Y-60345167D01*
X151276883Y-60688943D01*
X151539673Y-60952192D01*
X151883201Y-61094838D01*
X152255167Y-61095162D01*
X152598943Y-60953117D01*
X152862192Y-60690327D01*
X153004838Y-60346799D01*
X153005162Y-59974833D01*
X152863117Y-59631057D01*
X152600327Y-59367808D01*
X152256799Y-59225162D01*
X151884833Y-59224838D01*
X151541057Y-59366883D01*
X151277808Y-59629673D01*
X151135162Y-59973201D01*
X151134838Y-60345167D01*
X132132575Y-60345167D01*
X132013117Y-60056057D01*
X131947238Y-59990063D01*
X132072192Y-59865327D01*
X132214838Y-59521799D01*
X132215162Y-59149833D01*
X132073117Y-58806057D01*
X131810327Y-58542808D01*
X131466799Y-58400162D01*
X131094833Y-58399838D01*
X130751057Y-58541883D01*
X130487808Y-58804673D01*
X130345162Y-59148201D01*
X130344838Y-59520167D01*
X130486883Y-59863943D01*
X130552762Y-59929937D01*
X130427808Y-60054673D01*
X130285162Y-60398201D01*
X130284838Y-60770167D01*
X118466410Y-60770167D01*
X118604838Y-60436799D01*
X118605162Y-60064833D01*
X118483395Y-59770134D01*
X118515167Y-59770162D01*
X118858943Y-59628117D01*
X119122192Y-59365327D01*
X119264838Y-59021799D01*
X119265162Y-58649833D01*
X119123117Y-58306057D01*
X118860327Y-58042808D01*
X118516799Y-57900162D01*
X118144833Y-57899838D01*
X117801057Y-58041883D01*
X117537808Y-58304673D01*
X117395162Y-58648201D01*
X117394838Y-59020167D01*
X117516605Y-59314866D01*
X117484833Y-59314838D01*
X117141057Y-59456883D01*
X116877808Y-59719673D01*
X116735162Y-60063201D01*
X116734838Y-60435167D01*
X107627865Y-60435167D01*
X108439259Y-59625189D01*
X109024333Y-58216175D01*
X109024691Y-57805167D01*
X109224838Y-57805167D01*
X109366883Y-58148943D01*
X109629673Y-58412192D01*
X109973201Y-58554838D01*
X110345167Y-58555162D01*
X110688943Y-58413117D01*
X110952192Y-58150327D01*
X111094838Y-57806799D01*
X111095162Y-57434833D01*
X110953117Y-57091057D01*
X110690327Y-56827808D01*
X110346799Y-56685162D01*
X109974833Y-56684838D01*
X109631057Y-56826883D01*
X109367808Y-57089673D01*
X109225162Y-57433201D01*
X109224838Y-57805167D01*
X109024691Y-57805167D01*
X109025664Y-56690518D01*
X109003035Y-56635750D01*
X128995000Y-56635750D01*
X128995000Y-57326309D01*
X129091673Y-57559698D01*
X129270301Y-57738327D01*
X129503690Y-57835000D01*
X130194250Y-57835000D01*
X130353000Y-57676250D01*
X130353000Y-56477000D01*
X129153750Y-56477000D01*
X128995000Y-56635750D01*
X109003035Y-56635750D01*
X108481562Y-55373691D01*
X128995000Y-55373691D01*
X128995000Y-56064250D01*
X129153750Y-56223000D01*
X130353000Y-56223000D01*
X130353000Y-53937000D01*
X129159181Y-53937000D01*
X129038514Y-54166892D01*
X129284817Y-54691358D01*
X129484208Y-54873070D01*
X129270301Y-54961673D01*
X129091673Y-55140302D01*
X128995000Y-55373691D01*
X108481562Y-55373691D01*
X108443050Y-55280485D01*
X107365189Y-54200741D01*
X105956175Y-53615667D01*
X104430518Y-53614336D01*
X103020485Y-54196950D01*
X101940741Y-55274811D01*
X101355667Y-56683825D01*
X101354336Y-58209482D01*
X100820000Y-58209482D01*
X100820000Y-53453108D01*
X129038514Y-53453108D01*
X129159181Y-53683000D01*
X130353000Y-53683000D01*
X130353000Y-52489845D01*
X130607000Y-52489845D01*
X130607000Y-53683000D01*
X130627000Y-53683000D01*
X130627000Y-53937000D01*
X130607000Y-53937000D01*
X130607000Y-56223000D01*
X130627000Y-56223000D01*
X130627000Y-56477000D01*
X130607000Y-56477000D01*
X130607000Y-57676250D01*
X130765750Y-57835000D01*
X131456310Y-57835000D01*
X131689699Y-57738327D01*
X131868327Y-57559698D01*
X131940597Y-57385223D01*
X131969946Y-57429147D01*
X132087461Y-57507668D01*
X132085162Y-57513204D01*
X132084838Y-57885170D01*
X132226883Y-58228946D01*
X132489673Y-58492195D01*
X132833201Y-58634841D01*
X133205167Y-58635165D01*
X133548943Y-58493120D01*
X133812192Y-58230330D01*
X133954838Y-57886802D01*
X133955162Y-57514836D01*
X133952273Y-57507845D01*
X134070054Y-57429147D01*
X134290000Y-57099974D01*
X134509946Y-57429147D01*
X134991715Y-57751054D01*
X135560000Y-57864093D01*
X136128285Y-57751054D01*
X136610054Y-57429147D01*
X136830000Y-57099974D01*
X137049946Y-57429147D01*
X137531715Y-57751054D01*
X138100000Y-57864093D01*
X138668285Y-57751054D01*
X139150054Y-57429147D01*
X139471961Y-56947378D01*
X139585000Y-56379093D01*
X139585000Y-56320907D01*
X139471961Y-55752622D01*
X139303165Y-55500000D01*
X141422560Y-55500000D01*
X141422560Y-57200000D01*
X141466838Y-57435317D01*
X141605910Y-57651441D01*
X141818110Y-57796431D01*
X142070000Y-57847440D01*
X143278877Y-57847440D01*
X143278705Y-58045149D01*
X143420750Y-58388925D01*
X143683540Y-58652174D01*
X144027068Y-58794820D01*
X144399034Y-58795144D01*
X144742810Y-58653099D01*
X144850680Y-58545417D01*
X144785162Y-58703201D01*
X144784838Y-59075167D01*
X144926883Y-59418943D01*
X145189673Y-59682192D01*
X145533201Y-59824838D01*
X145905167Y-59825162D01*
X146248943Y-59683117D01*
X146512192Y-59420327D01*
X146654838Y-59076799D01*
X146655036Y-58848389D01*
X148594838Y-58848389D01*
X148736883Y-59192165D01*
X148999673Y-59455414D01*
X149343201Y-59598060D01*
X149715167Y-59598384D01*
X150058943Y-59456339D01*
X150322192Y-59193549D01*
X150464838Y-58850021D01*
X150465162Y-58478055D01*
X150323117Y-58134279D01*
X150060327Y-57871030D01*
X149716799Y-57728384D01*
X149344833Y-57728060D01*
X149001057Y-57870105D01*
X148737808Y-58132895D01*
X148595162Y-58476423D01*
X148594838Y-58848389D01*
X146655036Y-58848389D01*
X146655162Y-58704833D01*
X146513117Y-58361057D01*
X146250327Y-58097808D01*
X145906799Y-57955162D01*
X145534833Y-57954838D01*
X145191057Y-58096883D01*
X145083187Y-58204565D01*
X145148705Y-58046781D01*
X145148918Y-57802215D01*
X145460000Y-57864093D01*
X146028285Y-57751054D01*
X146510054Y-57429147D01*
X146730000Y-57099974D01*
X146949946Y-57429147D01*
X147431715Y-57751054D01*
X148000000Y-57864093D01*
X148568285Y-57751054D01*
X149050054Y-57429147D01*
X149270000Y-57099974D01*
X149489946Y-57429147D01*
X149971715Y-57751054D01*
X150540000Y-57864093D01*
X151108285Y-57751054D01*
X151590054Y-57429147D01*
X151817702Y-57088447D01*
X151884817Y-57231358D01*
X152313076Y-57621645D01*
X152723110Y-57791476D01*
X152953000Y-57670155D01*
X152953000Y-56477000D01*
X153207000Y-56477000D01*
X153207000Y-57670155D01*
X153436890Y-57791476D01*
X153846924Y-57621645D01*
X154275183Y-57231358D01*
X154521486Y-56706892D01*
X154400819Y-56477000D01*
X153207000Y-56477000D01*
X152953000Y-56477000D01*
X152933000Y-56477000D01*
X152933000Y-56223000D01*
X152953000Y-56223000D01*
X152953000Y-53937000D01*
X153207000Y-53937000D01*
X153207000Y-56223000D01*
X154400819Y-56223000D01*
X154521486Y-55993108D01*
X154289910Y-55500000D01*
X156922560Y-55500000D01*
X156922560Y-57200000D01*
X156966838Y-57435317D01*
X157105910Y-57651441D01*
X157318110Y-57796431D01*
X157570000Y-57847440D01*
X159270000Y-57847440D01*
X159505317Y-57803162D01*
X159721441Y-57664090D01*
X159866431Y-57451890D01*
X159880086Y-57384459D01*
X159909946Y-57429147D01*
X160391715Y-57751054D01*
X160960000Y-57864093D01*
X161528285Y-57751054D01*
X162010054Y-57429147D01*
X162230000Y-57099974D01*
X162449946Y-57429147D01*
X162931715Y-57751054D01*
X163500000Y-57864093D01*
X164068285Y-57751054D01*
X164550054Y-57429147D01*
X164871961Y-56947378D01*
X164985000Y-56379093D01*
X164985000Y-56320907D01*
X164871961Y-55752622D01*
X164816409Y-55669482D01*
X187084336Y-55669482D01*
X187666950Y-57079515D01*
X188744811Y-58159259D01*
X190153825Y-58744333D01*
X191679482Y-58745664D01*
X193089515Y-58163050D01*
X194169259Y-57085189D01*
X194754333Y-55676175D01*
X194755664Y-54150518D01*
X194173050Y-52740485D01*
X193095189Y-51660741D01*
X191686175Y-51075667D01*
X190160518Y-51074336D01*
X188750485Y-51656950D01*
X187670741Y-52734811D01*
X187085667Y-54143825D01*
X187084336Y-55669482D01*
X164816409Y-55669482D01*
X164550054Y-55270853D01*
X164266899Y-55081655D01*
X164266924Y-55081645D01*
X164695183Y-54691358D01*
X164941486Y-54166892D01*
X164820819Y-53937000D01*
X163627000Y-53937000D01*
X163627000Y-53957000D01*
X163373000Y-53957000D01*
X163373000Y-53937000D01*
X163353000Y-53937000D01*
X163353000Y-53683000D01*
X163373000Y-53683000D01*
X163373000Y-52489845D01*
X163627000Y-52489845D01*
X163627000Y-53683000D01*
X164820819Y-53683000D01*
X164941486Y-53453108D01*
X164695183Y-52928642D01*
X164266924Y-52538355D01*
X163856890Y-52368524D01*
X163627000Y-52489845D01*
X163373000Y-52489845D01*
X163143110Y-52368524D01*
X162733076Y-52538355D01*
X162304817Y-52928642D01*
X162237702Y-53071553D01*
X162010054Y-52730853D01*
X161528285Y-52408946D01*
X160960000Y-52295907D01*
X160391715Y-52408946D01*
X159909946Y-52730853D01*
X159690000Y-53060026D01*
X159470054Y-52730853D01*
X158988285Y-52408946D01*
X158420000Y-52295907D01*
X157851715Y-52408946D01*
X157369946Y-52730853D01*
X157048039Y-53212622D01*
X156935000Y-53780907D01*
X156935000Y-53839093D01*
X157048039Y-54407378D01*
X157369946Y-54889147D01*
X157371179Y-54889971D01*
X157334683Y-54896838D01*
X157118559Y-55035910D01*
X156973569Y-55248110D01*
X156922560Y-55500000D01*
X154289910Y-55500000D01*
X154275183Y-55468642D01*
X153848729Y-55080000D01*
X154275183Y-54691358D01*
X154521486Y-54166892D01*
X154400819Y-53937000D01*
X153207000Y-53937000D01*
X152953000Y-53937000D01*
X152933000Y-53937000D01*
X152933000Y-53683000D01*
X152953000Y-53683000D01*
X152953000Y-52489845D01*
X153207000Y-52489845D01*
X153207000Y-53683000D01*
X154400819Y-53683000D01*
X154521486Y-53453108D01*
X154275183Y-52928642D01*
X153846924Y-52538355D01*
X153436890Y-52368524D01*
X153207000Y-52489845D01*
X152953000Y-52489845D01*
X152723110Y-52368524D01*
X152313076Y-52538355D01*
X151884817Y-52928642D01*
X151817702Y-53071553D01*
X151590054Y-52730853D01*
X151108285Y-52408946D01*
X150540000Y-52295907D01*
X149971715Y-52408946D01*
X149489946Y-52730853D01*
X149270000Y-53060026D01*
X149050054Y-52730853D01*
X148568285Y-52408946D01*
X148000000Y-52295907D01*
X147431715Y-52408946D01*
X146949946Y-52730853D01*
X146730000Y-53060026D01*
X146510054Y-52730853D01*
X146028285Y-52408946D01*
X145460000Y-52295907D01*
X144891715Y-52408946D01*
X144409946Y-52730853D01*
X144190000Y-53060026D01*
X143970054Y-52730853D01*
X143488285Y-52408946D01*
X142920000Y-52295907D01*
X142351715Y-52408946D01*
X141869946Y-52730853D01*
X141548039Y-53212622D01*
X141435000Y-53780907D01*
X141435000Y-53839093D01*
X141548039Y-54407378D01*
X141869946Y-54889147D01*
X141871179Y-54889971D01*
X141834683Y-54896838D01*
X141618559Y-55035910D01*
X141473569Y-55248110D01*
X141422560Y-55500000D01*
X139303165Y-55500000D01*
X139150054Y-55270853D01*
X138864422Y-55080000D01*
X139150054Y-54889147D01*
X139471961Y-54407378D01*
X139585000Y-53839093D01*
X139585000Y-53780907D01*
X139471961Y-53212622D01*
X139150054Y-52730853D01*
X138668285Y-52408946D01*
X138100000Y-52295907D01*
X137531715Y-52408946D01*
X137049946Y-52730853D01*
X136830000Y-53060026D01*
X136610054Y-52730853D01*
X136128285Y-52408946D01*
X135560000Y-52295907D01*
X134991715Y-52408946D01*
X134509946Y-52730853D01*
X134290000Y-53060026D01*
X134070054Y-52730853D01*
X133588285Y-52408946D01*
X133020000Y-52295907D01*
X132451715Y-52408946D01*
X131969946Y-52730853D01*
X131742298Y-53071553D01*
X131675183Y-52928642D01*
X131246924Y-52538355D01*
X130836890Y-52368524D01*
X130607000Y-52489845D01*
X130353000Y-52489845D01*
X130123110Y-52368524D01*
X129713076Y-52538355D01*
X129284817Y-52928642D01*
X129038514Y-53453108D01*
X100820000Y-53453108D01*
X100820000Y-50540000D01*
X195290000Y-50540000D01*
X195290000Y-97147672D01*
G36*
X151884817Y-54691358D02*
X152311271Y-55080000D01*
X151884817Y-55468642D01*
X151817702Y-55611553D01*
X151590054Y-55270853D01*
X151304422Y-55080000D01*
X151590054Y-54889147D01*
X151817702Y-54548447D01*
X151884817Y-54691358D01*
X151884817Y-54691358D01*
G37*
X151884817Y-54691358D02*
X152311271Y-55080000D01*
X151884817Y-55468642D01*
X151817702Y-55611553D01*
X151590054Y-55270853D01*
X151304422Y-55080000D01*
X151590054Y-54889147D01*
X151817702Y-54548447D01*
X151884817Y-54691358D01*
M02*
