G04 #@! TF.FileFunction,Copper,L2,Inr,Plane*
%FSLAX46Y46*%
G04 Gerber Fmt 4.6, Leading zero omitted, Abs format (unit mm)*
G04 Created by KiCad (PCBNEW 4.0.7) date Monday, February 19, 2018 'AMt' 01:15:01 AM*
%MOMM*%
%LPD*%
G01*
G04 APERTURE LIST*
%ADD10C,0.100000*%
%ADD11R,1.250000X0.950000*%
%ADD12O,1.250000X0.950000*%
%ADD13O,1.250000X1.100000*%
%ADD14R,1.700000X1.700000*%
%ADD15O,1.700000X1.700000*%
%ADD16R,1.250000X1.100000*%
%ADD17C,6.400000*%
%ADD18C,5.400000*%
%ADD19C,0.600000*%
%ADD20C,0.254000*%
G04 APERTURE END LIST*
D10*
D11*
X106350000Y-79130000D03*
D12*
X106350000Y-77880000D03*
X106350000Y-76630000D03*
X106350000Y-75380000D03*
D13*
X106350000Y-74130000D03*
D14*
X158420000Y-56350000D03*
D15*
X158420000Y-53810000D03*
X160960000Y-56350000D03*
X160960000Y-53810000D03*
X163500000Y-56350000D03*
X163500000Y-53810000D03*
D14*
X142920000Y-56350000D03*
D15*
X142920000Y-53810000D03*
X145460000Y-56350000D03*
X145460000Y-53810000D03*
X148000000Y-56350000D03*
X148000000Y-53810000D03*
X150540000Y-56350000D03*
X150540000Y-53810000D03*
X153080000Y-56350000D03*
X153080000Y-53810000D03*
D16*
X106350000Y-117310000D03*
D12*
X106350000Y-116060000D03*
X106350000Y-114810000D03*
X106350000Y-113560000D03*
D13*
X106350000Y-112310000D03*
D16*
X188900000Y-74130000D03*
D12*
X188900000Y-75380000D03*
X188900000Y-76630000D03*
X188900000Y-77880000D03*
D13*
X188900000Y-79130000D03*
D16*
X188900000Y-112230000D03*
D12*
X188900000Y-113480000D03*
X188900000Y-114730000D03*
X188900000Y-115980000D03*
D13*
X188900000Y-117230000D03*
D11*
X106350000Y-86810000D03*
D12*
X106350000Y-85560000D03*
D11*
X106350000Y-93180000D03*
D12*
X106350000Y-91930000D03*
D11*
X106350000Y-100800000D03*
D13*
X106350000Y-99550000D03*
D11*
X106350000Y-107130000D03*
D13*
X106350000Y-105880000D03*
D14*
X130480000Y-56350000D03*
D15*
X130480000Y-53810000D03*
X133020000Y-56350000D03*
X133020000Y-53810000D03*
X135560000Y-56350000D03*
X135560000Y-53810000D03*
X138100000Y-56350000D03*
X138100000Y-53810000D03*
D11*
X106350000Y-69880000D03*
D12*
X106350000Y-68630000D03*
X106350000Y-67380000D03*
X106350000Y-66130000D03*
D11*
X106350000Y-125310000D03*
D12*
X106350000Y-124060000D03*
X106350000Y-122810000D03*
X106350000Y-121560000D03*
D17*
X105190000Y-131140000D03*
D18*
X105190000Y-57450000D03*
D17*
X190920000Y-54910000D03*
X190920000Y-134920000D03*
D19*
X112410000Y-56470000D03*
X106670000Y-108270000D03*
X106670000Y-118430000D03*
X106670000Y-72710000D03*
X187950000Y-120970000D03*
X193030000Y-110810000D03*
X187950000Y-82870000D03*
X151810000Y-106330000D03*
X140790000Y-100730000D03*
X144280000Y-132950000D03*
X126670000Y-135210000D03*
X127940000Y-52540000D03*
X128094442Y-57465558D03*
X107620000Y-95720000D03*
X142430000Y-126510000D03*
X164440000Y-100520000D03*
X160560000Y-116080000D03*
X151510000Y-76710000D03*
X148230000Y-115420000D03*
X148620000Y-110110000D03*
X148150000Y-122740000D03*
X148260000Y-131280000D03*
X117780000Y-62700000D03*
X152070000Y-55080000D03*
X106350000Y-81750000D03*
X136830000Y-91910000D03*
X133020000Y-88100000D03*
X140015000Y-94270303D03*
X133020000Y-99530000D03*
X134290000Y-102070000D03*
X117780000Y-99530000D03*
X135560000Y-123660000D03*
X131750000Y-80480000D03*
X136830000Y-107150000D03*
X129210000Y-107150000D03*
X190170000Y-109690000D03*
X154610000Y-107150000D03*
X163500000Y-110960000D03*
X159690000Y-102070000D03*
X119050000Y-107150000D03*
X107620000Y-103340000D03*
X183820000Y-102070000D03*
X158420000Y-95720000D03*
X153340000Y-88100000D03*
X162230000Y-91910000D03*
X116510000Y-90640000D03*
X102540000Y-90640000D03*
X115240000Y-94450000D03*
X101270000Y-100800000D03*
X102535015Y-94343002D03*
X188773063Y-72986937D03*
X188900000Y-74130000D03*
X188900000Y-117230000D03*
X188900000Y-117230000D03*
X106350000Y-112310000D03*
X188900000Y-117230000D03*
X188900000Y-112230000D03*
X188900000Y-79130000D03*
X188900000Y-74130000D03*
X131050000Y-103310000D03*
X128010000Y-126800000D03*
X162550000Y-98110000D03*
X160010000Y-98110000D03*
X142067480Y-78112520D03*
X145520000Y-76730000D03*
X138390000Y-126490000D03*
X146400000Y-120780000D03*
X143792140Y-126812140D03*
X117154999Y-64614999D03*
X112700000Y-98010088D03*
X136830000Y-93180000D03*
X134290000Y-94450000D03*
X136830000Y-90472738D03*
X133020000Y-103310000D03*
X135560000Y-96990000D03*
X131750000Y-96990000D03*
X119050000Y-105880000D03*
X101270000Y-105880000D03*
X101270000Y-103340000D03*
X135319448Y-85319448D03*
X139995000Y-85617910D03*
X148859441Y-121134443D03*
X137316597Y-106514999D03*
X150800000Y-121120000D03*
X143214299Y-90636140D03*
X143180000Y-85560000D03*
X144213867Y-57859982D03*
X152070000Y-60160000D03*
X144629512Y-84277959D03*
X148260000Y-99530000D03*
X145720000Y-58890000D03*
X149530000Y-58663222D03*
X143805000Y-84290000D03*
X129209458Y-111470541D03*
X117670000Y-60250000D03*
X118330000Y-58835000D03*
X133078151Y-110105405D03*
X127770000Y-102620000D03*
X149530000Y-99530000D03*
X139370000Y-88100000D03*
X139537262Y-79210000D03*
X140279338Y-76309338D03*
X140640000Y-96990000D03*
X140640000Y-88752739D03*
X129209999Y-103935000D03*
X131410000Y-101570000D03*
X125269999Y-107580000D03*
X125398223Y-110704260D03*
X134630000Y-116320000D03*
X136830000Y-99530000D03*
X135560000Y-102070000D03*
X138100000Y-96990000D03*
X138100000Y-93180000D03*
X136000000Y-104160000D03*
X137316597Y-105244999D03*
X137600000Y-107520000D03*
X134710000Y-112675727D03*
X136071640Y-102685000D03*
X138396941Y-101773059D03*
X143180000Y-98260000D03*
X143180000Y-94050000D03*
X139600000Y-107149999D03*
X142840000Y-118539401D03*
X136830000Y-104610000D03*
X140936941Y-104313059D03*
X139370000Y-102070000D03*
X136830000Y-94450000D03*
X141910000Y-114770000D03*
X140640000Y-109690000D03*
X129050000Y-93460000D03*
X128610000Y-99270000D03*
X128060000Y-93130000D03*
X133020000Y-57700003D03*
X169850000Y-93660000D03*
X168410000Y-89630000D03*
X110160000Y-64990088D03*
X107620000Y-88100000D03*
X183820000Y-93180000D03*
X159690000Y-93180000D03*
X140640000Y-110960000D03*
X140640000Y-114770000D03*
X156574999Y-113210001D03*
X153185000Y-113879670D03*
X152920000Y-112740000D03*
X157825000Y-111970000D03*
X155880000Y-110960000D03*
X194760000Y-97940000D03*
X145940000Y-117190000D03*
X142970000Y-109400000D03*
X145720000Y-90640000D03*
X145720000Y-88752739D03*
X139370000Y-113500000D03*
X139370000Y-110960000D03*
X138450000Y-121180000D03*
X148540000Y-108130000D03*
X136830000Y-105880000D03*
X144450000Y-105880000D03*
X129209999Y-109360001D03*
X122465940Y-108420000D03*
X117780000Y-102070000D03*
X130480000Y-109690000D03*
X130480000Y-114770000D03*
X130480000Y-116040000D03*
X135560000Y-110960000D03*
X135560000Y-113500000D03*
X136830000Y-113500000D03*
X136830000Y-110960000D03*
X138100000Y-110960000D03*
X138100000Y-113500000D03*
X134290000Y-79210000D03*
X132985000Y-79210000D03*
X152590000Y-93330000D03*
X153180000Y-96650000D03*
X154274560Y-98112976D03*
X152800000Y-99480000D03*
X151500000Y-124930000D03*
X146498058Y-112041942D03*
X131280000Y-59335000D03*
X131220000Y-60585000D03*
X171110000Y-107900000D03*
X157200000Y-109019999D03*
X164770000Y-103340000D03*
X160960000Y-103340000D03*
X160960000Y-102070000D03*
X192710000Y-102070000D03*
X172040000Y-120680000D03*
X163475000Y-108600000D03*
X160225000Y-111850000D03*
X160180000Y-115050000D03*
X112075000Y-71110000D03*
X153530000Y-126436380D03*
X146170000Y-109470000D03*
X152623534Y-126436380D03*
X146080000Y-110740000D03*
X153610000Y-127330000D03*
X151670000Y-110760000D03*
X154580784Y-127243100D03*
X151609852Y-109450148D03*
X107620000Y-83020000D03*
X110160000Y-57620000D03*
X106350000Y-105880000D03*
X143768557Y-92074282D03*
X130600000Y-129850000D03*
X129229999Y-115395000D03*
X127509989Y-108420000D03*
X129250000Y-108410000D03*
X135360000Y-131170000D03*
X129460000Y-104850000D03*
X146170000Y-131840000D03*
X144100000Y-131860000D03*
X143610000Y-129330000D03*
X142570000Y-130300000D03*
D20*
G36*
X195290000Y-94323000D02*
X144079044Y-94323000D01*
X144114838Y-94236799D01*
X144115162Y-93864833D01*
X143973117Y-93521057D01*
X143967238Y-93515167D01*
X151654838Y-93515167D01*
X151796883Y-93858943D01*
X152059673Y-94122192D01*
X152403201Y-94264838D01*
X152775167Y-94265162D01*
X153118943Y-94123117D01*
X153382192Y-93860327D01*
X153524838Y-93516799D01*
X153525162Y-93144833D01*
X153383117Y-92801057D01*
X153120327Y-92537808D01*
X152776799Y-92395162D01*
X152404833Y-92394838D01*
X152061057Y-92536883D01*
X151797808Y-92799673D01*
X151655162Y-93143201D01*
X151654838Y-93515167D01*
X143967238Y-93515167D01*
X143710327Y-93257808D01*
X143366799Y-93115162D01*
X142994833Y-93114838D01*
X142651057Y-93256883D01*
X142387808Y-93519673D01*
X142245162Y-93863201D01*
X142244838Y-94235167D01*
X142281130Y-94323000D01*
X140949955Y-94323000D01*
X140950162Y-94085136D01*
X140808117Y-93741360D01*
X140545327Y-93478111D01*
X140201799Y-93335465D01*
X139829833Y-93335141D01*
X139486057Y-93477186D01*
X139222808Y-93739976D01*
X139080162Y-94083504D01*
X139079953Y-94323000D01*
X137765111Y-94323000D01*
X137765162Y-94264833D01*
X137659690Y-94009570D01*
X137913201Y-94114838D01*
X138285167Y-94115162D01*
X138628943Y-93973117D01*
X138892192Y-93710327D01*
X139034838Y-93366799D01*
X139035162Y-92994833D01*
X138893117Y-92651057D01*
X138630327Y-92387808D01*
X138286799Y-92245162D01*
X137914833Y-92244838D01*
X137659570Y-92350310D01*
X137764838Y-92096799D01*
X137765162Y-91724833D01*
X137623117Y-91381057D01*
X137433660Y-91191269D01*
X137622192Y-91003065D01*
X137697664Y-90821307D01*
X142279137Y-90821307D01*
X142421182Y-91165083D01*
X142683972Y-91428332D01*
X142974314Y-91548893D01*
X142833719Y-91887483D01*
X142833395Y-92259449D01*
X142975440Y-92603225D01*
X143238230Y-92866474D01*
X143581758Y-93009120D01*
X143953724Y-93009444D01*
X144297500Y-92867399D01*
X144560749Y-92604609D01*
X144703395Y-92261081D01*
X144703539Y-92095167D01*
X161294838Y-92095167D01*
X161436883Y-92438943D01*
X161699673Y-92702192D01*
X162043201Y-92844838D01*
X162415167Y-92845162D01*
X162758943Y-92703117D01*
X163022192Y-92440327D01*
X163164838Y-92096799D01*
X163165162Y-91724833D01*
X163023117Y-91381057D01*
X162760327Y-91117808D01*
X162416799Y-90975162D01*
X162044833Y-90974838D01*
X161701057Y-91116883D01*
X161437808Y-91379673D01*
X161295162Y-91723201D01*
X161294838Y-92095167D01*
X144703539Y-92095167D01*
X144703719Y-91889115D01*
X144561674Y-91545339D01*
X144298884Y-91282090D01*
X144008542Y-91161529D01*
X144148211Y-90825167D01*
X144784838Y-90825167D01*
X144926883Y-91168943D01*
X145189673Y-91432192D01*
X145533201Y-91574838D01*
X145905167Y-91575162D01*
X146248943Y-91433117D01*
X146512192Y-91170327D01*
X146654838Y-90826799D01*
X146655162Y-90454833D01*
X146513117Y-90111057D01*
X146250327Y-89847808D01*
X145906799Y-89705162D01*
X145534833Y-89704838D01*
X145191057Y-89846883D01*
X144927808Y-90109673D01*
X144785162Y-90453201D01*
X144784838Y-90825167D01*
X144148211Y-90825167D01*
X144149137Y-90822939D01*
X144149461Y-90450973D01*
X144007416Y-90107197D01*
X143744626Y-89843948D01*
X143401098Y-89701302D01*
X143029132Y-89700978D01*
X142685356Y-89843023D01*
X142422107Y-90105813D01*
X142279461Y-90449341D01*
X142279137Y-90821307D01*
X137697664Y-90821307D01*
X137764838Y-90659537D01*
X137765162Y-90287571D01*
X137623117Y-89943795D01*
X137360327Y-89680546D01*
X137016799Y-89537900D01*
X136644833Y-89537576D01*
X136301057Y-89679621D01*
X136037808Y-89942411D01*
X135895162Y-90285939D01*
X135894838Y-90657905D01*
X136036883Y-91001681D01*
X136226340Y-91191469D01*
X136037808Y-91379673D01*
X135895162Y-91723201D01*
X135894838Y-92095167D01*
X136036883Y-92438943D01*
X136142710Y-92544954D01*
X136037808Y-92649673D01*
X135895162Y-92993201D01*
X135894838Y-93365167D01*
X136036883Y-93708943D01*
X136142710Y-93814954D01*
X136037808Y-93919673D01*
X135895162Y-94263201D01*
X135895110Y-94323000D01*
X135225111Y-94323000D01*
X135225162Y-94264833D01*
X135083117Y-93921057D01*
X134820327Y-93657808D01*
X134476799Y-93515162D01*
X134104833Y-93514838D01*
X133761057Y-93656883D01*
X133497808Y-93919673D01*
X133355162Y-94263201D01*
X133355110Y-94323000D01*
X116175111Y-94323000D01*
X116175162Y-94264833D01*
X116033117Y-93921057D01*
X115770327Y-93657808D01*
X115426799Y-93515162D01*
X115054833Y-93514838D01*
X114711057Y-93656883D01*
X114447808Y-93919673D01*
X114305162Y-94263201D01*
X114305110Y-94323000D01*
X103470033Y-94323000D01*
X103470177Y-94157835D01*
X103328132Y-93814059D01*
X103065342Y-93550810D01*
X102721814Y-93408164D01*
X102349848Y-93407840D01*
X102006072Y-93549885D01*
X101742823Y-93812675D01*
X101600177Y-94156203D01*
X101600032Y-94323000D01*
X100820000Y-94323000D01*
X100820000Y-91930000D01*
X105065315Y-91930000D01*
X105149809Y-92354779D01*
X105172526Y-92388777D01*
X105128569Y-92453110D01*
X105077560Y-92705000D01*
X105077560Y-93655000D01*
X105121838Y-93890317D01*
X105260910Y-94106441D01*
X105473110Y-94251431D01*
X105725000Y-94302440D01*
X106975000Y-94302440D01*
X107210317Y-94258162D01*
X107426441Y-94119090D01*
X107571431Y-93906890D01*
X107622440Y-93655000D01*
X107622440Y-92705000D01*
X107578162Y-92469683D01*
X107526774Y-92389824D01*
X107550191Y-92354779D01*
X107634685Y-91930000D01*
X107550191Y-91505221D01*
X107309574Y-91145111D01*
X106949464Y-90904494D01*
X106550662Y-90825167D01*
X115574838Y-90825167D01*
X115716883Y-91168943D01*
X115979673Y-91432192D01*
X116323201Y-91574838D01*
X116695167Y-91575162D01*
X117038943Y-91433117D01*
X117302192Y-91170327D01*
X117444838Y-90826799D01*
X117445162Y-90454833D01*
X117303117Y-90111057D01*
X117040327Y-89847808D01*
X116696799Y-89705162D01*
X116324833Y-89704838D01*
X115981057Y-89846883D01*
X115717808Y-90109673D01*
X115575162Y-90453201D01*
X115574838Y-90825167D01*
X106550662Y-90825167D01*
X106524685Y-90820000D01*
X106175315Y-90820000D01*
X105750536Y-90904494D01*
X105390426Y-91145111D01*
X105149809Y-91505221D01*
X105065315Y-91930000D01*
X100820000Y-91930000D01*
X100820000Y-90825167D01*
X101604838Y-90825167D01*
X101746883Y-91168943D01*
X102009673Y-91432192D01*
X102353201Y-91574838D01*
X102725167Y-91575162D01*
X103068943Y-91433117D01*
X103332192Y-91170327D01*
X103474838Y-90826799D01*
X103475162Y-90454833D01*
X103333117Y-90111057D01*
X103070327Y-89847808D01*
X102726799Y-89705162D01*
X102354833Y-89704838D01*
X102011057Y-89846883D01*
X101747808Y-90109673D01*
X101605162Y-90453201D01*
X101604838Y-90825167D01*
X100820000Y-90825167D01*
X100820000Y-88285167D01*
X132084838Y-88285167D01*
X132226883Y-88628943D01*
X132489673Y-88892192D01*
X132833201Y-89034838D01*
X133205167Y-89035162D01*
X133548943Y-88893117D01*
X133812192Y-88630327D01*
X133954838Y-88286799D01*
X133954839Y-88285167D01*
X138434838Y-88285167D01*
X138576883Y-88628943D01*
X138839673Y-88892192D01*
X139183201Y-89034838D01*
X139555167Y-89035162D01*
X139717337Y-88968155D01*
X139846883Y-89281682D01*
X140109673Y-89544931D01*
X140453201Y-89687577D01*
X140825167Y-89687901D01*
X141168943Y-89545856D01*
X141432192Y-89283066D01*
X141574838Y-88939538D01*
X141574839Y-88937906D01*
X144784838Y-88937906D01*
X144926883Y-89281682D01*
X145189673Y-89544931D01*
X145533201Y-89687577D01*
X145905167Y-89687901D01*
X146248943Y-89545856D01*
X146512192Y-89283066D01*
X146654838Y-88939538D01*
X146655162Y-88567572D01*
X146538475Y-88285167D01*
X152404838Y-88285167D01*
X152546883Y-88628943D01*
X152809673Y-88892192D01*
X153153201Y-89034838D01*
X153525167Y-89035162D01*
X153868943Y-88893117D01*
X154132192Y-88630327D01*
X154274838Y-88286799D01*
X154275162Y-87914833D01*
X154133117Y-87571057D01*
X153870327Y-87307808D01*
X153526799Y-87165162D01*
X153154833Y-87164838D01*
X152811057Y-87306883D01*
X152547808Y-87569673D01*
X152405162Y-87913201D01*
X152404838Y-88285167D01*
X146538475Y-88285167D01*
X146513117Y-88223796D01*
X146250327Y-87960547D01*
X145906799Y-87817901D01*
X145534833Y-87817577D01*
X145191057Y-87959622D01*
X144927808Y-88222412D01*
X144785162Y-88565940D01*
X144784838Y-88937906D01*
X141574839Y-88937906D01*
X141575162Y-88567572D01*
X141433117Y-88223796D01*
X141170327Y-87960547D01*
X140826799Y-87817901D01*
X140454833Y-87817577D01*
X140292663Y-87884584D01*
X140163117Y-87571057D01*
X139900327Y-87307808D01*
X139556799Y-87165162D01*
X139184833Y-87164838D01*
X138841057Y-87306883D01*
X138577808Y-87569673D01*
X138435162Y-87913201D01*
X138434838Y-88285167D01*
X133954839Y-88285167D01*
X133955162Y-87914833D01*
X133813117Y-87571057D01*
X133550327Y-87307808D01*
X133206799Y-87165162D01*
X132834833Y-87164838D01*
X132491057Y-87306883D01*
X132227808Y-87569673D01*
X132085162Y-87913201D01*
X132084838Y-88285167D01*
X100820000Y-88285167D01*
X100820000Y-85560000D01*
X105065315Y-85560000D01*
X105149809Y-85984779D01*
X105172526Y-86018777D01*
X105128569Y-86083110D01*
X105077560Y-86335000D01*
X105077560Y-87285000D01*
X105121838Y-87520317D01*
X105260910Y-87736441D01*
X105473110Y-87881431D01*
X105725000Y-87932440D01*
X106975000Y-87932440D01*
X107210317Y-87888162D01*
X107426441Y-87749090D01*
X107571431Y-87536890D01*
X107622440Y-87285000D01*
X107622440Y-86335000D01*
X107578162Y-86099683D01*
X107526774Y-86019824D01*
X107550191Y-85984779D01*
X107634685Y-85560000D01*
X107623669Y-85504615D01*
X134384286Y-85504615D01*
X134526331Y-85848391D01*
X134789121Y-86111640D01*
X135132649Y-86254286D01*
X135504615Y-86254610D01*
X135848391Y-86112565D01*
X136111640Y-85849775D01*
X136131030Y-85803077D01*
X139059838Y-85803077D01*
X139201883Y-86146853D01*
X139464673Y-86410102D01*
X139808201Y-86552748D01*
X140180167Y-86553072D01*
X140523943Y-86411027D01*
X140787192Y-86148237D01*
X140929838Y-85804709D01*
X140929889Y-85745167D01*
X142244838Y-85745167D01*
X142386883Y-86088943D01*
X142649673Y-86352192D01*
X142993201Y-86494838D01*
X143365167Y-86495162D01*
X143708943Y-86353117D01*
X143972192Y-86090327D01*
X144114838Y-85746799D01*
X144115162Y-85374833D01*
X144044110Y-85202873D01*
X144231925Y-85125270D01*
X144442713Y-85212797D01*
X144814679Y-85213121D01*
X145158455Y-85071076D01*
X145421704Y-84808286D01*
X145564350Y-84464758D01*
X145564674Y-84092792D01*
X145422629Y-83749016D01*
X145159839Y-83485767D01*
X144816311Y-83343121D01*
X144444345Y-83342797D01*
X144202587Y-83442689D01*
X143991799Y-83355162D01*
X143619833Y-83354838D01*
X143276057Y-83496883D01*
X143012808Y-83759673D01*
X142870162Y-84103201D01*
X142869838Y-84475167D01*
X142940890Y-84647127D01*
X142651057Y-84766883D01*
X142387808Y-85029673D01*
X142245162Y-85373201D01*
X142244838Y-85745167D01*
X140929889Y-85745167D01*
X140930162Y-85432743D01*
X140788117Y-85088967D01*
X140525327Y-84825718D01*
X140181799Y-84683072D01*
X139809833Y-84682748D01*
X139466057Y-84824793D01*
X139202808Y-85087583D01*
X139060162Y-85431111D01*
X139059838Y-85803077D01*
X136131030Y-85803077D01*
X136254286Y-85506247D01*
X136254610Y-85134281D01*
X136112565Y-84790505D01*
X135849775Y-84527256D01*
X135506247Y-84384610D01*
X135134281Y-84384286D01*
X134790505Y-84526331D01*
X134527256Y-84789121D01*
X134384610Y-85132649D01*
X134384286Y-85504615D01*
X107623669Y-85504615D01*
X107550191Y-85135221D01*
X107309574Y-84775111D01*
X106949464Y-84534494D01*
X106524685Y-84450000D01*
X106175315Y-84450000D01*
X105750536Y-84534494D01*
X105390426Y-84775111D01*
X105149809Y-85135221D01*
X105065315Y-85560000D01*
X100820000Y-85560000D01*
X100820000Y-81935167D01*
X105414838Y-81935167D01*
X105556883Y-82278943D01*
X105819673Y-82542192D01*
X106163201Y-82684838D01*
X106535167Y-82685162D01*
X106790430Y-82579690D01*
X106685162Y-82833201D01*
X106684838Y-83205167D01*
X106826883Y-83548943D01*
X107089673Y-83812192D01*
X107433201Y-83954838D01*
X107805167Y-83955162D01*
X108148943Y-83813117D01*
X108412192Y-83550327D01*
X108554838Y-83206799D01*
X108554970Y-83055167D01*
X187014838Y-83055167D01*
X187156883Y-83398943D01*
X187419673Y-83662192D01*
X187763201Y-83804838D01*
X188135167Y-83805162D01*
X188478943Y-83663117D01*
X188742192Y-83400327D01*
X188884838Y-83056799D01*
X188885162Y-82684833D01*
X188743117Y-82341057D01*
X188480327Y-82077808D01*
X188136799Y-81935162D01*
X187764833Y-81934838D01*
X187421057Y-82076883D01*
X187157808Y-82339673D01*
X187015162Y-82683201D01*
X187014838Y-83055167D01*
X108554970Y-83055167D01*
X108555162Y-82834833D01*
X108413117Y-82491057D01*
X108150327Y-82227808D01*
X107806799Y-82085162D01*
X107434833Y-82084838D01*
X107179570Y-82190310D01*
X107284838Y-81936799D01*
X107285162Y-81564833D01*
X107143117Y-81221057D01*
X106880327Y-80957808D01*
X106536799Y-80815162D01*
X106164833Y-80814838D01*
X105821057Y-80956883D01*
X105557808Y-81219673D01*
X105415162Y-81563201D01*
X105414838Y-81935167D01*
X100820000Y-81935167D01*
X100820000Y-80665167D01*
X130814838Y-80665167D01*
X130956883Y-81008943D01*
X131219673Y-81272192D01*
X131563201Y-81414838D01*
X131935167Y-81415162D01*
X132278943Y-81273117D01*
X132542192Y-81010327D01*
X132684838Y-80666799D01*
X132685162Y-80294833D01*
X132586939Y-80057114D01*
X132798201Y-80144838D01*
X133170167Y-80145162D01*
X133513943Y-80003117D01*
X133637485Y-79879790D01*
X133759673Y-80002192D01*
X134103201Y-80144838D01*
X134475167Y-80145162D01*
X134818943Y-80003117D01*
X135082192Y-79740327D01*
X135224838Y-79396799D01*
X135224839Y-79395167D01*
X138602100Y-79395167D01*
X138744145Y-79738943D01*
X139006935Y-80002192D01*
X139350463Y-80144838D01*
X139722429Y-80145162D01*
X140066205Y-80003117D01*
X140329454Y-79740327D01*
X140472100Y-79396799D01*
X140472424Y-79024833D01*
X140330379Y-78681057D01*
X140067589Y-78417808D01*
X139778307Y-78297687D01*
X141132318Y-78297687D01*
X141274363Y-78641463D01*
X141537153Y-78904712D01*
X141880681Y-79047358D01*
X142252647Y-79047682D01*
X142596423Y-78905637D01*
X142859672Y-78642847D01*
X143002318Y-78299319D01*
X143002642Y-77927353D01*
X142860597Y-77583577D01*
X142597807Y-77320328D01*
X142254279Y-77177682D01*
X141882313Y-77177358D01*
X141538537Y-77319403D01*
X141275288Y-77582193D01*
X141132642Y-77925721D01*
X141132318Y-78297687D01*
X139778307Y-78297687D01*
X139724061Y-78275162D01*
X139352095Y-78274838D01*
X139008319Y-78416883D01*
X138745070Y-78679673D01*
X138602424Y-79023201D01*
X138602100Y-79395167D01*
X135224839Y-79395167D01*
X135225162Y-79024833D01*
X135083117Y-78681057D01*
X134820327Y-78417808D01*
X134476799Y-78275162D01*
X134104833Y-78274838D01*
X133761057Y-78416883D01*
X133637515Y-78540210D01*
X133515327Y-78417808D01*
X133171799Y-78275162D01*
X132799833Y-78274838D01*
X132456057Y-78416883D01*
X132192808Y-78679673D01*
X132050162Y-79023201D01*
X132049838Y-79395167D01*
X132148061Y-79632886D01*
X131936799Y-79545162D01*
X131564833Y-79544838D01*
X131221057Y-79686883D01*
X130957808Y-79949673D01*
X130815162Y-80293201D01*
X130814838Y-80665167D01*
X100820000Y-80665167D01*
X100820000Y-74130000D01*
X105065315Y-74130000D01*
X105155518Y-74583480D01*
X105276858Y-74765078D01*
X105149809Y-74955221D01*
X105065315Y-75380000D01*
X105149809Y-75804779D01*
X105283592Y-76005000D01*
X105149809Y-76205221D01*
X105065315Y-76630000D01*
X105149809Y-77054779D01*
X105283592Y-77255000D01*
X105149809Y-77455221D01*
X105065315Y-77880000D01*
X105149809Y-78304779D01*
X105172526Y-78338777D01*
X105128569Y-78403110D01*
X105077560Y-78655000D01*
X105077560Y-79605000D01*
X105121838Y-79840317D01*
X105260910Y-80056441D01*
X105473110Y-80201431D01*
X105725000Y-80252440D01*
X106975000Y-80252440D01*
X107210317Y-80208162D01*
X107426441Y-80069090D01*
X107571431Y-79856890D01*
X107622440Y-79605000D01*
X107622440Y-78655000D01*
X107578162Y-78419683D01*
X107526774Y-78339824D01*
X107550191Y-78304779D01*
X107634685Y-77880000D01*
X107550191Y-77455221D01*
X107416408Y-77255000D01*
X107550191Y-77054779D01*
X107634685Y-76630000D01*
X107607734Y-76494505D01*
X139344176Y-76494505D01*
X139486221Y-76838281D01*
X139749011Y-77101530D01*
X140092539Y-77244176D01*
X140464505Y-77244500D01*
X140808281Y-77102455D01*
X140995896Y-76915167D01*
X144584838Y-76915167D01*
X144726883Y-77258943D01*
X144989673Y-77522192D01*
X145333201Y-77664838D01*
X145705167Y-77665162D01*
X146048943Y-77523117D01*
X146312192Y-77260327D01*
X146454838Y-76916799D01*
X146454856Y-76895167D01*
X150574838Y-76895167D01*
X150716883Y-77238943D01*
X150979673Y-77502192D01*
X151323201Y-77644838D01*
X151695167Y-77645162D01*
X152038943Y-77503117D01*
X152302192Y-77240327D01*
X152444838Y-76896799D01*
X152445162Y-76524833D01*
X152303117Y-76181057D01*
X152040327Y-75917808D01*
X151696799Y-75775162D01*
X151324833Y-75774838D01*
X150981057Y-75916883D01*
X150717808Y-76179673D01*
X150575162Y-76523201D01*
X150574838Y-76895167D01*
X146454856Y-76895167D01*
X146455162Y-76544833D01*
X146313117Y-76201057D01*
X146050327Y-75937808D01*
X145706799Y-75795162D01*
X145334833Y-75794838D01*
X144991057Y-75936883D01*
X144727808Y-76199673D01*
X144585162Y-76543201D01*
X144584838Y-76915167D01*
X140995896Y-76915167D01*
X141071530Y-76839665D01*
X141214176Y-76496137D01*
X141214500Y-76124171D01*
X141072455Y-75780395D01*
X140809665Y-75517146D01*
X140479383Y-75380000D01*
X187615315Y-75380000D01*
X187699809Y-75804779D01*
X187833592Y-76005000D01*
X187699809Y-76205221D01*
X187615315Y-76630000D01*
X187699809Y-77054779D01*
X187833592Y-77255000D01*
X187699809Y-77455221D01*
X187615315Y-77880000D01*
X187699809Y-78304779D01*
X187826858Y-78494922D01*
X187705518Y-78676520D01*
X187615315Y-79130000D01*
X187705518Y-79583480D01*
X187962393Y-79967922D01*
X188346835Y-80224797D01*
X188800315Y-80315000D01*
X188999685Y-80315000D01*
X189453165Y-80224797D01*
X189837607Y-79967922D01*
X190094482Y-79583480D01*
X190184685Y-79130000D01*
X190094482Y-78676520D01*
X189973142Y-78494922D01*
X190100191Y-78304779D01*
X190184685Y-77880000D01*
X190100191Y-77455221D01*
X189966408Y-77255000D01*
X190100191Y-77054779D01*
X190184685Y-76630000D01*
X190100191Y-76205221D01*
X189966408Y-76005000D01*
X190100191Y-75804779D01*
X190184685Y-75380000D01*
X190100191Y-74955221D01*
X190077474Y-74921223D01*
X190121431Y-74856890D01*
X190172440Y-74605000D01*
X190172440Y-73655000D01*
X190128162Y-73419683D01*
X189989090Y-73203559D01*
X189776890Y-73058569D01*
X189708013Y-73044621D01*
X189708225Y-72801770D01*
X189566180Y-72457994D01*
X189303390Y-72194745D01*
X188959862Y-72052099D01*
X188587896Y-72051775D01*
X188244120Y-72193820D01*
X187980871Y-72456610D01*
X187838225Y-72800138D01*
X187837901Y-73172104D01*
X187841027Y-73179670D01*
X187823559Y-73190910D01*
X187678569Y-73403110D01*
X187627560Y-73655000D01*
X187627560Y-74605000D01*
X187671838Y-74840317D01*
X187723226Y-74920176D01*
X187699809Y-74955221D01*
X187615315Y-75380000D01*
X140479383Y-75380000D01*
X140466137Y-75374500D01*
X140094171Y-75374176D01*
X139750395Y-75516221D01*
X139487146Y-75779011D01*
X139344500Y-76122539D01*
X139344176Y-76494505D01*
X107607734Y-76494505D01*
X107550191Y-76205221D01*
X107416408Y-76005000D01*
X107550191Y-75804779D01*
X107634685Y-75380000D01*
X107550191Y-74955221D01*
X107423142Y-74765078D01*
X107544482Y-74583480D01*
X107634685Y-74130000D01*
X107544482Y-73676520D01*
X107336720Y-73365581D01*
X107462192Y-73240327D01*
X107604838Y-72896799D01*
X107605162Y-72524833D01*
X107463117Y-72181057D01*
X107200327Y-71917808D01*
X106856799Y-71775162D01*
X106484833Y-71774838D01*
X106141057Y-71916883D01*
X105877808Y-72179673D01*
X105735162Y-72523201D01*
X105734838Y-72895167D01*
X105793594Y-73037368D01*
X105412393Y-73292078D01*
X105155518Y-73676520D01*
X105065315Y-74130000D01*
X100820000Y-74130000D01*
X100820000Y-71295167D01*
X111139838Y-71295167D01*
X111281883Y-71638943D01*
X111544673Y-71902192D01*
X111888201Y-72044838D01*
X112260167Y-72045162D01*
X112603943Y-71903117D01*
X112867192Y-71640327D01*
X113009838Y-71296799D01*
X113010162Y-70924833D01*
X112868117Y-70581057D01*
X112605327Y-70317808D01*
X112261799Y-70175162D01*
X111889833Y-70174838D01*
X111546057Y-70316883D01*
X111282808Y-70579673D01*
X111140162Y-70923201D01*
X111139838Y-71295167D01*
X100820000Y-71295167D01*
X100820000Y-66130000D01*
X105065315Y-66130000D01*
X105149809Y-66554779D01*
X105283592Y-66755000D01*
X105149809Y-66955221D01*
X105065315Y-67380000D01*
X105149809Y-67804779D01*
X105283592Y-68005000D01*
X105149809Y-68205221D01*
X105065315Y-68630000D01*
X105149809Y-69054779D01*
X105172526Y-69088777D01*
X105128569Y-69153110D01*
X105077560Y-69405000D01*
X105077560Y-70355000D01*
X105121838Y-70590317D01*
X105260910Y-70806441D01*
X105473110Y-70951431D01*
X105725000Y-71002440D01*
X106975000Y-71002440D01*
X107210317Y-70958162D01*
X107426441Y-70819090D01*
X107571431Y-70606890D01*
X107622440Y-70355000D01*
X107622440Y-69405000D01*
X107578162Y-69169683D01*
X107526774Y-69089824D01*
X107550191Y-69054779D01*
X107634685Y-68630000D01*
X107550191Y-68205221D01*
X107416408Y-68005000D01*
X107550191Y-67804779D01*
X107634685Y-67380000D01*
X107550191Y-66955221D01*
X107416408Y-66755000D01*
X107550191Y-66554779D01*
X107634685Y-66130000D01*
X107550191Y-65705221D01*
X107309574Y-65345111D01*
X106949464Y-65104494D01*
X106524685Y-65020000D01*
X106175315Y-65020000D01*
X105750536Y-65104494D01*
X105390426Y-65345111D01*
X105149809Y-65705221D01*
X105065315Y-66130000D01*
X100820000Y-66130000D01*
X100820000Y-64800166D01*
X116219837Y-64800166D01*
X116361882Y-65143942D01*
X116624672Y-65407191D01*
X116968200Y-65549837D01*
X117340166Y-65550161D01*
X117683942Y-65408116D01*
X117947191Y-65145326D01*
X118089837Y-64801798D01*
X118090161Y-64429832D01*
X117948116Y-64086056D01*
X117685326Y-63822807D01*
X117341798Y-63680161D01*
X116969832Y-63679837D01*
X116626056Y-63821882D01*
X116362807Y-64084672D01*
X116220161Y-64428200D01*
X116219837Y-64800166D01*
X100820000Y-64800166D01*
X100820000Y-62885167D01*
X116844838Y-62885167D01*
X116986883Y-63228943D01*
X117249673Y-63492192D01*
X117593201Y-63634838D01*
X117965167Y-63635162D01*
X118308943Y-63493117D01*
X118572192Y-63230327D01*
X118714838Y-62886799D01*
X118715162Y-62514833D01*
X118573117Y-62171057D01*
X118310327Y-61907808D01*
X117966799Y-61765162D01*
X117594833Y-61764838D01*
X117251057Y-61906883D01*
X116987808Y-62169673D01*
X116845162Y-62513201D01*
X116844838Y-62885167D01*
X100820000Y-62885167D01*
X100820000Y-58110462D01*
X101854422Y-58110462D01*
X102361076Y-59336658D01*
X103298407Y-60275627D01*
X104523717Y-60784420D01*
X105850462Y-60785578D01*
X106698521Y-60435167D01*
X116734838Y-60435167D01*
X116876883Y-60778943D01*
X117139673Y-61042192D01*
X117483201Y-61184838D01*
X117855167Y-61185162D01*
X118198943Y-61043117D01*
X118462192Y-60780327D01*
X118466410Y-60770167D01*
X130284838Y-60770167D01*
X130426883Y-61113943D01*
X130689673Y-61377192D01*
X131033201Y-61519838D01*
X131405167Y-61520162D01*
X131748943Y-61378117D01*
X132012192Y-61115327D01*
X132154838Y-60771799D01*
X132155162Y-60399833D01*
X132132575Y-60345167D01*
X151134838Y-60345167D01*
X151276883Y-60688943D01*
X151539673Y-60952192D01*
X151883201Y-61094838D01*
X152255167Y-61095162D01*
X152598943Y-60953117D01*
X152862192Y-60690327D01*
X153004838Y-60346799D01*
X153005162Y-59974833D01*
X152863117Y-59631057D01*
X152600327Y-59367808D01*
X152256799Y-59225162D01*
X151884833Y-59224838D01*
X151541057Y-59366883D01*
X151277808Y-59629673D01*
X151135162Y-59973201D01*
X151134838Y-60345167D01*
X132132575Y-60345167D01*
X132013117Y-60056057D01*
X131947238Y-59990063D01*
X132072192Y-59865327D01*
X132214838Y-59521799D01*
X132215162Y-59149833D01*
X132073117Y-58806057D01*
X131810327Y-58542808D01*
X131466799Y-58400162D01*
X131094833Y-58399838D01*
X130751057Y-58541883D01*
X130487808Y-58804673D01*
X130345162Y-59148201D01*
X130344838Y-59520167D01*
X130486883Y-59863943D01*
X130552762Y-59929937D01*
X130427808Y-60054673D01*
X130285162Y-60398201D01*
X130284838Y-60770167D01*
X118466410Y-60770167D01*
X118604838Y-60436799D01*
X118605162Y-60064833D01*
X118483395Y-59770134D01*
X118515167Y-59770162D01*
X118858943Y-59628117D01*
X119122192Y-59365327D01*
X119264838Y-59021799D01*
X119265162Y-58649833D01*
X119123117Y-58306057D01*
X118860327Y-58042808D01*
X118516799Y-57900162D01*
X118144833Y-57899838D01*
X117801057Y-58041883D01*
X117537808Y-58304673D01*
X117395162Y-58648201D01*
X117394838Y-59020167D01*
X117516605Y-59314866D01*
X117484833Y-59314838D01*
X117141057Y-59456883D01*
X116877808Y-59719673D01*
X116735162Y-60063201D01*
X116734838Y-60435167D01*
X106698521Y-60435167D01*
X107076658Y-60278924D01*
X108015627Y-59341593D01*
X108524420Y-58116283D01*
X108524691Y-57805167D01*
X109224838Y-57805167D01*
X109366883Y-58148943D01*
X109629673Y-58412192D01*
X109973201Y-58554838D01*
X110345167Y-58555162D01*
X110688943Y-58413117D01*
X110952192Y-58150327D01*
X111094838Y-57806799D01*
X111094973Y-57650725D01*
X127159280Y-57650725D01*
X127301325Y-57994501D01*
X127564115Y-58257750D01*
X127907643Y-58400396D01*
X128279609Y-58400720D01*
X128623385Y-58258675D01*
X128886634Y-57995885D01*
X129029280Y-57652357D01*
X129029465Y-57439400D01*
X129165910Y-57651441D01*
X129378110Y-57796431D01*
X129630000Y-57847440D01*
X131330000Y-57847440D01*
X131565317Y-57803162D01*
X131781441Y-57664090D01*
X131926431Y-57451890D01*
X131940086Y-57384459D01*
X131969946Y-57429147D01*
X132451715Y-57751054D01*
X133020000Y-57864093D01*
X133588285Y-57751054D01*
X134070054Y-57429147D01*
X134290000Y-57099974D01*
X134509946Y-57429147D01*
X134991715Y-57751054D01*
X135560000Y-57864093D01*
X136128285Y-57751054D01*
X136610054Y-57429147D01*
X136830000Y-57099974D01*
X137049946Y-57429147D01*
X137531715Y-57751054D01*
X138100000Y-57864093D01*
X138668285Y-57751054D01*
X139150054Y-57429147D01*
X139471961Y-56947378D01*
X139585000Y-56379093D01*
X139585000Y-56320907D01*
X139471961Y-55752622D01*
X139303165Y-55500000D01*
X141422560Y-55500000D01*
X141422560Y-57200000D01*
X141466838Y-57435317D01*
X141605910Y-57651441D01*
X141818110Y-57796431D01*
X142070000Y-57847440D01*
X143278877Y-57847440D01*
X143278705Y-58045149D01*
X143420750Y-58388925D01*
X143683540Y-58652174D01*
X144027068Y-58794820D01*
X144399034Y-58795144D01*
X144742810Y-58653099D01*
X144850680Y-58545417D01*
X144785162Y-58703201D01*
X144784838Y-59075167D01*
X144926883Y-59418943D01*
X145189673Y-59682192D01*
X145533201Y-59824838D01*
X145905167Y-59825162D01*
X146248943Y-59683117D01*
X146512192Y-59420327D01*
X146654838Y-59076799D01*
X146655036Y-58848389D01*
X148594838Y-58848389D01*
X148736883Y-59192165D01*
X148999673Y-59455414D01*
X149343201Y-59598060D01*
X149715167Y-59598384D01*
X150058943Y-59456339D01*
X150322192Y-59193549D01*
X150464838Y-58850021D01*
X150465162Y-58478055D01*
X150323117Y-58134279D01*
X150060327Y-57871030D01*
X149716799Y-57728384D01*
X149344833Y-57728060D01*
X149001057Y-57870105D01*
X148737808Y-58132895D01*
X148595162Y-58476423D01*
X148594838Y-58848389D01*
X146655036Y-58848389D01*
X146655162Y-58704833D01*
X146513117Y-58361057D01*
X146250327Y-58097808D01*
X145906799Y-57955162D01*
X145534833Y-57954838D01*
X145191057Y-58096883D01*
X145083187Y-58204565D01*
X145148705Y-58046781D01*
X145148918Y-57802215D01*
X145460000Y-57864093D01*
X146028285Y-57751054D01*
X146510054Y-57429147D01*
X146730000Y-57099974D01*
X146949946Y-57429147D01*
X147431715Y-57751054D01*
X148000000Y-57864093D01*
X148568285Y-57751054D01*
X149050054Y-57429147D01*
X149270000Y-57099974D01*
X149489946Y-57429147D01*
X149971715Y-57751054D01*
X150540000Y-57864093D01*
X151108285Y-57751054D01*
X151590054Y-57429147D01*
X151810000Y-57099974D01*
X152029946Y-57429147D01*
X152511715Y-57751054D01*
X153080000Y-57864093D01*
X153648285Y-57751054D01*
X154130054Y-57429147D01*
X154451961Y-56947378D01*
X154565000Y-56379093D01*
X154565000Y-56320907D01*
X154451961Y-55752622D01*
X154283165Y-55500000D01*
X156922560Y-55500000D01*
X156922560Y-57200000D01*
X156966838Y-57435317D01*
X157105910Y-57651441D01*
X157318110Y-57796431D01*
X157570000Y-57847440D01*
X159270000Y-57847440D01*
X159505317Y-57803162D01*
X159721441Y-57664090D01*
X159866431Y-57451890D01*
X159880086Y-57384459D01*
X159909946Y-57429147D01*
X160391715Y-57751054D01*
X160960000Y-57864093D01*
X161528285Y-57751054D01*
X162010054Y-57429147D01*
X162230000Y-57099974D01*
X162449946Y-57429147D01*
X162931715Y-57751054D01*
X163500000Y-57864093D01*
X164068285Y-57751054D01*
X164550054Y-57429147D01*
X164871961Y-56947378D01*
X164985000Y-56379093D01*
X164985000Y-56320907D01*
X164871961Y-55752622D01*
X164816409Y-55669482D01*
X187084336Y-55669482D01*
X187666950Y-57079515D01*
X188744811Y-58159259D01*
X190153825Y-58744333D01*
X191679482Y-58745664D01*
X193089515Y-58163050D01*
X194169259Y-57085189D01*
X194754333Y-55676175D01*
X194755664Y-54150518D01*
X194173050Y-52740485D01*
X193095189Y-51660741D01*
X191686175Y-51075667D01*
X190160518Y-51074336D01*
X188750485Y-51656950D01*
X187670741Y-52734811D01*
X187085667Y-54143825D01*
X187084336Y-55669482D01*
X164816409Y-55669482D01*
X164550054Y-55270853D01*
X164264422Y-55080000D01*
X164550054Y-54889147D01*
X164871961Y-54407378D01*
X164985000Y-53839093D01*
X164985000Y-53780907D01*
X164871961Y-53212622D01*
X164550054Y-52730853D01*
X164068285Y-52408946D01*
X163500000Y-52295907D01*
X162931715Y-52408946D01*
X162449946Y-52730853D01*
X162230000Y-53060026D01*
X162010054Y-52730853D01*
X161528285Y-52408946D01*
X160960000Y-52295907D01*
X160391715Y-52408946D01*
X159909946Y-52730853D01*
X159690000Y-53060026D01*
X159470054Y-52730853D01*
X158988285Y-52408946D01*
X158420000Y-52295907D01*
X157851715Y-52408946D01*
X157369946Y-52730853D01*
X157048039Y-53212622D01*
X156935000Y-53780907D01*
X156935000Y-53839093D01*
X157048039Y-54407378D01*
X157369946Y-54889147D01*
X157371179Y-54889971D01*
X157334683Y-54896838D01*
X157118559Y-55035910D01*
X156973569Y-55248110D01*
X156922560Y-55500000D01*
X154283165Y-55500000D01*
X154130054Y-55270853D01*
X153844422Y-55080000D01*
X154130054Y-54889147D01*
X154451961Y-54407378D01*
X154565000Y-53839093D01*
X154565000Y-53780907D01*
X154451961Y-53212622D01*
X154130054Y-52730853D01*
X153648285Y-52408946D01*
X153080000Y-52295907D01*
X152511715Y-52408946D01*
X152029946Y-52730853D01*
X151810000Y-53060026D01*
X151590054Y-52730853D01*
X151108285Y-52408946D01*
X150540000Y-52295907D01*
X149971715Y-52408946D01*
X149489946Y-52730853D01*
X149270000Y-53060026D01*
X149050054Y-52730853D01*
X148568285Y-52408946D01*
X148000000Y-52295907D01*
X147431715Y-52408946D01*
X146949946Y-52730853D01*
X146730000Y-53060026D01*
X146510054Y-52730853D01*
X146028285Y-52408946D01*
X145460000Y-52295907D01*
X144891715Y-52408946D01*
X144409946Y-52730853D01*
X144190000Y-53060026D01*
X143970054Y-52730853D01*
X143488285Y-52408946D01*
X142920000Y-52295907D01*
X142351715Y-52408946D01*
X141869946Y-52730853D01*
X141548039Y-53212622D01*
X141435000Y-53780907D01*
X141435000Y-53839093D01*
X141548039Y-54407378D01*
X141869946Y-54889147D01*
X141871179Y-54889971D01*
X141834683Y-54896838D01*
X141618559Y-55035910D01*
X141473569Y-55248110D01*
X141422560Y-55500000D01*
X139303165Y-55500000D01*
X139150054Y-55270853D01*
X138864422Y-55080000D01*
X139150054Y-54889147D01*
X139471961Y-54407378D01*
X139585000Y-53839093D01*
X139585000Y-53780907D01*
X139471961Y-53212622D01*
X139150054Y-52730853D01*
X138668285Y-52408946D01*
X138100000Y-52295907D01*
X137531715Y-52408946D01*
X137049946Y-52730853D01*
X136822298Y-53071553D01*
X136755183Y-52928642D01*
X136326924Y-52538355D01*
X135916890Y-52368524D01*
X135687000Y-52489845D01*
X135687000Y-53683000D01*
X135707000Y-53683000D01*
X135707000Y-53937000D01*
X135687000Y-53937000D01*
X135687000Y-53957000D01*
X135433000Y-53957000D01*
X135433000Y-53937000D01*
X135413000Y-53937000D01*
X135413000Y-53683000D01*
X135433000Y-53683000D01*
X135433000Y-52489845D01*
X135203110Y-52368524D01*
X134793076Y-52538355D01*
X134364817Y-52928642D01*
X134297702Y-53071553D01*
X134070054Y-52730853D01*
X133588285Y-52408946D01*
X133020000Y-52295907D01*
X132451715Y-52408946D01*
X131969946Y-52730853D01*
X131750000Y-53060026D01*
X131530054Y-52730853D01*
X131048285Y-52408946D01*
X130480000Y-52295907D01*
X129911715Y-52408946D01*
X129429946Y-52730853D01*
X129108039Y-53212622D01*
X128995000Y-53780907D01*
X128995000Y-53839093D01*
X129108039Y-54407378D01*
X129429946Y-54889147D01*
X129431179Y-54889971D01*
X129394683Y-54896838D01*
X129178559Y-55035910D01*
X129033569Y-55248110D01*
X128982560Y-55500000D01*
X128982560Y-57166536D01*
X128887559Y-56936615D01*
X128624769Y-56673366D01*
X128281241Y-56530720D01*
X127909275Y-56530396D01*
X127565499Y-56672441D01*
X127302250Y-56935231D01*
X127159604Y-57278759D01*
X127159280Y-57650725D01*
X111094973Y-57650725D01*
X111095162Y-57434833D01*
X110953117Y-57091057D01*
X110690327Y-56827808D01*
X110346799Y-56685162D01*
X109974833Y-56684838D01*
X109631057Y-56826883D01*
X109367808Y-57089673D01*
X109225162Y-57433201D01*
X109224838Y-57805167D01*
X108524691Y-57805167D01*
X108525578Y-56789538D01*
X108470058Y-56655167D01*
X111474838Y-56655167D01*
X111616883Y-56998943D01*
X111879673Y-57262192D01*
X112223201Y-57404838D01*
X112595167Y-57405162D01*
X112938943Y-57263117D01*
X113202192Y-57000327D01*
X113344838Y-56656799D01*
X113345162Y-56284833D01*
X113203117Y-55941057D01*
X112940327Y-55677808D01*
X112596799Y-55535162D01*
X112224833Y-55534838D01*
X111881057Y-55676883D01*
X111617808Y-55939673D01*
X111475162Y-56283201D01*
X111474838Y-56655167D01*
X108470058Y-56655167D01*
X108018924Y-55563342D01*
X107081593Y-54624373D01*
X105856283Y-54115580D01*
X104529538Y-54114422D01*
X103303342Y-54621076D01*
X102364373Y-55558407D01*
X101855580Y-56783717D01*
X101854422Y-58110462D01*
X100820000Y-58110462D01*
X100820000Y-52725167D01*
X127004838Y-52725167D01*
X127146883Y-53068943D01*
X127409673Y-53332192D01*
X127753201Y-53474838D01*
X128125167Y-53475162D01*
X128468943Y-53333117D01*
X128732192Y-53070327D01*
X128874838Y-52726799D01*
X128875162Y-52354833D01*
X128733117Y-52011057D01*
X128470327Y-51747808D01*
X128126799Y-51605162D01*
X127754833Y-51604838D01*
X127411057Y-51746883D01*
X127147808Y-52009673D01*
X127005162Y-52353201D01*
X127004838Y-52725167D01*
X100820000Y-52725167D01*
X100820000Y-50540000D01*
X195290000Y-50540000D01*
X195290000Y-94323000D01*
X195290000Y-94323000D01*
G37*
X195290000Y-94323000D02*
X144079044Y-94323000D01*
X144114838Y-94236799D01*
X144115162Y-93864833D01*
X143973117Y-93521057D01*
X143967238Y-93515167D01*
X151654838Y-93515167D01*
X151796883Y-93858943D01*
X152059673Y-94122192D01*
X152403201Y-94264838D01*
X152775167Y-94265162D01*
X153118943Y-94123117D01*
X153382192Y-93860327D01*
X153524838Y-93516799D01*
X153525162Y-93144833D01*
X153383117Y-92801057D01*
X153120327Y-92537808D01*
X152776799Y-92395162D01*
X152404833Y-92394838D01*
X152061057Y-92536883D01*
X151797808Y-92799673D01*
X151655162Y-93143201D01*
X151654838Y-93515167D01*
X143967238Y-93515167D01*
X143710327Y-93257808D01*
X143366799Y-93115162D01*
X142994833Y-93114838D01*
X142651057Y-93256883D01*
X142387808Y-93519673D01*
X142245162Y-93863201D01*
X142244838Y-94235167D01*
X142281130Y-94323000D01*
X140949955Y-94323000D01*
X140950162Y-94085136D01*
X140808117Y-93741360D01*
X140545327Y-93478111D01*
X140201799Y-93335465D01*
X139829833Y-93335141D01*
X139486057Y-93477186D01*
X139222808Y-93739976D01*
X139080162Y-94083504D01*
X139079953Y-94323000D01*
X137765111Y-94323000D01*
X137765162Y-94264833D01*
X137659690Y-94009570D01*
X137913201Y-94114838D01*
X138285167Y-94115162D01*
X138628943Y-93973117D01*
X138892192Y-93710327D01*
X139034838Y-93366799D01*
X139035162Y-92994833D01*
X138893117Y-92651057D01*
X138630327Y-92387808D01*
X138286799Y-92245162D01*
X137914833Y-92244838D01*
X137659570Y-92350310D01*
X137764838Y-92096799D01*
X137765162Y-91724833D01*
X137623117Y-91381057D01*
X137433660Y-91191269D01*
X137622192Y-91003065D01*
X137697664Y-90821307D01*
X142279137Y-90821307D01*
X142421182Y-91165083D01*
X142683972Y-91428332D01*
X142974314Y-91548893D01*
X142833719Y-91887483D01*
X142833395Y-92259449D01*
X142975440Y-92603225D01*
X143238230Y-92866474D01*
X143581758Y-93009120D01*
X143953724Y-93009444D01*
X144297500Y-92867399D01*
X144560749Y-92604609D01*
X144703395Y-92261081D01*
X144703539Y-92095167D01*
X161294838Y-92095167D01*
X161436883Y-92438943D01*
X161699673Y-92702192D01*
X162043201Y-92844838D01*
X162415167Y-92845162D01*
X162758943Y-92703117D01*
X163022192Y-92440327D01*
X163164838Y-92096799D01*
X163165162Y-91724833D01*
X163023117Y-91381057D01*
X162760327Y-91117808D01*
X162416799Y-90975162D01*
X162044833Y-90974838D01*
X161701057Y-91116883D01*
X161437808Y-91379673D01*
X161295162Y-91723201D01*
X161294838Y-92095167D01*
X144703539Y-92095167D01*
X144703719Y-91889115D01*
X144561674Y-91545339D01*
X144298884Y-91282090D01*
X144008542Y-91161529D01*
X144148211Y-90825167D01*
X144784838Y-90825167D01*
X144926883Y-91168943D01*
X145189673Y-91432192D01*
X145533201Y-91574838D01*
X145905167Y-91575162D01*
X146248943Y-91433117D01*
X146512192Y-91170327D01*
X146654838Y-90826799D01*
X146655162Y-90454833D01*
X146513117Y-90111057D01*
X146250327Y-89847808D01*
X145906799Y-89705162D01*
X145534833Y-89704838D01*
X145191057Y-89846883D01*
X144927808Y-90109673D01*
X144785162Y-90453201D01*
X144784838Y-90825167D01*
X144148211Y-90825167D01*
X144149137Y-90822939D01*
X144149461Y-90450973D01*
X144007416Y-90107197D01*
X143744626Y-89843948D01*
X143401098Y-89701302D01*
X143029132Y-89700978D01*
X142685356Y-89843023D01*
X142422107Y-90105813D01*
X142279461Y-90449341D01*
X142279137Y-90821307D01*
X137697664Y-90821307D01*
X137764838Y-90659537D01*
X137765162Y-90287571D01*
X137623117Y-89943795D01*
X137360327Y-89680546D01*
X137016799Y-89537900D01*
X136644833Y-89537576D01*
X136301057Y-89679621D01*
X136037808Y-89942411D01*
X135895162Y-90285939D01*
X135894838Y-90657905D01*
X136036883Y-91001681D01*
X136226340Y-91191469D01*
X136037808Y-91379673D01*
X135895162Y-91723201D01*
X135894838Y-92095167D01*
X136036883Y-92438943D01*
X136142710Y-92544954D01*
X136037808Y-92649673D01*
X135895162Y-92993201D01*
X135894838Y-93365167D01*
X136036883Y-93708943D01*
X136142710Y-93814954D01*
X136037808Y-93919673D01*
X135895162Y-94263201D01*
X135895110Y-94323000D01*
X135225111Y-94323000D01*
X135225162Y-94264833D01*
X135083117Y-93921057D01*
X134820327Y-93657808D01*
X134476799Y-93515162D01*
X134104833Y-93514838D01*
X133761057Y-93656883D01*
X133497808Y-93919673D01*
X133355162Y-94263201D01*
X133355110Y-94323000D01*
X116175111Y-94323000D01*
X116175162Y-94264833D01*
X116033117Y-93921057D01*
X115770327Y-93657808D01*
X115426799Y-93515162D01*
X115054833Y-93514838D01*
X114711057Y-93656883D01*
X114447808Y-93919673D01*
X114305162Y-94263201D01*
X114305110Y-94323000D01*
X103470033Y-94323000D01*
X103470177Y-94157835D01*
X103328132Y-93814059D01*
X103065342Y-93550810D01*
X102721814Y-93408164D01*
X102349848Y-93407840D01*
X102006072Y-93549885D01*
X101742823Y-93812675D01*
X101600177Y-94156203D01*
X101600032Y-94323000D01*
X100820000Y-94323000D01*
X100820000Y-91930000D01*
X105065315Y-91930000D01*
X105149809Y-92354779D01*
X105172526Y-92388777D01*
X105128569Y-92453110D01*
X105077560Y-92705000D01*
X105077560Y-93655000D01*
X105121838Y-93890317D01*
X105260910Y-94106441D01*
X105473110Y-94251431D01*
X105725000Y-94302440D01*
X106975000Y-94302440D01*
X107210317Y-94258162D01*
X107426441Y-94119090D01*
X107571431Y-93906890D01*
X107622440Y-93655000D01*
X107622440Y-92705000D01*
X107578162Y-92469683D01*
X107526774Y-92389824D01*
X107550191Y-92354779D01*
X107634685Y-91930000D01*
X107550191Y-91505221D01*
X107309574Y-91145111D01*
X106949464Y-90904494D01*
X106550662Y-90825167D01*
X115574838Y-90825167D01*
X115716883Y-91168943D01*
X115979673Y-91432192D01*
X116323201Y-91574838D01*
X116695167Y-91575162D01*
X117038943Y-91433117D01*
X117302192Y-91170327D01*
X117444838Y-90826799D01*
X117445162Y-90454833D01*
X117303117Y-90111057D01*
X117040327Y-89847808D01*
X116696799Y-89705162D01*
X116324833Y-89704838D01*
X115981057Y-89846883D01*
X115717808Y-90109673D01*
X115575162Y-90453201D01*
X115574838Y-90825167D01*
X106550662Y-90825167D01*
X106524685Y-90820000D01*
X106175315Y-90820000D01*
X105750536Y-90904494D01*
X105390426Y-91145111D01*
X105149809Y-91505221D01*
X105065315Y-91930000D01*
X100820000Y-91930000D01*
X100820000Y-90825167D01*
X101604838Y-90825167D01*
X101746883Y-91168943D01*
X102009673Y-91432192D01*
X102353201Y-91574838D01*
X102725167Y-91575162D01*
X103068943Y-91433117D01*
X103332192Y-91170327D01*
X103474838Y-90826799D01*
X103475162Y-90454833D01*
X103333117Y-90111057D01*
X103070327Y-89847808D01*
X102726799Y-89705162D01*
X102354833Y-89704838D01*
X102011057Y-89846883D01*
X101747808Y-90109673D01*
X101605162Y-90453201D01*
X101604838Y-90825167D01*
X100820000Y-90825167D01*
X100820000Y-88285167D01*
X132084838Y-88285167D01*
X132226883Y-88628943D01*
X132489673Y-88892192D01*
X132833201Y-89034838D01*
X133205167Y-89035162D01*
X133548943Y-88893117D01*
X133812192Y-88630327D01*
X133954838Y-88286799D01*
X133954839Y-88285167D01*
X138434838Y-88285167D01*
X138576883Y-88628943D01*
X138839673Y-88892192D01*
X139183201Y-89034838D01*
X139555167Y-89035162D01*
X139717337Y-88968155D01*
X139846883Y-89281682D01*
X140109673Y-89544931D01*
X140453201Y-89687577D01*
X140825167Y-89687901D01*
X141168943Y-89545856D01*
X141432192Y-89283066D01*
X141574838Y-88939538D01*
X141574839Y-88937906D01*
X144784838Y-88937906D01*
X144926883Y-89281682D01*
X145189673Y-89544931D01*
X145533201Y-89687577D01*
X145905167Y-89687901D01*
X146248943Y-89545856D01*
X146512192Y-89283066D01*
X146654838Y-88939538D01*
X146655162Y-88567572D01*
X146538475Y-88285167D01*
X152404838Y-88285167D01*
X152546883Y-88628943D01*
X152809673Y-88892192D01*
X153153201Y-89034838D01*
X153525167Y-89035162D01*
X153868943Y-88893117D01*
X154132192Y-88630327D01*
X154274838Y-88286799D01*
X154275162Y-87914833D01*
X154133117Y-87571057D01*
X153870327Y-87307808D01*
X153526799Y-87165162D01*
X153154833Y-87164838D01*
X152811057Y-87306883D01*
X152547808Y-87569673D01*
X152405162Y-87913201D01*
X152404838Y-88285167D01*
X146538475Y-88285167D01*
X146513117Y-88223796D01*
X146250327Y-87960547D01*
X145906799Y-87817901D01*
X145534833Y-87817577D01*
X145191057Y-87959622D01*
X144927808Y-88222412D01*
X144785162Y-88565940D01*
X144784838Y-88937906D01*
X141574839Y-88937906D01*
X141575162Y-88567572D01*
X141433117Y-88223796D01*
X141170327Y-87960547D01*
X140826799Y-87817901D01*
X140454833Y-87817577D01*
X140292663Y-87884584D01*
X140163117Y-87571057D01*
X139900327Y-87307808D01*
X139556799Y-87165162D01*
X139184833Y-87164838D01*
X138841057Y-87306883D01*
X138577808Y-87569673D01*
X138435162Y-87913201D01*
X138434838Y-88285167D01*
X133954839Y-88285167D01*
X133955162Y-87914833D01*
X133813117Y-87571057D01*
X133550327Y-87307808D01*
X133206799Y-87165162D01*
X132834833Y-87164838D01*
X132491057Y-87306883D01*
X132227808Y-87569673D01*
X132085162Y-87913201D01*
X132084838Y-88285167D01*
X100820000Y-88285167D01*
X100820000Y-85560000D01*
X105065315Y-85560000D01*
X105149809Y-85984779D01*
X105172526Y-86018777D01*
X105128569Y-86083110D01*
X105077560Y-86335000D01*
X105077560Y-87285000D01*
X105121838Y-87520317D01*
X105260910Y-87736441D01*
X105473110Y-87881431D01*
X105725000Y-87932440D01*
X106975000Y-87932440D01*
X107210317Y-87888162D01*
X107426441Y-87749090D01*
X107571431Y-87536890D01*
X107622440Y-87285000D01*
X107622440Y-86335000D01*
X107578162Y-86099683D01*
X107526774Y-86019824D01*
X107550191Y-85984779D01*
X107634685Y-85560000D01*
X107623669Y-85504615D01*
X134384286Y-85504615D01*
X134526331Y-85848391D01*
X134789121Y-86111640D01*
X135132649Y-86254286D01*
X135504615Y-86254610D01*
X135848391Y-86112565D01*
X136111640Y-85849775D01*
X136131030Y-85803077D01*
X139059838Y-85803077D01*
X139201883Y-86146853D01*
X139464673Y-86410102D01*
X139808201Y-86552748D01*
X140180167Y-86553072D01*
X140523943Y-86411027D01*
X140787192Y-86148237D01*
X140929838Y-85804709D01*
X140929889Y-85745167D01*
X142244838Y-85745167D01*
X142386883Y-86088943D01*
X142649673Y-86352192D01*
X142993201Y-86494838D01*
X143365167Y-86495162D01*
X143708943Y-86353117D01*
X143972192Y-86090327D01*
X144114838Y-85746799D01*
X144115162Y-85374833D01*
X144044110Y-85202873D01*
X144231925Y-85125270D01*
X144442713Y-85212797D01*
X144814679Y-85213121D01*
X145158455Y-85071076D01*
X145421704Y-84808286D01*
X145564350Y-84464758D01*
X145564674Y-84092792D01*
X145422629Y-83749016D01*
X145159839Y-83485767D01*
X144816311Y-83343121D01*
X144444345Y-83342797D01*
X144202587Y-83442689D01*
X143991799Y-83355162D01*
X143619833Y-83354838D01*
X143276057Y-83496883D01*
X143012808Y-83759673D01*
X142870162Y-84103201D01*
X142869838Y-84475167D01*
X142940890Y-84647127D01*
X142651057Y-84766883D01*
X142387808Y-85029673D01*
X142245162Y-85373201D01*
X142244838Y-85745167D01*
X140929889Y-85745167D01*
X140930162Y-85432743D01*
X140788117Y-85088967D01*
X140525327Y-84825718D01*
X140181799Y-84683072D01*
X139809833Y-84682748D01*
X139466057Y-84824793D01*
X139202808Y-85087583D01*
X139060162Y-85431111D01*
X139059838Y-85803077D01*
X136131030Y-85803077D01*
X136254286Y-85506247D01*
X136254610Y-85134281D01*
X136112565Y-84790505D01*
X135849775Y-84527256D01*
X135506247Y-84384610D01*
X135134281Y-84384286D01*
X134790505Y-84526331D01*
X134527256Y-84789121D01*
X134384610Y-85132649D01*
X134384286Y-85504615D01*
X107623669Y-85504615D01*
X107550191Y-85135221D01*
X107309574Y-84775111D01*
X106949464Y-84534494D01*
X106524685Y-84450000D01*
X106175315Y-84450000D01*
X105750536Y-84534494D01*
X105390426Y-84775111D01*
X105149809Y-85135221D01*
X105065315Y-85560000D01*
X100820000Y-85560000D01*
X100820000Y-81935167D01*
X105414838Y-81935167D01*
X105556883Y-82278943D01*
X105819673Y-82542192D01*
X106163201Y-82684838D01*
X106535167Y-82685162D01*
X106790430Y-82579690D01*
X106685162Y-82833201D01*
X106684838Y-83205167D01*
X106826883Y-83548943D01*
X107089673Y-83812192D01*
X107433201Y-83954838D01*
X107805167Y-83955162D01*
X108148943Y-83813117D01*
X108412192Y-83550327D01*
X108554838Y-83206799D01*
X108554970Y-83055167D01*
X187014838Y-83055167D01*
X187156883Y-83398943D01*
X187419673Y-83662192D01*
X187763201Y-83804838D01*
X188135167Y-83805162D01*
X188478943Y-83663117D01*
X188742192Y-83400327D01*
X188884838Y-83056799D01*
X188885162Y-82684833D01*
X188743117Y-82341057D01*
X188480327Y-82077808D01*
X188136799Y-81935162D01*
X187764833Y-81934838D01*
X187421057Y-82076883D01*
X187157808Y-82339673D01*
X187015162Y-82683201D01*
X187014838Y-83055167D01*
X108554970Y-83055167D01*
X108555162Y-82834833D01*
X108413117Y-82491057D01*
X108150327Y-82227808D01*
X107806799Y-82085162D01*
X107434833Y-82084838D01*
X107179570Y-82190310D01*
X107284838Y-81936799D01*
X107285162Y-81564833D01*
X107143117Y-81221057D01*
X106880327Y-80957808D01*
X106536799Y-80815162D01*
X106164833Y-80814838D01*
X105821057Y-80956883D01*
X105557808Y-81219673D01*
X105415162Y-81563201D01*
X105414838Y-81935167D01*
X100820000Y-81935167D01*
X100820000Y-80665167D01*
X130814838Y-80665167D01*
X130956883Y-81008943D01*
X131219673Y-81272192D01*
X131563201Y-81414838D01*
X131935167Y-81415162D01*
X132278943Y-81273117D01*
X132542192Y-81010327D01*
X132684838Y-80666799D01*
X132685162Y-80294833D01*
X132586939Y-80057114D01*
X132798201Y-80144838D01*
X133170167Y-80145162D01*
X133513943Y-80003117D01*
X133637485Y-79879790D01*
X133759673Y-80002192D01*
X134103201Y-80144838D01*
X134475167Y-80145162D01*
X134818943Y-80003117D01*
X135082192Y-79740327D01*
X135224838Y-79396799D01*
X135224839Y-79395167D01*
X138602100Y-79395167D01*
X138744145Y-79738943D01*
X139006935Y-80002192D01*
X139350463Y-80144838D01*
X139722429Y-80145162D01*
X140066205Y-80003117D01*
X140329454Y-79740327D01*
X140472100Y-79396799D01*
X140472424Y-79024833D01*
X140330379Y-78681057D01*
X140067589Y-78417808D01*
X139778307Y-78297687D01*
X141132318Y-78297687D01*
X141274363Y-78641463D01*
X141537153Y-78904712D01*
X141880681Y-79047358D01*
X142252647Y-79047682D01*
X142596423Y-78905637D01*
X142859672Y-78642847D01*
X143002318Y-78299319D01*
X143002642Y-77927353D01*
X142860597Y-77583577D01*
X142597807Y-77320328D01*
X142254279Y-77177682D01*
X141882313Y-77177358D01*
X141538537Y-77319403D01*
X141275288Y-77582193D01*
X141132642Y-77925721D01*
X141132318Y-78297687D01*
X139778307Y-78297687D01*
X139724061Y-78275162D01*
X139352095Y-78274838D01*
X139008319Y-78416883D01*
X138745070Y-78679673D01*
X138602424Y-79023201D01*
X138602100Y-79395167D01*
X135224839Y-79395167D01*
X135225162Y-79024833D01*
X135083117Y-78681057D01*
X134820327Y-78417808D01*
X134476799Y-78275162D01*
X134104833Y-78274838D01*
X133761057Y-78416883D01*
X133637515Y-78540210D01*
X133515327Y-78417808D01*
X133171799Y-78275162D01*
X132799833Y-78274838D01*
X132456057Y-78416883D01*
X132192808Y-78679673D01*
X132050162Y-79023201D01*
X132049838Y-79395167D01*
X132148061Y-79632886D01*
X131936799Y-79545162D01*
X131564833Y-79544838D01*
X131221057Y-79686883D01*
X130957808Y-79949673D01*
X130815162Y-80293201D01*
X130814838Y-80665167D01*
X100820000Y-80665167D01*
X100820000Y-74130000D01*
X105065315Y-74130000D01*
X105155518Y-74583480D01*
X105276858Y-74765078D01*
X105149809Y-74955221D01*
X105065315Y-75380000D01*
X105149809Y-75804779D01*
X105283592Y-76005000D01*
X105149809Y-76205221D01*
X105065315Y-76630000D01*
X105149809Y-77054779D01*
X105283592Y-77255000D01*
X105149809Y-77455221D01*
X105065315Y-77880000D01*
X105149809Y-78304779D01*
X105172526Y-78338777D01*
X105128569Y-78403110D01*
X105077560Y-78655000D01*
X105077560Y-79605000D01*
X105121838Y-79840317D01*
X105260910Y-80056441D01*
X105473110Y-80201431D01*
X105725000Y-80252440D01*
X106975000Y-80252440D01*
X107210317Y-80208162D01*
X107426441Y-80069090D01*
X107571431Y-79856890D01*
X107622440Y-79605000D01*
X107622440Y-78655000D01*
X107578162Y-78419683D01*
X107526774Y-78339824D01*
X107550191Y-78304779D01*
X107634685Y-77880000D01*
X107550191Y-77455221D01*
X107416408Y-77255000D01*
X107550191Y-77054779D01*
X107634685Y-76630000D01*
X107607734Y-76494505D01*
X139344176Y-76494505D01*
X139486221Y-76838281D01*
X139749011Y-77101530D01*
X140092539Y-77244176D01*
X140464505Y-77244500D01*
X140808281Y-77102455D01*
X140995896Y-76915167D01*
X144584838Y-76915167D01*
X144726883Y-77258943D01*
X144989673Y-77522192D01*
X145333201Y-77664838D01*
X145705167Y-77665162D01*
X146048943Y-77523117D01*
X146312192Y-77260327D01*
X146454838Y-76916799D01*
X146454856Y-76895167D01*
X150574838Y-76895167D01*
X150716883Y-77238943D01*
X150979673Y-77502192D01*
X151323201Y-77644838D01*
X151695167Y-77645162D01*
X152038943Y-77503117D01*
X152302192Y-77240327D01*
X152444838Y-76896799D01*
X152445162Y-76524833D01*
X152303117Y-76181057D01*
X152040327Y-75917808D01*
X151696799Y-75775162D01*
X151324833Y-75774838D01*
X150981057Y-75916883D01*
X150717808Y-76179673D01*
X150575162Y-76523201D01*
X150574838Y-76895167D01*
X146454856Y-76895167D01*
X146455162Y-76544833D01*
X146313117Y-76201057D01*
X146050327Y-75937808D01*
X145706799Y-75795162D01*
X145334833Y-75794838D01*
X144991057Y-75936883D01*
X144727808Y-76199673D01*
X144585162Y-76543201D01*
X144584838Y-76915167D01*
X140995896Y-76915167D01*
X141071530Y-76839665D01*
X141214176Y-76496137D01*
X141214500Y-76124171D01*
X141072455Y-75780395D01*
X140809665Y-75517146D01*
X140479383Y-75380000D01*
X187615315Y-75380000D01*
X187699809Y-75804779D01*
X187833592Y-76005000D01*
X187699809Y-76205221D01*
X187615315Y-76630000D01*
X187699809Y-77054779D01*
X187833592Y-77255000D01*
X187699809Y-77455221D01*
X187615315Y-77880000D01*
X187699809Y-78304779D01*
X187826858Y-78494922D01*
X187705518Y-78676520D01*
X187615315Y-79130000D01*
X187705518Y-79583480D01*
X187962393Y-79967922D01*
X188346835Y-80224797D01*
X188800315Y-80315000D01*
X188999685Y-80315000D01*
X189453165Y-80224797D01*
X189837607Y-79967922D01*
X190094482Y-79583480D01*
X190184685Y-79130000D01*
X190094482Y-78676520D01*
X189973142Y-78494922D01*
X190100191Y-78304779D01*
X190184685Y-77880000D01*
X190100191Y-77455221D01*
X189966408Y-77255000D01*
X190100191Y-77054779D01*
X190184685Y-76630000D01*
X190100191Y-76205221D01*
X189966408Y-76005000D01*
X190100191Y-75804779D01*
X190184685Y-75380000D01*
X190100191Y-74955221D01*
X190077474Y-74921223D01*
X190121431Y-74856890D01*
X190172440Y-74605000D01*
X190172440Y-73655000D01*
X190128162Y-73419683D01*
X189989090Y-73203559D01*
X189776890Y-73058569D01*
X189708013Y-73044621D01*
X189708225Y-72801770D01*
X189566180Y-72457994D01*
X189303390Y-72194745D01*
X188959862Y-72052099D01*
X188587896Y-72051775D01*
X188244120Y-72193820D01*
X187980871Y-72456610D01*
X187838225Y-72800138D01*
X187837901Y-73172104D01*
X187841027Y-73179670D01*
X187823559Y-73190910D01*
X187678569Y-73403110D01*
X187627560Y-73655000D01*
X187627560Y-74605000D01*
X187671838Y-74840317D01*
X187723226Y-74920176D01*
X187699809Y-74955221D01*
X187615315Y-75380000D01*
X140479383Y-75380000D01*
X140466137Y-75374500D01*
X140094171Y-75374176D01*
X139750395Y-75516221D01*
X139487146Y-75779011D01*
X139344500Y-76122539D01*
X139344176Y-76494505D01*
X107607734Y-76494505D01*
X107550191Y-76205221D01*
X107416408Y-76005000D01*
X107550191Y-75804779D01*
X107634685Y-75380000D01*
X107550191Y-74955221D01*
X107423142Y-74765078D01*
X107544482Y-74583480D01*
X107634685Y-74130000D01*
X107544482Y-73676520D01*
X107336720Y-73365581D01*
X107462192Y-73240327D01*
X107604838Y-72896799D01*
X107605162Y-72524833D01*
X107463117Y-72181057D01*
X107200327Y-71917808D01*
X106856799Y-71775162D01*
X106484833Y-71774838D01*
X106141057Y-71916883D01*
X105877808Y-72179673D01*
X105735162Y-72523201D01*
X105734838Y-72895167D01*
X105793594Y-73037368D01*
X105412393Y-73292078D01*
X105155518Y-73676520D01*
X105065315Y-74130000D01*
X100820000Y-74130000D01*
X100820000Y-71295167D01*
X111139838Y-71295167D01*
X111281883Y-71638943D01*
X111544673Y-71902192D01*
X111888201Y-72044838D01*
X112260167Y-72045162D01*
X112603943Y-71903117D01*
X112867192Y-71640327D01*
X113009838Y-71296799D01*
X113010162Y-70924833D01*
X112868117Y-70581057D01*
X112605327Y-70317808D01*
X112261799Y-70175162D01*
X111889833Y-70174838D01*
X111546057Y-70316883D01*
X111282808Y-70579673D01*
X111140162Y-70923201D01*
X111139838Y-71295167D01*
X100820000Y-71295167D01*
X100820000Y-66130000D01*
X105065315Y-66130000D01*
X105149809Y-66554779D01*
X105283592Y-66755000D01*
X105149809Y-66955221D01*
X105065315Y-67380000D01*
X105149809Y-67804779D01*
X105283592Y-68005000D01*
X105149809Y-68205221D01*
X105065315Y-68630000D01*
X105149809Y-69054779D01*
X105172526Y-69088777D01*
X105128569Y-69153110D01*
X105077560Y-69405000D01*
X105077560Y-70355000D01*
X105121838Y-70590317D01*
X105260910Y-70806441D01*
X105473110Y-70951431D01*
X105725000Y-71002440D01*
X106975000Y-71002440D01*
X107210317Y-70958162D01*
X107426441Y-70819090D01*
X107571431Y-70606890D01*
X107622440Y-70355000D01*
X107622440Y-69405000D01*
X107578162Y-69169683D01*
X107526774Y-69089824D01*
X107550191Y-69054779D01*
X107634685Y-68630000D01*
X107550191Y-68205221D01*
X107416408Y-68005000D01*
X107550191Y-67804779D01*
X107634685Y-67380000D01*
X107550191Y-66955221D01*
X107416408Y-66755000D01*
X107550191Y-66554779D01*
X107634685Y-66130000D01*
X107550191Y-65705221D01*
X107309574Y-65345111D01*
X106949464Y-65104494D01*
X106524685Y-65020000D01*
X106175315Y-65020000D01*
X105750536Y-65104494D01*
X105390426Y-65345111D01*
X105149809Y-65705221D01*
X105065315Y-66130000D01*
X100820000Y-66130000D01*
X100820000Y-64800166D01*
X116219837Y-64800166D01*
X116361882Y-65143942D01*
X116624672Y-65407191D01*
X116968200Y-65549837D01*
X117340166Y-65550161D01*
X117683942Y-65408116D01*
X117947191Y-65145326D01*
X118089837Y-64801798D01*
X118090161Y-64429832D01*
X117948116Y-64086056D01*
X117685326Y-63822807D01*
X117341798Y-63680161D01*
X116969832Y-63679837D01*
X116626056Y-63821882D01*
X116362807Y-64084672D01*
X116220161Y-64428200D01*
X116219837Y-64800166D01*
X100820000Y-64800166D01*
X100820000Y-62885167D01*
X116844838Y-62885167D01*
X116986883Y-63228943D01*
X117249673Y-63492192D01*
X117593201Y-63634838D01*
X117965167Y-63635162D01*
X118308943Y-63493117D01*
X118572192Y-63230327D01*
X118714838Y-62886799D01*
X118715162Y-62514833D01*
X118573117Y-62171057D01*
X118310327Y-61907808D01*
X117966799Y-61765162D01*
X117594833Y-61764838D01*
X117251057Y-61906883D01*
X116987808Y-62169673D01*
X116845162Y-62513201D01*
X116844838Y-62885167D01*
X100820000Y-62885167D01*
X100820000Y-58110462D01*
X101854422Y-58110462D01*
X102361076Y-59336658D01*
X103298407Y-60275627D01*
X104523717Y-60784420D01*
X105850462Y-60785578D01*
X106698521Y-60435167D01*
X116734838Y-60435167D01*
X116876883Y-60778943D01*
X117139673Y-61042192D01*
X117483201Y-61184838D01*
X117855167Y-61185162D01*
X118198943Y-61043117D01*
X118462192Y-60780327D01*
X118466410Y-60770167D01*
X130284838Y-60770167D01*
X130426883Y-61113943D01*
X130689673Y-61377192D01*
X131033201Y-61519838D01*
X131405167Y-61520162D01*
X131748943Y-61378117D01*
X132012192Y-61115327D01*
X132154838Y-60771799D01*
X132155162Y-60399833D01*
X132132575Y-60345167D01*
X151134838Y-60345167D01*
X151276883Y-60688943D01*
X151539673Y-60952192D01*
X151883201Y-61094838D01*
X152255167Y-61095162D01*
X152598943Y-60953117D01*
X152862192Y-60690327D01*
X153004838Y-60346799D01*
X153005162Y-59974833D01*
X152863117Y-59631057D01*
X152600327Y-59367808D01*
X152256799Y-59225162D01*
X151884833Y-59224838D01*
X151541057Y-59366883D01*
X151277808Y-59629673D01*
X151135162Y-59973201D01*
X151134838Y-60345167D01*
X132132575Y-60345167D01*
X132013117Y-60056057D01*
X131947238Y-59990063D01*
X132072192Y-59865327D01*
X132214838Y-59521799D01*
X132215162Y-59149833D01*
X132073117Y-58806057D01*
X131810327Y-58542808D01*
X131466799Y-58400162D01*
X131094833Y-58399838D01*
X130751057Y-58541883D01*
X130487808Y-58804673D01*
X130345162Y-59148201D01*
X130344838Y-59520167D01*
X130486883Y-59863943D01*
X130552762Y-59929937D01*
X130427808Y-60054673D01*
X130285162Y-60398201D01*
X130284838Y-60770167D01*
X118466410Y-60770167D01*
X118604838Y-60436799D01*
X118605162Y-60064833D01*
X118483395Y-59770134D01*
X118515167Y-59770162D01*
X118858943Y-59628117D01*
X119122192Y-59365327D01*
X119264838Y-59021799D01*
X119265162Y-58649833D01*
X119123117Y-58306057D01*
X118860327Y-58042808D01*
X118516799Y-57900162D01*
X118144833Y-57899838D01*
X117801057Y-58041883D01*
X117537808Y-58304673D01*
X117395162Y-58648201D01*
X117394838Y-59020167D01*
X117516605Y-59314866D01*
X117484833Y-59314838D01*
X117141057Y-59456883D01*
X116877808Y-59719673D01*
X116735162Y-60063201D01*
X116734838Y-60435167D01*
X106698521Y-60435167D01*
X107076658Y-60278924D01*
X108015627Y-59341593D01*
X108524420Y-58116283D01*
X108524691Y-57805167D01*
X109224838Y-57805167D01*
X109366883Y-58148943D01*
X109629673Y-58412192D01*
X109973201Y-58554838D01*
X110345167Y-58555162D01*
X110688943Y-58413117D01*
X110952192Y-58150327D01*
X111094838Y-57806799D01*
X111094973Y-57650725D01*
X127159280Y-57650725D01*
X127301325Y-57994501D01*
X127564115Y-58257750D01*
X127907643Y-58400396D01*
X128279609Y-58400720D01*
X128623385Y-58258675D01*
X128886634Y-57995885D01*
X129029280Y-57652357D01*
X129029465Y-57439400D01*
X129165910Y-57651441D01*
X129378110Y-57796431D01*
X129630000Y-57847440D01*
X131330000Y-57847440D01*
X131565317Y-57803162D01*
X131781441Y-57664090D01*
X131926431Y-57451890D01*
X131940086Y-57384459D01*
X131969946Y-57429147D01*
X132451715Y-57751054D01*
X133020000Y-57864093D01*
X133588285Y-57751054D01*
X134070054Y-57429147D01*
X134290000Y-57099974D01*
X134509946Y-57429147D01*
X134991715Y-57751054D01*
X135560000Y-57864093D01*
X136128285Y-57751054D01*
X136610054Y-57429147D01*
X136830000Y-57099974D01*
X137049946Y-57429147D01*
X137531715Y-57751054D01*
X138100000Y-57864093D01*
X138668285Y-57751054D01*
X139150054Y-57429147D01*
X139471961Y-56947378D01*
X139585000Y-56379093D01*
X139585000Y-56320907D01*
X139471961Y-55752622D01*
X139303165Y-55500000D01*
X141422560Y-55500000D01*
X141422560Y-57200000D01*
X141466838Y-57435317D01*
X141605910Y-57651441D01*
X141818110Y-57796431D01*
X142070000Y-57847440D01*
X143278877Y-57847440D01*
X143278705Y-58045149D01*
X143420750Y-58388925D01*
X143683540Y-58652174D01*
X144027068Y-58794820D01*
X144399034Y-58795144D01*
X144742810Y-58653099D01*
X144850680Y-58545417D01*
X144785162Y-58703201D01*
X144784838Y-59075167D01*
X144926883Y-59418943D01*
X145189673Y-59682192D01*
X145533201Y-59824838D01*
X145905167Y-59825162D01*
X146248943Y-59683117D01*
X146512192Y-59420327D01*
X146654838Y-59076799D01*
X146655036Y-58848389D01*
X148594838Y-58848389D01*
X148736883Y-59192165D01*
X148999673Y-59455414D01*
X149343201Y-59598060D01*
X149715167Y-59598384D01*
X150058943Y-59456339D01*
X150322192Y-59193549D01*
X150464838Y-58850021D01*
X150465162Y-58478055D01*
X150323117Y-58134279D01*
X150060327Y-57871030D01*
X149716799Y-57728384D01*
X149344833Y-57728060D01*
X149001057Y-57870105D01*
X148737808Y-58132895D01*
X148595162Y-58476423D01*
X148594838Y-58848389D01*
X146655036Y-58848389D01*
X146655162Y-58704833D01*
X146513117Y-58361057D01*
X146250327Y-58097808D01*
X145906799Y-57955162D01*
X145534833Y-57954838D01*
X145191057Y-58096883D01*
X145083187Y-58204565D01*
X145148705Y-58046781D01*
X145148918Y-57802215D01*
X145460000Y-57864093D01*
X146028285Y-57751054D01*
X146510054Y-57429147D01*
X146730000Y-57099974D01*
X146949946Y-57429147D01*
X147431715Y-57751054D01*
X148000000Y-57864093D01*
X148568285Y-57751054D01*
X149050054Y-57429147D01*
X149270000Y-57099974D01*
X149489946Y-57429147D01*
X149971715Y-57751054D01*
X150540000Y-57864093D01*
X151108285Y-57751054D01*
X151590054Y-57429147D01*
X151810000Y-57099974D01*
X152029946Y-57429147D01*
X152511715Y-57751054D01*
X153080000Y-57864093D01*
X153648285Y-57751054D01*
X154130054Y-57429147D01*
X154451961Y-56947378D01*
X154565000Y-56379093D01*
X154565000Y-56320907D01*
X154451961Y-55752622D01*
X154283165Y-55500000D01*
X156922560Y-55500000D01*
X156922560Y-57200000D01*
X156966838Y-57435317D01*
X157105910Y-57651441D01*
X157318110Y-57796431D01*
X157570000Y-57847440D01*
X159270000Y-57847440D01*
X159505317Y-57803162D01*
X159721441Y-57664090D01*
X159866431Y-57451890D01*
X159880086Y-57384459D01*
X159909946Y-57429147D01*
X160391715Y-57751054D01*
X160960000Y-57864093D01*
X161528285Y-57751054D01*
X162010054Y-57429147D01*
X162230000Y-57099974D01*
X162449946Y-57429147D01*
X162931715Y-57751054D01*
X163500000Y-57864093D01*
X164068285Y-57751054D01*
X164550054Y-57429147D01*
X164871961Y-56947378D01*
X164985000Y-56379093D01*
X164985000Y-56320907D01*
X164871961Y-55752622D01*
X164816409Y-55669482D01*
X187084336Y-55669482D01*
X187666950Y-57079515D01*
X188744811Y-58159259D01*
X190153825Y-58744333D01*
X191679482Y-58745664D01*
X193089515Y-58163050D01*
X194169259Y-57085189D01*
X194754333Y-55676175D01*
X194755664Y-54150518D01*
X194173050Y-52740485D01*
X193095189Y-51660741D01*
X191686175Y-51075667D01*
X190160518Y-51074336D01*
X188750485Y-51656950D01*
X187670741Y-52734811D01*
X187085667Y-54143825D01*
X187084336Y-55669482D01*
X164816409Y-55669482D01*
X164550054Y-55270853D01*
X164264422Y-55080000D01*
X164550054Y-54889147D01*
X164871961Y-54407378D01*
X164985000Y-53839093D01*
X164985000Y-53780907D01*
X164871961Y-53212622D01*
X164550054Y-52730853D01*
X164068285Y-52408946D01*
X163500000Y-52295907D01*
X162931715Y-52408946D01*
X162449946Y-52730853D01*
X162230000Y-53060026D01*
X162010054Y-52730853D01*
X161528285Y-52408946D01*
X160960000Y-52295907D01*
X160391715Y-52408946D01*
X159909946Y-52730853D01*
X159690000Y-53060026D01*
X159470054Y-52730853D01*
X158988285Y-52408946D01*
X158420000Y-52295907D01*
X157851715Y-52408946D01*
X157369946Y-52730853D01*
X157048039Y-53212622D01*
X156935000Y-53780907D01*
X156935000Y-53839093D01*
X157048039Y-54407378D01*
X157369946Y-54889147D01*
X157371179Y-54889971D01*
X157334683Y-54896838D01*
X157118559Y-55035910D01*
X156973569Y-55248110D01*
X156922560Y-55500000D01*
X154283165Y-55500000D01*
X154130054Y-55270853D01*
X153844422Y-55080000D01*
X154130054Y-54889147D01*
X154451961Y-54407378D01*
X154565000Y-53839093D01*
X154565000Y-53780907D01*
X154451961Y-53212622D01*
X154130054Y-52730853D01*
X153648285Y-52408946D01*
X153080000Y-52295907D01*
X152511715Y-52408946D01*
X152029946Y-52730853D01*
X151810000Y-53060026D01*
X151590054Y-52730853D01*
X151108285Y-52408946D01*
X150540000Y-52295907D01*
X149971715Y-52408946D01*
X149489946Y-52730853D01*
X149270000Y-53060026D01*
X149050054Y-52730853D01*
X148568285Y-52408946D01*
X148000000Y-52295907D01*
X147431715Y-52408946D01*
X146949946Y-52730853D01*
X146730000Y-53060026D01*
X146510054Y-52730853D01*
X146028285Y-52408946D01*
X145460000Y-52295907D01*
X144891715Y-52408946D01*
X144409946Y-52730853D01*
X144190000Y-53060026D01*
X143970054Y-52730853D01*
X143488285Y-52408946D01*
X142920000Y-52295907D01*
X142351715Y-52408946D01*
X141869946Y-52730853D01*
X141548039Y-53212622D01*
X141435000Y-53780907D01*
X141435000Y-53839093D01*
X141548039Y-54407378D01*
X141869946Y-54889147D01*
X141871179Y-54889971D01*
X141834683Y-54896838D01*
X141618559Y-55035910D01*
X141473569Y-55248110D01*
X141422560Y-55500000D01*
X139303165Y-55500000D01*
X139150054Y-55270853D01*
X138864422Y-55080000D01*
X139150054Y-54889147D01*
X139471961Y-54407378D01*
X139585000Y-53839093D01*
X139585000Y-53780907D01*
X139471961Y-53212622D01*
X139150054Y-52730853D01*
X138668285Y-52408946D01*
X138100000Y-52295907D01*
X137531715Y-52408946D01*
X137049946Y-52730853D01*
X136822298Y-53071553D01*
X136755183Y-52928642D01*
X136326924Y-52538355D01*
X135916890Y-52368524D01*
X135687000Y-52489845D01*
X135687000Y-53683000D01*
X135707000Y-53683000D01*
X135707000Y-53937000D01*
X135687000Y-53937000D01*
X135687000Y-53957000D01*
X135433000Y-53957000D01*
X135433000Y-53937000D01*
X135413000Y-53937000D01*
X135413000Y-53683000D01*
X135433000Y-53683000D01*
X135433000Y-52489845D01*
X135203110Y-52368524D01*
X134793076Y-52538355D01*
X134364817Y-52928642D01*
X134297702Y-53071553D01*
X134070054Y-52730853D01*
X133588285Y-52408946D01*
X133020000Y-52295907D01*
X132451715Y-52408946D01*
X131969946Y-52730853D01*
X131750000Y-53060026D01*
X131530054Y-52730853D01*
X131048285Y-52408946D01*
X130480000Y-52295907D01*
X129911715Y-52408946D01*
X129429946Y-52730853D01*
X129108039Y-53212622D01*
X128995000Y-53780907D01*
X128995000Y-53839093D01*
X129108039Y-54407378D01*
X129429946Y-54889147D01*
X129431179Y-54889971D01*
X129394683Y-54896838D01*
X129178559Y-55035910D01*
X129033569Y-55248110D01*
X128982560Y-55500000D01*
X128982560Y-57166536D01*
X128887559Y-56936615D01*
X128624769Y-56673366D01*
X128281241Y-56530720D01*
X127909275Y-56530396D01*
X127565499Y-56672441D01*
X127302250Y-56935231D01*
X127159604Y-57278759D01*
X127159280Y-57650725D01*
X111094973Y-57650725D01*
X111095162Y-57434833D01*
X110953117Y-57091057D01*
X110690327Y-56827808D01*
X110346799Y-56685162D01*
X109974833Y-56684838D01*
X109631057Y-56826883D01*
X109367808Y-57089673D01*
X109225162Y-57433201D01*
X109224838Y-57805167D01*
X108524691Y-57805167D01*
X108525578Y-56789538D01*
X108470058Y-56655167D01*
X111474838Y-56655167D01*
X111616883Y-56998943D01*
X111879673Y-57262192D01*
X112223201Y-57404838D01*
X112595167Y-57405162D01*
X112938943Y-57263117D01*
X113202192Y-57000327D01*
X113344838Y-56656799D01*
X113345162Y-56284833D01*
X113203117Y-55941057D01*
X112940327Y-55677808D01*
X112596799Y-55535162D01*
X112224833Y-55534838D01*
X111881057Y-55676883D01*
X111617808Y-55939673D01*
X111475162Y-56283201D01*
X111474838Y-56655167D01*
X108470058Y-56655167D01*
X108018924Y-55563342D01*
X107081593Y-54624373D01*
X105856283Y-54115580D01*
X104529538Y-54114422D01*
X103303342Y-54621076D01*
X102364373Y-55558407D01*
X101855580Y-56783717D01*
X101854422Y-58110462D01*
X100820000Y-58110462D01*
X100820000Y-52725167D01*
X127004838Y-52725167D01*
X127146883Y-53068943D01*
X127409673Y-53332192D01*
X127753201Y-53474838D01*
X128125167Y-53475162D01*
X128468943Y-53333117D01*
X128732192Y-53070327D01*
X128874838Y-52726799D01*
X128875162Y-52354833D01*
X128733117Y-52011057D01*
X128470327Y-51747808D01*
X128126799Y-51605162D01*
X127754833Y-51604838D01*
X127411057Y-51746883D01*
X127147808Y-52009673D01*
X127005162Y-52353201D01*
X127004838Y-52725167D01*
X100820000Y-52725167D01*
X100820000Y-50540000D01*
X195290000Y-50540000D01*
X195290000Y-94323000D01*
G36*
X106684838Y-95905167D02*
X106826883Y-96248943D01*
X107089673Y-96512192D01*
X107433201Y-96654838D01*
X107805167Y-96655162D01*
X108148943Y-96513117D01*
X108412192Y-96250327D01*
X108554838Y-95906799D01*
X108554890Y-95847000D01*
X146863000Y-95847000D01*
X146863000Y-108840765D01*
X146700327Y-108677808D01*
X146356799Y-108535162D01*
X145984833Y-108534838D01*
X145641057Y-108676883D01*
X145377808Y-108939673D01*
X145235162Y-109283201D01*
X145234838Y-109655167D01*
X145376883Y-109998943D01*
X145437788Y-110059954D01*
X145287808Y-110209673D01*
X145145162Y-110553201D01*
X145144838Y-110925167D01*
X145286883Y-111268943D01*
X145549673Y-111532192D01*
X145675608Y-111584485D01*
X145563220Y-111855143D01*
X145562896Y-112227109D01*
X145704941Y-112570885D01*
X145967731Y-112834134D01*
X146311259Y-112976780D01*
X146683225Y-112977104D01*
X146863000Y-112902823D01*
X146863000Y-116975399D01*
X146733117Y-116661057D01*
X146470327Y-116397808D01*
X146126799Y-116255162D01*
X145754833Y-116254838D01*
X145411057Y-116396883D01*
X145147808Y-116659673D01*
X145005162Y-117003201D01*
X145004838Y-117375167D01*
X145146883Y-117718943D01*
X145409673Y-117982192D01*
X145753201Y-118124838D01*
X146125167Y-118125162D01*
X146468943Y-117983117D01*
X146732192Y-117720327D01*
X146863000Y-117405308D01*
X146863000Y-131210765D01*
X146700327Y-131047808D01*
X146356799Y-130905162D01*
X145984833Y-130904838D01*
X145641057Y-131046883D01*
X145377808Y-131309673D01*
X145235162Y-131653201D01*
X145234838Y-132025167D01*
X145376883Y-132368943D01*
X145639673Y-132632192D01*
X145983201Y-132774838D01*
X146355167Y-132775162D01*
X146698943Y-132633117D01*
X146863000Y-132469346D01*
X146863000Y-139290000D01*
X100820000Y-139290000D01*
X100820000Y-135395167D01*
X125734838Y-135395167D01*
X125876883Y-135738943D01*
X126139673Y-136002192D01*
X126483201Y-136144838D01*
X126855167Y-136145162D01*
X127198943Y-136003117D01*
X127462192Y-135740327D01*
X127604838Y-135396799D01*
X127605162Y-135024833D01*
X127463117Y-134681057D01*
X127200327Y-134417808D01*
X126856799Y-134275162D01*
X126484833Y-134274838D01*
X126141057Y-134416883D01*
X125877808Y-134679673D01*
X125735162Y-135023201D01*
X125734838Y-135395167D01*
X100820000Y-135395167D01*
X100820000Y-131899482D01*
X101354336Y-131899482D01*
X101936950Y-133309515D01*
X103014811Y-134389259D01*
X104423825Y-134974333D01*
X105949482Y-134975664D01*
X107359515Y-134393050D01*
X108439259Y-133315189D01*
X109024333Y-131906175D01*
X109024813Y-131355167D01*
X134424838Y-131355167D01*
X134566883Y-131698943D01*
X134829673Y-131962192D01*
X135173201Y-132104838D01*
X135545167Y-132105162D01*
X135690366Y-132045167D01*
X143164838Y-132045167D01*
X143306883Y-132388943D01*
X143443670Y-132525969D01*
X143345162Y-132763201D01*
X143344838Y-133135167D01*
X143486883Y-133478943D01*
X143749673Y-133742192D01*
X144093201Y-133884838D01*
X144465167Y-133885162D01*
X144808943Y-133743117D01*
X145072192Y-133480327D01*
X145214838Y-133136799D01*
X145215162Y-132764833D01*
X145073117Y-132421057D01*
X144936330Y-132284031D01*
X145034838Y-132046799D01*
X145035162Y-131674833D01*
X144893117Y-131331057D01*
X144630327Y-131067808D01*
X144286799Y-130925162D01*
X143914833Y-130924838D01*
X143571057Y-131066883D01*
X143307808Y-131329673D01*
X143165162Y-131673201D01*
X143164838Y-132045167D01*
X135690366Y-132045167D01*
X135888943Y-131963117D01*
X136152192Y-131700327D01*
X136294838Y-131356799D01*
X136295162Y-130984833D01*
X136153117Y-130641057D01*
X135997499Y-130485167D01*
X141634838Y-130485167D01*
X141776883Y-130828943D01*
X142039673Y-131092192D01*
X142383201Y-131234838D01*
X142755167Y-131235162D01*
X143098943Y-131093117D01*
X143362192Y-130830327D01*
X143504838Y-130486799D01*
X143505031Y-130264909D01*
X143795167Y-130265162D01*
X144138943Y-130123117D01*
X144402192Y-129860327D01*
X144544838Y-129516799D01*
X144545162Y-129144833D01*
X144403117Y-128801057D01*
X144140327Y-128537808D01*
X143796799Y-128395162D01*
X143424833Y-128394838D01*
X143081057Y-128536883D01*
X142817808Y-128799673D01*
X142675162Y-129143201D01*
X142674969Y-129365091D01*
X142384833Y-129364838D01*
X142041057Y-129506883D01*
X141777808Y-129769673D01*
X141635162Y-130113201D01*
X141634838Y-130485167D01*
X135997499Y-130485167D01*
X135890327Y-130377808D01*
X135546799Y-130235162D01*
X135174833Y-130234838D01*
X134831057Y-130376883D01*
X134567808Y-130639673D01*
X134425162Y-130983201D01*
X134424838Y-131355167D01*
X109024813Y-131355167D01*
X109025664Y-130380518D01*
X108882968Y-130035167D01*
X129664838Y-130035167D01*
X129806883Y-130378943D01*
X130069673Y-130642192D01*
X130413201Y-130784838D01*
X130785167Y-130785162D01*
X131128943Y-130643117D01*
X131392192Y-130380327D01*
X131534838Y-130036799D01*
X131535162Y-129664833D01*
X131393117Y-129321057D01*
X131130327Y-129057808D01*
X130786799Y-128915162D01*
X130414833Y-128914838D01*
X130071057Y-129056883D01*
X129807808Y-129319673D01*
X129665162Y-129663201D01*
X129664838Y-130035167D01*
X108882968Y-130035167D01*
X108443050Y-128970485D01*
X107365189Y-127890741D01*
X105956175Y-127305667D01*
X104430518Y-127304336D01*
X103020485Y-127886950D01*
X101940741Y-128964811D01*
X101355667Y-130373825D01*
X101354336Y-131899482D01*
X100820000Y-131899482D01*
X100820000Y-126695167D01*
X141494838Y-126695167D01*
X141636883Y-127038943D01*
X141899673Y-127302192D01*
X142243201Y-127444838D01*
X142615167Y-127445162D01*
X142958943Y-127303117D01*
X143222192Y-127040327D01*
X143364838Y-126696799D01*
X143365162Y-126324833D01*
X143223117Y-125981057D01*
X142960327Y-125717808D01*
X142616799Y-125575162D01*
X142244833Y-125574838D01*
X141901057Y-125716883D01*
X141637808Y-125979673D01*
X141495162Y-126323201D01*
X141494838Y-126695167D01*
X100820000Y-126695167D01*
X100820000Y-121560000D01*
X105065315Y-121560000D01*
X105149809Y-121984779D01*
X105283592Y-122185000D01*
X105149809Y-122385221D01*
X105065315Y-122810000D01*
X105149809Y-123234779D01*
X105283592Y-123435000D01*
X105149809Y-123635221D01*
X105065315Y-124060000D01*
X105149809Y-124484779D01*
X105172526Y-124518777D01*
X105128569Y-124583110D01*
X105077560Y-124835000D01*
X105077560Y-125785000D01*
X105121838Y-126020317D01*
X105260910Y-126236441D01*
X105473110Y-126381431D01*
X105725000Y-126432440D01*
X106975000Y-126432440D01*
X107210317Y-126388162D01*
X107426441Y-126249090D01*
X107571431Y-126036890D01*
X107622440Y-125785000D01*
X107622440Y-124835000D01*
X107578162Y-124599683D01*
X107526774Y-124519824D01*
X107550191Y-124484779D01*
X107634685Y-124060000D01*
X107591952Y-123845167D01*
X134624838Y-123845167D01*
X134766883Y-124188943D01*
X135029673Y-124452192D01*
X135373201Y-124594838D01*
X135745167Y-124595162D01*
X136088943Y-124453117D01*
X136352192Y-124190327D01*
X136494838Y-123846799D01*
X136495162Y-123474833D01*
X136353117Y-123131057D01*
X136090327Y-122867808D01*
X135746799Y-122725162D01*
X135374833Y-122724838D01*
X135031057Y-122866883D01*
X134767808Y-123129673D01*
X134625162Y-123473201D01*
X134624838Y-123845167D01*
X107591952Y-123845167D01*
X107550191Y-123635221D01*
X107416408Y-123435000D01*
X107550191Y-123234779D01*
X107634685Y-122810000D01*
X107550191Y-122385221D01*
X107416408Y-122185000D01*
X107550191Y-121984779D01*
X107634685Y-121560000D01*
X107595931Y-121365167D01*
X137514838Y-121365167D01*
X137656883Y-121708943D01*
X137919673Y-121972192D01*
X138263201Y-122114838D01*
X138635167Y-122115162D01*
X138978943Y-121973117D01*
X139242192Y-121710327D01*
X139384838Y-121366799D01*
X139385162Y-120994833D01*
X139243117Y-120651057D01*
X138980327Y-120387808D01*
X138636799Y-120245162D01*
X138264833Y-120244838D01*
X137921057Y-120386883D01*
X137657808Y-120649673D01*
X137515162Y-120993201D01*
X137514838Y-121365167D01*
X107595931Y-121365167D01*
X107550191Y-121135221D01*
X107309574Y-120775111D01*
X106949464Y-120534494D01*
X106524685Y-120450000D01*
X106175315Y-120450000D01*
X105750536Y-120534494D01*
X105390426Y-120775111D01*
X105149809Y-121135221D01*
X105065315Y-121560000D01*
X100820000Y-121560000D01*
X100820000Y-112310000D01*
X105065315Y-112310000D01*
X105155518Y-112763480D01*
X105276858Y-112945078D01*
X105149809Y-113135221D01*
X105065315Y-113560000D01*
X105149809Y-113984779D01*
X105283592Y-114185000D01*
X105149809Y-114385221D01*
X105065315Y-114810000D01*
X105149809Y-115234779D01*
X105283592Y-115435000D01*
X105149809Y-115635221D01*
X105065315Y-116060000D01*
X105149809Y-116484779D01*
X105172526Y-116518777D01*
X105128569Y-116583110D01*
X105077560Y-116835000D01*
X105077560Y-117785000D01*
X105121838Y-118020317D01*
X105260910Y-118236441D01*
X105473110Y-118381431D01*
X105725000Y-118432440D01*
X105734997Y-118432440D01*
X105734838Y-118615167D01*
X105876883Y-118958943D01*
X106139673Y-119222192D01*
X106483201Y-119364838D01*
X106855167Y-119365162D01*
X107198943Y-119223117D01*
X107462192Y-118960327D01*
X107560088Y-118724568D01*
X141904838Y-118724568D01*
X142046883Y-119068344D01*
X142309673Y-119331593D01*
X142653201Y-119474239D01*
X143025167Y-119474563D01*
X143368943Y-119332518D01*
X143632192Y-119069728D01*
X143774838Y-118726200D01*
X143775162Y-118354234D01*
X143633117Y-118010458D01*
X143370327Y-117747209D01*
X143026799Y-117604563D01*
X142654833Y-117604239D01*
X142311057Y-117746284D01*
X142047808Y-118009074D01*
X141905162Y-118352602D01*
X141904838Y-118724568D01*
X107560088Y-118724568D01*
X107604838Y-118616799D01*
X107605162Y-118244833D01*
X107538909Y-118084488D01*
X107571431Y-118036890D01*
X107622440Y-117785000D01*
X107622440Y-116835000D01*
X107578162Y-116599683D01*
X107526774Y-116519824D01*
X107550191Y-116484779D01*
X107634685Y-116060000D01*
X107550191Y-115635221D01*
X107513406Y-115580167D01*
X128294837Y-115580167D01*
X128436882Y-115923943D01*
X128699672Y-116187192D01*
X129043200Y-116329838D01*
X129415166Y-116330162D01*
X129562984Y-116269085D01*
X129686883Y-116568943D01*
X129949673Y-116832192D01*
X130293201Y-116974838D01*
X130665167Y-116975162D01*
X131008943Y-116833117D01*
X131272192Y-116570327D01*
X131299248Y-116505167D01*
X133694838Y-116505167D01*
X133836883Y-116848943D01*
X134099673Y-117112192D01*
X134443201Y-117254838D01*
X134815167Y-117255162D01*
X135158943Y-117113117D01*
X135422192Y-116850327D01*
X135564838Y-116506799D01*
X135565162Y-116134833D01*
X135423117Y-115791057D01*
X135160327Y-115527808D01*
X134816799Y-115385162D01*
X134444833Y-115384838D01*
X134101057Y-115526883D01*
X133837808Y-115789673D01*
X133695162Y-116133201D01*
X133694838Y-116505167D01*
X131299248Y-116505167D01*
X131414838Y-116226799D01*
X131415162Y-115854833D01*
X131273117Y-115511057D01*
X131167290Y-115405046D01*
X131272192Y-115300327D01*
X131414838Y-114956799D01*
X131415162Y-114584833D01*
X131273117Y-114241057D01*
X131010327Y-113977808D01*
X130666799Y-113835162D01*
X130294833Y-113834838D01*
X129951057Y-113976883D01*
X129687808Y-114239673D01*
X129569861Y-114523720D01*
X129416798Y-114460162D01*
X129044832Y-114459838D01*
X128701056Y-114601883D01*
X128437807Y-114864673D01*
X128295161Y-115208201D01*
X128294837Y-115580167D01*
X107513406Y-115580167D01*
X107416408Y-115435000D01*
X107550191Y-115234779D01*
X107634685Y-114810000D01*
X107550191Y-114385221D01*
X107416408Y-114185000D01*
X107550191Y-113984779D01*
X107634685Y-113560000D01*
X107550191Y-113135221D01*
X107423142Y-112945078D01*
X107479391Y-112860894D01*
X133774838Y-112860894D01*
X133916883Y-113204670D01*
X134179673Y-113467919D01*
X134523201Y-113610565D01*
X134624903Y-113610654D01*
X134624838Y-113685167D01*
X134766883Y-114028943D01*
X135029673Y-114292192D01*
X135373201Y-114434838D01*
X135745167Y-114435162D01*
X136088943Y-114293117D01*
X136194954Y-114187290D01*
X136299673Y-114292192D01*
X136643201Y-114434838D01*
X137015167Y-114435162D01*
X137358943Y-114293117D01*
X137464954Y-114187290D01*
X137569673Y-114292192D01*
X137913201Y-114434838D01*
X138285167Y-114435162D01*
X138628943Y-114293117D01*
X138734954Y-114187290D01*
X138839673Y-114292192D01*
X139183201Y-114434838D01*
X139555167Y-114435162D01*
X139810430Y-114329690D01*
X139705162Y-114583201D01*
X139704838Y-114955167D01*
X139846883Y-115298943D01*
X140109673Y-115562192D01*
X140453201Y-115704838D01*
X140825167Y-115705162D01*
X141168943Y-115563117D01*
X141274954Y-115457290D01*
X141379673Y-115562192D01*
X141723201Y-115704838D01*
X142095167Y-115705162D01*
X142438943Y-115563117D01*
X142702192Y-115300327D01*
X142844838Y-114956799D01*
X142845162Y-114584833D01*
X142703117Y-114241057D01*
X142440327Y-113977808D01*
X142096799Y-113835162D01*
X141724833Y-113834838D01*
X141381057Y-113976883D01*
X141275046Y-114082710D01*
X141170327Y-113977808D01*
X140826799Y-113835162D01*
X140454833Y-113834838D01*
X140199570Y-113940310D01*
X140304838Y-113686799D01*
X140305162Y-113314833D01*
X140163117Y-112971057D01*
X139900327Y-112707808D01*
X139556799Y-112565162D01*
X139184833Y-112564838D01*
X138841057Y-112706883D01*
X138735046Y-112812710D01*
X138630327Y-112707808D01*
X138286799Y-112565162D01*
X137914833Y-112564838D01*
X137571057Y-112706883D01*
X137465046Y-112812710D01*
X137360327Y-112707808D01*
X137016799Y-112565162D01*
X136644833Y-112564838D01*
X136301057Y-112706883D01*
X136195046Y-112812710D01*
X136090327Y-112707808D01*
X135746799Y-112565162D01*
X135645097Y-112565073D01*
X135645162Y-112490560D01*
X135503117Y-112146784D01*
X135240327Y-111883535D01*
X134896799Y-111740889D01*
X134524833Y-111740565D01*
X134181057Y-111882610D01*
X133917808Y-112145400D01*
X133775162Y-112488928D01*
X133774838Y-112860894D01*
X107479391Y-112860894D01*
X107544482Y-112763480D01*
X107634685Y-112310000D01*
X107544482Y-111856520D01*
X107410305Y-111655708D01*
X128274296Y-111655708D01*
X128416341Y-111999484D01*
X128679131Y-112262733D01*
X129022659Y-112405379D01*
X129394625Y-112405703D01*
X129738401Y-112263658D01*
X130001650Y-112000868D01*
X130144296Y-111657340D01*
X130144620Y-111285374D01*
X130086688Y-111145167D01*
X134624838Y-111145167D01*
X134766883Y-111488943D01*
X135029673Y-111752192D01*
X135373201Y-111894838D01*
X135745167Y-111895162D01*
X136088943Y-111753117D01*
X136194954Y-111647290D01*
X136299673Y-111752192D01*
X136643201Y-111894838D01*
X137015167Y-111895162D01*
X137358943Y-111753117D01*
X137464954Y-111647290D01*
X137569673Y-111752192D01*
X137913201Y-111894838D01*
X138285167Y-111895162D01*
X138628943Y-111753117D01*
X138734954Y-111647290D01*
X138839673Y-111752192D01*
X139183201Y-111894838D01*
X139555167Y-111895162D01*
X139898943Y-111753117D01*
X140004954Y-111647290D01*
X140109673Y-111752192D01*
X140453201Y-111894838D01*
X140825167Y-111895162D01*
X141168943Y-111753117D01*
X141432192Y-111490327D01*
X141574838Y-111146799D01*
X141575162Y-110774833D01*
X141433117Y-110431057D01*
X141327290Y-110325046D01*
X141432192Y-110220327D01*
X141574838Y-109876799D01*
X141575092Y-109585167D01*
X142034838Y-109585167D01*
X142176883Y-109928943D01*
X142439673Y-110192192D01*
X142783201Y-110334838D01*
X143155167Y-110335162D01*
X143498943Y-110193117D01*
X143762192Y-109930327D01*
X143904838Y-109586799D01*
X143905162Y-109214833D01*
X143763117Y-108871057D01*
X143500327Y-108607808D01*
X143156799Y-108465162D01*
X142784833Y-108464838D01*
X142441057Y-108606883D01*
X142177808Y-108869673D01*
X142035162Y-109213201D01*
X142034838Y-109585167D01*
X141575092Y-109585167D01*
X141575162Y-109504833D01*
X141433117Y-109161057D01*
X141170327Y-108897808D01*
X140826799Y-108755162D01*
X140454833Y-108754838D01*
X140111057Y-108896883D01*
X139847808Y-109159673D01*
X139705162Y-109503201D01*
X139704838Y-109875167D01*
X139810310Y-110130430D01*
X139556799Y-110025162D01*
X139184833Y-110024838D01*
X138841057Y-110166883D01*
X138735046Y-110272710D01*
X138630327Y-110167808D01*
X138286799Y-110025162D01*
X137914833Y-110024838D01*
X137571057Y-110166883D01*
X137465046Y-110272710D01*
X137360327Y-110167808D01*
X137016799Y-110025162D01*
X136644833Y-110024838D01*
X136301057Y-110166883D01*
X136195046Y-110272710D01*
X136090327Y-110167808D01*
X135746799Y-110025162D01*
X135374833Y-110024838D01*
X135031057Y-110166883D01*
X134767808Y-110429673D01*
X134625162Y-110773201D01*
X134624838Y-111145167D01*
X130086688Y-111145167D01*
X130002575Y-110941598D01*
X129739785Y-110678349D01*
X129396257Y-110535703D01*
X129024291Y-110535379D01*
X128680515Y-110677424D01*
X128417266Y-110940214D01*
X128274620Y-111283742D01*
X128274296Y-111655708D01*
X107410305Y-111655708D01*
X107287607Y-111472078D01*
X106903165Y-111215203D01*
X106449685Y-111125000D01*
X106250315Y-111125000D01*
X105796835Y-111215203D01*
X105412393Y-111472078D01*
X105155518Y-111856520D01*
X105065315Y-112310000D01*
X100820000Y-112310000D01*
X100820000Y-110889427D01*
X124463061Y-110889427D01*
X124605106Y-111233203D01*
X124867896Y-111496452D01*
X125211424Y-111639098D01*
X125583390Y-111639422D01*
X125927166Y-111497377D01*
X126190415Y-111234587D01*
X126333061Y-110891059D01*
X126333385Y-110519093D01*
X126191340Y-110175317D01*
X125928550Y-109912068D01*
X125585022Y-109769422D01*
X125213056Y-109769098D01*
X124869280Y-109911143D01*
X124606031Y-110173933D01*
X124463385Y-110517461D01*
X124463061Y-110889427D01*
X100820000Y-110889427D01*
X100820000Y-105880000D01*
X105065315Y-105880000D01*
X105149809Y-106304779D01*
X105172526Y-106338777D01*
X105128569Y-106403110D01*
X105077560Y-106655000D01*
X105077560Y-107605000D01*
X105121838Y-107840317D01*
X105260910Y-108056441D01*
X105473110Y-108201431D01*
X105725000Y-108252440D01*
X105735015Y-108252440D01*
X105734838Y-108455167D01*
X105876883Y-108798943D01*
X106139673Y-109062192D01*
X106483201Y-109204838D01*
X106855167Y-109205162D01*
X107198943Y-109063117D01*
X107462192Y-108800327D01*
X107543229Y-108605167D01*
X121530778Y-108605167D01*
X121672823Y-108948943D01*
X121935613Y-109212192D01*
X122279141Y-109354838D01*
X122651107Y-109355162D01*
X122994883Y-109213117D01*
X123258132Y-108950327D01*
X123400778Y-108606799D01*
X123400779Y-108605167D01*
X126574827Y-108605167D01*
X126716872Y-108948943D01*
X126979662Y-109212192D01*
X127323190Y-109354838D01*
X127695156Y-109355162D01*
X128038932Y-109213117D01*
X128302181Y-108950327D01*
X128382081Y-108757908D01*
X128414763Y-108837005D01*
X128275161Y-109173202D01*
X128274837Y-109545168D01*
X128416882Y-109888944D01*
X128679672Y-110152193D01*
X129023200Y-110294839D01*
X129395166Y-110295163D01*
X129671243Y-110181091D01*
X129686883Y-110218943D01*
X129949673Y-110482192D01*
X130293201Y-110624838D01*
X130665167Y-110625162D01*
X131008943Y-110483117D01*
X131201824Y-110290572D01*
X132142989Y-110290572D01*
X132285034Y-110634348D01*
X132547824Y-110897597D01*
X132891352Y-111040243D01*
X133263318Y-111040567D01*
X133607094Y-110898522D01*
X133870343Y-110635732D01*
X134012989Y-110292204D01*
X134013313Y-109920238D01*
X133871268Y-109576462D01*
X133608478Y-109313213D01*
X133264950Y-109170567D01*
X132892984Y-109170243D01*
X132549208Y-109312288D01*
X132285959Y-109575078D01*
X132143313Y-109918606D01*
X132142989Y-110290572D01*
X131201824Y-110290572D01*
X131272192Y-110220327D01*
X131414838Y-109876799D01*
X131415162Y-109504833D01*
X131273117Y-109161057D01*
X131010327Y-108897808D01*
X130666799Y-108755162D01*
X130294833Y-108754838D01*
X130082842Y-108842431D01*
X130184838Y-108596799D01*
X130185162Y-108224833D01*
X130043117Y-107881057D01*
X129922325Y-107760054D01*
X130002192Y-107680327D01*
X130144838Y-107336799D01*
X130145162Y-106964833D01*
X130003117Y-106621057D01*
X129740327Y-106357808D01*
X129396799Y-106215162D01*
X129024833Y-106214838D01*
X128681057Y-106356883D01*
X128417808Y-106619673D01*
X128275162Y-106963201D01*
X128274838Y-107335167D01*
X128416883Y-107678943D01*
X128537675Y-107799946D01*
X128457808Y-107879673D01*
X128377908Y-108072092D01*
X128303106Y-107891057D01*
X128040316Y-107627808D01*
X127696788Y-107485162D01*
X127324822Y-107484838D01*
X126981046Y-107626883D01*
X126717797Y-107889673D01*
X126575151Y-108233201D01*
X126574827Y-108605167D01*
X123400779Y-108605167D01*
X123401102Y-108234833D01*
X123259057Y-107891057D01*
X123133387Y-107765167D01*
X124334837Y-107765167D01*
X124476882Y-108108943D01*
X124739672Y-108372192D01*
X125083200Y-108514838D01*
X125455166Y-108515162D01*
X125798942Y-108373117D01*
X126062191Y-108110327D01*
X126204837Y-107766799D01*
X126205161Y-107394833D01*
X126063116Y-107051057D01*
X125800326Y-106787808D01*
X125456798Y-106645162D01*
X125084832Y-106644838D01*
X124741056Y-106786883D01*
X124477807Y-107049673D01*
X124335161Y-107393201D01*
X124334837Y-107765167D01*
X123133387Y-107765167D01*
X122996267Y-107627808D01*
X122652739Y-107485162D01*
X122280773Y-107484838D01*
X121936997Y-107626883D01*
X121673748Y-107889673D01*
X121531102Y-108233201D01*
X121530778Y-108605167D01*
X107543229Y-108605167D01*
X107604838Y-108456799D01*
X107605162Y-108084833D01*
X107533759Y-107912025D01*
X107571431Y-107856890D01*
X107622440Y-107605000D01*
X107622440Y-107335167D01*
X118114838Y-107335167D01*
X118256883Y-107678943D01*
X118519673Y-107942192D01*
X118863201Y-108084838D01*
X119235167Y-108085162D01*
X119578943Y-107943117D01*
X119842192Y-107680327D01*
X119984838Y-107336799D01*
X119985162Y-106964833D01*
X119843117Y-106621057D01*
X119580327Y-106357808D01*
X119236799Y-106215162D01*
X118864833Y-106214838D01*
X118521057Y-106356883D01*
X118257808Y-106619673D01*
X118115162Y-106963201D01*
X118114838Y-107335167D01*
X107622440Y-107335167D01*
X107622440Y-106655000D01*
X107578162Y-106419683D01*
X107526774Y-106339824D01*
X107550191Y-106304779D01*
X107634685Y-105880000D01*
X107550191Y-105455221D01*
X107309574Y-105095111D01*
X106949464Y-104854494D01*
X106524685Y-104770000D01*
X106175315Y-104770000D01*
X105750536Y-104854494D01*
X105390426Y-105095111D01*
X105149809Y-105455221D01*
X105065315Y-105880000D01*
X100820000Y-105880000D01*
X100820000Y-103525167D01*
X106684838Y-103525167D01*
X106826883Y-103868943D01*
X107089673Y-104132192D01*
X107433201Y-104274838D01*
X107805167Y-104275162D01*
X108148943Y-104133117D01*
X108161915Y-104120167D01*
X128274837Y-104120167D01*
X128416882Y-104463943D01*
X128551786Y-104599083D01*
X128525162Y-104663201D01*
X128524838Y-105035167D01*
X128666883Y-105378943D01*
X128929673Y-105642192D01*
X129273201Y-105784838D01*
X129645167Y-105785162D01*
X129988943Y-105643117D01*
X130252192Y-105380327D01*
X130394838Y-105036799D01*
X130395162Y-104664833D01*
X130253117Y-104321057D01*
X130118213Y-104185917D01*
X130144837Y-104121799D01*
X130145161Y-103749833D01*
X130003116Y-103406057D01*
X129740326Y-103142808D01*
X129396798Y-103000162D01*
X129024832Y-102999838D01*
X128681056Y-103141883D01*
X128417807Y-103404673D01*
X128275161Y-103748201D01*
X128274837Y-104120167D01*
X108161915Y-104120167D01*
X108412192Y-103870327D01*
X108554838Y-103526799D01*
X108555162Y-103154833D01*
X108413117Y-102811057D01*
X108150327Y-102547808D01*
X107806799Y-102405162D01*
X107434833Y-102404838D01*
X107091057Y-102546883D01*
X106827808Y-102809673D01*
X106685162Y-103153201D01*
X106684838Y-103525167D01*
X100820000Y-103525167D01*
X100820000Y-102255167D01*
X116844838Y-102255167D01*
X116986883Y-102598943D01*
X117249673Y-102862192D01*
X117593201Y-103004838D01*
X117965167Y-103005162D01*
X118308943Y-102863117D01*
X118366994Y-102805167D01*
X126834838Y-102805167D01*
X126976883Y-103148943D01*
X127239673Y-103412192D01*
X127583201Y-103554838D01*
X127955167Y-103555162D01*
X128298943Y-103413117D01*
X128562192Y-103150327D01*
X128704838Y-102806799D01*
X128705162Y-102434833D01*
X128563117Y-102091057D01*
X128300327Y-101827808D01*
X128125389Y-101755167D01*
X130474838Y-101755167D01*
X130616883Y-102098943D01*
X130879673Y-102362192D01*
X131223201Y-102504838D01*
X131595167Y-102505162D01*
X131938943Y-102363117D01*
X132047081Y-102255167D01*
X133354838Y-102255167D01*
X133496883Y-102598943D01*
X133759673Y-102862192D01*
X134103201Y-103004838D01*
X134475167Y-103005162D01*
X134818943Y-102863117D01*
X134924954Y-102757290D01*
X135029673Y-102862192D01*
X135154620Y-102914075D01*
X135278523Y-103213943D01*
X135451092Y-103386813D01*
X135207808Y-103629673D01*
X135065162Y-103973201D01*
X135064838Y-104345167D01*
X135206883Y-104688943D01*
X135469673Y-104952192D01*
X135813201Y-105094838D01*
X136018733Y-105095017D01*
X136036883Y-105138943D01*
X136142710Y-105244954D01*
X136037808Y-105349673D01*
X135895162Y-105693201D01*
X135894838Y-106065167D01*
X136036883Y-106408943D01*
X136142710Y-106514954D01*
X136037808Y-106619673D01*
X135895162Y-106963201D01*
X135894838Y-107335167D01*
X136036883Y-107678943D01*
X136299673Y-107942192D01*
X136643201Y-108084838D01*
X136842889Y-108085012D01*
X137069673Y-108312192D01*
X137413201Y-108454838D01*
X137785167Y-108455162D01*
X138128943Y-108313117D01*
X138392192Y-108050327D01*
X138534838Y-107706799D01*
X138535161Y-107335166D01*
X138664838Y-107335166D01*
X138806883Y-107678942D01*
X139069673Y-107942191D01*
X139413201Y-108084837D01*
X139785167Y-108085161D01*
X140128943Y-107943116D01*
X140392192Y-107680326D01*
X140534838Y-107336798D01*
X140535162Y-106964832D01*
X140393117Y-106621056D01*
X140130327Y-106357807D01*
X139786799Y-106215161D01*
X139414833Y-106214837D01*
X139071057Y-106356882D01*
X138807808Y-106619672D01*
X138665162Y-106963200D01*
X138664838Y-107335166D01*
X138535161Y-107335166D01*
X138535162Y-107334833D01*
X138393117Y-106991057D01*
X138130327Y-106727808D01*
X137786799Y-106585162D01*
X137587111Y-106584988D01*
X137517290Y-106515046D01*
X137622192Y-106410327D01*
X137762501Y-106072427D01*
X137780071Y-106065167D01*
X143514838Y-106065167D01*
X143656883Y-106408943D01*
X143919673Y-106672192D01*
X144263201Y-106814838D01*
X144635167Y-106815162D01*
X144978943Y-106673117D01*
X145242192Y-106410327D01*
X145384838Y-106066799D01*
X145385162Y-105694833D01*
X145243117Y-105351057D01*
X144980327Y-105087808D01*
X144636799Y-104945162D01*
X144264833Y-104944838D01*
X143921057Y-105086883D01*
X143657808Y-105349673D01*
X143515162Y-105693201D01*
X143514838Y-106065167D01*
X137780071Y-106065167D01*
X137845540Y-106038116D01*
X138108789Y-105775326D01*
X138251435Y-105431798D01*
X138251759Y-105059832D01*
X138109714Y-104716056D01*
X137892264Y-104498226D01*
X140001779Y-104498226D01*
X140143824Y-104842002D01*
X140406614Y-105105251D01*
X140750142Y-105247897D01*
X141122108Y-105248221D01*
X141465884Y-105106176D01*
X141729133Y-104843386D01*
X141871779Y-104499858D01*
X141872103Y-104127892D01*
X141730058Y-103784116D01*
X141467268Y-103520867D01*
X141123740Y-103378221D01*
X140751774Y-103377897D01*
X140407998Y-103519942D01*
X140144749Y-103782732D01*
X140002103Y-104126260D01*
X140001779Y-104498226D01*
X137892264Y-104498226D01*
X137846924Y-104452807D01*
X137762181Y-104417618D01*
X137623117Y-104081057D01*
X137360327Y-103817808D01*
X137016799Y-103675162D01*
X136811267Y-103674983D01*
X136793117Y-103631057D01*
X136620548Y-103458187D01*
X136863832Y-103215327D01*
X137006478Y-102871799D01*
X137006802Y-102499833D01*
X136864757Y-102156057D01*
X136667271Y-101958226D01*
X137461779Y-101958226D01*
X137603824Y-102302002D01*
X137866614Y-102565251D01*
X138210142Y-102707897D01*
X138582108Y-102708221D01*
X138655641Y-102677838D01*
X138839673Y-102862192D01*
X139183201Y-103004838D01*
X139555167Y-103005162D01*
X139898943Y-102863117D01*
X140162192Y-102600327D01*
X140304838Y-102256799D01*
X140305162Y-101884833D01*
X140163117Y-101541057D01*
X139900327Y-101277808D01*
X139556799Y-101135162D01*
X139184833Y-101134838D01*
X139111300Y-101165221D01*
X138927268Y-100980867D01*
X138769046Y-100915167D01*
X139854838Y-100915167D01*
X139996883Y-101258943D01*
X140259673Y-101522192D01*
X140603201Y-101664838D01*
X140975167Y-101665162D01*
X141318943Y-101523117D01*
X141582192Y-101260327D01*
X141724838Y-100916799D01*
X141725162Y-100544833D01*
X141583117Y-100201057D01*
X141320327Y-99937808D01*
X140976799Y-99795162D01*
X140604833Y-99794838D01*
X140261057Y-99936883D01*
X139997808Y-100199673D01*
X139855162Y-100543201D01*
X139854838Y-100915167D01*
X138769046Y-100915167D01*
X138583740Y-100838221D01*
X138211774Y-100837897D01*
X137867998Y-100979942D01*
X137604749Y-101242732D01*
X137462103Y-101586260D01*
X137461779Y-101958226D01*
X136667271Y-101958226D01*
X136601967Y-101892808D01*
X136477020Y-101840925D01*
X136353117Y-101541057D01*
X136090327Y-101277808D01*
X135746799Y-101135162D01*
X135374833Y-101134838D01*
X135031057Y-101276883D01*
X134925046Y-101382710D01*
X134820327Y-101277808D01*
X134476799Y-101135162D01*
X134104833Y-101134838D01*
X133761057Y-101276883D01*
X133497808Y-101539673D01*
X133355162Y-101883201D01*
X133354838Y-102255167D01*
X132047081Y-102255167D01*
X132202192Y-102100327D01*
X132344838Y-101756799D01*
X132345162Y-101384833D01*
X132203117Y-101041057D01*
X131940327Y-100777808D01*
X131596799Y-100635162D01*
X131224833Y-100634838D01*
X130881057Y-100776883D01*
X130617808Y-101039673D01*
X130475162Y-101383201D01*
X130474838Y-101755167D01*
X128125389Y-101755167D01*
X127956799Y-101685162D01*
X127584833Y-101684838D01*
X127241057Y-101826883D01*
X126977808Y-102089673D01*
X126835162Y-102433201D01*
X126834838Y-102805167D01*
X118366994Y-102805167D01*
X118572192Y-102600327D01*
X118714838Y-102256799D01*
X118715162Y-101884833D01*
X118573117Y-101541057D01*
X118310327Y-101277808D01*
X117966799Y-101135162D01*
X117594833Y-101134838D01*
X117251057Y-101276883D01*
X116987808Y-101539673D01*
X116845162Y-101883201D01*
X116844838Y-102255167D01*
X100820000Y-102255167D01*
X100820000Y-101625547D01*
X101083201Y-101734838D01*
X101455167Y-101735162D01*
X101798943Y-101593117D01*
X102062192Y-101330327D01*
X102204838Y-100986799D01*
X102205162Y-100614833D01*
X102063117Y-100271057D01*
X101800327Y-100007808D01*
X101456799Y-99865162D01*
X101084833Y-99864838D01*
X100820000Y-99974264D01*
X100820000Y-99550000D01*
X105065315Y-99550000D01*
X105155518Y-100003480D01*
X105165716Y-100018743D01*
X105128569Y-100073110D01*
X105077560Y-100325000D01*
X105077560Y-101275000D01*
X105121838Y-101510317D01*
X105260910Y-101726441D01*
X105473110Y-101871431D01*
X105725000Y-101922440D01*
X106975000Y-101922440D01*
X107210317Y-101878162D01*
X107426441Y-101739090D01*
X107571431Y-101526890D01*
X107622440Y-101275000D01*
X107622440Y-100325000D01*
X107578162Y-100089683D01*
X107533382Y-100020093D01*
X107544482Y-100003480D01*
X107601831Y-99715167D01*
X116844838Y-99715167D01*
X116986883Y-100058943D01*
X117249673Y-100322192D01*
X117593201Y-100464838D01*
X117965167Y-100465162D01*
X118308943Y-100323117D01*
X118572192Y-100060327D01*
X118714838Y-99716799D01*
X118715065Y-99455167D01*
X127674838Y-99455167D01*
X127816883Y-99798943D01*
X128079673Y-100062192D01*
X128423201Y-100204838D01*
X128795167Y-100205162D01*
X129138943Y-100063117D01*
X129402192Y-99800327D01*
X129437553Y-99715167D01*
X132084838Y-99715167D01*
X132226883Y-100058943D01*
X132489673Y-100322192D01*
X132833201Y-100464838D01*
X133205167Y-100465162D01*
X133548943Y-100323117D01*
X133812192Y-100060327D01*
X133954838Y-99716799D01*
X133954839Y-99715167D01*
X135894838Y-99715167D01*
X136036883Y-100058943D01*
X136299673Y-100322192D01*
X136643201Y-100464838D01*
X137015167Y-100465162D01*
X137358943Y-100323117D01*
X137622192Y-100060327D01*
X137764838Y-99716799D01*
X137765162Y-99344833D01*
X137623117Y-99001057D01*
X137360327Y-98737808D01*
X137016799Y-98595162D01*
X136644833Y-98594838D01*
X136301057Y-98736883D01*
X136037808Y-98999673D01*
X135895162Y-99343201D01*
X135894838Y-99715167D01*
X133954839Y-99715167D01*
X133955162Y-99344833D01*
X133813117Y-99001057D01*
X133550327Y-98737808D01*
X133206799Y-98595162D01*
X132834833Y-98594838D01*
X132491057Y-98736883D01*
X132227808Y-98999673D01*
X132085162Y-99343201D01*
X132084838Y-99715167D01*
X129437553Y-99715167D01*
X129544838Y-99456799D01*
X129545162Y-99084833D01*
X129403117Y-98741057D01*
X129140327Y-98477808D01*
X129061720Y-98445167D01*
X142244838Y-98445167D01*
X142386883Y-98788943D01*
X142649673Y-99052192D01*
X142993201Y-99194838D01*
X143365167Y-99195162D01*
X143708943Y-99053117D01*
X143972192Y-98790327D01*
X144114838Y-98446799D01*
X144115162Y-98074833D01*
X143973117Y-97731057D01*
X143710327Y-97467808D01*
X143366799Y-97325162D01*
X142994833Y-97324838D01*
X142651057Y-97466883D01*
X142387808Y-97729673D01*
X142245162Y-98073201D01*
X142244838Y-98445167D01*
X129061720Y-98445167D01*
X128796799Y-98335162D01*
X128424833Y-98334838D01*
X128081057Y-98476883D01*
X127817808Y-98739673D01*
X127675162Y-99083201D01*
X127674838Y-99455167D01*
X118715065Y-99455167D01*
X118715162Y-99344833D01*
X118573117Y-99001057D01*
X118310327Y-98737808D01*
X117966799Y-98595162D01*
X117594833Y-98594838D01*
X117251057Y-98736883D01*
X116987808Y-98999673D01*
X116845162Y-99343201D01*
X116844838Y-99715167D01*
X107601831Y-99715167D01*
X107634685Y-99550000D01*
X107544482Y-99096520D01*
X107287607Y-98712078D01*
X106903165Y-98455203D01*
X106449685Y-98365000D01*
X106250315Y-98365000D01*
X105796835Y-98455203D01*
X105412393Y-98712078D01*
X105155518Y-99096520D01*
X105065315Y-99550000D01*
X100820000Y-99550000D01*
X100820000Y-97175167D01*
X137164838Y-97175167D01*
X137306883Y-97518943D01*
X137569673Y-97782192D01*
X137913201Y-97924838D01*
X138285167Y-97925162D01*
X138628943Y-97783117D01*
X138892192Y-97520327D01*
X139034838Y-97176799D01*
X139034839Y-97175167D01*
X139704838Y-97175167D01*
X139846883Y-97518943D01*
X140109673Y-97782192D01*
X140453201Y-97924838D01*
X140825167Y-97925162D01*
X141168943Y-97783117D01*
X141432192Y-97520327D01*
X141574838Y-97176799D01*
X141575162Y-96804833D01*
X141433117Y-96461057D01*
X141170327Y-96197808D01*
X140826799Y-96055162D01*
X140454833Y-96054838D01*
X140111057Y-96196883D01*
X139847808Y-96459673D01*
X139705162Y-96803201D01*
X139704838Y-97175167D01*
X139034839Y-97175167D01*
X139035162Y-96804833D01*
X138893117Y-96461057D01*
X138630327Y-96197808D01*
X138286799Y-96055162D01*
X137914833Y-96054838D01*
X137571057Y-96196883D01*
X137307808Y-96459673D01*
X137165162Y-96803201D01*
X137164838Y-97175167D01*
X100820000Y-97175167D01*
X100820000Y-95847000D01*
X106684889Y-95847000D01*
X106684838Y-95905167D01*
X106684838Y-95905167D01*
G37*
X106684838Y-95905167D02*
X106826883Y-96248943D01*
X107089673Y-96512192D01*
X107433201Y-96654838D01*
X107805167Y-96655162D01*
X108148943Y-96513117D01*
X108412192Y-96250327D01*
X108554838Y-95906799D01*
X108554890Y-95847000D01*
X146863000Y-95847000D01*
X146863000Y-108840765D01*
X146700327Y-108677808D01*
X146356799Y-108535162D01*
X145984833Y-108534838D01*
X145641057Y-108676883D01*
X145377808Y-108939673D01*
X145235162Y-109283201D01*
X145234838Y-109655167D01*
X145376883Y-109998943D01*
X145437788Y-110059954D01*
X145287808Y-110209673D01*
X145145162Y-110553201D01*
X145144838Y-110925167D01*
X145286883Y-111268943D01*
X145549673Y-111532192D01*
X145675608Y-111584485D01*
X145563220Y-111855143D01*
X145562896Y-112227109D01*
X145704941Y-112570885D01*
X145967731Y-112834134D01*
X146311259Y-112976780D01*
X146683225Y-112977104D01*
X146863000Y-112902823D01*
X146863000Y-116975399D01*
X146733117Y-116661057D01*
X146470327Y-116397808D01*
X146126799Y-116255162D01*
X145754833Y-116254838D01*
X145411057Y-116396883D01*
X145147808Y-116659673D01*
X145005162Y-117003201D01*
X145004838Y-117375167D01*
X145146883Y-117718943D01*
X145409673Y-117982192D01*
X145753201Y-118124838D01*
X146125167Y-118125162D01*
X146468943Y-117983117D01*
X146732192Y-117720327D01*
X146863000Y-117405308D01*
X146863000Y-131210765D01*
X146700327Y-131047808D01*
X146356799Y-130905162D01*
X145984833Y-130904838D01*
X145641057Y-131046883D01*
X145377808Y-131309673D01*
X145235162Y-131653201D01*
X145234838Y-132025167D01*
X145376883Y-132368943D01*
X145639673Y-132632192D01*
X145983201Y-132774838D01*
X146355167Y-132775162D01*
X146698943Y-132633117D01*
X146863000Y-132469346D01*
X146863000Y-139290000D01*
X100820000Y-139290000D01*
X100820000Y-135395167D01*
X125734838Y-135395167D01*
X125876883Y-135738943D01*
X126139673Y-136002192D01*
X126483201Y-136144838D01*
X126855167Y-136145162D01*
X127198943Y-136003117D01*
X127462192Y-135740327D01*
X127604838Y-135396799D01*
X127605162Y-135024833D01*
X127463117Y-134681057D01*
X127200327Y-134417808D01*
X126856799Y-134275162D01*
X126484833Y-134274838D01*
X126141057Y-134416883D01*
X125877808Y-134679673D01*
X125735162Y-135023201D01*
X125734838Y-135395167D01*
X100820000Y-135395167D01*
X100820000Y-131899482D01*
X101354336Y-131899482D01*
X101936950Y-133309515D01*
X103014811Y-134389259D01*
X104423825Y-134974333D01*
X105949482Y-134975664D01*
X107359515Y-134393050D01*
X108439259Y-133315189D01*
X109024333Y-131906175D01*
X109024813Y-131355167D01*
X134424838Y-131355167D01*
X134566883Y-131698943D01*
X134829673Y-131962192D01*
X135173201Y-132104838D01*
X135545167Y-132105162D01*
X135690366Y-132045167D01*
X143164838Y-132045167D01*
X143306883Y-132388943D01*
X143443670Y-132525969D01*
X143345162Y-132763201D01*
X143344838Y-133135167D01*
X143486883Y-133478943D01*
X143749673Y-133742192D01*
X144093201Y-133884838D01*
X144465167Y-133885162D01*
X144808943Y-133743117D01*
X145072192Y-133480327D01*
X145214838Y-133136799D01*
X145215162Y-132764833D01*
X145073117Y-132421057D01*
X144936330Y-132284031D01*
X145034838Y-132046799D01*
X145035162Y-131674833D01*
X144893117Y-131331057D01*
X144630327Y-131067808D01*
X144286799Y-130925162D01*
X143914833Y-130924838D01*
X143571057Y-131066883D01*
X143307808Y-131329673D01*
X143165162Y-131673201D01*
X143164838Y-132045167D01*
X135690366Y-132045167D01*
X135888943Y-131963117D01*
X136152192Y-131700327D01*
X136294838Y-131356799D01*
X136295162Y-130984833D01*
X136153117Y-130641057D01*
X135997499Y-130485167D01*
X141634838Y-130485167D01*
X141776883Y-130828943D01*
X142039673Y-131092192D01*
X142383201Y-131234838D01*
X142755167Y-131235162D01*
X143098943Y-131093117D01*
X143362192Y-130830327D01*
X143504838Y-130486799D01*
X143505031Y-130264909D01*
X143795167Y-130265162D01*
X144138943Y-130123117D01*
X144402192Y-129860327D01*
X144544838Y-129516799D01*
X144545162Y-129144833D01*
X144403117Y-128801057D01*
X144140327Y-128537808D01*
X143796799Y-128395162D01*
X143424833Y-128394838D01*
X143081057Y-128536883D01*
X142817808Y-128799673D01*
X142675162Y-129143201D01*
X142674969Y-129365091D01*
X142384833Y-129364838D01*
X142041057Y-129506883D01*
X141777808Y-129769673D01*
X141635162Y-130113201D01*
X141634838Y-130485167D01*
X135997499Y-130485167D01*
X135890327Y-130377808D01*
X135546799Y-130235162D01*
X135174833Y-130234838D01*
X134831057Y-130376883D01*
X134567808Y-130639673D01*
X134425162Y-130983201D01*
X134424838Y-131355167D01*
X109024813Y-131355167D01*
X109025664Y-130380518D01*
X108882968Y-130035167D01*
X129664838Y-130035167D01*
X129806883Y-130378943D01*
X130069673Y-130642192D01*
X130413201Y-130784838D01*
X130785167Y-130785162D01*
X131128943Y-130643117D01*
X131392192Y-130380327D01*
X131534838Y-130036799D01*
X131535162Y-129664833D01*
X131393117Y-129321057D01*
X131130327Y-129057808D01*
X130786799Y-128915162D01*
X130414833Y-128914838D01*
X130071057Y-129056883D01*
X129807808Y-129319673D01*
X129665162Y-129663201D01*
X129664838Y-130035167D01*
X108882968Y-130035167D01*
X108443050Y-128970485D01*
X107365189Y-127890741D01*
X105956175Y-127305667D01*
X104430518Y-127304336D01*
X103020485Y-127886950D01*
X101940741Y-128964811D01*
X101355667Y-130373825D01*
X101354336Y-131899482D01*
X100820000Y-131899482D01*
X100820000Y-126695167D01*
X141494838Y-126695167D01*
X141636883Y-127038943D01*
X141899673Y-127302192D01*
X142243201Y-127444838D01*
X142615167Y-127445162D01*
X142958943Y-127303117D01*
X143222192Y-127040327D01*
X143364838Y-126696799D01*
X143365162Y-126324833D01*
X143223117Y-125981057D01*
X142960327Y-125717808D01*
X142616799Y-125575162D01*
X142244833Y-125574838D01*
X141901057Y-125716883D01*
X141637808Y-125979673D01*
X141495162Y-126323201D01*
X141494838Y-126695167D01*
X100820000Y-126695167D01*
X100820000Y-121560000D01*
X105065315Y-121560000D01*
X105149809Y-121984779D01*
X105283592Y-122185000D01*
X105149809Y-122385221D01*
X105065315Y-122810000D01*
X105149809Y-123234779D01*
X105283592Y-123435000D01*
X105149809Y-123635221D01*
X105065315Y-124060000D01*
X105149809Y-124484779D01*
X105172526Y-124518777D01*
X105128569Y-124583110D01*
X105077560Y-124835000D01*
X105077560Y-125785000D01*
X105121838Y-126020317D01*
X105260910Y-126236441D01*
X105473110Y-126381431D01*
X105725000Y-126432440D01*
X106975000Y-126432440D01*
X107210317Y-126388162D01*
X107426441Y-126249090D01*
X107571431Y-126036890D01*
X107622440Y-125785000D01*
X107622440Y-124835000D01*
X107578162Y-124599683D01*
X107526774Y-124519824D01*
X107550191Y-124484779D01*
X107634685Y-124060000D01*
X107591952Y-123845167D01*
X134624838Y-123845167D01*
X134766883Y-124188943D01*
X135029673Y-124452192D01*
X135373201Y-124594838D01*
X135745167Y-124595162D01*
X136088943Y-124453117D01*
X136352192Y-124190327D01*
X136494838Y-123846799D01*
X136495162Y-123474833D01*
X136353117Y-123131057D01*
X136090327Y-122867808D01*
X135746799Y-122725162D01*
X135374833Y-122724838D01*
X135031057Y-122866883D01*
X134767808Y-123129673D01*
X134625162Y-123473201D01*
X134624838Y-123845167D01*
X107591952Y-123845167D01*
X107550191Y-123635221D01*
X107416408Y-123435000D01*
X107550191Y-123234779D01*
X107634685Y-122810000D01*
X107550191Y-122385221D01*
X107416408Y-122185000D01*
X107550191Y-121984779D01*
X107634685Y-121560000D01*
X107595931Y-121365167D01*
X137514838Y-121365167D01*
X137656883Y-121708943D01*
X137919673Y-121972192D01*
X138263201Y-122114838D01*
X138635167Y-122115162D01*
X138978943Y-121973117D01*
X139242192Y-121710327D01*
X139384838Y-121366799D01*
X139385162Y-120994833D01*
X139243117Y-120651057D01*
X138980327Y-120387808D01*
X138636799Y-120245162D01*
X138264833Y-120244838D01*
X137921057Y-120386883D01*
X137657808Y-120649673D01*
X137515162Y-120993201D01*
X137514838Y-121365167D01*
X107595931Y-121365167D01*
X107550191Y-121135221D01*
X107309574Y-120775111D01*
X106949464Y-120534494D01*
X106524685Y-120450000D01*
X106175315Y-120450000D01*
X105750536Y-120534494D01*
X105390426Y-120775111D01*
X105149809Y-121135221D01*
X105065315Y-121560000D01*
X100820000Y-121560000D01*
X100820000Y-112310000D01*
X105065315Y-112310000D01*
X105155518Y-112763480D01*
X105276858Y-112945078D01*
X105149809Y-113135221D01*
X105065315Y-113560000D01*
X105149809Y-113984779D01*
X105283592Y-114185000D01*
X105149809Y-114385221D01*
X105065315Y-114810000D01*
X105149809Y-115234779D01*
X105283592Y-115435000D01*
X105149809Y-115635221D01*
X105065315Y-116060000D01*
X105149809Y-116484779D01*
X105172526Y-116518777D01*
X105128569Y-116583110D01*
X105077560Y-116835000D01*
X105077560Y-117785000D01*
X105121838Y-118020317D01*
X105260910Y-118236441D01*
X105473110Y-118381431D01*
X105725000Y-118432440D01*
X105734997Y-118432440D01*
X105734838Y-118615167D01*
X105876883Y-118958943D01*
X106139673Y-119222192D01*
X106483201Y-119364838D01*
X106855167Y-119365162D01*
X107198943Y-119223117D01*
X107462192Y-118960327D01*
X107560088Y-118724568D01*
X141904838Y-118724568D01*
X142046883Y-119068344D01*
X142309673Y-119331593D01*
X142653201Y-119474239D01*
X143025167Y-119474563D01*
X143368943Y-119332518D01*
X143632192Y-119069728D01*
X143774838Y-118726200D01*
X143775162Y-118354234D01*
X143633117Y-118010458D01*
X143370327Y-117747209D01*
X143026799Y-117604563D01*
X142654833Y-117604239D01*
X142311057Y-117746284D01*
X142047808Y-118009074D01*
X141905162Y-118352602D01*
X141904838Y-118724568D01*
X107560088Y-118724568D01*
X107604838Y-118616799D01*
X107605162Y-118244833D01*
X107538909Y-118084488D01*
X107571431Y-118036890D01*
X107622440Y-117785000D01*
X107622440Y-116835000D01*
X107578162Y-116599683D01*
X107526774Y-116519824D01*
X107550191Y-116484779D01*
X107634685Y-116060000D01*
X107550191Y-115635221D01*
X107513406Y-115580167D01*
X128294837Y-115580167D01*
X128436882Y-115923943D01*
X128699672Y-116187192D01*
X129043200Y-116329838D01*
X129415166Y-116330162D01*
X129562984Y-116269085D01*
X129686883Y-116568943D01*
X129949673Y-116832192D01*
X130293201Y-116974838D01*
X130665167Y-116975162D01*
X131008943Y-116833117D01*
X131272192Y-116570327D01*
X131299248Y-116505167D01*
X133694838Y-116505167D01*
X133836883Y-116848943D01*
X134099673Y-117112192D01*
X134443201Y-117254838D01*
X134815167Y-117255162D01*
X135158943Y-117113117D01*
X135422192Y-116850327D01*
X135564838Y-116506799D01*
X135565162Y-116134833D01*
X135423117Y-115791057D01*
X135160327Y-115527808D01*
X134816799Y-115385162D01*
X134444833Y-115384838D01*
X134101057Y-115526883D01*
X133837808Y-115789673D01*
X133695162Y-116133201D01*
X133694838Y-116505167D01*
X131299248Y-116505167D01*
X131414838Y-116226799D01*
X131415162Y-115854833D01*
X131273117Y-115511057D01*
X131167290Y-115405046D01*
X131272192Y-115300327D01*
X131414838Y-114956799D01*
X131415162Y-114584833D01*
X131273117Y-114241057D01*
X131010327Y-113977808D01*
X130666799Y-113835162D01*
X130294833Y-113834838D01*
X129951057Y-113976883D01*
X129687808Y-114239673D01*
X129569861Y-114523720D01*
X129416798Y-114460162D01*
X129044832Y-114459838D01*
X128701056Y-114601883D01*
X128437807Y-114864673D01*
X128295161Y-115208201D01*
X128294837Y-115580167D01*
X107513406Y-115580167D01*
X107416408Y-115435000D01*
X107550191Y-115234779D01*
X107634685Y-114810000D01*
X107550191Y-114385221D01*
X107416408Y-114185000D01*
X107550191Y-113984779D01*
X107634685Y-113560000D01*
X107550191Y-113135221D01*
X107423142Y-112945078D01*
X107479391Y-112860894D01*
X133774838Y-112860894D01*
X133916883Y-113204670D01*
X134179673Y-113467919D01*
X134523201Y-113610565D01*
X134624903Y-113610654D01*
X134624838Y-113685167D01*
X134766883Y-114028943D01*
X135029673Y-114292192D01*
X135373201Y-114434838D01*
X135745167Y-114435162D01*
X136088943Y-114293117D01*
X136194954Y-114187290D01*
X136299673Y-114292192D01*
X136643201Y-114434838D01*
X137015167Y-114435162D01*
X137358943Y-114293117D01*
X137464954Y-114187290D01*
X137569673Y-114292192D01*
X137913201Y-114434838D01*
X138285167Y-114435162D01*
X138628943Y-114293117D01*
X138734954Y-114187290D01*
X138839673Y-114292192D01*
X139183201Y-114434838D01*
X139555167Y-114435162D01*
X139810430Y-114329690D01*
X139705162Y-114583201D01*
X139704838Y-114955167D01*
X139846883Y-115298943D01*
X140109673Y-115562192D01*
X140453201Y-115704838D01*
X140825167Y-115705162D01*
X141168943Y-115563117D01*
X141274954Y-115457290D01*
X141379673Y-115562192D01*
X141723201Y-115704838D01*
X142095167Y-115705162D01*
X142438943Y-115563117D01*
X142702192Y-115300327D01*
X142844838Y-114956799D01*
X142845162Y-114584833D01*
X142703117Y-114241057D01*
X142440327Y-113977808D01*
X142096799Y-113835162D01*
X141724833Y-113834838D01*
X141381057Y-113976883D01*
X141275046Y-114082710D01*
X141170327Y-113977808D01*
X140826799Y-113835162D01*
X140454833Y-113834838D01*
X140199570Y-113940310D01*
X140304838Y-113686799D01*
X140305162Y-113314833D01*
X140163117Y-112971057D01*
X139900327Y-112707808D01*
X139556799Y-112565162D01*
X139184833Y-112564838D01*
X138841057Y-112706883D01*
X138735046Y-112812710D01*
X138630327Y-112707808D01*
X138286799Y-112565162D01*
X137914833Y-112564838D01*
X137571057Y-112706883D01*
X137465046Y-112812710D01*
X137360327Y-112707808D01*
X137016799Y-112565162D01*
X136644833Y-112564838D01*
X136301057Y-112706883D01*
X136195046Y-112812710D01*
X136090327Y-112707808D01*
X135746799Y-112565162D01*
X135645097Y-112565073D01*
X135645162Y-112490560D01*
X135503117Y-112146784D01*
X135240327Y-111883535D01*
X134896799Y-111740889D01*
X134524833Y-111740565D01*
X134181057Y-111882610D01*
X133917808Y-112145400D01*
X133775162Y-112488928D01*
X133774838Y-112860894D01*
X107479391Y-112860894D01*
X107544482Y-112763480D01*
X107634685Y-112310000D01*
X107544482Y-111856520D01*
X107410305Y-111655708D01*
X128274296Y-111655708D01*
X128416341Y-111999484D01*
X128679131Y-112262733D01*
X129022659Y-112405379D01*
X129394625Y-112405703D01*
X129738401Y-112263658D01*
X130001650Y-112000868D01*
X130144296Y-111657340D01*
X130144620Y-111285374D01*
X130086688Y-111145167D01*
X134624838Y-111145167D01*
X134766883Y-111488943D01*
X135029673Y-111752192D01*
X135373201Y-111894838D01*
X135745167Y-111895162D01*
X136088943Y-111753117D01*
X136194954Y-111647290D01*
X136299673Y-111752192D01*
X136643201Y-111894838D01*
X137015167Y-111895162D01*
X137358943Y-111753117D01*
X137464954Y-111647290D01*
X137569673Y-111752192D01*
X137913201Y-111894838D01*
X138285167Y-111895162D01*
X138628943Y-111753117D01*
X138734954Y-111647290D01*
X138839673Y-111752192D01*
X139183201Y-111894838D01*
X139555167Y-111895162D01*
X139898943Y-111753117D01*
X140004954Y-111647290D01*
X140109673Y-111752192D01*
X140453201Y-111894838D01*
X140825167Y-111895162D01*
X141168943Y-111753117D01*
X141432192Y-111490327D01*
X141574838Y-111146799D01*
X141575162Y-110774833D01*
X141433117Y-110431057D01*
X141327290Y-110325046D01*
X141432192Y-110220327D01*
X141574838Y-109876799D01*
X141575092Y-109585167D01*
X142034838Y-109585167D01*
X142176883Y-109928943D01*
X142439673Y-110192192D01*
X142783201Y-110334838D01*
X143155167Y-110335162D01*
X143498943Y-110193117D01*
X143762192Y-109930327D01*
X143904838Y-109586799D01*
X143905162Y-109214833D01*
X143763117Y-108871057D01*
X143500327Y-108607808D01*
X143156799Y-108465162D01*
X142784833Y-108464838D01*
X142441057Y-108606883D01*
X142177808Y-108869673D01*
X142035162Y-109213201D01*
X142034838Y-109585167D01*
X141575092Y-109585167D01*
X141575162Y-109504833D01*
X141433117Y-109161057D01*
X141170327Y-108897808D01*
X140826799Y-108755162D01*
X140454833Y-108754838D01*
X140111057Y-108896883D01*
X139847808Y-109159673D01*
X139705162Y-109503201D01*
X139704838Y-109875167D01*
X139810310Y-110130430D01*
X139556799Y-110025162D01*
X139184833Y-110024838D01*
X138841057Y-110166883D01*
X138735046Y-110272710D01*
X138630327Y-110167808D01*
X138286799Y-110025162D01*
X137914833Y-110024838D01*
X137571057Y-110166883D01*
X137465046Y-110272710D01*
X137360327Y-110167808D01*
X137016799Y-110025162D01*
X136644833Y-110024838D01*
X136301057Y-110166883D01*
X136195046Y-110272710D01*
X136090327Y-110167808D01*
X135746799Y-110025162D01*
X135374833Y-110024838D01*
X135031057Y-110166883D01*
X134767808Y-110429673D01*
X134625162Y-110773201D01*
X134624838Y-111145167D01*
X130086688Y-111145167D01*
X130002575Y-110941598D01*
X129739785Y-110678349D01*
X129396257Y-110535703D01*
X129024291Y-110535379D01*
X128680515Y-110677424D01*
X128417266Y-110940214D01*
X128274620Y-111283742D01*
X128274296Y-111655708D01*
X107410305Y-111655708D01*
X107287607Y-111472078D01*
X106903165Y-111215203D01*
X106449685Y-111125000D01*
X106250315Y-111125000D01*
X105796835Y-111215203D01*
X105412393Y-111472078D01*
X105155518Y-111856520D01*
X105065315Y-112310000D01*
X100820000Y-112310000D01*
X100820000Y-110889427D01*
X124463061Y-110889427D01*
X124605106Y-111233203D01*
X124867896Y-111496452D01*
X125211424Y-111639098D01*
X125583390Y-111639422D01*
X125927166Y-111497377D01*
X126190415Y-111234587D01*
X126333061Y-110891059D01*
X126333385Y-110519093D01*
X126191340Y-110175317D01*
X125928550Y-109912068D01*
X125585022Y-109769422D01*
X125213056Y-109769098D01*
X124869280Y-109911143D01*
X124606031Y-110173933D01*
X124463385Y-110517461D01*
X124463061Y-110889427D01*
X100820000Y-110889427D01*
X100820000Y-105880000D01*
X105065315Y-105880000D01*
X105149809Y-106304779D01*
X105172526Y-106338777D01*
X105128569Y-106403110D01*
X105077560Y-106655000D01*
X105077560Y-107605000D01*
X105121838Y-107840317D01*
X105260910Y-108056441D01*
X105473110Y-108201431D01*
X105725000Y-108252440D01*
X105735015Y-108252440D01*
X105734838Y-108455167D01*
X105876883Y-108798943D01*
X106139673Y-109062192D01*
X106483201Y-109204838D01*
X106855167Y-109205162D01*
X107198943Y-109063117D01*
X107462192Y-108800327D01*
X107543229Y-108605167D01*
X121530778Y-108605167D01*
X121672823Y-108948943D01*
X121935613Y-109212192D01*
X122279141Y-109354838D01*
X122651107Y-109355162D01*
X122994883Y-109213117D01*
X123258132Y-108950327D01*
X123400778Y-108606799D01*
X123400779Y-108605167D01*
X126574827Y-108605167D01*
X126716872Y-108948943D01*
X126979662Y-109212192D01*
X127323190Y-109354838D01*
X127695156Y-109355162D01*
X128038932Y-109213117D01*
X128302181Y-108950327D01*
X128382081Y-108757908D01*
X128414763Y-108837005D01*
X128275161Y-109173202D01*
X128274837Y-109545168D01*
X128416882Y-109888944D01*
X128679672Y-110152193D01*
X129023200Y-110294839D01*
X129395166Y-110295163D01*
X129671243Y-110181091D01*
X129686883Y-110218943D01*
X129949673Y-110482192D01*
X130293201Y-110624838D01*
X130665167Y-110625162D01*
X131008943Y-110483117D01*
X131201824Y-110290572D01*
X132142989Y-110290572D01*
X132285034Y-110634348D01*
X132547824Y-110897597D01*
X132891352Y-111040243D01*
X133263318Y-111040567D01*
X133607094Y-110898522D01*
X133870343Y-110635732D01*
X134012989Y-110292204D01*
X134013313Y-109920238D01*
X133871268Y-109576462D01*
X133608478Y-109313213D01*
X133264950Y-109170567D01*
X132892984Y-109170243D01*
X132549208Y-109312288D01*
X132285959Y-109575078D01*
X132143313Y-109918606D01*
X132142989Y-110290572D01*
X131201824Y-110290572D01*
X131272192Y-110220327D01*
X131414838Y-109876799D01*
X131415162Y-109504833D01*
X131273117Y-109161057D01*
X131010327Y-108897808D01*
X130666799Y-108755162D01*
X130294833Y-108754838D01*
X130082842Y-108842431D01*
X130184838Y-108596799D01*
X130185162Y-108224833D01*
X130043117Y-107881057D01*
X129922325Y-107760054D01*
X130002192Y-107680327D01*
X130144838Y-107336799D01*
X130145162Y-106964833D01*
X130003117Y-106621057D01*
X129740327Y-106357808D01*
X129396799Y-106215162D01*
X129024833Y-106214838D01*
X128681057Y-106356883D01*
X128417808Y-106619673D01*
X128275162Y-106963201D01*
X128274838Y-107335167D01*
X128416883Y-107678943D01*
X128537675Y-107799946D01*
X128457808Y-107879673D01*
X128377908Y-108072092D01*
X128303106Y-107891057D01*
X128040316Y-107627808D01*
X127696788Y-107485162D01*
X127324822Y-107484838D01*
X126981046Y-107626883D01*
X126717797Y-107889673D01*
X126575151Y-108233201D01*
X126574827Y-108605167D01*
X123400779Y-108605167D01*
X123401102Y-108234833D01*
X123259057Y-107891057D01*
X123133387Y-107765167D01*
X124334837Y-107765167D01*
X124476882Y-108108943D01*
X124739672Y-108372192D01*
X125083200Y-108514838D01*
X125455166Y-108515162D01*
X125798942Y-108373117D01*
X126062191Y-108110327D01*
X126204837Y-107766799D01*
X126205161Y-107394833D01*
X126063116Y-107051057D01*
X125800326Y-106787808D01*
X125456798Y-106645162D01*
X125084832Y-106644838D01*
X124741056Y-106786883D01*
X124477807Y-107049673D01*
X124335161Y-107393201D01*
X124334837Y-107765167D01*
X123133387Y-107765167D01*
X122996267Y-107627808D01*
X122652739Y-107485162D01*
X122280773Y-107484838D01*
X121936997Y-107626883D01*
X121673748Y-107889673D01*
X121531102Y-108233201D01*
X121530778Y-108605167D01*
X107543229Y-108605167D01*
X107604838Y-108456799D01*
X107605162Y-108084833D01*
X107533759Y-107912025D01*
X107571431Y-107856890D01*
X107622440Y-107605000D01*
X107622440Y-107335167D01*
X118114838Y-107335167D01*
X118256883Y-107678943D01*
X118519673Y-107942192D01*
X118863201Y-108084838D01*
X119235167Y-108085162D01*
X119578943Y-107943117D01*
X119842192Y-107680327D01*
X119984838Y-107336799D01*
X119985162Y-106964833D01*
X119843117Y-106621057D01*
X119580327Y-106357808D01*
X119236799Y-106215162D01*
X118864833Y-106214838D01*
X118521057Y-106356883D01*
X118257808Y-106619673D01*
X118115162Y-106963201D01*
X118114838Y-107335167D01*
X107622440Y-107335167D01*
X107622440Y-106655000D01*
X107578162Y-106419683D01*
X107526774Y-106339824D01*
X107550191Y-106304779D01*
X107634685Y-105880000D01*
X107550191Y-105455221D01*
X107309574Y-105095111D01*
X106949464Y-104854494D01*
X106524685Y-104770000D01*
X106175315Y-104770000D01*
X105750536Y-104854494D01*
X105390426Y-105095111D01*
X105149809Y-105455221D01*
X105065315Y-105880000D01*
X100820000Y-105880000D01*
X100820000Y-103525167D01*
X106684838Y-103525167D01*
X106826883Y-103868943D01*
X107089673Y-104132192D01*
X107433201Y-104274838D01*
X107805167Y-104275162D01*
X108148943Y-104133117D01*
X108161915Y-104120167D01*
X128274837Y-104120167D01*
X128416882Y-104463943D01*
X128551786Y-104599083D01*
X128525162Y-104663201D01*
X128524838Y-105035167D01*
X128666883Y-105378943D01*
X128929673Y-105642192D01*
X129273201Y-105784838D01*
X129645167Y-105785162D01*
X129988943Y-105643117D01*
X130252192Y-105380327D01*
X130394838Y-105036799D01*
X130395162Y-104664833D01*
X130253117Y-104321057D01*
X130118213Y-104185917D01*
X130144837Y-104121799D01*
X130145161Y-103749833D01*
X130003116Y-103406057D01*
X129740326Y-103142808D01*
X129396798Y-103000162D01*
X129024832Y-102999838D01*
X128681056Y-103141883D01*
X128417807Y-103404673D01*
X128275161Y-103748201D01*
X128274837Y-104120167D01*
X108161915Y-104120167D01*
X108412192Y-103870327D01*
X108554838Y-103526799D01*
X108555162Y-103154833D01*
X108413117Y-102811057D01*
X108150327Y-102547808D01*
X107806799Y-102405162D01*
X107434833Y-102404838D01*
X107091057Y-102546883D01*
X106827808Y-102809673D01*
X106685162Y-103153201D01*
X106684838Y-103525167D01*
X100820000Y-103525167D01*
X100820000Y-102255167D01*
X116844838Y-102255167D01*
X116986883Y-102598943D01*
X117249673Y-102862192D01*
X117593201Y-103004838D01*
X117965167Y-103005162D01*
X118308943Y-102863117D01*
X118366994Y-102805167D01*
X126834838Y-102805167D01*
X126976883Y-103148943D01*
X127239673Y-103412192D01*
X127583201Y-103554838D01*
X127955167Y-103555162D01*
X128298943Y-103413117D01*
X128562192Y-103150327D01*
X128704838Y-102806799D01*
X128705162Y-102434833D01*
X128563117Y-102091057D01*
X128300327Y-101827808D01*
X128125389Y-101755167D01*
X130474838Y-101755167D01*
X130616883Y-102098943D01*
X130879673Y-102362192D01*
X131223201Y-102504838D01*
X131595167Y-102505162D01*
X131938943Y-102363117D01*
X132047081Y-102255167D01*
X133354838Y-102255167D01*
X133496883Y-102598943D01*
X133759673Y-102862192D01*
X134103201Y-103004838D01*
X134475167Y-103005162D01*
X134818943Y-102863117D01*
X134924954Y-102757290D01*
X135029673Y-102862192D01*
X135154620Y-102914075D01*
X135278523Y-103213943D01*
X135451092Y-103386813D01*
X135207808Y-103629673D01*
X135065162Y-103973201D01*
X135064838Y-104345167D01*
X135206883Y-104688943D01*
X135469673Y-104952192D01*
X135813201Y-105094838D01*
X136018733Y-105095017D01*
X136036883Y-105138943D01*
X136142710Y-105244954D01*
X136037808Y-105349673D01*
X135895162Y-105693201D01*
X135894838Y-106065167D01*
X136036883Y-106408943D01*
X136142710Y-106514954D01*
X136037808Y-106619673D01*
X135895162Y-106963201D01*
X135894838Y-107335167D01*
X136036883Y-107678943D01*
X136299673Y-107942192D01*
X136643201Y-108084838D01*
X136842889Y-108085012D01*
X137069673Y-108312192D01*
X137413201Y-108454838D01*
X137785167Y-108455162D01*
X138128943Y-108313117D01*
X138392192Y-108050327D01*
X138534838Y-107706799D01*
X138535161Y-107335166D01*
X138664838Y-107335166D01*
X138806883Y-107678942D01*
X139069673Y-107942191D01*
X139413201Y-108084837D01*
X139785167Y-108085161D01*
X140128943Y-107943116D01*
X140392192Y-107680326D01*
X140534838Y-107336798D01*
X140535162Y-106964832D01*
X140393117Y-106621056D01*
X140130327Y-106357807D01*
X139786799Y-106215161D01*
X139414833Y-106214837D01*
X139071057Y-106356882D01*
X138807808Y-106619672D01*
X138665162Y-106963200D01*
X138664838Y-107335166D01*
X138535161Y-107335166D01*
X138535162Y-107334833D01*
X138393117Y-106991057D01*
X138130327Y-106727808D01*
X137786799Y-106585162D01*
X137587111Y-106584988D01*
X137517290Y-106515046D01*
X137622192Y-106410327D01*
X137762501Y-106072427D01*
X137780071Y-106065167D01*
X143514838Y-106065167D01*
X143656883Y-106408943D01*
X143919673Y-106672192D01*
X144263201Y-106814838D01*
X144635167Y-106815162D01*
X144978943Y-106673117D01*
X145242192Y-106410327D01*
X145384838Y-106066799D01*
X145385162Y-105694833D01*
X145243117Y-105351057D01*
X144980327Y-105087808D01*
X144636799Y-104945162D01*
X144264833Y-104944838D01*
X143921057Y-105086883D01*
X143657808Y-105349673D01*
X143515162Y-105693201D01*
X143514838Y-106065167D01*
X137780071Y-106065167D01*
X137845540Y-106038116D01*
X138108789Y-105775326D01*
X138251435Y-105431798D01*
X138251759Y-105059832D01*
X138109714Y-104716056D01*
X137892264Y-104498226D01*
X140001779Y-104498226D01*
X140143824Y-104842002D01*
X140406614Y-105105251D01*
X140750142Y-105247897D01*
X141122108Y-105248221D01*
X141465884Y-105106176D01*
X141729133Y-104843386D01*
X141871779Y-104499858D01*
X141872103Y-104127892D01*
X141730058Y-103784116D01*
X141467268Y-103520867D01*
X141123740Y-103378221D01*
X140751774Y-103377897D01*
X140407998Y-103519942D01*
X140144749Y-103782732D01*
X140002103Y-104126260D01*
X140001779Y-104498226D01*
X137892264Y-104498226D01*
X137846924Y-104452807D01*
X137762181Y-104417618D01*
X137623117Y-104081057D01*
X137360327Y-103817808D01*
X137016799Y-103675162D01*
X136811267Y-103674983D01*
X136793117Y-103631057D01*
X136620548Y-103458187D01*
X136863832Y-103215327D01*
X137006478Y-102871799D01*
X137006802Y-102499833D01*
X136864757Y-102156057D01*
X136667271Y-101958226D01*
X137461779Y-101958226D01*
X137603824Y-102302002D01*
X137866614Y-102565251D01*
X138210142Y-102707897D01*
X138582108Y-102708221D01*
X138655641Y-102677838D01*
X138839673Y-102862192D01*
X139183201Y-103004838D01*
X139555167Y-103005162D01*
X139898943Y-102863117D01*
X140162192Y-102600327D01*
X140304838Y-102256799D01*
X140305162Y-101884833D01*
X140163117Y-101541057D01*
X139900327Y-101277808D01*
X139556799Y-101135162D01*
X139184833Y-101134838D01*
X139111300Y-101165221D01*
X138927268Y-100980867D01*
X138769046Y-100915167D01*
X139854838Y-100915167D01*
X139996883Y-101258943D01*
X140259673Y-101522192D01*
X140603201Y-101664838D01*
X140975167Y-101665162D01*
X141318943Y-101523117D01*
X141582192Y-101260327D01*
X141724838Y-100916799D01*
X141725162Y-100544833D01*
X141583117Y-100201057D01*
X141320327Y-99937808D01*
X140976799Y-99795162D01*
X140604833Y-99794838D01*
X140261057Y-99936883D01*
X139997808Y-100199673D01*
X139855162Y-100543201D01*
X139854838Y-100915167D01*
X138769046Y-100915167D01*
X138583740Y-100838221D01*
X138211774Y-100837897D01*
X137867998Y-100979942D01*
X137604749Y-101242732D01*
X137462103Y-101586260D01*
X137461779Y-101958226D01*
X136667271Y-101958226D01*
X136601967Y-101892808D01*
X136477020Y-101840925D01*
X136353117Y-101541057D01*
X136090327Y-101277808D01*
X135746799Y-101135162D01*
X135374833Y-101134838D01*
X135031057Y-101276883D01*
X134925046Y-101382710D01*
X134820327Y-101277808D01*
X134476799Y-101135162D01*
X134104833Y-101134838D01*
X133761057Y-101276883D01*
X133497808Y-101539673D01*
X133355162Y-101883201D01*
X133354838Y-102255167D01*
X132047081Y-102255167D01*
X132202192Y-102100327D01*
X132344838Y-101756799D01*
X132345162Y-101384833D01*
X132203117Y-101041057D01*
X131940327Y-100777808D01*
X131596799Y-100635162D01*
X131224833Y-100634838D01*
X130881057Y-100776883D01*
X130617808Y-101039673D01*
X130475162Y-101383201D01*
X130474838Y-101755167D01*
X128125389Y-101755167D01*
X127956799Y-101685162D01*
X127584833Y-101684838D01*
X127241057Y-101826883D01*
X126977808Y-102089673D01*
X126835162Y-102433201D01*
X126834838Y-102805167D01*
X118366994Y-102805167D01*
X118572192Y-102600327D01*
X118714838Y-102256799D01*
X118715162Y-101884833D01*
X118573117Y-101541057D01*
X118310327Y-101277808D01*
X117966799Y-101135162D01*
X117594833Y-101134838D01*
X117251057Y-101276883D01*
X116987808Y-101539673D01*
X116845162Y-101883201D01*
X116844838Y-102255167D01*
X100820000Y-102255167D01*
X100820000Y-101625547D01*
X101083201Y-101734838D01*
X101455167Y-101735162D01*
X101798943Y-101593117D01*
X102062192Y-101330327D01*
X102204838Y-100986799D01*
X102205162Y-100614833D01*
X102063117Y-100271057D01*
X101800327Y-100007808D01*
X101456799Y-99865162D01*
X101084833Y-99864838D01*
X100820000Y-99974264D01*
X100820000Y-99550000D01*
X105065315Y-99550000D01*
X105155518Y-100003480D01*
X105165716Y-100018743D01*
X105128569Y-100073110D01*
X105077560Y-100325000D01*
X105077560Y-101275000D01*
X105121838Y-101510317D01*
X105260910Y-101726441D01*
X105473110Y-101871431D01*
X105725000Y-101922440D01*
X106975000Y-101922440D01*
X107210317Y-101878162D01*
X107426441Y-101739090D01*
X107571431Y-101526890D01*
X107622440Y-101275000D01*
X107622440Y-100325000D01*
X107578162Y-100089683D01*
X107533382Y-100020093D01*
X107544482Y-100003480D01*
X107601831Y-99715167D01*
X116844838Y-99715167D01*
X116986883Y-100058943D01*
X117249673Y-100322192D01*
X117593201Y-100464838D01*
X117965167Y-100465162D01*
X118308943Y-100323117D01*
X118572192Y-100060327D01*
X118714838Y-99716799D01*
X118715065Y-99455167D01*
X127674838Y-99455167D01*
X127816883Y-99798943D01*
X128079673Y-100062192D01*
X128423201Y-100204838D01*
X128795167Y-100205162D01*
X129138943Y-100063117D01*
X129402192Y-99800327D01*
X129437553Y-99715167D01*
X132084838Y-99715167D01*
X132226883Y-100058943D01*
X132489673Y-100322192D01*
X132833201Y-100464838D01*
X133205167Y-100465162D01*
X133548943Y-100323117D01*
X133812192Y-100060327D01*
X133954838Y-99716799D01*
X133954839Y-99715167D01*
X135894838Y-99715167D01*
X136036883Y-100058943D01*
X136299673Y-100322192D01*
X136643201Y-100464838D01*
X137015167Y-100465162D01*
X137358943Y-100323117D01*
X137622192Y-100060327D01*
X137764838Y-99716799D01*
X137765162Y-99344833D01*
X137623117Y-99001057D01*
X137360327Y-98737808D01*
X137016799Y-98595162D01*
X136644833Y-98594838D01*
X136301057Y-98736883D01*
X136037808Y-98999673D01*
X135895162Y-99343201D01*
X135894838Y-99715167D01*
X133954839Y-99715167D01*
X133955162Y-99344833D01*
X133813117Y-99001057D01*
X133550327Y-98737808D01*
X133206799Y-98595162D01*
X132834833Y-98594838D01*
X132491057Y-98736883D01*
X132227808Y-98999673D01*
X132085162Y-99343201D01*
X132084838Y-99715167D01*
X129437553Y-99715167D01*
X129544838Y-99456799D01*
X129545162Y-99084833D01*
X129403117Y-98741057D01*
X129140327Y-98477808D01*
X129061720Y-98445167D01*
X142244838Y-98445167D01*
X142386883Y-98788943D01*
X142649673Y-99052192D01*
X142993201Y-99194838D01*
X143365167Y-99195162D01*
X143708943Y-99053117D01*
X143972192Y-98790327D01*
X144114838Y-98446799D01*
X144115162Y-98074833D01*
X143973117Y-97731057D01*
X143710327Y-97467808D01*
X143366799Y-97325162D01*
X142994833Y-97324838D01*
X142651057Y-97466883D01*
X142387808Y-97729673D01*
X142245162Y-98073201D01*
X142244838Y-98445167D01*
X129061720Y-98445167D01*
X128796799Y-98335162D01*
X128424833Y-98334838D01*
X128081057Y-98476883D01*
X127817808Y-98739673D01*
X127675162Y-99083201D01*
X127674838Y-99455167D01*
X118715065Y-99455167D01*
X118715162Y-99344833D01*
X118573117Y-99001057D01*
X118310327Y-98737808D01*
X117966799Y-98595162D01*
X117594833Y-98594838D01*
X117251057Y-98736883D01*
X116987808Y-98999673D01*
X116845162Y-99343201D01*
X116844838Y-99715167D01*
X107601831Y-99715167D01*
X107634685Y-99550000D01*
X107544482Y-99096520D01*
X107287607Y-98712078D01*
X106903165Y-98455203D01*
X106449685Y-98365000D01*
X106250315Y-98365000D01*
X105796835Y-98455203D01*
X105412393Y-98712078D01*
X105155518Y-99096520D01*
X105065315Y-99550000D01*
X100820000Y-99550000D01*
X100820000Y-97175167D01*
X137164838Y-97175167D01*
X137306883Y-97518943D01*
X137569673Y-97782192D01*
X137913201Y-97924838D01*
X138285167Y-97925162D01*
X138628943Y-97783117D01*
X138892192Y-97520327D01*
X139034838Y-97176799D01*
X139034839Y-97175167D01*
X139704838Y-97175167D01*
X139846883Y-97518943D01*
X140109673Y-97782192D01*
X140453201Y-97924838D01*
X140825167Y-97925162D01*
X141168943Y-97783117D01*
X141432192Y-97520327D01*
X141574838Y-97176799D01*
X141575162Y-96804833D01*
X141433117Y-96461057D01*
X141170327Y-96197808D01*
X140826799Y-96055162D01*
X140454833Y-96054838D01*
X140111057Y-96196883D01*
X139847808Y-96459673D01*
X139705162Y-96803201D01*
X139704838Y-97175167D01*
X139034839Y-97175167D01*
X139035162Y-96804833D01*
X138893117Y-96461057D01*
X138630327Y-96197808D01*
X138286799Y-96055162D01*
X137914833Y-96054838D01*
X137571057Y-96196883D01*
X137307808Y-96459673D01*
X137165162Y-96803201D01*
X137164838Y-97175167D01*
X100820000Y-97175167D01*
X100820000Y-95847000D01*
X106684889Y-95847000D01*
X106684838Y-95905167D01*
G36*
X152651057Y-95856883D02*
X152387808Y-96119673D01*
X152245162Y-96463201D01*
X152244838Y-96835167D01*
X152386883Y-97178943D01*
X152649673Y-97442192D01*
X152993201Y-97584838D01*
X153365167Y-97585162D01*
X153560844Y-97504310D01*
X153482368Y-97582649D01*
X153339722Y-97926177D01*
X153339398Y-98298143D01*
X153481443Y-98641919D01*
X153744233Y-98905168D01*
X154087761Y-99047814D01*
X154459727Y-99048138D01*
X154803503Y-98906093D01*
X155066752Y-98643303D01*
X155209398Y-98299775D01*
X155209402Y-98295167D01*
X159074838Y-98295167D01*
X159216883Y-98638943D01*
X159479673Y-98902192D01*
X159823201Y-99044838D01*
X160195167Y-99045162D01*
X160538943Y-98903117D01*
X160802192Y-98640327D01*
X160944838Y-98296799D01*
X160944839Y-98295167D01*
X161614838Y-98295167D01*
X161756883Y-98638943D01*
X162019673Y-98902192D01*
X162363201Y-99044838D01*
X162735167Y-99045162D01*
X163078943Y-98903117D01*
X163342192Y-98640327D01*
X163484838Y-98296799D01*
X163485162Y-97924833D01*
X163343117Y-97581057D01*
X163080327Y-97317808D01*
X162736799Y-97175162D01*
X162364833Y-97174838D01*
X162021057Y-97316883D01*
X161757808Y-97579673D01*
X161615162Y-97923201D01*
X161614838Y-98295167D01*
X160944839Y-98295167D01*
X160945162Y-97924833D01*
X160803117Y-97581057D01*
X160540327Y-97317808D01*
X160196799Y-97175162D01*
X159824833Y-97174838D01*
X159481057Y-97316883D01*
X159217808Y-97579673D01*
X159075162Y-97923201D01*
X159074838Y-98295167D01*
X155209402Y-98295167D01*
X155209722Y-97927809D01*
X155067677Y-97584033D01*
X154804887Y-97320784D01*
X154461359Y-97178138D01*
X154089393Y-97177814D01*
X153893716Y-97258666D01*
X153972192Y-97180327D01*
X154114838Y-96836799D01*
X154115162Y-96464833D01*
X153973117Y-96121057D01*
X153710327Y-95857808D01*
X153684299Y-95847000D01*
X157484889Y-95847000D01*
X157484838Y-95905167D01*
X157626883Y-96248943D01*
X157889673Y-96512192D01*
X158233201Y-96654838D01*
X158605167Y-96655162D01*
X158948943Y-96513117D01*
X159212192Y-96250327D01*
X159354838Y-95906799D01*
X159354890Y-95847000D01*
X195290000Y-95847000D01*
X195290000Y-139290000D01*
X149657000Y-139290000D01*
X149657000Y-135679482D01*
X187084336Y-135679482D01*
X187666950Y-137089515D01*
X188744811Y-138169259D01*
X190153825Y-138754333D01*
X191679482Y-138755664D01*
X193089515Y-138173050D01*
X194169259Y-137095189D01*
X194754333Y-135686175D01*
X194755664Y-134160518D01*
X194173050Y-132750485D01*
X193095189Y-131670741D01*
X191686175Y-131085667D01*
X190160518Y-131084336D01*
X188750485Y-131666950D01*
X187670741Y-132744811D01*
X187085667Y-134153825D01*
X187084336Y-135679482D01*
X149657000Y-135679482D01*
X149657000Y-125115167D01*
X150564838Y-125115167D01*
X150706883Y-125458943D01*
X150969673Y-125722192D01*
X151313201Y-125864838D01*
X151685167Y-125865162D01*
X152004466Y-125733231D01*
X151831342Y-125906053D01*
X151688696Y-126249581D01*
X151688372Y-126621547D01*
X151830417Y-126965323D01*
X152093207Y-127228572D01*
X152436735Y-127371218D01*
X152674963Y-127371426D01*
X152674838Y-127515167D01*
X152816883Y-127858943D01*
X153079673Y-128122192D01*
X153423201Y-128264838D01*
X153795167Y-128265162D01*
X154138943Y-128123117D01*
X154175082Y-128087041D01*
X154393985Y-128177938D01*
X154765951Y-128178262D01*
X155109727Y-128036217D01*
X155372976Y-127773427D01*
X155515622Y-127429899D01*
X155515946Y-127057933D01*
X155373901Y-126714157D01*
X155111111Y-126450908D01*
X154767583Y-126308262D01*
X154465113Y-126307999D01*
X154465162Y-126251213D01*
X154323117Y-125907437D01*
X154060327Y-125644188D01*
X153716799Y-125501542D01*
X153344833Y-125501218D01*
X153076531Y-125612078D01*
X152810333Y-125501542D01*
X152438367Y-125501218D01*
X152119068Y-125633149D01*
X152292192Y-125460327D01*
X152434838Y-125116799D01*
X152435162Y-124744833D01*
X152293117Y-124401057D01*
X152030327Y-124137808D01*
X151686799Y-123995162D01*
X151314833Y-123994838D01*
X150971057Y-124136883D01*
X150707808Y-124399673D01*
X150565162Y-124743201D01*
X150564838Y-125115167D01*
X149657000Y-125115167D01*
X149657000Y-121651845D01*
X149794279Y-121321242D01*
X149794293Y-121305167D01*
X149864838Y-121305167D01*
X150006883Y-121648943D01*
X150269673Y-121912192D01*
X150613201Y-122054838D01*
X150985167Y-122055162D01*
X151328943Y-121913117D01*
X151592192Y-121650327D01*
X151734838Y-121306799D01*
X151735162Y-120934833D01*
X151706377Y-120865167D01*
X171104838Y-120865167D01*
X171246883Y-121208943D01*
X171509673Y-121472192D01*
X171853201Y-121614838D01*
X172225167Y-121615162D01*
X172568943Y-121473117D01*
X172832192Y-121210327D01*
X172855096Y-121155167D01*
X187014838Y-121155167D01*
X187156883Y-121498943D01*
X187419673Y-121762192D01*
X187763201Y-121904838D01*
X188135167Y-121905162D01*
X188478943Y-121763117D01*
X188742192Y-121500327D01*
X188884838Y-121156799D01*
X188885162Y-120784833D01*
X188743117Y-120441057D01*
X188480327Y-120177808D01*
X188136799Y-120035162D01*
X187764833Y-120034838D01*
X187421057Y-120176883D01*
X187157808Y-120439673D01*
X187015162Y-120783201D01*
X187014838Y-121155167D01*
X172855096Y-121155167D01*
X172974838Y-120866799D01*
X172975162Y-120494833D01*
X172833117Y-120151057D01*
X172570327Y-119887808D01*
X172226799Y-119745162D01*
X171854833Y-119744838D01*
X171511057Y-119886883D01*
X171247808Y-120149673D01*
X171105162Y-120493201D01*
X171104838Y-120865167D01*
X151706377Y-120865167D01*
X151593117Y-120591057D01*
X151330327Y-120327808D01*
X150986799Y-120185162D01*
X150614833Y-120184838D01*
X150271057Y-120326883D01*
X150007808Y-120589673D01*
X149865162Y-120933201D01*
X149864838Y-121305167D01*
X149794293Y-121305167D01*
X149794603Y-120949276D01*
X149657000Y-120616250D01*
X149657000Y-115235167D01*
X159244838Y-115235167D01*
X159386883Y-115578943D01*
X159647321Y-115839836D01*
X159625162Y-115893201D01*
X159624838Y-116265167D01*
X159766883Y-116608943D01*
X160029673Y-116872192D01*
X160373201Y-117014838D01*
X160745167Y-117015162D01*
X161088943Y-116873117D01*
X161352192Y-116610327D01*
X161494838Y-116266799D01*
X161495162Y-115894833D01*
X161353117Y-115551057D01*
X161092679Y-115290164D01*
X161114838Y-115236799D01*
X161115162Y-114864833D01*
X160973117Y-114521057D01*
X160710327Y-114257808D01*
X160366799Y-114115162D01*
X159994833Y-114114838D01*
X159651057Y-114256883D01*
X159387808Y-114519673D01*
X159245162Y-114863201D01*
X159244838Y-115235167D01*
X149657000Y-115235167D01*
X149657000Y-112925167D01*
X151984838Y-112925167D01*
X152126883Y-113268943D01*
X152338266Y-113480695D01*
X152250162Y-113692871D01*
X152249838Y-114064837D01*
X152391883Y-114408613D01*
X152654673Y-114671862D01*
X152998201Y-114814508D01*
X153370167Y-114814832D01*
X153713943Y-114672787D01*
X153977192Y-114409997D01*
X154119838Y-114066469D01*
X154120162Y-113694503D01*
X153996480Y-113395168D01*
X155639837Y-113395168D01*
X155781882Y-113738944D01*
X156044672Y-114002193D01*
X156388200Y-114144839D01*
X156760166Y-114145163D01*
X157103942Y-114003118D01*
X157367191Y-113740328D01*
X157475289Y-113480000D01*
X187615315Y-113480000D01*
X187699809Y-113904779D01*
X187833592Y-114105000D01*
X187699809Y-114305221D01*
X187615315Y-114730000D01*
X187699809Y-115154779D01*
X187833592Y-115355000D01*
X187699809Y-115555221D01*
X187615315Y-115980000D01*
X187699809Y-116404779D01*
X187826858Y-116594922D01*
X187705518Y-116776520D01*
X187615315Y-117230000D01*
X187705518Y-117683480D01*
X187962393Y-118067922D01*
X188346835Y-118324797D01*
X188800315Y-118415000D01*
X188999685Y-118415000D01*
X189453165Y-118324797D01*
X189837607Y-118067922D01*
X190094482Y-117683480D01*
X190184685Y-117230000D01*
X190094482Y-116776520D01*
X189973142Y-116594922D01*
X190100191Y-116404779D01*
X190184685Y-115980000D01*
X190100191Y-115555221D01*
X189966408Y-115355000D01*
X190100191Y-115154779D01*
X190184685Y-114730000D01*
X190100191Y-114305221D01*
X189966408Y-114105000D01*
X190100191Y-113904779D01*
X190184685Y-113480000D01*
X190100191Y-113055221D01*
X190077474Y-113021223D01*
X190121431Y-112956890D01*
X190172440Y-112705000D01*
X190172440Y-111755000D01*
X190128162Y-111519683D01*
X189989090Y-111303559D01*
X189776890Y-111158569D01*
X189525000Y-111107560D01*
X188275000Y-111107560D01*
X188039683Y-111151838D01*
X187823559Y-111290910D01*
X187678569Y-111503110D01*
X187627560Y-111755000D01*
X187627560Y-112705000D01*
X187671838Y-112940317D01*
X187723226Y-113020176D01*
X187699809Y-113055221D01*
X187615315Y-113480000D01*
X157475289Y-113480000D01*
X157509837Y-113396800D01*
X157510161Y-113024834D01*
X157423793Y-112815808D01*
X157638201Y-112904838D01*
X158010167Y-112905162D01*
X158353943Y-112763117D01*
X158617192Y-112500327D01*
X158759838Y-112156799D01*
X158759943Y-112035167D01*
X159289838Y-112035167D01*
X159431883Y-112378943D01*
X159694673Y-112642192D01*
X160038201Y-112784838D01*
X160410167Y-112785162D01*
X160753943Y-112643117D01*
X161017192Y-112380327D01*
X161159838Y-112036799D01*
X161160162Y-111664833D01*
X161018117Y-111321057D01*
X160842534Y-111145167D01*
X162564838Y-111145167D01*
X162706883Y-111488943D01*
X162969673Y-111752192D01*
X163313201Y-111894838D01*
X163685167Y-111895162D01*
X164028943Y-111753117D01*
X164292192Y-111490327D01*
X164434838Y-111146799D01*
X164434970Y-110995167D01*
X192094838Y-110995167D01*
X192236883Y-111338943D01*
X192499673Y-111602192D01*
X192843201Y-111744838D01*
X193215167Y-111745162D01*
X193558943Y-111603117D01*
X193822192Y-111340327D01*
X193964838Y-110996799D01*
X193965162Y-110624833D01*
X193823117Y-110281057D01*
X193560327Y-110017808D01*
X193216799Y-109875162D01*
X192844833Y-109874838D01*
X192501057Y-110016883D01*
X192237808Y-110279673D01*
X192095162Y-110623201D01*
X192094838Y-110995167D01*
X164434970Y-110995167D01*
X164435162Y-110774833D01*
X164293117Y-110431057D01*
X164030327Y-110167808D01*
X163686799Y-110025162D01*
X163314833Y-110024838D01*
X162971057Y-110166883D01*
X162707808Y-110429673D01*
X162565162Y-110773201D01*
X162564838Y-111145167D01*
X160842534Y-111145167D01*
X160755327Y-111057808D01*
X160411799Y-110915162D01*
X160039833Y-110914838D01*
X159696057Y-111056883D01*
X159432808Y-111319673D01*
X159290162Y-111663201D01*
X159289838Y-112035167D01*
X158759943Y-112035167D01*
X158760162Y-111784833D01*
X158618117Y-111441057D01*
X158355327Y-111177808D01*
X158011799Y-111035162D01*
X157639833Y-111034838D01*
X157296057Y-111176883D01*
X157032808Y-111439673D01*
X156890162Y-111783201D01*
X156889838Y-112155167D01*
X156976206Y-112364193D01*
X156761798Y-112275163D01*
X156389832Y-112274839D01*
X156046056Y-112416884D01*
X155782807Y-112679674D01*
X155640161Y-113023202D01*
X155639837Y-113395168D01*
X153996480Y-113395168D01*
X153978117Y-113350727D01*
X153766734Y-113138975D01*
X153854838Y-112926799D01*
X153855162Y-112554833D01*
X153713117Y-112211057D01*
X153450327Y-111947808D01*
X153106799Y-111805162D01*
X152734833Y-111804838D01*
X152391057Y-111946883D01*
X152127808Y-112209673D01*
X151985162Y-112553201D01*
X151984838Y-112925167D01*
X149657000Y-112925167D01*
X149657000Y-109635315D01*
X150674690Y-109635315D01*
X150816735Y-109979091D01*
X150972509Y-110135137D01*
X150877808Y-110229673D01*
X150735162Y-110573201D01*
X150734838Y-110945167D01*
X150876883Y-111288943D01*
X151139673Y-111552192D01*
X151483201Y-111694838D01*
X151855167Y-111695162D01*
X152198943Y-111553117D01*
X152462192Y-111290327D01*
X152604838Y-110946799D01*
X152605162Y-110574833D01*
X152463117Y-110231057D01*
X152307343Y-110075011D01*
X152402044Y-109980475D01*
X152544690Y-109636947D01*
X152545014Y-109264981D01*
X152520300Y-109205166D01*
X156264838Y-109205166D01*
X156406883Y-109548942D01*
X156669673Y-109812191D01*
X157013201Y-109954837D01*
X157385167Y-109955161D01*
X157578767Y-109875167D01*
X189234838Y-109875167D01*
X189376883Y-110218943D01*
X189639673Y-110482192D01*
X189983201Y-110624838D01*
X190355167Y-110625162D01*
X190698943Y-110483117D01*
X190962192Y-110220327D01*
X191104838Y-109876799D01*
X191105162Y-109504833D01*
X190963117Y-109161057D01*
X190700327Y-108897808D01*
X190356799Y-108755162D01*
X189984833Y-108754838D01*
X189641057Y-108896883D01*
X189377808Y-109159673D01*
X189235162Y-109503201D01*
X189234838Y-109875167D01*
X157578767Y-109875167D01*
X157728943Y-109813116D01*
X157992192Y-109550326D01*
X158134838Y-109206798D01*
X158135162Y-108834832D01*
X158114641Y-108785167D01*
X162539838Y-108785167D01*
X162681883Y-109128943D01*
X162944673Y-109392192D01*
X163288201Y-109534838D01*
X163660167Y-109535162D01*
X164003943Y-109393117D01*
X164267192Y-109130327D01*
X164409838Y-108786799D01*
X164410162Y-108414833D01*
X164273948Y-108085167D01*
X170174838Y-108085167D01*
X170316883Y-108428943D01*
X170579673Y-108692192D01*
X170923201Y-108834838D01*
X171295167Y-108835162D01*
X171638943Y-108693117D01*
X171902192Y-108430327D01*
X172044838Y-108086799D01*
X172045162Y-107714833D01*
X171903117Y-107371057D01*
X171640327Y-107107808D01*
X171296799Y-106965162D01*
X170924833Y-106964838D01*
X170581057Y-107106883D01*
X170317808Y-107369673D01*
X170175162Y-107713201D01*
X170174838Y-108085167D01*
X164273948Y-108085167D01*
X164268117Y-108071057D01*
X164005327Y-107807808D01*
X163661799Y-107665162D01*
X163289833Y-107664838D01*
X162946057Y-107806883D01*
X162682808Y-108069673D01*
X162540162Y-108413201D01*
X162539838Y-108785167D01*
X158114641Y-108785167D01*
X157993117Y-108491056D01*
X157730327Y-108227807D01*
X157386799Y-108085161D01*
X157014833Y-108084837D01*
X156671057Y-108226882D01*
X156407808Y-108489672D01*
X156265162Y-108833200D01*
X156264838Y-109205166D01*
X152520300Y-109205166D01*
X152402969Y-108921205D01*
X152140179Y-108657956D01*
X151796651Y-108515310D01*
X151424685Y-108514986D01*
X151080909Y-108657031D01*
X150817660Y-108919821D01*
X150675014Y-109263349D01*
X150674690Y-109635315D01*
X149657000Y-109635315D01*
X149657000Y-107335167D01*
X153674838Y-107335167D01*
X153816883Y-107678943D01*
X154079673Y-107942192D01*
X154423201Y-108084838D01*
X154795167Y-108085162D01*
X155138943Y-107943117D01*
X155402192Y-107680327D01*
X155544838Y-107336799D01*
X155545162Y-106964833D01*
X155403117Y-106621057D01*
X155140327Y-106357808D01*
X154796799Y-106215162D01*
X154424833Y-106214838D01*
X154081057Y-106356883D01*
X153817808Y-106619673D01*
X153675162Y-106963201D01*
X153674838Y-107335167D01*
X149657000Y-107335167D01*
X149657000Y-106515167D01*
X150874838Y-106515167D01*
X151016883Y-106858943D01*
X151279673Y-107122192D01*
X151623201Y-107264838D01*
X151995167Y-107265162D01*
X152338943Y-107123117D01*
X152602192Y-106860327D01*
X152744838Y-106516799D01*
X152745162Y-106144833D01*
X152603117Y-105801057D01*
X152340327Y-105537808D01*
X151996799Y-105395162D01*
X151624833Y-105394838D01*
X151281057Y-105536883D01*
X151017808Y-105799673D01*
X150875162Y-106143201D01*
X150874838Y-106515167D01*
X149657000Y-106515167D01*
X149657000Y-102255167D01*
X158754838Y-102255167D01*
X158896883Y-102598943D01*
X159159673Y-102862192D01*
X159503201Y-103004838D01*
X159875167Y-103005162D01*
X160130430Y-102899690D01*
X160025162Y-103153201D01*
X160024838Y-103525167D01*
X160166883Y-103868943D01*
X160429673Y-104132192D01*
X160773201Y-104274838D01*
X161145167Y-104275162D01*
X161488943Y-104133117D01*
X161752192Y-103870327D01*
X161894838Y-103526799D01*
X161894839Y-103525167D01*
X163834838Y-103525167D01*
X163976883Y-103868943D01*
X164239673Y-104132192D01*
X164583201Y-104274838D01*
X164955167Y-104275162D01*
X165298943Y-104133117D01*
X165562192Y-103870327D01*
X165704838Y-103526799D01*
X165705162Y-103154833D01*
X165563117Y-102811057D01*
X165300327Y-102547808D01*
X164956799Y-102405162D01*
X164584833Y-102404838D01*
X164241057Y-102546883D01*
X163977808Y-102809673D01*
X163835162Y-103153201D01*
X163834838Y-103525167D01*
X161894839Y-103525167D01*
X161895162Y-103154833D01*
X161753117Y-102811057D01*
X161647290Y-102705046D01*
X161752192Y-102600327D01*
X161894838Y-102256799D01*
X161894839Y-102255167D01*
X182884838Y-102255167D01*
X183026883Y-102598943D01*
X183289673Y-102862192D01*
X183633201Y-103004838D01*
X184005167Y-103005162D01*
X184348943Y-102863117D01*
X184612192Y-102600327D01*
X184754838Y-102256799D01*
X184754839Y-102255167D01*
X191774838Y-102255167D01*
X191916883Y-102598943D01*
X192179673Y-102862192D01*
X192523201Y-103004838D01*
X192895167Y-103005162D01*
X193238943Y-102863117D01*
X193502192Y-102600327D01*
X193644838Y-102256799D01*
X193645162Y-101884833D01*
X193503117Y-101541057D01*
X193240327Y-101277808D01*
X192896799Y-101135162D01*
X192524833Y-101134838D01*
X192181057Y-101276883D01*
X191917808Y-101539673D01*
X191775162Y-101883201D01*
X191774838Y-102255167D01*
X184754839Y-102255167D01*
X184755162Y-101884833D01*
X184613117Y-101541057D01*
X184350327Y-101277808D01*
X184006799Y-101135162D01*
X183634833Y-101134838D01*
X183291057Y-101276883D01*
X183027808Y-101539673D01*
X182885162Y-101883201D01*
X182884838Y-102255167D01*
X161894839Y-102255167D01*
X161895162Y-101884833D01*
X161753117Y-101541057D01*
X161490327Y-101277808D01*
X161146799Y-101135162D01*
X160774833Y-101134838D01*
X160431057Y-101276883D01*
X160325046Y-101382710D01*
X160220327Y-101277808D01*
X159876799Y-101135162D01*
X159504833Y-101134838D01*
X159161057Y-101276883D01*
X158897808Y-101539673D01*
X158755162Y-101883201D01*
X158754838Y-102255167D01*
X149657000Y-102255167D01*
X149657000Y-100705167D01*
X163504838Y-100705167D01*
X163646883Y-101048943D01*
X163909673Y-101312192D01*
X164253201Y-101454838D01*
X164625167Y-101455162D01*
X164968943Y-101313117D01*
X165232192Y-101050327D01*
X165374838Y-100706799D01*
X165375162Y-100334833D01*
X165233117Y-99991057D01*
X164970327Y-99727808D01*
X164626799Y-99585162D01*
X164254833Y-99584838D01*
X163911057Y-99726883D01*
X163647808Y-99989673D01*
X163505162Y-100333201D01*
X163504838Y-100705167D01*
X149657000Y-100705167D01*
X149657000Y-100465111D01*
X149715167Y-100465162D01*
X150058943Y-100323117D01*
X150322192Y-100060327D01*
X150464838Y-99716799D01*
X150464882Y-99665167D01*
X151864838Y-99665167D01*
X152006883Y-100008943D01*
X152269673Y-100272192D01*
X152613201Y-100414838D01*
X152985167Y-100415162D01*
X153328943Y-100273117D01*
X153592192Y-100010327D01*
X153734838Y-99666799D01*
X153735162Y-99294833D01*
X153593117Y-98951057D01*
X153330327Y-98687808D01*
X152986799Y-98545162D01*
X152614833Y-98544838D01*
X152271057Y-98686883D01*
X152007808Y-98949673D01*
X151865162Y-99293201D01*
X151864838Y-99665167D01*
X150464882Y-99665167D01*
X150465162Y-99344833D01*
X150323117Y-99001057D01*
X150060327Y-98737808D01*
X149716799Y-98595162D01*
X149657000Y-98595110D01*
X149657000Y-95847000D01*
X152674976Y-95847000D01*
X152651057Y-95856883D01*
X152651057Y-95856883D01*
G37*
X152651057Y-95856883D02*
X152387808Y-96119673D01*
X152245162Y-96463201D01*
X152244838Y-96835167D01*
X152386883Y-97178943D01*
X152649673Y-97442192D01*
X152993201Y-97584838D01*
X153365167Y-97585162D01*
X153560844Y-97504310D01*
X153482368Y-97582649D01*
X153339722Y-97926177D01*
X153339398Y-98298143D01*
X153481443Y-98641919D01*
X153744233Y-98905168D01*
X154087761Y-99047814D01*
X154459727Y-99048138D01*
X154803503Y-98906093D01*
X155066752Y-98643303D01*
X155209398Y-98299775D01*
X155209402Y-98295167D01*
X159074838Y-98295167D01*
X159216883Y-98638943D01*
X159479673Y-98902192D01*
X159823201Y-99044838D01*
X160195167Y-99045162D01*
X160538943Y-98903117D01*
X160802192Y-98640327D01*
X160944838Y-98296799D01*
X160944839Y-98295167D01*
X161614838Y-98295167D01*
X161756883Y-98638943D01*
X162019673Y-98902192D01*
X162363201Y-99044838D01*
X162735167Y-99045162D01*
X163078943Y-98903117D01*
X163342192Y-98640327D01*
X163484838Y-98296799D01*
X163485162Y-97924833D01*
X163343117Y-97581057D01*
X163080327Y-97317808D01*
X162736799Y-97175162D01*
X162364833Y-97174838D01*
X162021057Y-97316883D01*
X161757808Y-97579673D01*
X161615162Y-97923201D01*
X161614838Y-98295167D01*
X160944839Y-98295167D01*
X160945162Y-97924833D01*
X160803117Y-97581057D01*
X160540327Y-97317808D01*
X160196799Y-97175162D01*
X159824833Y-97174838D01*
X159481057Y-97316883D01*
X159217808Y-97579673D01*
X159075162Y-97923201D01*
X159074838Y-98295167D01*
X155209402Y-98295167D01*
X155209722Y-97927809D01*
X155067677Y-97584033D01*
X154804887Y-97320784D01*
X154461359Y-97178138D01*
X154089393Y-97177814D01*
X153893716Y-97258666D01*
X153972192Y-97180327D01*
X154114838Y-96836799D01*
X154115162Y-96464833D01*
X153973117Y-96121057D01*
X153710327Y-95857808D01*
X153684299Y-95847000D01*
X157484889Y-95847000D01*
X157484838Y-95905167D01*
X157626883Y-96248943D01*
X157889673Y-96512192D01*
X158233201Y-96654838D01*
X158605167Y-96655162D01*
X158948943Y-96513117D01*
X159212192Y-96250327D01*
X159354838Y-95906799D01*
X159354890Y-95847000D01*
X195290000Y-95847000D01*
X195290000Y-139290000D01*
X149657000Y-139290000D01*
X149657000Y-135679482D01*
X187084336Y-135679482D01*
X187666950Y-137089515D01*
X188744811Y-138169259D01*
X190153825Y-138754333D01*
X191679482Y-138755664D01*
X193089515Y-138173050D01*
X194169259Y-137095189D01*
X194754333Y-135686175D01*
X194755664Y-134160518D01*
X194173050Y-132750485D01*
X193095189Y-131670741D01*
X191686175Y-131085667D01*
X190160518Y-131084336D01*
X188750485Y-131666950D01*
X187670741Y-132744811D01*
X187085667Y-134153825D01*
X187084336Y-135679482D01*
X149657000Y-135679482D01*
X149657000Y-125115167D01*
X150564838Y-125115167D01*
X150706883Y-125458943D01*
X150969673Y-125722192D01*
X151313201Y-125864838D01*
X151685167Y-125865162D01*
X152004466Y-125733231D01*
X151831342Y-125906053D01*
X151688696Y-126249581D01*
X151688372Y-126621547D01*
X151830417Y-126965323D01*
X152093207Y-127228572D01*
X152436735Y-127371218D01*
X152674963Y-127371426D01*
X152674838Y-127515167D01*
X152816883Y-127858943D01*
X153079673Y-128122192D01*
X153423201Y-128264838D01*
X153795167Y-128265162D01*
X154138943Y-128123117D01*
X154175082Y-128087041D01*
X154393985Y-128177938D01*
X154765951Y-128178262D01*
X155109727Y-128036217D01*
X155372976Y-127773427D01*
X155515622Y-127429899D01*
X155515946Y-127057933D01*
X155373901Y-126714157D01*
X155111111Y-126450908D01*
X154767583Y-126308262D01*
X154465113Y-126307999D01*
X154465162Y-126251213D01*
X154323117Y-125907437D01*
X154060327Y-125644188D01*
X153716799Y-125501542D01*
X153344833Y-125501218D01*
X153076531Y-125612078D01*
X152810333Y-125501542D01*
X152438367Y-125501218D01*
X152119068Y-125633149D01*
X152292192Y-125460327D01*
X152434838Y-125116799D01*
X152435162Y-124744833D01*
X152293117Y-124401057D01*
X152030327Y-124137808D01*
X151686799Y-123995162D01*
X151314833Y-123994838D01*
X150971057Y-124136883D01*
X150707808Y-124399673D01*
X150565162Y-124743201D01*
X150564838Y-125115167D01*
X149657000Y-125115167D01*
X149657000Y-121651845D01*
X149794279Y-121321242D01*
X149794293Y-121305167D01*
X149864838Y-121305167D01*
X150006883Y-121648943D01*
X150269673Y-121912192D01*
X150613201Y-122054838D01*
X150985167Y-122055162D01*
X151328943Y-121913117D01*
X151592192Y-121650327D01*
X151734838Y-121306799D01*
X151735162Y-120934833D01*
X151706377Y-120865167D01*
X171104838Y-120865167D01*
X171246883Y-121208943D01*
X171509673Y-121472192D01*
X171853201Y-121614838D01*
X172225167Y-121615162D01*
X172568943Y-121473117D01*
X172832192Y-121210327D01*
X172855096Y-121155167D01*
X187014838Y-121155167D01*
X187156883Y-121498943D01*
X187419673Y-121762192D01*
X187763201Y-121904838D01*
X188135167Y-121905162D01*
X188478943Y-121763117D01*
X188742192Y-121500327D01*
X188884838Y-121156799D01*
X188885162Y-120784833D01*
X188743117Y-120441057D01*
X188480327Y-120177808D01*
X188136799Y-120035162D01*
X187764833Y-120034838D01*
X187421057Y-120176883D01*
X187157808Y-120439673D01*
X187015162Y-120783201D01*
X187014838Y-121155167D01*
X172855096Y-121155167D01*
X172974838Y-120866799D01*
X172975162Y-120494833D01*
X172833117Y-120151057D01*
X172570327Y-119887808D01*
X172226799Y-119745162D01*
X171854833Y-119744838D01*
X171511057Y-119886883D01*
X171247808Y-120149673D01*
X171105162Y-120493201D01*
X171104838Y-120865167D01*
X151706377Y-120865167D01*
X151593117Y-120591057D01*
X151330327Y-120327808D01*
X150986799Y-120185162D01*
X150614833Y-120184838D01*
X150271057Y-120326883D01*
X150007808Y-120589673D01*
X149865162Y-120933201D01*
X149864838Y-121305167D01*
X149794293Y-121305167D01*
X149794603Y-120949276D01*
X149657000Y-120616250D01*
X149657000Y-115235167D01*
X159244838Y-115235167D01*
X159386883Y-115578943D01*
X159647321Y-115839836D01*
X159625162Y-115893201D01*
X159624838Y-116265167D01*
X159766883Y-116608943D01*
X160029673Y-116872192D01*
X160373201Y-117014838D01*
X160745167Y-117015162D01*
X161088943Y-116873117D01*
X161352192Y-116610327D01*
X161494838Y-116266799D01*
X161495162Y-115894833D01*
X161353117Y-115551057D01*
X161092679Y-115290164D01*
X161114838Y-115236799D01*
X161115162Y-114864833D01*
X160973117Y-114521057D01*
X160710327Y-114257808D01*
X160366799Y-114115162D01*
X159994833Y-114114838D01*
X159651057Y-114256883D01*
X159387808Y-114519673D01*
X159245162Y-114863201D01*
X159244838Y-115235167D01*
X149657000Y-115235167D01*
X149657000Y-112925167D01*
X151984838Y-112925167D01*
X152126883Y-113268943D01*
X152338266Y-113480695D01*
X152250162Y-113692871D01*
X152249838Y-114064837D01*
X152391883Y-114408613D01*
X152654673Y-114671862D01*
X152998201Y-114814508D01*
X153370167Y-114814832D01*
X153713943Y-114672787D01*
X153977192Y-114409997D01*
X154119838Y-114066469D01*
X154120162Y-113694503D01*
X153996480Y-113395168D01*
X155639837Y-113395168D01*
X155781882Y-113738944D01*
X156044672Y-114002193D01*
X156388200Y-114144839D01*
X156760166Y-114145163D01*
X157103942Y-114003118D01*
X157367191Y-113740328D01*
X157475289Y-113480000D01*
X187615315Y-113480000D01*
X187699809Y-113904779D01*
X187833592Y-114105000D01*
X187699809Y-114305221D01*
X187615315Y-114730000D01*
X187699809Y-115154779D01*
X187833592Y-115355000D01*
X187699809Y-115555221D01*
X187615315Y-115980000D01*
X187699809Y-116404779D01*
X187826858Y-116594922D01*
X187705518Y-116776520D01*
X187615315Y-117230000D01*
X187705518Y-117683480D01*
X187962393Y-118067922D01*
X188346835Y-118324797D01*
X188800315Y-118415000D01*
X188999685Y-118415000D01*
X189453165Y-118324797D01*
X189837607Y-118067922D01*
X190094482Y-117683480D01*
X190184685Y-117230000D01*
X190094482Y-116776520D01*
X189973142Y-116594922D01*
X190100191Y-116404779D01*
X190184685Y-115980000D01*
X190100191Y-115555221D01*
X189966408Y-115355000D01*
X190100191Y-115154779D01*
X190184685Y-114730000D01*
X190100191Y-114305221D01*
X189966408Y-114105000D01*
X190100191Y-113904779D01*
X190184685Y-113480000D01*
X190100191Y-113055221D01*
X190077474Y-113021223D01*
X190121431Y-112956890D01*
X190172440Y-112705000D01*
X190172440Y-111755000D01*
X190128162Y-111519683D01*
X189989090Y-111303559D01*
X189776890Y-111158569D01*
X189525000Y-111107560D01*
X188275000Y-111107560D01*
X188039683Y-111151838D01*
X187823559Y-111290910D01*
X187678569Y-111503110D01*
X187627560Y-111755000D01*
X187627560Y-112705000D01*
X187671838Y-112940317D01*
X187723226Y-113020176D01*
X187699809Y-113055221D01*
X187615315Y-113480000D01*
X157475289Y-113480000D01*
X157509837Y-113396800D01*
X157510161Y-113024834D01*
X157423793Y-112815808D01*
X157638201Y-112904838D01*
X158010167Y-112905162D01*
X158353943Y-112763117D01*
X158617192Y-112500327D01*
X158759838Y-112156799D01*
X158759943Y-112035167D01*
X159289838Y-112035167D01*
X159431883Y-112378943D01*
X159694673Y-112642192D01*
X160038201Y-112784838D01*
X160410167Y-112785162D01*
X160753943Y-112643117D01*
X161017192Y-112380327D01*
X161159838Y-112036799D01*
X161160162Y-111664833D01*
X161018117Y-111321057D01*
X160842534Y-111145167D01*
X162564838Y-111145167D01*
X162706883Y-111488943D01*
X162969673Y-111752192D01*
X163313201Y-111894838D01*
X163685167Y-111895162D01*
X164028943Y-111753117D01*
X164292192Y-111490327D01*
X164434838Y-111146799D01*
X164434970Y-110995167D01*
X192094838Y-110995167D01*
X192236883Y-111338943D01*
X192499673Y-111602192D01*
X192843201Y-111744838D01*
X193215167Y-111745162D01*
X193558943Y-111603117D01*
X193822192Y-111340327D01*
X193964838Y-110996799D01*
X193965162Y-110624833D01*
X193823117Y-110281057D01*
X193560327Y-110017808D01*
X193216799Y-109875162D01*
X192844833Y-109874838D01*
X192501057Y-110016883D01*
X192237808Y-110279673D01*
X192095162Y-110623201D01*
X192094838Y-110995167D01*
X164434970Y-110995167D01*
X164435162Y-110774833D01*
X164293117Y-110431057D01*
X164030327Y-110167808D01*
X163686799Y-110025162D01*
X163314833Y-110024838D01*
X162971057Y-110166883D01*
X162707808Y-110429673D01*
X162565162Y-110773201D01*
X162564838Y-111145167D01*
X160842534Y-111145167D01*
X160755327Y-111057808D01*
X160411799Y-110915162D01*
X160039833Y-110914838D01*
X159696057Y-111056883D01*
X159432808Y-111319673D01*
X159290162Y-111663201D01*
X159289838Y-112035167D01*
X158759943Y-112035167D01*
X158760162Y-111784833D01*
X158618117Y-111441057D01*
X158355327Y-111177808D01*
X158011799Y-111035162D01*
X157639833Y-111034838D01*
X157296057Y-111176883D01*
X157032808Y-111439673D01*
X156890162Y-111783201D01*
X156889838Y-112155167D01*
X156976206Y-112364193D01*
X156761798Y-112275163D01*
X156389832Y-112274839D01*
X156046056Y-112416884D01*
X155782807Y-112679674D01*
X155640161Y-113023202D01*
X155639837Y-113395168D01*
X153996480Y-113395168D01*
X153978117Y-113350727D01*
X153766734Y-113138975D01*
X153854838Y-112926799D01*
X153855162Y-112554833D01*
X153713117Y-112211057D01*
X153450327Y-111947808D01*
X153106799Y-111805162D01*
X152734833Y-111804838D01*
X152391057Y-111946883D01*
X152127808Y-112209673D01*
X151985162Y-112553201D01*
X151984838Y-112925167D01*
X149657000Y-112925167D01*
X149657000Y-109635315D01*
X150674690Y-109635315D01*
X150816735Y-109979091D01*
X150972509Y-110135137D01*
X150877808Y-110229673D01*
X150735162Y-110573201D01*
X150734838Y-110945167D01*
X150876883Y-111288943D01*
X151139673Y-111552192D01*
X151483201Y-111694838D01*
X151855167Y-111695162D01*
X152198943Y-111553117D01*
X152462192Y-111290327D01*
X152604838Y-110946799D01*
X152605162Y-110574833D01*
X152463117Y-110231057D01*
X152307343Y-110075011D01*
X152402044Y-109980475D01*
X152544690Y-109636947D01*
X152545014Y-109264981D01*
X152520300Y-109205166D01*
X156264838Y-109205166D01*
X156406883Y-109548942D01*
X156669673Y-109812191D01*
X157013201Y-109954837D01*
X157385167Y-109955161D01*
X157578767Y-109875167D01*
X189234838Y-109875167D01*
X189376883Y-110218943D01*
X189639673Y-110482192D01*
X189983201Y-110624838D01*
X190355167Y-110625162D01*
X190698943Y-110483117D01*
X190962192Y-110220327D01*
X191104838Y-109876799D01*
X191105162Y-109504833D01*
X190963117Y-109161057D01*
X190700327Y-108897808D01*
X190356799Y-108755162D01*
X189984833Y-108754838D01*
X189641057Y-108896883D01*
X189377808Y-109159673D01*
X189235162Y-109503201D01*
X189234838Y-109875167D01*
X157578767Y-109875167D01*
X157728943Y-109813116D01*
X157992192Y-109550326D01*
X158134838Y-109206798D01*
X158135162Y-108834832D01*
X158114641Y-108785167D01*
X162539838Y-108785167D01*
X162681883Y-109128943D01*
X162944673Y-109392192D01*
X163288201Y-109534838D01*
X163660167Y-109535162D01*
X164003943Y-109393117D01*
X164267192Y-109130327D01*
X164409838Y-108786799D01*
X164410162Y-108414833D01*
X164273948Y-108085167D01*
X170174838Y-108085167D01*
X170316883Y-108428943D01*
X170579673Y-108692192D01*
X170923201Y-108834838D01*
X171295167Y-108835162D01*
X171638943Y-108693117D01*
X171902192Y-108430327D01*
X172044838Y-108086799D01*
X172045162Y-107714833D01*
X171903117Y-107371057D01*
X171640327Y-107107808D01*
X171296799Y-106965162D01*
X170924833Y-106964838D01*
X170581057Y-107106883D01*
X170317808Y-107369673D01*
X170175162Y-107713201D01*
X170174838Y-108085167D01*
X164273948Y-108085167D01*
X164268117Y-108071057D01*
X164005327Y-107807808D01*
X163661799Y-107665162D01*
X163289833Y-107664838D01*
X162946057Y-107806883D01*
X162682808Y-108069673D01*
X162540162Y-108413201D01*
X162539838Y-108785167D01*
X158114641Y-108785167D01*
X157993117Y-108491056D01*
X157730327Y-108227807D01*
X157386799Y-108085161D01*
X157014833Y-108084837D01*
X156671057Y-108226882D01*
X156407808Y-108489672D01*
X156265162Y-108833200D01*
X156264838Y-109205166D01*
X152520300Y-109205166D01*
X152402969Y-108921205D01*
X152140179Y-108657956D01*
X151796651Y-108515310D01*
X151424685Y-108514986D01*
X151080909Y-108657031D01*
X150817660Y-108919821D01*
X150675014Y-109263349D01*
X150674690Y-109635315D01*
X149657000Y-109635315D01*
X149657000Y-107335167D01*
X153674838Y-107335167D01*
X153816883Y-107678943D01*
X154079673Y-107942192D01*
X154423201Y-108084838D01*
X154795167Y-108085162D01*
X155138943Y-107943117D01*
X155402192Y-107680327D01*
X155544838Y-107336799D01*
X155545162Y-106964833D01*
X155403117Y-106621057D01*
X155140327Y-106357808D01*
X154796799Y-106215162D01*
X154424833Y-106214838D01*
X154081057Y-106356883D01*
X153817808Y-106619673D01*
X153675162Y-106963201D01*
X153674838Y-107335167D01*
X149657000Y-107335167D01*
X149657000Y-106515167D01*
X150874838Y-106515167D01*
X151016883Y-106858943D01*
X151279673Y-107122192D01*
X151623201Y-107264838D01*
X151995167Y-107265162D01*
X152338943Y-107123117D01*
X152602192Y-106860327D01*
X152744838Y-106516799D01*
X152745162Y-106144833D01*
X152603117Y-105801057D01*
X152340327Y-105537808D01*
X151996799Y-105395162D01*
X151624833Y-105394838D01*
X151281057Y-105536883D01*
X151017808Y-105799673D01*
X150875162Y-106143201D01*
X150874838Y-106515167D01*
X149657000Y-106515167D01*
X149657000Y-102255167D01*
X158754838Y-102255167D01*
X158896883Y-102598943D01*
X159159673Y-102862192D01*
X159503201Y-103004838D01*
X159875167Y-103005162D01*
X160130430Y-102899690D01*
X160025162Y-103153201D01*
X160024838Y-103525167D01*
X160166883Y-103868943D01*
X160429673Y-104132192D01*
X160773201Y-104274838D01*
X161145167Y-104275162D01*
X161488943Y-104133117D01*
X161752192Y-103870327D01*
X161894838Y-103526799D01*
X161894839Y-103525167D01*
X163834838Y-103525167D01*
X163976883Y-103868943D01*
X164239673Y-104132192D01*
X164583201Y-104274838D01*
X164955167Y-104275162D01*
X165298943Y-104133117D01*
X165562192Y-103870327D01*
X165704838Y-103526799D01*
X165705162Y-103154833D01*
X165563117Y-102811057D01*
X165300327Y-102547808D01*
X164956799Y-102405162D01*
X164584833Y-102404838D01*
X164241057Y-102546883D01*
X163977808Y-102809673D01*
X163835162Y-103153201D01*
X163834838Y-103525167D01*
X161894839Y-103525167D01*
X161895162Y-103154833D01*
X161753117Y-102811057D01*
X161647290Y-102705046D01*
X161752192Y-102600327D01*
X161894838Y-102256799D01*
X161894839Y-102255167D01*
X182884838Y-102255167D01*
X183026883Y-102598943D01*
X183289673Y-102862192D01*
X183633201Y-103004838D01*
X184005167Y-103005162D01*
X184348943Y-102863117D01*
X184612192Y-102600327D01*
X184754838Y-102256799D01*
X184754839Y-102255167D01*
X191774838Y-102255167D01*
X191916883Y-102598943D01*
X192179673Y-102862192D01*
X192523201Y-103004838D01*
X192895167Y-103005162D01*
X193238943Y-102863117D01*
X193502192Y-102600327D01*
X193644838Y-102256799D01*
X193645162Y-101884833D01*
X193503117Y-101541057D01*
X193240327Y-101277808D01*
X192896799Y-101135162D01*
X192524833Y-101134838D01*
X192181057Y-101276883D01*
X191917808Y-101539673D01*
X191775162Y-101883201D01*
X191774838Y-102255167D01*
X184754839Y-102255167D01*
X184755162Y-101884833D01*
X184613117Y-101541057D01*
X184350327Y-101277808D01*
X184006799Y-101135162D01*
X183634833Y-101134838D01*
X183291057Y-101276883D01*
X183027808Y-101539673D01*
X182885162Y-101883201D01*
X182884838Y-102255167D01*
X161894839Y-102255167D01*
X161895162Y-101884833D01*
X161753117Y-101541057D01*
X161490327Y-101277808D01*
X161146799Y-101135162D01*
X160774833Y-101134838D01*
X160431057Y-101276883D01*
X160325046Y-101382710D01*
X160220327Y-101277808D01*
X159876799Y-101135162D01*
X159504833Y-101134838D01*
X159161057Y-101276883D01*
X158897808Y-101539673D01*
X158755162Y-101883201D01*
X158754838Y-102255167D01*
X149657000Y-102255167D01*
X149657000Y-100705167D01*
X163504838Y-100705167D01*
X163646883Y-101048943D01*
X163909673Y-101312192D01*
X164253201Y-101454838D01*
X164625167Y-101455162D01*
X164968943Y-101313117D01*
X165232192Y-101050327D01*
X165374838Y-100706799D01*
X165375162Y-100334833D01*
X165233117Y-99991057D01*
X164970327Y-99727808D01*
X164626799Y-99585162D01*
X164254833Y-99584838D01*
X163911057Y-99726883D01*
X163647808Y-99989673D01*
X163505162Y-100333201D01*
X163504838Y-100705167D01*
X149657000Y-100705167D01*
X149657000Y-100465111D01*
X149715167Y-100465162D01*
X150058943Y-100323117D01*
X150322192Y-100060327D01*
X150464838Y-99716799D01*
X150464882Y-99665167D01*
X151864838Y-99665167D01*
X152006883Y-100008943D01*
X152269673Y-100272192D01*
X152613201Y-100414838D01*
X152985167Y-100415162D01*
X153328943Y-100273117D01*
X153592192Y-100010327D01*
X153734838Y-99666799D01*
X153735162Y-99294833D01*
X153593117Y-98951057D01*
X153330327Y-98687808D01*
X152986799Y-98545162D01*
X152614833Y-98544838D01*
X152271057Y-98686883D01*
X152007808Y-98949673D01*
X151865162Y-99293201D01*
X151864838Y-99665167D01*
X150464882Y-99665167D01*
X150465162Y-99344833D01*
X150323117Y-99001057D01*
X150060327Y-98737808D01*
X149716799Y-98595162D01*
X149657000Y-98595110D01*
X149657000Y-95847000D01*
X152674976Y-95847000D01*
X152651057Y-95856883D01*
M02*
