G04 #@! TF.FileFunction,Soldermask,Top*
%FSLAX46Y46*%
G04 Gerber Fmt 4.6, Leading zero omitted, Abs format (unit mm)*
<<<<<<< HEAD
G04 Created by KiCad (PCBNEW 4.0.7) date Sunday, February 18, 2018 'PMt' 02:42:31 PM*
=======
G04 Created by KiCad (PCBNEW 4.0.7) date 02/17/18 23:48:35*
>>>>>>> origin/master
%MOMM*%
%LPD*%
G01*
G04 APERTURE LIST*
%ADD10C,0.100000*%
%ADD11R,3.900120X10.808920*%
%ADD12R,7.410400X1.499820*%
%ADD13R,1.650000X1.350000*%
%ADD14O,1.650000X1.350000*%
%ADD15R,1.150000X1.600000*%
%ADD16R,2.100000X2.100000*%
%ADD17O,2.100000X2.100000*%
%ADD18R,4.750000X4.910000*%
%ADD19R,1.100000X1.100000*%
%ADD20R,1.300000X1.600000*%
%ADD21R,1.600000X1.300000*%
%ADD22R,1.000000X0.800000*%
%ADD23R,0.800000X1.000000*%
%ADD24R,1.765000X1.765000*%
%ADD25R,1.100000X0.800000*%
%ADD26R,1.797000X0.831800*%
%ADD27R,1.949400X0.999440*%
%ADD28R,1.700000X1.950000*%
%ADD29R,0.999440X1.949400*%
%ADD30R,2.200000X1.600000*%
%ADD31R,0.416560X0.985520*%
%ADD32R,0.985520X0.416560*%
%ADD33R,1.861820X1.861820*%
%ADD34R,1.600000X1.150000*%
%ADD35R,1.950000X1.000000*%
G04 APERTURE END LIST*
D10*
D11*
X172819060Y-127000000D03*
D12*
X183509920Y-129540000D03*
X183509920Y-124460000D03*
D13*
X106350000Y-79130000D03*
D14*
X106350000Y-77880000D03*
X106350000Y-76630000D03*
X106350000Y-75380000D03*
X106350000Y-74130000D03*
D11*
X123090940Y-101600000D03*
D12*
X112400080Y-99060000D03*
X112400080Y-104140000D03*
D11*
X123090940Y-88900000D03*
D12*
X112400080Y-86360000D03*
X112400080Y-91440000D03*
D15*
X157150000Y-96040000D03*
X157150000Y-97940000D03*
X141910000Y-95400000D03*
X141910000Y-93500000D03*
X154610000Y-95400000D03*
X154610000Y-93500000D03*
X141910000Y-102710000D03*
X141910000Y-104610000D03*
X150800000Y-103970000D03*
X150800000Y-102070000D03*
X133020000Y-81120000D03*
X133020000Y-83020000D03*
X134290000Y-87470000D03*
X134290000Y-89370000D03*
D11*
X123090940Y-63500000D03*
D12*
X112400080Y-60960000D03*
X112400080Y-66040000D03*
D11*
X123090940Y-76200000D03*
D12*
X112400080Y-73660000D03*
X112400080Y-78740000D03*
D11*
X123090940Y-114300000D03*
D12*
X112400080Y-111760000D03*
X112400080Y-116840000D03*
D11*
X123090940Y-127000000D03*
D12*
X112400080Y-124460000D03*
X112400080Y-129540000D03*
D11*
X172819060Y-63500000D03*
D12*
X183509920Y-66040000D03*
X183509920Y-60960000D03*
D11*
X172819060Y-76200000D03*
D12*
X183509920Y-78740000D03*
X183509920Y-73660000D03*
D11*
X172819060Y-88900000D03*
D12*
X183509920Y-91440000D03*
X183509920Y-86360000D03*
D11*
X172819060Y-101600000D03*
D12*
X183509920Y-104140000D03*
X183509920Y-99060000D03*
D11*
X172819060Y-114300000D03*
D12*
X183509920Y-116840000D03*
X183509920Y-111760000D03*
D16*
X158420000Y-56350000D03*
D17*
X158420000Y-53810000D03*
X160960000Y-56350000D03*
X160960000Y-53810000D03*
X163500000Y-56350000D03*
X163500000Y-53810000D03*
D18*
X130480000Y-76495000D03*
D19*
X133610000Y-75860000D03*
X133610000Y-77130000D03*
X133610000Y-78400000D03*
X133610000Y-74590000D03*
X128010000Y-74590000D03*
X128010000Y-78400000D03*
X128010000Y-77130000D03*
X128010000Y-75860000D03*
D18*
X130480000Y-121295000D03*
D19*
X133610000Y-120660000D03*
X133610000Y-121930000D03*
X133610000Y-123200000D03*
X133610000Y-119390000D03*
X128010000Y-119390000D03*
X128010000Y-123200000D03*
X128010000Y-121930000D03*
X128010000Y-120660000D03*
D18*
X165257500Y-76495000D03*
D19*
X162127500Y-77130000D03*
X162127500Y-75860000D03*
X162127500Y-74590000D03*
X162127500Y-78400000D03*
X167727500Y-78400000D03*
X167727500Y-74590000D03*
X167727500Y-75860000D03*
X167727500Y-77130000D03*
D18*
X165430000Y-114770000D03*
D19*
X162300000Y-115405000D03*
X162300000Y-114135000D03*
X162300000Y-112865000D03*
X162300000Y-116675000D03*
X167900000Y-116675000D03*
X167900000Y-112865000D03*
X167900000Y-114135000D03*
X167900000Y-115405000D03*
D20*
X135560000Y-79550000D03*
X135560000Y-81750000D03*
D21*
X138440000Y-75400000D03*
X140640000Y-75400000D03*
D20*
X144450000Y-85560000D03*
X144450000Y-87760000D03*
D22*
X144650000Y-92725000D03*
X144650000Y-93375000D03*
X144650000Y-94025000D03*
X144650000Y-94675000D03*
X144650000Y-95325000D03*
X144650000Y-95975000D03*
X144650000Y-96625000D03*
X144650000Y-97275000D03*
D23*
X145725000Y-98350000D03*
X146375000Y-98350000D03*
X147025000Y-98350000D03*
X147675000Y-98350000D03*
X148325000Y-98350000D03*
X148975000Y-98350000D03*
X149625000Y-98350000D03*
X150275000Y-98350000D03*
D22*
X151350000Y-97275000D03*
X151350000Y-96625000D03*
X151350000Y-95975000D03*
X151350000Y-95325000D03*
X151350000Y-94675000D03*
X151350000Y-94025000D03*
X151350000Y-93375000D03*
X151350000Y-92725000D03*
D23*
X150275000Y-91650000D03*
X149625000Y-91650000D03*
X148975000Y-91650000D03*
X148325000Y-91650000D03*
X147675000Y-91650000D03*
X147025000Y-91650000D03*
X146375000Y-91650000D03*
X145725000Y-91650000D03*
D24*
X150047500Y-97047500D03*
X150047500Y-95682500D03*
X150047500Y-94317500D03*
X150047500Y-92952500D03*
X148682500Y-97047500D03*
X148682500Y-95682500D03*
X148682500Y-94317500D03*
X148682500Y-92952500D03*
X147317500Y-97047500D03*
X147317500Y-95682500D03*
X147317500Y-94317500D03*
X147317500Y-92952500D03*
X145952500Y-97047500D03*
X145952500Y-95682500D03*
X145952500Y-94317500D03*
X145952500Y-92952500D03*
D25*
X131760000Y-91910000D03*
X131760000Y-91260000D03*
X131760000Y-90610000D03*
X129860000Y-90610000D03*
X129860000Y-91910000D03*
X129860000Y-91260000D03*
X131760000Y-98880000D03*
X131760000Y-98230000D03*
X131760000Y-97580000D03*
X129860000Y-97580000D03*
X129860000Y-98880000D03*
X129860000Y-98230000D03*
X165410000Y-90640000D03*
X165410000Y-91290000D03*
X165410000Y-91940000D03*
X167310000Y-91940000D03*
X167310000Y-90640000D03*
X167310000Y-91290000D03*
X165410000Y-98260000D03*
X165410000Y-98910000D03*
X165410000Y-99560000D03*
X167310000Y-99560000D03*
X167310000Y-98260000D03*
X167310000Y-98910000D03*
D26*
X144656269Y-108164527D03*
X144656269Y-108799527D03*
X144656269Y-109459927D03*
X144656269Y-110094927D03*
X144656269Y-110755327D03*
X144656269Y-111403027D03*
X144656269Y-112050727D03*
X150244269Y-112050727D03*
X150244269Y-111403027D03*
X150244269Y-110755327D03*
X150244269Y-110094927D03*
X150244269Y-109447227D03*
X150244269Y-108799527D03*
X150244269Y-108151827D03*
X144656269Y-113487300D03*
X144656269Y-114122300D03*
X144656269Y-114782700D03*
X144656269Y-115417700D03*
X144656269Y-116078100D03*
X144656269Y-116725800D03*
X144656269Y-117373500D03*
X150244269Y-117373500D03*
X150244269Y-116725800D03*
X150244269Y-116078100D03*
X150244269Y-115417700D03*
X150244269Y-114770000D03*
X150244269Y-114122300D03*
X150244269Y-113474600D03*
D27*
X136672520Y-87467540D03*
X136672520Y-88737540D03*
X136672520Y-90002460D03*
X136672520Y-91272460D03*
X142067480Y-91272460D03*
X142067480Y-90002460D03*
X142067480Y-88737540D03*
X142067480Y-87467540D03*
D16*
X142920000Y-56350000D03*
D17*
X142920000Y-53810000D03*
X145460000Y-56350000D03*
X145460000Y-53810000D03*
X148000000Y-56350000D03*
X148000000Y-53810000D03*
X150540000Y-56350000D03*
X150540000Y-53810000D03*
X153080000Y-56350000D03*
X153080000Y-53810000D03*
D20*
X126670000Y-92840000D03*
X126670000Y-90640000D03*
X126670000Y-100460000D03*
X126670000Y-98260000D03*
X169850000Y-89370000D03*
X169850000Y-91570000D03*
X169850000Y-98600000D03*
X169850000Y-100800000D03*
D13*
X106350000Y-117310000D03*
D14*
X106350000Y-116060000D03*
X106350000Y-114810000D03*
X106350000Y-113560000D03*
X106350000Y-112310000D03*
D13*
X188900000Y-74130000D03*
D14*
X188900000Y-75380000D03*
X188900000Y-76630000D03*
X188900000Y-77880000D03*
X188900000Y-79130000D03*
D13*
X188900000Y-112230000D03*
D14*
X188900000Y-113480000D03*
X188900000Y-114730000D03*
X188900000Y-115980000D03*
X188900000Y-117230000D03*
D28*
X146990000Y-86935800D03*
X146990000Y-78985800D03*
X151490000Y-86935800D03*
X151490000Y-78985800D03*
D29*
X137467540Y-84604960D03*
X138737540Y-84604960D03*
X140002460Y-84604960D03*
X141272460Y-84604960D03*
X141272460Y-79210000D03*
X140002460Y-79210000D03*
X138737540Y-79210000D03*
X137467540Y-79210000D03*
D30*
X144260000Y-104470000D03*
X148260000Y-104470000D03*
X148260000Y-102070000D03*
X144260000Y-102070000D03*
D31*
X146149260Y-129535020D03*
X146649640Y-129535020D03*
X147150020Y-129535020D03*
X147647860Y-129535020D03*
X149146460Y-129535020D03*
D32*
X149872900Y-128808580D03*
X149872900Y-128310740D03*
X149872900Y-127810360D03*
X149872900Y-127309980D03*
X149872900Y-126812140D03*
X149872900Y-126311760D03*
D31*
X145651420Y-129535020D03*
D33*
X148260000Y-127922120D03*
X146537880Y-127922120D03*
X146537880Y-126200000D03*
X148260000Y-126200000D03*
D32*
X149872900Y-125811380D03*
X149872900Y-125313540D03*
D31*
X149146460Y-124587100D03*
X148648620Y-124587100D03*
X148148240Y-124587100D03*
X147647860Y-124587100D03*
X147150020Y-124587100D03*
X146649640Y-124587100D03*
X146149260Y-124587100D03*
X145651420Y-124587100D03*
D32*
X144924980Y-125313540D03*
X144924980Y-125811380D03*
X144924980Y-126311760D03*
X144924980Y-126812140D03*
D31*
X148148240Y-129535020D03*
X148648620Y-129535020D03*
D32*
X144924980Y-127309980D03*
X144924980Y-127810360D03*
X144924980Y-128310740D03*
X144924980Y-128808580D03*
X130546040Y-105900320D03*
X130546040Y-106400700D03*
X130546040Y-106901080D03*
X130546040Y-107398920D03*
X130546040Y-108897520D03*
D31*
X131272480Y-109623960D03*
X131770320Y-109623960D03*
X132270700Y-109623960D03*
X132771080Y-109623960D03*
X133268920Y-109623960D03*
X133769300Y-109623960D03*
D32*
X130546040Y-105402480D03*
D33*
X132158940Y-108011060D03*
X132158940Y-106288940D03*
X133881060Y-106288940D03*
X133881060Y-108011060D03*
D31*
X134269680Y-109623960D03*
X134767520Y-109623960D03*
D32*
X135493960Y-108897520D03*
X135493960Y-108399680D03*
X135493960Y-107899300D03*
X135493960Y-107398920D03*
X135493960Y-106901080D03*
X135493960Y-106400700D03*
X135493960Y-105900320D03*
X135493960Y-105402480D03*
D31*
X134767520Y-104676040D03*
X134269680Y-104676040D03*
X133769300Y-104676040D03*
X133268920Y-104676040D03*
D32*
X130546040Y-107899300D03*
X130546040Y-108399680D03*
D31*
X132771080Y-104676040D03*
X132270700Y-104676040D03*
X131770320Y-104676040D03*
X131272480Y-104676040D03*
D21*
X147480000Y-76190000D03*
X149680000Y-76190000D03*
D20*
X138410000Y-124950000D03*
X138410000Y-122750000D03*
X144980000Y-119360000D03*
X144980000Y-121560000D03*
D13*
X106350000Y-86810000D03*
D14*
X106350000Y-85560000D03*
D13*
X106350000Y-93180000D03*
D14*
X106350000Y-91930000D03*
D13*
X106350000Y-100800000D03*
D14*
X106350000Y-99550000D03*
D13*
X106350000Y-107130000D03*
D14*
X106350000Y-105880000D03*
D16*
X130480000Y-56350000D03*
D17*
X130480000Y-53810000D03*
X133020000Y-56350000D03*
X133020000Y-53810000D03*
X135560000Y-56350000D03*
X135560000Y-53810000D03*
X138100000Y-56350000D03*
X138100000Y-53810000D03*
D13*
X106350000Y-69880000D03*
D14*
X106350000Y-68630000D03*
X106350000Y-67380000D03*
X106350000Y-66130000D03*
D13*
X106350000Y-125310000D03*
D14*
X106350000Y-124060000D03*
X106350000Y-122810000D03*
X106350000Y-121560000D03*
D34*
X130140000Y-125980000D03*
X132040000Y-125980000D03*
X129890000Y-136940000D03*
X131790000Y-136940000D03*
D15*
X145340000Y-136190000D03*
X145340000Y-134290000D03*
X137170000Y-128690000D03*
X137170000Y-130590000D03*
D35*
X128220000Y-128640000D03*
X128220000Y-129910000D03*
X128220000Y-131180000D03*
X128220000Y-132450000D03*
X133620000Y-132450000D03*
X133620000Y-131180000D03*
X133620000Y-129910000D03*
X133620000Y-128640000D03*
X142570000Y-137750000D03*
X142570000Y-136480000D03*
X142570000Y-135210000D03*
X142570000Y-133940000D03*
X137170000Y-133940000D03*
X137170000Y-135210000D03*
X137170000Y-136480000D03*
X137170000Y-137750000D03*
M02*
