G04 #@! TF.FileFunction,Copper,L3,Inr,Plane*
%FSLAX46Y46*%
G04 Gerber Fmt 4.6, Leading zero omitted, Abs format (unit mm)*
<<<<<<< HEAD
<<<<<<< HEAD
G04 Created by KiCad (PCBNEW 4.0.7) date Sunday, February 18, 2018 'PMt' 02:42:31 PM*
=======
G04 Created by KiCad (PCBNEW 4.0.7) date 02/17/18 23:48:35*
>>>>>>> origin/master
=======
G04 Created by KiCad (PCBNEW 4.0.7) date 02/17/18 23:48:35*
>>>>>>> origin/master
%MOMM*%
%LPD*%
G01*
G04 APERTURE LIST*
%ADD10C,0.100000*%
%ADD11R,1.250000X0.950000*%
%ADD12O,1.250000X0.950000*%
%ADD13R,1.700000X1.700000*%
%ADD14O,1.700000X1.700000*%
%ADD15C,6.400000*%
%ADD16C,0.600000*%
G04 APERTURE END LIST*
D10*
D11*
X106350000Y-79130000D03*
D12*
X106350000Y-77880000D03*
X106350000Y-76630000D03*
X106350000Y-75380000D03*
X106350000Y-74130000D03*
D13*
X158420000Y-56350000D03*
D14*
X158420000Y-53810000D03*
X160960000Y-56350000D03*
X160960000Y-53810000D03*
X163500000Y-56350000D03*
X163500000Y-53810000D03*
D13*
X142920000Y-56350000D03*
D14*
X142920000Y-53810000D03*
X145460000Y-56350000D03*
X145460000Y-53810000D03*
X148000000Y-56350000D03*
X148000000Y-53810000D03*
X150540000Y-56350000D03*
X150540000Y-53810000D03*
X153080000Y-56350000D03*
X153080000Y-53810000D03*
D11*
X106350000Y-117310000D03*
D12*
X106350000Y-116060000D03*
X106350000Y-114810000D03*
X106350000Y-113560000D03*
X106350000Y-112310000D03*
D11*
X188900000Y-74130000D03*
D12*
X188900000Y-75380000D03*
X188900000Y-76630000D03*
X188900000Y-77880000D03*
X188900000Y-79130000D03*
D11*
X188900000Y-112230000D03*
D12*
X188900000Y-113480000D03*
X188900000Y-114730000D03*
X188900000Y-115980000D03*
X188900000Y-117230000D03*
D11*
X106350000Y-86810000D03*
D12*
X106350000Y-85560000D03*
D11*
X106350000Y-93180000D03*
D12*
X106350000Y-91930000D03*
D11*
X106350000Y-100800000D03*
D12*
X106350000Y-99550000D03*
D11*
X106350000Y-107130000D03*
D12*
X106350000Y-105880000D03*
D13*
X130480000Y-56350000D03*
D14*
X130480000Y-53810000D03*
X133020000Y-56350000D03*
X133020000Y-53810000D03*
X135560000Y-56350000D03*
X135560000Y-53810000D03*
X138100000Y-56350000D03*
X138100000Y-53810000D03*
D11*
X106350000Y-69880000D03*
D12*
X106350000Y-68630000D03*
X106350000Y-67380000D03*
X106350000Y-66130000D03*
D11*
X106350000Y-125310000D03*
D12*
X106350000Y-124060000D03*
X106350000Y-122810000D03*
X106350000Y-121560000D03*
D15*
X105190000Y-131110000D03*
<<<<<<< HEAD
<<<<<<< HEAD
X190920000Y-54910000D03*
X190920000Y-134920000D03*
X105190000Y-57450000D03*
D16*
X106670000Y-108270000D03*
X106670000Y-118430000D03*
X106670000Y-72710000D03*
X187950000Y-120970000D03*
X193030000Y-110810000D03*
X187950000Y-82870000D03*
=======
X105190000Y-57450000D03*
X190920000Y-134920000D03*
X190920000Y-54910000D03*
D16*
>>>>>>> origin/master
=======
X105190000Y-57450000D03*
X190920000Y-134920000D03*
X190920000Y-54910000D03*
D16*
>>>>>>> origin/master
X151810000Y-106330000D03*
X140790000Y-100730000D03*
X144280000Y-132950000D03*
X126670000Y-135210000D03*
X112410000Y-56470000D03*
X127940000Y-52540000D03*
X128094442Y-57465558D03*
X107620000Y-95720000D03*
X142430000Y-126510000D03*
X164440000Y-100520000D03*
X160560000Y-116080000D03*
X151510000Y-76710000D03*
X148230000Y-115420000D03*
X148620000Y-110110000D03*
X148150000Y-122740000D03*
X148260000Y-131280000D03*
X117780000Y-62700000D03*
X152070000Y-55080000D03*
X106350000Y-81750000D03*
X136830000Y-91910000D03*
X133020000Y-88100000D03*
X140015000Y-94270303D03*
X133020000Y-99530000D03*
X134290000Y-102070000D03*
X117780000Y-99530000D03*
X135560000Y-123660000D03*
X131750000Y-80480000D03*
X136830000Y-107150000D03*
X129210000Y-107150000D03*
X190170000Y-109690000D03*
X154610000Y-107150000D03*
X163500000Y-110960000D03*
X159690000Y-102070000D03*
X119050000Y-107150000D03*
X107620000Y-103340000D03*
X183820000Y-102070000D03*
X158420000Y-95720000D03*
X153340000Y-88100000D03*
X162230000Y-91910000D03*
X116510000Y-90640000D03*
X102540000Y-90640000D03*
X115240000Y-94450000D03*
X101270000Y-100800000D03*
X102535015Y-94343002D03*
X188773063Y-72986937D03*
X188900000Y-74130000D03*
X188900000Y-117230000D03*
X188900000Y-117230000D03*
X106350000Y-112310000D03*
X188900000Y-117230000D03*
X188900000Y-112230000D03*
X188900000Y-79130000D03*
X188900000Y-74130000D03*
X131050000Y-103310000D03*
X128010000Y-126800000D03*
X162550000Y-98110000D03*
X160010000Y-98110000D03*
X142067480Y-78112520D03*
X145520000Y-76730000D03*
X138390000Y-126490000D03*
X146400000Y-120780000D03*
X143792140Y-126812140D03*
X117154999Y-64614999D03*
X112700000Y-98010088D03*
X136830000Y-93180000D03*
X134290000Y-94450000D03*
X136830000Y-90472738D03*
X133020000Y-103310000D03*
X135560000Y-96990000D03*
X131750000Y-96990000D03*
X119050000Y-105880000D03*
X101270000Y-105880000D03*
X101270000Y-103340000D03*
X135319448Y-85319448D03*
X139995000Y-85617910D03*
X148859441Y-121134443D03*
X137316597Y-106514999D03*
X150800000Y-121120000D03*
X143214299Y-90636140D03*
X143180000Y-85560000D03*
X144213867Y-57859982D03*
X152070000Y-60160000D03*
X144629512Y-84277959D03*
X148260000Y-99530000D03*
X145720000Y-58890000D03*
X149530000Y-58663222D03*
X143805000Y-84290000D03*
X129209458Y-111470541D03*
X117670000Y-60250000D03*
X118330000Y-58835000D03*
X133078151Y-110105405D03*
X127770000Y-102620000D03*
X149530000Y-99530000D03*
X139370000Y-88100000D03*
X139537262Y-79210000D03*
X140279338Y-76309338D03*
X140640000Y-96990000D03*
X140640000Y-88752739D03*
X129209999Y-103935000D03*
X131410000Y-101570000D03*
X125269999Y-107580000D03*
X125398223Y-110704260D03*
X134630000Y-116320000D03*
X136830000Y-99530000D03*
X135560000Y-102070000D03*
X138100000Y-96990000D03*
X138100000Y-93180000D03*
X136000000Y-104160000D03*
X137316597Y-105244999D03*
X137600000Y-107520000D03*
X134710000Y-112675727D03*
X136071640Y-102685000D03*
X138396941Y-101773059D03*
X143180000Y-98260000D03*
X143180000Y-94050000D03*
X139600000Y-107149999D03*
X142840000Y-118539401D03*
X136830000Y-104610000D03*
X140936941Y-104313059D03*
X139370000Y-102070000D03*
X136830000Y-94450000D03*
X141910000Y-114770000D03*
X140640000Y-109690000D03*
X129050000Y-93460000D03*
X128610000Y-99270000D03*
X128060000Y-93130000D03*
X133020000Y-57700003D03*
X169850000Y-93660000D03*
X168410000Y-89630000D03*
X110160000Y-64990088D03*
X107620000Y-88100000D03*
X183820000Y-93180000D03*
X159690000Y-93180000D03*
X140640000Y-110960000D03*
X140640000Y-114770000D03*
X156574999Y-113210001D03*
X153185000Y-113879670D03*
X152920000Y-112740000D03*
X157825000Y-111970000D03*
X155880000Y-110960000D03*
X194760000Y-97940000D03*
X145940000Y-117190000D03*
X142970000Y-109400000D03*
X145720000Y-90640000D03*
X145720000Y-88752739D03*
X139370000Y-113500000D03*
X139370000Y-110960000D03*
X138450000Y-121180000D03*
X148540000Y-108130000D03*
X136830000Y-105880000D03*
X144450000Y-105880000D03*
X129209999Y-109360001D03*
X122465940Y-108420000D03*
X117780000Y-102070000D03*
X130480000Y-109690000D03*
X130480000Y-114770000D03*
X130480000Y-116040000D03*
X135560000Y-110960000D03*
X135560000Y-113500000D03*
X136830000Y-113500000D03*
X136830000Y-110960000D03*
X138100000Y-110960000D03*
X138100000Y-113500000D03*
X134290000Y-79210000D03*
X132985000Y-79210000D03*
X152590000Y-93330000D03*
X153180000Y-96650000D03*
X154274560Y-98112976D03*
X152800000Y-99480000D03*
X151500000Y-124930000D03*
X146498058Y-112041942D03*
X131280000Y-59335000D03*
X131220000Y-60585000D03*
X171110000Y-107900000D03*
X157200000Y-109019999D03*
X164770000Y-103340000D03*
X160960000Y-103340000D03*
X160960000Y-102070000D03*
X192710000Y-102070000D03*
X172040000Y-120680000D03*
X163475000Y-108600000D03*
X160225000Y-111850000D03*
X160180000Y-115050000D03*
X112075000Y-71110000D03*
X153530000Y-126436380D03*
X146170000Y-109470000D03*
X152623534Y-126436380D03*
X146080000Y-110740000D03*
X153610000Y-127330000D03*
X151670000Y-110760000D03*
X154580784Y-127243100D03*
X151609852Y-109450148D03*
X107620000Y-83020000D03*
X110160000Y-57620000D03*
X106350000Y-105880000D03*
X143768557Y-92074282D03*
X130600000Y-129850000D03*
X129229999Y-115395000D03*
X127509989Y-108420000D03*
X129250000Y-108410000D03*
X135360000Y-131170000D03*
X129460000Y-104850000D03*
X146170000Y-131840000D03*
X144100000Y-131860000D03*
X143610000Y-129330000D03*
X142570000Y-130300000D03*
<<<<<<< HEAD
<<<<<<< HEAD
=======
=======
>>>>>>> origin/master
D17*
X106350000Y-74130000D02*
X106350000Y-71590000D01*
X188900000Y-79130000D02*
X188900000Y-80480000D01*
>>>>>>> origin/master
M02*
