M48
<<<<<<< HEAD
;DRILL file {KiCad 4.0.7} date Sunday, February 18, 2018 'PMt' 02:42:37 PM
;FORMAT={-:-/ absolute / inch / decimal}
=======
;DRILL file {KiCad 4.0.7} date 02/17/18 23:48:55
;FORMAT={2:4/ absolute / inch / suppress leading zeros}
>>>>>>> origin/master
FMAT,2
INCH,TZ
T1C0.012
T2C0.024
T3C0.039
T4C0.126
%
G90
G05
M72
T1
<<<<<<< HEAD
X3.987Y-3.9685
X3.987Y-4.0685
X3.987Y-4.1685
X4.0368Y-3.7143
X4.037Y-3.5685
X4.187Y-3.2185
X4.187Y-4.1685
X4.187Y-4.4217
X4.1996Y-2.8626
X4.1996Y-4.2626
X4.1996Y-4.6626
X4.237Y-3.2685
X4.237Y-3.4685
X4.237Y-3.7685
X4.237Y-4.0685
X4.337Y-2.2685
X4.337Y-2.5587
X4.4124Y-2.7996
X4.4256Y-2.2232
X4.437Y-3.8587
X4.537Y-3.7185
X4.587Y-3.5685
X4.6124Y-2.5439
X4.6327Y-2.372
X4.637Y-2.4685
X4.637Y-3.9185
X4.637Y-4.0185
X4.6587Y-2.3163
X4.687Y-4.1685
X4.687Y-4.2185
X4.8215Y-4.2685
X4.9319Y-4.2354
X4.9369Y-4.3584
X4.987Y-5.3232
X5.0201Y-4.2685
X5.0303Y-4.0402
X5.037Y-2.0685
X5.0398Y-4.9921
X5.0417Y-3.6665
X5.0431Y-2.2624
X5.0634Y-3.9083
X5.0807Y-3.6795
X5.087Y-4.3886
X5.087Y-4.0919
X5.087Y-4.3055
X5.087Y-4.2185
X5.0878Y-4.5431
X5.0886Y-4.2681
X5.0969Y-4.128
X5.137Y-4.3185
X5.137Y-4.5185
X5.137Y-4.5685
X5.1417Y-5.1122
X5.1594Y-4.0673
X5.1661Y-2.3852
X5.1685Y-2.336
X5.1736Y-3.9988
X5.187Y-3.1685
X5.187Y-3.8185
X5.2356Y-3.1185
X5.237Y-2.2717
X5.237Y-3.4685
X5.237Y-3.9185
X5.237Y-4.0673
X5.2393Y-4.3349
X5.287Y-3.1185
X5.287Y-3.7185
X5.287Y-4.0185
X5.3004Y-4.5795
X5.3035Y-4.4361
X5.3275Y-3.359
X5.3291Y-5.1642
X5.337Y-3.8185
X5.337Y-4.0185
X5.337Y-4.3685
X5.337Y-4.4685
X5.337Y-4.8685
X5.3543Y-4.1008
X5.3572Y-4.0427
X5.387Y-3.5619
X5.387Y-3.6185
X5.387Y-3.6685
X5.387Y-3.7185
X5.387Y-3.9185
X5.387Y-4.1185
X5.387Y-4.1685
X5.387Y-4.2185
X5.387Y-4.3685
X5.387Y-4.4685
X5.4062Y-4.1435
X5.4062Y-4.1935
X5.4173Y-4.2331
X5.437Y-3.6685
X5.437Y-3.8185
X5.437Y-4.3685
X5.437Y-4.4685
X5.4484Y-4.9799
X5.4487Y-4.0068
X5.4508Y-4.7709
X5.487Y-3.4685
X5.487Y-4.0185
X5.487Y-4.3685
X5.487Y-4.4685
X5.4936Y-3.1185
X5.4961Y-4.2185
X5.5116Y-3.3708
X5.5124Y-3.7114
X5.5228Y-3.0043
X5.537Y-3.4942
X5.537Y-3.8185
X5.537Y-4.3185
X5.537Y-4.3685
X5.537Y-4.5185
X5.5429Y-3.9657
X5.5487Y-4.1068
X5.587Y-4.5185
X5.5932Y-3.0753
X5.6075Y-4.9807
X5.613Y-5.1299
X5.6236Y-4.6669
X5.6287Y-4.3071
X5.637Y-3.3685
X5.637Y-3.7028
X5.637Y-3.8685
X5.6384Y-3.5684
X5.6539Y-5.0917
X5.6602Y-3.625
X5.6611Y-4.9926
X5.6616Y-3.3185
X5.6732Y-5.1913
X5.6777Y-2.278
X5.6803Y-5.2343
X5.687Y-4.1685
X5.6941Y-3.318
X5.7291Y-3.0209
X5.737Y-2.3185
X5.737Y-3.4942
X5.737Y-3.5685
X5.7457Y-4.6138
X5.7512Y-4.3598
X5.7547Y-4.3098
X5.7547Y-5.1906
X5.7638Y-4.7551
X5.7676Y-4.4111
X5.8327Y-4.8323
X5.8358Y-4.5441
X5.837Y-3.9185
X5.837Y-5.1685
X5.848Y-4.2571
X5.8512Y-4.335
X5.8606Y-4.7691
X5.887Y-2.3096
X5.887Y-3.9185
X5.937Y-4.7685
X5.9646Y-4.9185
X5.965Y-3.0201
X5.9689Y-4.3091
X5.9713Y-4.3606
X5.9768Y-4.1862
X5.987Y-2.1685
X5.987Y-2.3685
X6.0075Y-3.6744
X6.0088Y-4.9778
X6.0157Y-3.9165
X6.0205Y-4.4386
X6.0307Y-3.8051
X6.0309Y-4.4835
X6.037Y-3.4685
X6.0445Y-4.9778
X6.0476Y-5.013
X6.0738Y-3.8627
X6.0859Y-5.0096
X6.087Y-4.2185
X6.137Y-4.3685
X6.1644Y-4.4571
X6.189Y-4.2921
X6.2136Y-4.4083
X6.237Y-3.7685
X6.287Y-3.6685
X6.287Y-4.0185
X6.2996Y-3.8626
X6.3063Y-4.5295
X6.3081Y-4.4035
X6.3213Y-4.5701
X6.337Y-4.0185
X6.337Y-4.0685
X6.387Y-3.6185
X6.3996Y-3.8626
X6.436Y-4.2756
X6.437Y-4.3685
X6.474Y-3.9575
X6.487Y-4.0685
X6.6303Y-3.5287
X6.687Y-3.6874
X6.7366Y-4.248
X6.7732Y-4.7512
X7.237Y-3.6685
X7.237Y-4.0185
X7.3996Y-3.2626
X7.3996Y-4.7626
X7.432Y-2.8735
X7.437Y-2.9185
X7.437Y-2.9185
X7.437Y-3.1154
X7.437Y-4.4185
X7.437Y-4.6154
X7.437Y-4.6154
X7.437Y-4.6154
X7.487Y-4.3185
X7.587Y-4.0185
X7.5996Y-4.3626
X7.6677Y-3.8559
=======
X39870Y-39685
X39870Y-40685
X39870Y-41685
X40368Y-37143
X40370Y-35685
X41870Y-28185
X41870Y-32185
X41870Y-41685
X41870Y-44217
X42370Y-32685
X42370Y-34685
X42370Y-37685
X42370Y-40685
X43370Y-22685
X43370Y-25587
X44124Y-27996
X44256Y-22232
X44370Y-38587
X45370Y-37185
X45870Y-35685
X46124Y-25439
X46327Y-23720
X46370Y-24685
X46370Y-39185
X46370Y-40185
X46587Y-23163
X46870Y-41685
X46870Y-42185
X48215Y-42685
X49319Y-42354
X49369Y-43584
X49870Y-53232
X50201Y-42685
X50303Y-40402
X50370Y-20685
X50398Y-49921
X50417Y-36665
X50431Y-22624
X50634Y-39083
X50807Y-36795
X50870Y-43886
X50870Y-40919
X50870Y-43055
X50870Y-42185
X50878Y-45431
X50886Y-42681
X50969Y-41280
X51370Y-43185
X51370Y-45185
X51370Y-45685
X51417Y-51122
X51594Y-40673
X51661Y-23852
X51685Y-23360
X51736Y-39988
X51870Y-31685
X51870Y-38185
X52356Y-31185
X52370Y-22717
X52370Y-34685
X52370Y-39185
X52370Y-40673
X52393Y-43349
X52870Y-31185
X52870Y-37185
X52870Y-40185
X53004Y-45795
X53035Y-44361
X53275Y-33590
X53291Y-51642
X53370Y-38185
X53370Y-40185
X53370Y-43685
X53370Y-44685
X53370Y-48685
X53543Y-41008
X53572Y-40427
X53870Y-35619
X53870Y-36185
X53870Y-36685
X53870Y-37185
X53870Y-39185
X53870Y-41185
X53870Y-41685
X53870Y-42185
X53870Y-43685
X53870Y-44685
X54062Y-41435
X54062Y-41935
X54173Y-42331
X54370Y-36685
X54370Y-38185
X54370Y-43685
X54370Y-44685
X54484Y-49799
X54487Y-40068
X54508Y-47709
X54870Y-34685
X54870Y-40185
X54870Y-43685
X54870Y-44685
X54936Y-31185
X54961Y-42185
X55116Y-33708
X55124Y-37114
X55228Y-30043
X55370Y-34942
X55370Y-38185
X55370Y-43185
X55370Y-43685
X55370Y-45185
X55429Y-39657
X55487Y-41068
X55870Y-45185
X55932Y-30753
X56075Y-49807
X56130Y-51299
X56236Y-46669
X56287Y-43071
X56370Y-33685
X56370Y-37028
X56370Y-38685
X56384Y-35684
X56539Y-50917
X56602Y-36250
X56611Y-49926
X56616Y-33185
X56732Y-51913
X56777Y-22780
X56803Y-52343
X56870Y-41685
X56941Y-33180
X57291Y-30209
X57370Y-23185
X57370Y-34942
X57370Y-35685
X57457Y-46138
X57512Y-43598
X57547Y-43098
X57547Y-51906
X57638Y-47551
X57676Y-44111
X58327Y-48323
X58358Y-45441
X58370Y-39185
X58370Y-51685
X58480Y-42571
X58512Y-43350
X58606Y-47691
X58870Y-23096
X58870Y-39185
X59370Y-47685
X59646Y-49185
X59650Y-30201
X59689Y-43091
X59713Y-43606
X59768Y-41862
X59870Y-21685
X59870Y-23685
X60075Y-36744
X60088Y-49778
X60157Y-39165
X60205Y-44386
X60307Y-38051
X60309Y-44835
X60370Y-34685
X60445Y-49778
X60476Y-50130
X60738Y-38627
X60859Y-50096
X60870Y-42185
X61370Y-43685
X61644Y-44571
X61890Y-42921
X62136Y-44083
X62370Y-37685
X62870Y-36685
X62870Y-40185
X62996Y-38626
X63063Y-45295
X63081Y-44035
X63213Y-45701
X63370Y-40185
X63370Y-40685
X63870Y-36185
X63996Y-38626
X64360Y-42756
X64370Y-43685
X64740Y-39575
X64870Y-40685
X66303Y-35287
X66870Y-36874
X67366Y-42480
X67732Y-47512
X72370Y-36685
X72370Y-40185
X74320Y-28735
X74370Y-29185
X74370Y-29185
X74370Y-31154
X74370Y-44185
X74370Y-46154
X74370Y-46154
X74370Y-46154
X74370Y-46685
X74870Y-43185
X74870Y-44185
X75870Y-40185
X76677Y-38559
>>>>>>> origin/master
T2
X41870Y-26035
X41870Y-26528
X41870Y-27020
X41870Y-27512
X41870Y-29185
X41870Y-29677
X41870Y-30169
X41870Y-30661
X41870Y-31154
X41870Y-33685
X41870Y-34177
X41870Y-36193
X41870Y-36685
X41870Y-39193
X41870Y-39685
X41870Y-41685
X41870Y-42177
X41870Y-44217
X41870Y-44709
X41870Y-45201
X41870Y-45693
X41870Y-46185
X41870Y-47858
X41870Y-48350
X41870Y-48843
X41870Y-49335
X74370Y-29185
X74370Y-29677
X74370Y-30169
X74370Y-30661
X74370Y-31154
X74370Y-44185
X74370Y-44677
X74370Y-45169
X74370Y-45661
X74370Y-46154
T3
X51370Y-21185
X51370Y-22185
X52370Y-21185
X52370Y-22185
X53370Y-21185
X53370Y-22185
X54370Y-21185
X54370Y-22185
X56268Y-21185
X56268Y-22185
X57268Y-21185
X57268Y-22185
X58268Y-21185
X58268Y-22185
X59268Y-21185
X59268Y-22185
X60268Y-21185
X60268Y-22185
X62370Y-21185
X62370Y-22185
X63370Y-21185
X63370Y-22185
X64370Y-21185
X64370Y-22185
T4
X41413Y-22618
X41413Y-51618
X75165Y-21618
X75165Y-53118
T0
M30
