M48
;DRILL file {KiCad 4.0.7} date Saturday, February 17, 2018 'PMt' 02:47:38 PM
;FORMAT={-:-/ absolute / inch / decimal}
FMAT,2
INCH,TZ
T1C0.012
T2C0.024
T3C0.039
T4C0.126
%
G90
G05
M72
T1
X3.987Y-3.9685
X3.987Y-4.0685
X3.987Y-4.1685
X4.0368Y-3.7143
X4.037Y-3.5685
X4.187Y-2.8185
X4.187Y-3.2185
X4.187Y-4.1685
X4.187Y-4.4217
X4.237Y-3.2685
X4.237Y-3.4685
X4.237Y-3.7685
X4.237Y-4.0685
X4.337Y-2.2685
X4.337Y-2.5587
X4.4124Y-2.7996
X4.4256Y-2.2232
X4.437Y-3.8587
X4.537Y-3.7185
X4.587Y-3.5685
X4.6124Y-2.5439
X4.6327Y-2.372
X4.637Y-2.4685
X4.637Y-3.9185
X4.637Y-4.0185
X4.6587Y-2.3163
X4.687Y-4.1685
X4.687Y-4.2185
X4.8215Y-4.2685
X4.9319Y-4.2354
X4.9369Y-4.3584
X5.0303Y-4.0402
X5.035Y-4.3622
X5.037Y-2.0685
X5.0431Y-2.2624
X5.0583Y-3.9161
X5.087Y-4.1185
X5.087Y-4.2185
X5.087Y-4.2685
X5.1157Y-4.0919
X5.137Y-4.3185
X5.137Y-4.5185
X5.137Y-4.5685
X5.1661Y-2.3852
X5.1685Y-2.336
X5.1736Y-3.9988
X5.187Y-3.1685
X5.187Y-3.8185
X5.2356Y-3.1185
X5.237Y-2.2717
X5.237Y-3.4685
X5.237Y-3.9185
X5.237Y-4.0673
X5.2393Y-4.3349
X5.287Y-3.1185
X5.287Y-3.7185
X5.287Y-4.0185
X5.3004Y-4.5795
X5.3035Y-4.4361
X5.3275Y-3.359
X5.337Y-3.8185
X5.337Y-4.0185
X5.337Y-4.3685
X5.337Y-4.4685
X5.337Y-4.8685
X5.3543Y-4.1008
X5.3572Y-4.0427
X5.387Y-3.5619
X5.387Y-3.6185
X5.387Y-3.6685
X5.387Y-3.7185
X5.387Y-3.9185
X5.387Y-4.1185
X5.387Y-4.1685
X5.387Y-4.2185
X5.387Y-4.3685
X5.387Y-4.4685
X5.4062Y-4.1435
X5.4062Y-4.1935
X5.4173Y-4.2331
X5.437Y-3.6685
X5.437Y-3.8185
X5.437Y-4.3685
X5.437Y-4.4685
X5.4484Y-4.9799
X5.4487Y-4.0068
X5.4508Y-4.7709
X5.487Y-3.4685
X5.487Y-4.0185
X5.487Y-4.3685
X5.487Y-4.4685
X5.4936Y-3.1185
X5.4961Y-4.2185
X5.5116Y-3.3708
X5.5124Y-3.7114
X5.5228Y-3.0043
X5.537Y-3.4942
X5.537Y-3.8185
X5.537Y-4.3185
X5.537Y-4.3685
X5.537Y-4.5185
X5.5487Y-4.1068
X5.587Y-4.5185
X5.5932Y-3.0753
X5.6075Y-4.9807
X5.6236Y-4.6669
X5.6287Y-4.3071
X5.637Y-3.3685
X5.637Y-3.7028
X5.637Y-3.8685
X5.6384Y-3.5684
X5.6602Y-3.625
X5.6611Y-4.9926
X5.6616Y-3.3185
X5.6777Y-2.278
X5.687Y-4.1685
X5.6941Y-3.318
X5.7291Y-3.0209
X5.737Y-2.3185
X5.737Y-3.4942
X5.737Y-3.5685
X5.7457Y-4.6138
X5.7512Y-4.3598
X5.7547Y-4.3098
X5.7638Y-4.7551
X5.7676Y-4.4111
X5.8327Y-4.8323
X5.8358Y-4.5441
X5.837Y-3.9185
X5.837Y-5.1685
X5.848Y-4.2571
X5.8512Y-4.335
X5.8606Y-4.7691
X5.887Y-2.3096
X5.887Y-3.9185
X5.937Y-4.7685
X5.9378Y-5.1953
X5.9646Y-4.9185
X5.965Y-3.0201
X5.9689Y-4.3091
X5.9713Y-4.3606
X5.987Y-2.1685
X5.987Y-2.3685
X6.0075Y-3.6744
X6.0088Y-4.9778
X6.0157Y-3.9165
X6.0205Y-4.4386
X6.0307Y-3.8051
X6.0309Y-4.4835
X6.037Y-3.4685
X6.0445Y-4.9778
X6.0476Y-5.013
X6.0738Y-3.8627
X6.0859Y-5.0096
X6.087Y-4.2185
X6.137Y-4.3685
X6.1644Y-4.4571
X6.189Y-4.2921
X6.2136Y-4.4083
X6.237Y-3.7685
X6.287Y-3.6685
X6.287Y-4.0185
X6.2996Y-3.8626
X6.3063Y-4.5295
X6.3081Y-4.4035
X6.3213Y-4.5701
X6.337Y-4.0185
X6.337Y-4.0685
X6.387Y-3.6185
X6.3996Y-3.8626
X6.436Y-4.2756
X6.437Y-4.3685
X6.474Y-3.9575
X6.487Y-4.0685
X6.6303Y-3.5287
X6.687Y-3.6874
X6.7366Y-4.248
X6.7732Y-4.7512
X7.237Y-3.6685
X7.237Y-4.0185
X7.432Y-2.8735
X7.437Y-2.9185
X7.437Y-2.9185
X7.437Y-3.1154
X7.437Y-4.4185
X7.437Y-4.6154
X7.437Y-4.6154
X7.437Y-4.6154
X7.437Y-4.6685
X7.487Y-4.3185
X7.487Y-4.4185
X7.587Y-4.0185
X7.6677Y-3.8559
T2
X4.187Y-2.6035
X4.187Y-2.6528
X4.187Y-2.702
X4.187Y-2.7512
X4.187Y-2.9185
X4.187Y-2.9677
X4.187Y-3.0169
X4.187Y-3.0661
X4.187Y-3.1154
X4.187Y-3.3685
X4.187Y-3.4177
X4.187Y-3.6193
X4.187Y-3.6685
X4.187Y-3.9193
X4.187Y-3.9685
X4.187Y-4.1685
X4.187Y-4.2177
X4.187Y-4.4217
X4.187Y-4.4709
X4.187Y-4.5201
X4.187Y-4.5693
X4.187Y-4.6185
X4.187Y-4.7858
X4.187Y-4.835
X4.187Y-4.8843
X4.187Y-4.9335
X7.437Y-2.9185
X7.437Y-2.9677
X7.437Y-3.0169
X7.437Y-3.0661
X7.437Y-3.1154
X7.437Y-4.4185
X7.437Y-4.4677
X7.437Y-4.5169
X7.437Y-4.5661
X7.437Y-4.6154
T3
X5.137Y-2.1185
X5.137Y-2.2185
X5.237Y-2.1185
X5.237Y-2.2185
X5.337Y-2.1185
X5.337Y-2.2185
X5.437Y-2.1185
X5.437Y-2.2185
X5.6268Y-2.1185
X5.6268Y-2.2185
X5.7268Y-2.1185
X5.7268Y-2.2185
X5.8268Y-2.1185
X5.8268Y-2.2185
X5.9268Y-2.1185
X5.9268Y-2.2185
X6.0268Y-2.1185
X6.0268Y-2.2185
X6.237Y-2.1185
X6.237Y-2.2185
X6.337Y-2.1185
X6.337Y-2.2185
X6.437Y-2.1185
X6.437Y-2.2185
T4
X4.1413Y-2.2618
X4.1413Y-5.1618
X7.5165Y-2.1618
X7.5165Y-5.3118
T0
M30
