M48
;DRILL file {KiCad 4.0.7} date 02/17/18 23:48:55
;FORMAT={2:4/ absolute / inch / suppress leading zeros}
FMAT,2
INCH,TZ
T1C0.012
T2C0.024
T3C0.039
T4C0.126
%
G90
G05
M72
T1
X39870Y-39685
X39870Y-40685
X39870Y-41685
X40368Y-37143
X40370Y-35685
X41870Y-28185
X41870Y-32185
X41870Y-41685
X41870Y-44217
X42370Y-32685
X42370Y-34685
X42370Y-37685
X42370Y-40685
X43370Y-22685
X43370Y-25587
X44124Y-27996
X44256Y-22232
X44370Y-38587
X45370Y-37185
X45870Y-35685
X46124Y-25439
X46327Y-23720
X46370Y-24685
X46370Y-39185
X46370Y-40185
X46587Y-23163
X46870Y-41685
X46870Y-42185
X48215Y-42685
X49319Y-42354
X49369Y-43584
X49870Y-53232
X50201Y-42685
X50303Y-40402
X50370Y-20685
X50398Y-49921
X50417Y-36665
X50431Y-22624
X50634Y-39083
X50807Y-36795
X50870Y-43886
X50870Y-40919
X50870Y-43055
X50870Y-42185
X50878Y-45431
X50886Y-42681
X50969Y-41280
X51370Y-43185
X51370Y-45185
X51370Y-45685
X51417Y-51122
X51594Y-40673
X51661Y-23852
X51685Y-23360
X51736Y-39988
X51870Y-31685
X51870Y-38185
X52356Y-31185
X52370Y-22717
X52370Y-34685
X52370Y-39185
X52370Y-40673
X52393Y-43349
X52870Y-31185
X52870Y-37185
X52870Y-40185
X53004Y-45795
X53035Y-44361
X53275Y-33590
X53291Y-51642
X53370Y-38185
X53370Y-40185
X53370Y-43685
X53370Y-44685
X53370Y-48685
X53543Y-41008
X53572Y-40427
X53870Y-35619
X53870Y-36185
X53870Y-36685
X53870Y-37185
X53870Y-39185
X53870Y-41185
X53870Y-41685
X53870Y-42185
X53870Y-43685
X53870Y-44685
X54062Y-41435
X54062Y-41935
X54173Y-42331
X54370Y-36685
X54370Y-38185
X54370Y-43685
X54370Y-44685
X54484Y-49799
X54487Y-40068
X54508Y-47709
X54870Y-34685
X54870Y-40185
X54870Y-43685
X54870Y-44685
X54936Y-31185
X54961Y-42185
X55116Y-33708
X55124Y-37114
X55228Y-30043
X55370Y-34942
X55370Y-38185
X55370Y-43185
X55370Y-43685
X55370Y-45185
X55429Y-39657
X55487Y-41068
X55870Y-45185
X55932Y-30753
X56075Y-49807
X56130Y-51299
X56236Y-46669
X56287Y-43071
X56370Y-33685
X56370Y-37028
X56370Y-38685
X56384Y-35684
X56539Y-50917
X56602Y-36250
X56611Y-49926
X56616Y-33185
X56732Y-51913
X56777Y-22780
X56803Y-52343
X56870Y-41685
X56941Y-33180
X57291Y-30209
X57370Y-23185
X57370Y-34942
X57370Y-35685
X57457Y-46138
X57512Y-43598
X57547Y-43098
X57547Y-51906
X57638Y-47551
X57676Y-44111
X58327Y-48323
X58358Y-45441
X58370Y-39185
X58370Y-51685
X58480Y-42571
X58512Y-43350
X58606Y-47691
X58870Y-23096
X58870Y-39185
X59370Y-47685
X59646Y-49185
X59650Y-30201
X59689Y-43091
X59713Y-43606
X59768Y-41862
X59870Y-21685
X59870Y-23685
X60075Y-36744
X60088Y-49778
X60157Y-39165
X60205Y-44386
X60307Y-38051
X60309Y-44835
X60370Y-34685
X60445Y-49778
X60476Y-50130
X60738Y-38627
X60859Y-50096
X60870Y-42185
X61370Y-43685
X61644Y-44571
X61890Y-42921
X62136Y-44083
X62370Y-37685
X62870Y-36685
X62870Y-40185
X62996Y-38626
X63063Y-45295
X63081Y-44035
X63213Y-45701
X63370Y-40185
X63370Y-40685
X63870Y-36185
X63996Y-38626
X64360Y-42756
X64370Y-43685
X64740Y-39575
X64870Y-40685
X66303Y-35287
X66870Y-36874
X67366Y-42480
X67732Y-47512
X72370Y-36685
X72370Y-40185
X74320Y-28735
X74370Y-29185
X74370Y-29185
X74370Y-31154
X74370Y-44185
X74370Y-46154
X74370Y-46154
X74370Y-46154
X74370Y-46685
X74870Y-43185
X74870Y-44185
X75870Y-40185
X76677Y-38559
T2
X41870Y-26035
X41870Y-26528
X41870Y-27020
X41870Y-27512
X41870Y-29185
X41870Y-29677
X41870Y-30169
X41870Y-30661
X41870Y-31154
X41870Y-33685
X41870Y-34177
X41870Y-36193
X41870Y-36685
X41870Y-39193
X41870Y-39685
X41870Y-41685
X41870Y-42177
X41870Y-44217
X41870Y-44709
X41870Y-45201
X41870Y-45693
X41870Y-46185
X41870Y-47858
X41870Y-48350
X41870Y-48843
X41870Y-49335
X74370Y-29185
X74370Y-29677
X74370Y-30169
X74370Y-30661
X74370Y-31154
X74370Y-44185
X74370Y-44677
X74370Y-45169
X74370Y-45661
X74370Y-46154
T3
X51370Y-21185
X51370Y-22185
X52370Y-21185
X52370Y-22185
X53370Y-21185
X53370Y-22185
X54370Y-21185
X54370Y-22185
X56268Y-21185
X56268Y-22185
X57268Y-21185
X57268Y-22185
X58268Y-21185
X58268Y-22185
X59268Y-21185
X59268Y-22185
X60268Y-21185
X60268Y-22185
X62370Y-21185
X62370Y-22185
X63370Y-21185
X63370Y-22185
X64370Y-21185
X64370Y-22185
T4
X41413Y-22618
X41413Y-51618
X75165Y-21618
X75165Y-53118
T0
M30
